<?xml version="1.0" encoding="UTF-8" standalone="no"?>


<svg
   version="1.1"
   id="Layer_1"
   x="0px"
   y="0px"
   viewBox="0 0 1331.5756 720.00002"
   xml:space="preserve"
   sodipodi:docname="Logotipo-Xignux-Aniversario_FondoNegro.svg"
   width="1331.5756"
   height="720"
   inkscape:version="1.1 (c68e22c387, 2021-05-23)"
   xmlns:inkscape="http://www.inkscape.org/namespaces/inkscape"
   xmlns:sodipodi="http://sodipodi.sourceforge.net/DTD/sodipodi-0.dtd"
   xmlns:xlink="http://www.w3.org/1999/xlink"
   xmlns="http://www.w3.org/2000/svg"
   xmlns:svg="http://www.w3.org/2000/svg"><defs
   id="defs49" /><sodipodi:namedview
   id="namedview47"
   pagecolor="#ffffff"
   bordercolor="#666666"
   borderopacity="1.0"
   inkscape:pageshadow="2"
   inkscape:pageopacity="0.0"
   inkscape:pagecheckerboard="0"
   showgrid="false"
   fit-margin-top="0"
   fit-margin-left="0"
   fit-margin-right="0"
   fit-margin-bottom="0"
   inkscape:zoom="0.33488938"
   inkscape:cx="855.50638"
   inkscape:cy="279.19667"
   inkscape:window-width="1920"
   inkscape:window-height="1017"
   inkscape:window-x="1912"
   inkscape:window-y="-8"
   inkscape:window-maximized="1"
   inkscape:current-layer="Layer_1" />
<style
   type="text/css"
   id="style2">
	.st0{fill:#FFFFFF;}
	.st1{clip-path:url(#SVGID_2_);fill:#FFFFFF;}
</style>

<g
   id="g44"
   style="fill:#000000"
   transform="matrix(3.7757687,0,0,3.7757687,-169.15444,-151.06983)">
	<defs
   id="defs7">
		<rect
   id="SVGID_1_"
   width="598.59998"
   height="269.39999"
   x="0"
   y="0" />
	</defs>
	<clipPath
   id="SVGID_2_">
		<use
   xlink:href="#SVGID_1_"
   style="overflow:visible"
   id="use9"
   x="0"
   y="0"
   width="100%"
   height="100%" />
	</clipPath>
	
	
	
	
	
	
	
	<path
   class="st1"
   d="m 226.2,202.3 c -2.6,0 -5.4,0 -5.4,-3.1 v -30.5 c 0,-10.3 -5.7,-14.2 -13.6,-14.2 -6.7,0 -12.3,4.7 -17.2,8 v -7 l -1.2,-1 c -1.2,0.5 -2.5,1.1 -3.8,1.7 -2.8,1.2 -6.9,1.9 -11.4,1.9 h -3.4 c -1.7,0 -3.6,0 -4.9,-0.7 -4.3,-2.1 -8.4,-2.9 -13.4,-2.9 -10.1,0 -21.1,6.5 -21.1,17.6 0,7.2 4.5,12.5 10.8,15.4 l -9.6,6.6 c 0,7.5 3.6,11 11.1,11.7 v 0.2 c -8.1,3.4 -13,5.6 -13,12.9 0,8.1 10.8,11.8 21.1,11.8 11.7,0 28.6,-5.9 28.6,-22.9 0,-0.9 -0.1,-1.8 -0.2,-2.6 1.6,0 3.2,-0.1 4.9,-0.1 1.9,0 3.7,0 5.6,0.1 l 0.1,-5.6 v -33.2 c 2.4,-1.5 6.5,-3.7 10.1,-3.7 5,0 8.4,2.5 8.4,9.3 v 27.5 c 0,2.9 -3.2,2.9 -5.4,2.9 h -1.1 v 3.3 c 4.4,-0.2 8.7,-0.4 13.1,-0.4 4.2,0 8.3,0.2 12.4,0.4 v -3.3 h -1.5 z m -74.6,-44.5 c 7,0 9,10.1 9,15.5 0,5.5 -1.5,12.2 -8.3,12.2 -6.9,0 -9.5,-9 -9.5,-14.5 0.1,-5.6 1.6,-13.2 8.8,-13.2 m 1.4,69 c -8,0 -14.1,-2.4 -14.1,-9.8 0,-8.4 11.2,-9.7 18.1,-9.7 5.9,0 13.6,0.8 13.6,7.9 0,7.6 -10.2,11.6 -17.6,11.6 M 177.6,199 c 0,0.7 -0.1,1.2 -0.3,1.6 -2.6,-3.3 -7.2,-4.7 -12.1,-4.7 -4.8,0 -9.7,0.6 -14.5,0.6 -4.3,0 -8.7,-0.1 -8.4,-5.7 l 2.6,-2.2 c 2.3,0.7 4.7,1 7.2,1 10.5,0 20.8,-6.8 20.8,-17.4 0,-2.9 -0.5,-5.5 -1.8,-8.5 1.3,0.3 2.5,0.8 3.8,1.2 2.4,0.7 2.6,1.3 2.6,3.1 v 31 z"
   clip-path="url(#SVGID_2_)"
   id="path26"
   style="fill:#696a6d;fill-opacity:0.988235" />
	<path
   class="st1"
   d="m 113.9,139.7 c -3.7,0 -6.6,-2.9 -6.6,-6.6 0,-3.6 2.9,-6.6 6.6,-6.6 3.7,0 6.6,3 6.6,6.6 0,3.6 -2.9,6.6 -6.6,6.6"
   clip-path="url(#SVGID_2_)"
   id="path28"
   style="fill:#696a6d;fill-opacity:0.988235" />
	<path
   class="st1"
   d="m 284,205 c -4.7,0 -16.3,-0.2 -19.4,1.1 l -1.1,-0.9 v -7.7 c -4.7,3.9 -10.9,8.6 -17.2,8.6 -9.7,0 -13.2,-5.3 -13.2,-12.7 V 164 c 0,-1.6 -0.3,-2.3 -2.3,-2.8 l -4.6,-1.3 v -2.6 c 6.3,-0.3 13.2,-1.4 18.5,-3.1 l 1.1,0.7 c -0.2,3 -0.5,6.4 -0.5,9.8 v 24 c 0,6.4 3,8.9 8,8.9 4,0 7.7,-2.5 10.2,-4.6 v -28 c 0,-2.3 -0.4,-2.7 -2.6,-3.5 l -5.4,-1.7 v -2.6 c 5.5,-0.3 14.5,-1.1 19.7,-3.1 l 1.1,0.7 c -0.4,3 -0.5,6.4 -0.5,9.8 v 34.1 c 0,2.9 0.6,3.9 2.9,3.9 h 3.7 v 0 c 2.5,0 4.7,-1 5.8,-2.3 l 15.3,-16.7 -14.1,-19.3 c -2.2,-2.6 -3.7,-4.1 -7.3,-4.1 H 281 v -3.3 c 4.9,0.2 9.7,0.4 14.5,0.4 1.2,0 2.4,0 3.6,0 l 6.7,8.7 6,7.8 6.1,-7.3 7.8,-9.2 c 0.4,0 0.8,0 1.2,0 2,0 3.8,-0.1 5.8,-0.2 L 314.3,177.4 330,199 c 1.7,2.4 4.1,3.3 7.1,3.3 h 0.9 v 3.3 c -4,-0.2 -8,-0.4 -12,-0.4 -2.2,0 -4.3,0 -6.5,0.1 l -5,-6.8 -8.5,-11.4 -6.9,8.5 -7.9,9.7 c -0.3,-0.2 -7,-0.3 -7.2,-0.3"
   clip-path="url(#SVGID_2_)"
   id="path30"
   style="fill:#696a6d;fill-opacity:0.988235" />
	<path
   class="st1"
   d="m 101.8,202 h 0.3 c 3.1,0 5.6,0 5.6,-3.3 V 168 c 0,-1.7 -0.2,-2.4 -2.6,-3 -1.3,-0.3 -2.5,-0.8 -3.8,-1.1 v -2.6 c 3.4,-0.9 7.1,-2.2 9.9,-3.1 2.5,-0.9 5.1,-2.3 7.5,-3.3 l 1.2,1 v 43.5 c 0,2.6 2.5,2.6 5.2,2.6 h 1.6 v 3.3 c -4.1,-0.2 -8.2,-0.4 -12.4,-0.4 -4.3,0 -8.4,0.3 -12.5,0.3 -4,0 -7.8,0 -11.8,0 -2.2,0 -4.3,0 -6.5,0.1 l -5.2,-7.1 -8.5,-11.4 -7,8.5 -7.9,9.7 c -0.2,0 -0.4,0 -0.6,0 -2,0 -5.1,0.1 -7.1,0.2 L 67.3,183.4 53.2,164.1 C 51,161.5 49.5,160 45.9,160 h -1.1 v -3.3 c 4.9,0.2 9.7,0.4 14.5,0.4 1.2,0 2.4,0 3.6,0 l 6.7,8.7 6,7.8 6.1,-7.3 7.8,-9.2 c 0.4,0 0.8,0 1.2,0 2,0 3.8,-0.1 5.8,-0.2 L 78.2,177 94,198.7 c 1.7,2.4 4.1,3.3 7.1,3.3 z"
   clip-path="url(#SVGID_2_)"
   id="path32"
   style="fill:#696a6d;fill-opacity:0.988235" />
	<path
   class="st1"
   d="m 339,127.1 c -3.4,-9.4 -13.3,-14.8 -23,-12.5 l -13.8,4.3 v 0 c -4,0.9 -8.1,-1.2 -9.8,-4.8 l -6.6,4.2 c -4.8,3.7 -6.1,10.7 -2.8,15.9 3.3,5.2 10.1,7 15.5,4.1 v 0 l 16.4,-10.5 c 7.7,-4.1 16.7,-4.1 24.1,-0.7 z"
   clip-path="url(#SVGID_2_)"
   id="path34"
   style="fill:#f79f38;fill-opacity:1" />
	<path
   class="st1"
   d="m 395.6,62.2 c -3.4,-5.3 -10.3,-7 -15.8,-4 v 0 l -14.5,9.3 c 0,0 0,0 0,0 -8,5.1 -17.7,5.4 -25.6,1.6 3.5,9.9 14.2,15.4 24.3,12.3 0,0 0,0 0,0 l 12.2,-3.8 v 0 c 4.1,-1 8.2,1 10,4.7 l 5.3,-3.4 c 0.2,-0.1 1.1,-0.7 1.1,-0.7 v 0 c 5,-3.6 6.4,-10.7 3,-16"
   clip-path="url(#SVGID_2_)"
   id="path36"
   style="fill:#f79f38;fill-opacity:1" />
	<path
   class="st1"
   d="m 299.3,57.7 9.4,14.7 c 5,7.9 5.3,17.6 1.5,25.5 9.9,-3.5 15.3,-14.1 12.2,-24.2 l -3.8,-12.4 v 0 c -1,-4.1 1,-8.2 4.8,-10 L 320,46 c -0.1,-0.2 -0.7,-1.1 -0.7,-1.1 v 0 c -3.7,-5.1 -10.7,-6.4 -16,-3 -5.3,3.4 -7,10.3 -4,15.8 z"
   clip-path="url(#SVGID_2_)"
   id="path38"
   style="fill:#ed3f41;fill-opacity:1" />
	<path
   class="st1"
   d="m 379.5,138.9 -9,-14.1 c -0.1,-0.3 -0.3,-0.5 -0.5,-0.8 -5.1,-7.9 -5.4,-17.6 -1.6,-25.5 l -0.5,0.2 c -9.5,3.7 -14.7,14.2 -11.7,24.1 0.1,0.2 0.1,0.5 0.2,0.7 l 3.7,11.9 v 0 c 0.9,4 -1.2,8.1 -4.8,9.8 l 4.2,6.6 c 3.7,4.8 10.7,6.1 15.9,2.8 5.2,-3.5 6.9,-10.3 4.1,-15.7 z"
   clip-path="url(#SVGID_2_)"
   id="path40"
   style="fill:#ed3f41;fill-opacity:1" />
	<path
   class="st1"
   d="m 345,157.7 c 1.3,0 2.4,0.5 3.3,1.4 0.9,0.9 1.4,2 1.4,3.3 0,1.3 -0.5,2.4 -1.4,3.3 -0.9,0.9 -2,1.4 -3.3,1.4 -1.3,0 -2.4,-0.5 -3.3,-1.4 -0.9,-0.9 -1.4,-2 -1.4,-3.3 0,-1.3 0.5,-2.4 1.4,-3.3 0.9,-0.9 2,-1.4 3.3,-1.4 m 5.4,4.7 c 0,-1.5 -0.5,-2.8 -1.6,-3.8 -1.1,-1.1 -2.3,-1.6 -3.9,-1.6 -1.5,0 -2.8,0.5 -3.8,1.6 -1.1,1.1 -1.6,2.3 -1.6,3.8 0,1.5 0.5,2.8 1.6,3.9 1.1,1.1 2.3,1.6 3.8,1.6 1.5,0 2.8,-0.5 3.9,-1.6 1.1,-1.2 1.6,-2.4 1.6,-3.9 m -4,-1.2 c 0,0.5 -0.2,0.8 -0.6,0.9 -0.2,0.1 -0.6,0.1 -1,0.1 h -1 v -2.1 h 0.9 c 0.6,0 1,0.1 1.3,0.2 0.3,0.2 0.4,0.5 0.4,0.9 m -3.6,-1.8 v 6 h 1 V 163 h 0.8 c 0.6,0 1,0.1 1.2,0.2 0.4,0.2 0.6,0.7 0.6,1.4 v 0.5 0.2 c 0,0 0,0 0,0.1 0,0 0,0 0,0.1 h 1 v -0.1 c 0,0 0,-0.2 -0.1,-0.3 0,-0.2 0,-0.3 0,-0.4 v -0.4 c 0,-0.3 -0.1,-0.6 -0.3,-0.9 -0.2,-0.3 -0.6,-0.5 -1,-0.6 0.4,-0.1 0.7,-0.2 0.9,-0.3 0.4,-0.3 0.6,-0.6 0.6,-1.2 0,-0.8 -0.3,-1.3 -0.9,-1.5 -0.3,-0.1 -0.9,-0.2 -1.6,-0.2 h -2.2 z"
   clip-path="url(#SVGID_2_)"
   id="path42"
   style="fill:#696a6d;fill-opacity:0.988235" />
</g>
</svg>
