<svg width="43" height="43" viewBox="0 0 43 43" fill="none" xmlns="http://www.w3.org/2000/svg">
<path d="M34.0416 11.6458H28.6666V9.85413C28.6666 8.42859 28.1004 7.06144 27.0923 6.05343C26.0843 5.04542 24.7172 4.47913 23.2916 4.47913H19.7083C18.2828 4.47913 16.9156 5.04542 15.9076 6.05343C14.8996 7.06144 14.3333 8.42859 14.3333 9.85413V11.6458H8.95831C7.53277 11.6458 6.16562 12.2121 5.15761 13.2201C4.14961 14.2281 3.58331 15.5953 3.58331 17.0208V33.1458C3.58331 34.5713 4.14961 35.9385 5.15761 36.9465C6.16562 37.9545 7.53277 38.5208 8.95831 38.5208H34.0416C35.4672 38.5208 36.8343 37.9545 37.8423 36.9465C38.8504 35.9385 39.4166 34.5713 39.4166 33.1458V17.0208C39.4166 15.5953 38.8504 14.2281 37.8423 13.2201C36.8343 12.2121 35.4672 11.6458 34.0416 11.6458ZM17.9166 9.85413C17.9166 9.37895 18.1054 8.92323 18.4414 8.58723C18.7774 8.25122 19.2331 8.06246 19.7083 8.06246H23.2916C23.7668 8.06246 24.2225 8.25122 24.5585 8.58723C24.8945 8.92323 25.0833 9.37895 25.0833 9.85413V11.6458H17.9166V9.85413ZM35.8333 33.1458C35.8333 33.621 35.6446 34.0767 35.3085 34.4127C34.9725 34.7487 34.5168 34.9375 34.0416 34.9375H8.95831C8.48313 34.9375 8.02742 34.7487 7.69141 34.4127C7.35541 34.0767 7.16665 33.621 7.16665 33.1458V23.2916C11.7287 25.1015 16.592 26.0316 21.5 26.0329C26.4077 26.0299 31.2708 25.0998 35.8333 23.2916V33.1458ZM35.8333 19.3679C31.3154 21.3526 26.4346 22.3775 21.5 22.3775C16.5654 22.3775 11.6845 21.3526 7.16665 19.3679V17.0208C7.16665 16.5456 7.35541 16.0899 7.69141 15.7539C8.02742 15.4179 8.48313 15.2291 8.95831 15.2291H34.0416C34.5168 15.2291 34.9725 15.4179 35.3085 15.7539C35.6446 16.0899 35.8333 16.5456 35.8333 17.0208V19.3679Z" fill="#5A45A8"/>
</svg>
