<svg width="52" height="52" viewBox="0 0 52 52" fill="none" xmlns="http://www.w3.org/2000/svg">
<path d="M15.1667 21.6667H19.5C20.0747 21.6667 20.6258 21.4384 21.0321 21.0321C21.4384 20.6258 21.6667 20.0747 21.6667 19.5C21.6667 18.9254 21.4384 18.3743 21.0321 17.968C20.6258 17.5616 20.0747 17.3334 19.5 17.3334H15.1667C14.5921 17.3334 14.041 17.5616 13.6346 17.968C13.2283 18.3743 13 18.9254 13 19.5C13 20.0747 13.2283 20.6258 13.6346 21.0321C14.041 21.4384 14.5921 21.6667 15.1667 21.6667ZM45.5 8.66671H28.1667V6.50004C28.1667 5.92541 27.9384 5.3743 27.5321 4.96798C27.1258 4.56165 26.5747 4.33337 26 4.33337C25.4254 4.33337 24.8743 4.56165 24.468 4.96798C24.0616 5.3743 23.8334 5.92541 23.8334 6.50004V8.66671H6.50004C5.9254 8.66671 5.3743 8.89498 4.96798 9.30131C4.56165 9.70764 4.33337 10.2587 4.33337 10.8334V32.5C4.33337 34.2239 5.01819 35.8773 6.23718 37.0962C7.45617 38.3152 9.10947 39 10.8334 39H20.7784L15.795 43.9617C15.592 44.1631 15.4308 44.4028 15.3208 44.6668C15.2108 44.9308 15.1541 45.214 15.1541 45.5C15.1541 45.7861 15.2108 46.0693 15.3208 46.3333C15.4308 46.5973 15.592 46.837 15.795 47.0384C15.9965 47.2415 16.2361 47.4026 16.5001 47.5126C16.7642 47.6226 17.0473 47.6793 17.3334 47.6793C17.6194 47.6793 17.9026 47.6226 18.1666 47.5126C18.4307 47.4026 18.6703 47.2415 18.8717 47.0384L23.8334 42.055V45.5C23.8334 46.0747 24.0616 46.6258 24.468 47.0321C24.8743 47.4384 25.4254 47.6667 26 47.6667C26.5747 47.6667 27.1258 47.4384 27.5321 47.0321C27.9384 46.6258 28.1667 46.0747 28.1667 45.5V42.055L33.1284 47.0384C33.3298 47.2415 33.5694 47.4026 33.8335 47.5126C34.0975 47.6226 34.3807 47.6793 34.6667 47.6793C34.9527 47.6793 35.2359 47.6226 35.5 47.5126C35.764 47.4026 36.0036 47.2415 36.205 47.0384C36.4081 46.837 36.5693 46.5973 36.6793 46.3333C36.7893 46.0693 36.8459 45.7861 36.8459 45.5C36.8459 45.214 36.7893 44.9308 36.6793 44.6668C36.5693 44.4028 36.4081 44.1631 36.205 43.9617L31.2217 39H41.1667C42.8906 39 44.5439 38.3152 45.7629 37.0962C46.9819 35.8773 47.6667 34.2239 47.6667 32.5V10.8334C47.6667 10.2587 47.4384 9.70764 47.0321 9.30131C46.6258 8.89498 46.0747 8.66671 45.5 8.66671ZM43.3334 32.5C43.3334 33.0747 43.1051 33.6258 42.6988 34.0321C42.2924 34.4384 41.7413 34.6667 41.1667 34.6667H10.8334C10.2587 34.6667 9.70764 34.4384 9.30131 34.0321C8.89498 33.6258 8.66671 33.0747 8.66671 32.5V13H43.3334V32.5ZM15.1667 30.3334H28.1667C28.7413 30.3334 29.2924 30.1051 29.6988 29.6988C30.1051 29.2924 30.3334 28.7413 30.3334 28.1667C30.3334 27.5921 30.1051 27.041 29.6988 26.6346C29.2924 26.2283 28.7413 26 28.1667 26H15.1667C14.5921 26 14.041 26.2283 13.6346 26.6346C13.2283 27.041 13 27.5921 13 28.1667C13 28.7413 13.2283 29.2924 13.6346 29.6988C14.041 30.1051 14.5921 30.3334 15.1667 30.3334Z" fill="#5A45A8"/>
</svg>
