<svg width="52" height="52" viewBox="0 0 52 52" fill="none" xmlns="http://www.w3.org/2000/svg">
<path d="M30.3333 19.5H21.6666C21.092 19.5 20.5409 19.7283 20.1346 20.1346C19.7283 20.541 19.5 21.0921 19.5 21.6667V30.3334C19.5 30.908 19.7283 31.4591 20.1346 31.8654C20.5409 32.2718 21.092 32.5 21.6666 32.5H30.3333C30.9079 32.5 31.459 32.2718 31.8654 31.8654C32.2717 31.4591 32.5 30.908 32.5 30.3334V21.6667C32.5 21.0921 32.2717 20.541 31.8654 20.1346C31.459 19.7283 30.9079 19.5 30.3333 19.5ZM28.1666 28.1667H23.8333V23.8334H28.1666V28.1667ZM45.5 28.1667C46.0746 28.1667 46.6257 27.9384 47.032 27.5321C47.4384 27.1258 47.6666 26.5747 47.6666 26C47.6666 25.4254 47.4384 24.8743 47.032 24.468C46.6257 24.0616 46.0746 23.8334 45.5 23.8334H41.1666V19.5H45.5C46.0746 19.5 46.6257 19.2718 47.032 18.8654C47.4384 18.4591 47.6666 17.908 47.6666 17.3334C47.6666 16.7587 47.4384 16.2076 47.032 15.8013C46.6257 15.395 46.0746 15.1667 45.5 15.1667H40.7766C40.4531 14.258 39.9314 13.4327 39.2494 12.7507C38.5673 12.0686 37.742 11.5469 36.8333 11.2234V6.50004C36.8333 5.9254 36.605 5.3743 36.1987 4.96798C35.7924 4.56165 35.2413 4.33337 34.6666 4.33337C34.092 4.33337 33.5409 4.56165 33.1346 4.96798C32.7283 5.3743 32.5 5.9254 32.5 6.50004V10.8334H28.1666V6.50004C28.1666 5.9254 27.9384 5.3743 27.532 4.96798C27.1257 4.56165 26.5746 4.33337 26 4.33337C25.4253 4.33337 24.8742 4.56165 24.4679 4.96798C24.0616 5.3743 23.8333 5.9254 23.8333 6.50004V10.8334H19.5V6.50004C19.5 5.9254 19.2717 5.3743 18.8654 4.96798C18.459 4.56165 17.9079 4.33337 17.3333 4.33337C16.7587 4.33337 16.2076 4.56165 15.8012 4.96798C15.3949 5.3743 15.1666 5.9254 15.1666 6.50004V11.2234C14.258 11.5469 13.4326 12.0686 12.7506 12.7507C12.0685 13.4327 11.5468 14.258 11.2233 15.1667H6.49998C5.92534 15.1667 5.37424 15.395 4.96791 15.8013C4.56159 16.2076 4.33331 16.7587 4.33331 17.3334C4.33331 17.908 4.56159 18.4591 4.96791 18.8654C5.37424 19.2718 5.92534 19.5 6.49998 19.5H10.8333V23.8334H6.49998C5.92534 23.8334 5.37424 24.0616 4.96791 24.468C4.56159 24.8743 4.33331 25.4254 4.33331 26C4.33331 26.5747 4.56159 27.1258 4.96791 27.5321C5.37424 27.9384 5.92534 28.1667 6.49998 28.1667H10.8333V32.5H6.49998C5.92534 32.5 5.37424 32.7283 4.96791 33.1346C4.56159 33.541 4.33331 34.0921 4.33331 34.6667C4.33331 35.2413 4.56159 35.7924 4.96791 36.1988C5.37424 36.6051 5.92534 36.8334 6.49998 36.8334H11.2233C11.5468 37.7421 12.0685 38.5674 12.7506 39.2494C13.4326 39.9315 14.258 40.4532 15.1666 40.7767V45.5C15.1666 46.0747 15.3949 46.6258 15.8012 47.0321C16.2076 47.4384 16.7587 47.6667 17.3333 47.6667C17.9079 47.6667 18.459 47.4384 18.8654 47.0321C19.2717 46.6258 19.5 46.0747 19.5 45.5V41.1667H23.8333V45.5C23.8333 46.0747 24.0616 46.6258 24.4679 47.0321C24.8742 47.4384 25.4253 47.6667 26 47.6667C26.5746 47.6667 27.1257 47.4384 27.532 47.0321C27.9384 46.6258 28.1666 46.0747 28.1666 45.5V41.1667H32.5V45.5C32.5 46.0747 32.7283 46.6258 33.1346 47.0321C33.5409 47.4384 34.092 47.6667 34.6666 47.6667C35.2413 47.6667 35.7924 47.4384 36.1987 47.0321C36.605 46.6258 36.8333 46.0747 36.8333 45.5V40.7767C37.742 40.4532 38.5673 39.9315 39.2494 39.2494C39.9314 38.5674 40.4531 37.7421 40.7766 36.8334H45.5C46.0746 36.8334 46.6257 36.6051 47.032 36.1988C47.4384 35.7924 47.6666 35.2413 47.6666 34.6667C47.6666 34.0921 47.4384 33.541 47.032 33.1346C46.6257 32.7283 46.0746 32.5 45.5 32.5H41.1666V28.1667H45.5ZM36.8333 34.6667C36.8333 35.2413 36.605 35.7924 36.1987 36.1988C35.7924 36.6051 35.2413 36.8334 34.6666 36.8334H17.3333C16.7587 36.8334 16.2076 36.6051 15.8012 36.1988C15.3949 35.7924 15.1666 35.2413 15.1666 34.6667V17.3334C15.1666 16.7587 15.3949 16.2076 15.8012 15.8013C16.2076 15.395 16.7587 15.1667 17.3333 15.1667H34.6666C35.2413 15.1667 35.7924 15.395 36.1987 15.8013C36.605 16.2076 36.8333 16.7587 36.8333 17.3334V34.6667Z" fill="#5A45A8"/>
</svg>
