<?xml version="1.0" encoding="UTF-8"?><svg id="Layer_2" xmlns="http://www.w3.org/2000/svg" xmlns:xlink="http://www.w3.org/1999/xlink" viewBox="0 0 2076.14 1870.04"><defs><clipPath id="clippath"><path d="M1660.23,263.55l-114.66,47.21c9.89-4.07,20.12-7.32,30.63-9.73l114.66-47.21c-10.51,2.41-20.74,5.66-30.63,9.73Z" fill="none"/></clipPath><clipPath id="clippath-1"><path d="M1791.54,358.62l114.66-47.21c-9.95-7.61-20.26-14.69-30.93-21.19-10.63-6.47-21.28-12.15-31.96-17.11l-114.66,47.21c10.67,4.95,21.33,10.63,31.96,17.11,10.67,6.5,20.97,13.58,30.93,21.19Z" fill="none"/></clipPath><linearGradient id="linear-gradient" x1="2801.57" y1="854.41" x2="2496.1" y2="35.99" gradientTransform="translate(-930.31 -1.15) skewX(-9.6)" gradientUnits="userSpaceOnUse"><stop offset="0" stop-color="#fbfbfb"/><stop offset="1" stop-color="#e5e5e5"/></linearGradient><linearGradient id="linear-gradient-2" x1="4117.65" y1="-575.84" x2="4103.83" y2="-612.86" gradientTransform="translate(955.69 -3532.93) rotate(70.6) scale(.94 -1.06) skewX(-6.99)" gradientUnits="userSpaceOnUse"><stop offset="0" stop-color="#fbfbfb"/><stop offset="1" stop-color="#fff"/></linearGradient><linearGradient id="linear-gradient-3" x1="4089.75" y1="-782.63" x2="4062.3" y2="-856.19" xlink:href="#linear-gradient-2"/><linearGradient id="linear-gradient-4" x1="4631.96" y1="-767.46" x2="4619.11" y2="-801.91" xlink:href="#linear-gradient-2"/><linearGradient id="linear-gradient-5" x1="4640.85" y1="-695.3" x2="4625.81" y2="-735.61" xlink:href="#linear-gradient-2"/><linearGradient id="linear-gradient-6" x1="4359.72" y1="-668.95" x2="4300.13" y2="-828.59" xlink:href="#linear-gradient-2"/><linearGradient id="linear-gradient-7" x1="4688.68" y1="-587.73" x2="4659.27" y2="-666.55" xlink:href="#linear-gradient-2"/><linearGradient id="linear-gradient-8" x1="4516.2" y1="-432.7" x2="4482.04" y2="-524.21" xlink:href="#linear-gradient-2"/><linearGradient id="linear-gradient-9" x1="4039.78" y1="-627.17" x2="4018.93" y2="-683.04" xlink:href="#linear-gradient-2"/><linearGradient id="linear-gradient-10" x1="4208.87" y1="-463.96" x2="4159.4" y2="-596.51" xlink:href="#linear-gradient-2"/><linearGradient id="linear-gradient-11" x1="4409.03" y1="-856.29" x2="4383.37" y2="-925.06" xlink:href="#linear-gradient-2"/><linearGradient id="linear-gradient-12" x1="670.56" y1="-49" x2="289.11" y2="657.44" gradientTransform="matrix(1,0,0,1,0,0)" xlink:href="#linear-gradient"/><linearGradient id="linear-gradient-13" x1="338.6" y1="504.71" x2="-21.26" y2="1171.17" gradientTransform="matrix(1,0,0,1,0,0)" xlink:href="#linear-gradient"/><linearGradient id="linear-gradient-14" x1="957.34" y1="93.14" x2="239.88" y2="1421.88" gradientUnits="userSpaceOnUse"><stop offset="0" stop-color="#7b7b7b"/><stop offset="1" stop-color="#e5e5e5"/></linearGradient><linearGradient id="linear-gradient-15" x1="180.76" y1="671.94" x2="165.2" y2="700.77" xlink:href="#linear-gradient-14"/><linearGradient id="linear-gradient-16" x1="180.76" y1="797.03" x2="165.2" y2="825.85" xlink:href="#linear-gradient-14"/><linearGradient id="linear-gradient-17" x1="689.17" y1="2661.25" x2="611.94" y2="2452.34" gradientTransform="translate(.01 -1449.57) rotate(-31.17) scale(1.17 .86) skewX(-23.88)" gradientUnits="userSpaceOnUse"><stop offset="0" stop-color="#7f7f7f"/><stop offset="1" stop-color="#444"/></linearGradient><linearGradient id="linear-gradient-18" x1="725.36" y1="2647.87" x2="648.12" y2="2438.96" xlink:href="#linear-gradient-17"/><linearGradient id="linear-gradient-19" x1="761.55" y1="2634.49" x2="684.31" y2="2425.58" xlink:href="#linear-gradient-17"/><linearGradient id="linear-gradient-20" x1="683.03" y1="2663.52" x2="605.79" y2="2454.61" xlink:href="#linear-gradient-17"/><linearGradient id="linear-gradient-21" x1="719.21" y1="2650.14" x2="641.98" y2="2441.23" xlink:href="#linear-gradient-17"/><linearGradient id="linear-gradient-22" x1="755.4" y1="2636.77" x2="678.17" y2="2427.85" xlink:href="#linear-gradient-17"/><linearGradient id="linear-gradient-23" x1="676.88" y1="2665.79" x2="599.65" y2="2456.88" xlink:href="#linear-gradient-17"/><linearGradient id="linear-gradient-24" x1="713.07" y1="2652.42" x2="635.84" y2="2443.5" xlink:href="#linear-gradient-17"/><linearGradient id="linear-gradient-25" x1="749.26" y1="2639.04" x2="672.02" y2="2430.12" xlink:href="#linear-gradient-17"/><linearGradient id="linear-gradient-26" x1="670.74" y1="2668.07" x2="593.51" y2="2459.15" xlink:href="#linear-gradient-17"/><linearGradient id="linear-gradient-27" x1="706.93" y1="2654.69" x2="629.69" y2="2445.78" xlink:href="#linear-gradient-17"/><linearGradient id="linear-gradient-28" x1="743.12" y1="2641.31" x2="665.88" y2="2432.4" xlink:href="#linear-gradient-17"/><linearGradient id="linear-gradient-29" x1="664.6" y1="2670.34" x2="587.36" y2="2461.43" xlink:href="#linear-gradient-17"/><linearGradient id="linear-gradient-30" x1="700.79" y1="2656.96" x2="623.55" y2="2448.05" xlink:href="#linear-gradient-17"/><linearGradient id="linear-gradient-31" x1="736.97" y1="2643.58" x2="659.74" y2="2434.67" xlink:href="#linear-gradient-17"/><linearGradient id="linear-gradient-32" x1="658.46" y1="2672.61" x2="581.22" y2="2463.7" xlink:href="#linear-gradient-17"/><linearGradient id="linear-gradient-33" x1="694.64" y1="2659.23" x2="617.41" y2="2450.32" xlink:href="#linear-gradient-17"/><linearGradient id="linear-gradient-34" x1="730.83" y1="2645.85" x2="653.6" y2="2436.94" xlink:href="#linear-gradient-17"/><linearGradient id="linear-gradient-35" x1="652.31" y1="2674.88" x2="575.08" y2="2465.97" xlink:href="#linear-gradient-17"/><linearGradient id="linear-gradient-36" x1="688.5" y1="2661.5" x2="611.27" y2="2452.59" xlink:href="#linear-gradient-17"/><linearGradient id="linear-gradient-37" x1="724.69" y1="2648.12" x2="647.45" y2="2439.21" xlink:href="#linear-gradient-17"/><linearGradient id="linear-gradient-38" x1="646.17" y1="2677.16" x2="568.93" y2="2468.24" xlink:href="#linear-gradient-17"/><linearGradient id="linear-gradient-39" x1="682.36" y1="2663.78" x2="605.12" y2="2454.86" xlink:href="#linear-gradient-17"/><linearGradient id="linear-gradient-40" x1="718.54" y1="2650.4" x2="641.31" y2="2441.48" xlink:href="#linear-gradient-17"/><linearGradient id="linear-gradient-41" x1="640.03" y1="2679.43" x2="562.79" y2="2470.51" xlink:href="#linear-gradient-17"/><linearGradient id="linear-gradient-42" x1="676.21" y1="2666.05" x2="598.98" y2="2457.14" xlink:href="#linear-gradient-17"/><linearGradient id="linear-gradient-43" x1="712.4" y1="2652.67" x2="635.17" y2="2443.76" xlink:href="#linear-gradient-17"/><linearGradient id="linear-gradient-44" x1="633.88" y1="2681.7" x2="556.65" y2="2472.79" xlink:href="#linear-gradient-17"/><linearGradient id="linear-gradient-45" x1="670.07" y1="2668.32" x2="592.84" y2="2459.41" xlink:href="#linear-gradient-17"/><linearGradient id="linear-gradient-46" x1="706.26" y1="2654.94" x2="629.02" y2="2446.03" xlink:href="#linear-gradient-17"/><linearGradient id="linear-gradient-47" x1="179.51" y1="-671.28" x2="150.5" y2="-732.21" gradientTransform="translate(0 1552.48) rotate(32.26) scale(1.18 .85) skewX(24.29)" gradientUnits="userSpaceOnUse"><stop offset="0" stop-color="#3abaf9"/><stop offset="1" stop-color="#267ebd"/></linearGradient><linearGradient id="linear-gradient-48" x1="1144.35" y1="1297.56" x2="1143.75" y2="1141.38" gradientTransform="matrix(1,0,0,1,0,0)" xlink:href="#linear-gradient-17"/><linearGradient id="linear-gradient-49" x1="1102.1" y1="1241.68" x2="1179.69" y2="1090.05" gradientUnits="userSpaceOnUse"><stop offset="0" stop-color="#444"/><stop offset=".12" stop-color="#767676"/><stop offset=".36" stop-color="#fff"/><stop offset=".72" stop-color="#5c5c5c"/><stop offset="1" stop-color="#7f7f7f"/></linearGradient><linearGradient id="linear-gradient-50" x1="1278.04" y1="715.74" x2="1431.21" y2="990.72" gradientTransform="matrix(1,0,0,1,0,0)" xlink:href="#linear-gradient-17"/><linearGradient id="linear-gradient-51" x1="1277.27" y1="716.76" x2="1430.44" y2="991.75" xlink:href="#linear-gradient-49"/><linearGradient id="linear-gradient-52" x1="1458.25" y1="407.87" x2="1051.24" y2="1161.66" gradientTransform="matrix(1,0,0,1,0,0)" xlink:href="#linear-gradient-17"/><linearGradient id="linear-gradient-53" x1="1448.08" y1="426.71" x2="1063.25" y2="1139.41" gradientUnits="userSpaceOnUse"><stop offset="0" stop-color="#82fb7c"/><stop offset="1" stop-color="#0ba2b3"/></linearGradient><linearGradient id="linear-gradient-54" x1="1461.4" y1="411.96" x2="1076.48" y2="1124.84" gradientUnits="userSpaceOnUse"><stop offset="0" stop-color="#7f7f7f"/><stop offset="1" stop-color="#fff"/></linearGradient><linearGradient id="linear-gradient-55" x1="1155.47" y1="1192.21" x2="980.18" y2="1192.21" gradientTransform="translate(-41.81 166.01) rotate(2.09) skewX(2.1)" xlink:href="#linear-gradient-17"/><linearGradient id="linear-gradient-56" x1="1155.47" y1="1190.48" x2="980.18" y2="1190.48" gradientTransform="translate(-41.81 166.01) rotate(2.09) skewX(2.1)" xlink:href="#linear-gradient"/><linearGradient id="linear-gradient-57" x1="442.41" y1="1170.27" x2="1448.24" y2="1170.27" gradientTransform="translate(-41.81 166.01) rotate(2.09) skewX(2.1)" xlink:href="#linear-gradient"/><linearGradient id="linear-gradient-58" x1="789.72" y1="722.18" x2="1027.21" y2="1113.34" gradientTransform="translate(113.03 246.3) rotate(2.12) scale(.99 1.01) skewX(3.85)" xlink:href="#linear-gradient-17"/><linearGradient id="linear-gradient-59" x1="574.96" y1="852.58" x2="812.45" y2="1243.74" gradientTransform="translate(113.03 246.3) rotate(2.12) scale(.99 1.01) skewX(3.85)" xlink:href="#linear-gradient-17"/><linearGradient id="linear-gradient-60" x1="599.17" y1="837.88" x2="836.67" y2="1229.04" gradientTransform="translate(113.03 246.3) rotate(2.12) scale(.99 1.01) skewX(3.85)" xlink:href="#linear-gradient-17"/><linearGradient id="linear-gradient-61" x1="600.74" y1="836.93" x2="838.23" y2="1228.09" gradientTransform="translate(113.03 246.3) rotate(2.12) scale(.99 1.01) skewX(3.85)" xlink:href="#linear-gradient-17"/><linearGradient id="linear-gradient-62" x1="575.99" y1="851.95" x2="813.49" y2="1243.11" gradientTransform="translate(113.03 246.3) rotate(2.12) scale(.99 1.01) skewX(3.85)" xlink:href="#linear-gradient-17"/><linearGradient id="linear-gradient-63" x1="502.3" y1="896.69" x2="739.8" y2="1287.86" gradientTransform="translate(113.03 246.3) rotate(2.12) scale(.99 1.01) skewX(3.85)" xlink:href="#linear-gradient-17"/><linearGradient id="linear-gradient-64" x1="550.74" y1="867.28" x2="788.23" y2="1258.45" gradientTransform="translate(113.03 246.3) rotate(2.12) scale(.99 1.01) skewX(3.85)" xlink:href="#linear-gradient-17"/><linearGradient id="linear-gradient-65" x1="735.97" y1="754.82" x2="973.46" y2="1145.98" gradientTransform="translate(113.03 246.3) rotate(2.12) scale(.99 1.01) skewX(3.85)" xlink:href="#linear-gradient-17"/><linearGradient id="linear-gradient-66" x1="623.39" y1="823.17" x2="860.88" y2="1214.33" gradientTransform="translate(113.03 246.3) rotate(2.12) scale(.99 1.01) skewX(3.85)" xlink:href="#linear-gradient-17"/><linearGradient id="linear-gradient-67" x1="815.02" y1="706.82" x2="1052.51" y2="1097.98" gradientTransform="translate(113.03 246.3) rotate(2.12) scale(.99 1.01) skewX(3.85)" xlink:href="#linear-gradient-17"/><linearGradient id="linear-gradient-68" x1="773.95" y1="731.75" x2="1011.44" y2="1122.91" gradientTransform="translate(113.03 246.3) rotate(2.12) scale(.99 1.01) skewX(3.85)" xlink:href="#linear-gradient-17"/><linearGradient id="linear-gradient-69" x1="711.39" y1="769.74" x2="948.89" y2="1160.9" gradientTransform="translate(113.03 246.3) rotate(2.12) scale(.99 1.01) skewX(3.85)" xlink:href="#linear-gradient-17"/><linearGradient id="linear-gradient-70" x1="647.61" y1="808.47" x2="885.1" y2="1199.63" gradientTransform="translate(113.03 246.3) rotate(2.12) scale(.99 1.01) skewX(3.85)" xlink:href="#linear-gradient-17"/><linearGradient id="linear-gradient-71" x1="671.83" y1="793.76" x2="909.32" y2="1184.92" gradientTransform="translate(113.03 246.3) rotate(2.12) scale(.99 1.01) skewX(3.85)" xlink:href="#linear-gradient-17"/><linearGradient id="linear-gradient-72" x1="526.52" y1="881.99" x2="764.01" y2="1273.15" gradientTransform="translate(113.03 246.3) rotate(2.12) scale(.99 1.01) skewX(3.85)" xlink:href="#linear-gradient-17"/><linearGradient id="linear-gradient-73" x1="749.21" y1="746.78" x2="986.7" y2="1137.94" gradientTransform="translate(113.03 246.3) rotate(2.12) scale(.99 1.01) skewX(3.85)" xlink:href="#linear-gradient-17"/><linearGradient id="linear-gradient-74" x1="724.46" y1="761.8" x2="961.96" y2="1152.97" gradientTransform="translate(113.03 246.3) rotate(2.12) scale(.99 1.01) skewX(3.85)" xlink:href="#linear-gradient-17"/><linearGradient id="linear-gradient-75" x1="588.5" y1="844.36" x2="825.99" y2="1235.52" gradientTransform="translate(113.03 246.3) rotate(2.12) scale(.99 1.01) skewX(3.85)" xlink:href="#linear-gradient-17"/><linearGradient id="linear-gradient-76" x1="539.35" y1="874.2" x2="776.84" y2="1265.36" gradientTransform="translate(113.03 246.3) rotate(2.12) scale(.99 1.01) skewX(3.85)" xlink:href="#linear-gradient-17"/><linearGradient id="linear-gradient-77" x1="843.63" y1="689.45" x2="1081.12" y2="1080.61" gradientTransform="translate(113.03 246.3) rotate(2.12) scale(.99 1.01) skewX(3.85)" xlink:href="#linear-gradient-17"/><linearGradient id="linear-gradient-78" x1="514.77" y1="889.13" x2="752.26" y2="1280.29" gradientTransform="translate(113.03 246.3) rotate(2.12) scale(.99 1.01) skewX(3.85)" xlink:href="#linear-gradient-17"/><linearGradient id="linear-gradient-79" x1="650.23" y1="806.88" x2="887.72" y2="1198.04" gradientTransform="translate(113.03 246.3) rotate(2.12) scale(.99 1.01) skewX(3.85)" xlink:href="#linear-gradient-17"/><linearGradient id="linear-gradient-80" x1="563.92" y1="859.28" x2="801.42" y2="1250.44" gradientTransform="translate(113.03 246.3) rotate(2.12) scale(.99 1.01) skewX(3.85)" xlink:href="#linear-gradient-17"/><linearGradient id="linear-gradient-81" x1="699.72" y1="776.83" x2="937.21" y2="1167.99" gradientTransform="translate(113.03 246.3) rotate(2.12) scale(.99 1.01) skewX(3.85)" xlink:href="#linear-gradient-17"/><linearGradient id="linear-gradient-82" x1="613.08" y1="829.43" x2="850.57" y2="1220.6" gradientTransform="translate(113.03 246.3) rotate(2.12) scale(.99 1.01) skewX(3.85)" xlink:href="#linear-gradient-17"/><linearGradient id="linear-gradient-83" x1="686.81" y1="784.66" x2="924.31" y2="1175.82" gradientTransform="translate(113.03 246.3) rotate(2.12) scale(.99 1.01) skewX(3.85)" xlink:href="#linear-gradient-17"/><linearGradient id="linear-gradient-84" x1="674.97" y1="791.85" x2="912.47" y2="1183.02" gradientTransform="translate(113.03 246.3) rotate(2.12) scale(.99 1.01) skewX(3.85)" xlink:href="#linear-gradient-17"/><linearGradient id="linear-gradient-85" x1="662.24" y1="799.59" x2="899.73" y2="1190.75" gradientTransform="translate(113.03 246.3) rotate(2.12) scale(.99 1.01) skewX(3.85)" xlink:href="#linear-gradient-17"/><linearGradient id="linear-gradient-86" x1="637.66" y1="814.51" x2="875.15" y2="1205.67" gradientTransform="translate(113.03 246.3) rotate(2.12) scale(.99 1.01) skewX(3.85)" xlink:href="#linear-gradient-17"/><linearGradient id="linear-gradient-87" x1="625.48" y1="821.9" x2="862.97" y2="1213.06" gradientTransform="translate(113.03 246.3) rotate(2.12) scale(.99 1.01) skewX(3.85)" xlink:href="#linear-gradient-17"/><linearGradient id="linear-gradient-88" x1="602.42" y1="835.9" x2="839.91" y2="1227.07" gradientTransform="translate(113.03 246.3) rotate(2.12) scale(.99 1.01) skewX(3.85)" xlink:href="#linear-gradient-17"/><linearGradient id="linear-gradient-89" x1="626.47" y1="821.3" x2="863.96" y2="1212.46" gradientTransform="translate(113.03 246.3) rotate(2.12) scale(.99 1.01) skewX(3.85)" xlink:href="#linear-gradient-17"/><linearGradient id="linear-gradient-90" x1="578.37" y1="850.5" x2="815.86" y2="1241.67" gradientTransform="translate(113.03 246.3) rotate(2.12) scale(.99 1.01) skewX(3.85)" xlink:href="#linear-gradient-17"/><linearGradient id="linear-gradient-91" x1="650.52" y1="806.7" x2="888.01" y2="1197.86" gradientTransform="translate(113.03 246.3) rotate(2.12) scale(.99 1.01) skewX(3.85)" xlink:href="#linear-gradient-17"/><linearGradient id="linear-gradient-92" x1="517.88" y1="887.24" x2="755.37" y2="1278.4" gradientTransform="translate(113.03 246.3) rotate(2.12) scale(.99 1.01) skewX(3.85)" xlink:href="#linear-gradient-17"/><linearGradient id="linear-gradient-93" x1="412.21" y1="951.4" x2="649.7" y2="1342.56" gradientTransform="translate(113.03 246.3) rotate(2.12) scale(.99 1.01) skewX(3.85)" xlink:href="#linear-gradient-17"/><linearGradient id="linear-gradient-94" x1="561.97" y1="860.47" x2="799.46" y2="1251.62" gradientTransform="translate(113.03 246.3) rotate(2.12) scale(.99 1.01) skewX(3.85)" xlink:href="#linear-gradient-17"/><linearGradient id="linear-gradient-95" x1="681.43" y1="787.94" x2="918.91" y2="1179.1" gradientTransform="translate(113.03 246.3) rotate(2.12) scale(.99 1.01) skewX(3.85)" xlink:href="#linear-gradient-17"/><linearGradient id="linear-gradient-96" x1="805.97" y1="712.32" x2="1043.46" y2="1103.48" gradientTransform="translate(113.03 246.3) rotate(2.12) scale(.99 1.01) skewX(3.85)" xlink:href="#linear-gradient-17"/><linearGradient id="linear-gradient-97" x1="696.04" y1="779.06" x2="933.53" y2="1170.22" gradientTransform="translate(113.03 246.3) rotate(2.12) scale(.99 1.01) skewX(3.85)" xlink:href="#linear-gradient-17"/><linearGradient id="linear-gradient-98" x1="727.37" y1="760.04" x2="964.86" y2="1151.2" gradientTransform="translate(113.03 246.3) rotate(2.12) scale(.99 1.01) skewX(3.85)" xlink:href="#linear-gradient-17"/><linearGradient id="linear-gradient-99" x1="767.68" y1="735.57" x2="1005.17" y2="1126.73" gradientTransform="translate(113.03 246.3) rotate(2.12) scale(.99 1.01) skewX(3.85)" xlink:href="#linear-gradient-17"/><linearGradient id="linear-gradient-100" x1="434.08" y1="938.12" x2="671.57" y2="1329.28" gradientTransform="translate(113.03 246.3) rotate(2.12) scale(.99 1.01) skewX(3.85)" xlink:href="#linear-gradient-17"/><linearGradient id="linear-gradient-101" x1="587.28" y1="845.1" x2="824.77" y2="1236.26" gradientTransform="translate(113.03 246.3) rotate(2.12) scale(.99 1.01) skewX(3.85)" xlink:href="#linear-gradient-17"/><linearGradient id="linear-gradient-102" x1="637.89" y1="814.37" x2="875.38" y2="1205.53" gradientTransform="translate(113.03 246.3) rotate(2.12) scale(.99 1.01) skewX(3.85)" xlink:href="#linear-gradient-17"/><linearGradient id="linear-gradient-103" x1="612.59" y1="829.73" x2="850.08" y2="1220.9" gradientTransform="translate(113.03 246.3) rotate(2.12) scale(.99 1.01) skewX(3.85)" xlink:href="#linear-gradient-17"/><linearGradient id="linear-gradient-104" x1="458.13" y1="923.51" x2="695.62" y2="1314.68" gradientTransform="translate(113.03 246.3) rotate(2.12) scale(.99 1.01) skewX(3.85)" xlink:href="#linear-gradient-17"/><linearGradient id="linear-gradient-105" x1="739.11" y1="752.91" x2="976.6" y2="1144.07" gradientTransform="translate(113.03 246.3) rotate(2.12) scale(.99 1.01) skewX(3.85)" xlink:href="#linear-gradient-17"/><linearGradient id="linear-gradient-106" x1="688.5" y1="783.64" x2="925.99" y2="1174.8" gradientTransform="translate(113.03 246.3) rotate(2.12) scale(.99 1.01) skewX(3.85)" xlink:href="#linear-gradient-17"/><linearGradient id="linear-gradient-107" x1="713.8" y1="768.28" x2="951.3" y2="1159.44" gradientTransform="translate(113.03 246.3) rotate(2.12) scale(.99 1.01) skewX(3.85)" xlink:href="#linear-gradient-17"/><linearGradient id="linear-gradient-108" x1="663.2" y1="799" x2="900.69" y2="1190.16" gradientTransform="translate(113.03 246.3) rotate(2.12) scale(.99 1.01) skewX(3.85)" xlink:href="#linear-gradient-17"/><linearGradient id="linear-gradient-109" x1="452.37" y1="927.01" x2="689.86" y2="1318.17" gradientTransform="translate(113.03 246.3) rotate(2.12) scale(.99 1.01) skewX(3.85)" xlink:href="#linear-gradient-17"/><linearGradient id="linear-gradient-110" x1="478.09" y1="911.4" x2="715.58" y2="1302.56" gradientTransform="translate(113.03 246.3) rotate(2.12) scale(.99 1.01) skewX(3.85)" xlink:href="#linear-gradient-17"/><linearGradient id="linear-gradient-111" x1="764.41" y1="737.55" x2="1001.91" y2="1128.71" gradientTransform="translate(113.03 246.3) rotate(2.12) scale(.99 1.01) skewX(3.85)" xlink:href="#linear-gradient-17"/><linearGradient id="linear-gradient-112" x1="525.98" y1="882.32" x2="763.47" y2="1273.47" gradientTransform="translate(113.03 246.3) rotate(2.12) scale(.99 1.01) skewX(3.85)" xlink:href="#linear-gradient-17"/><linearGradient id="linear-gradient-113" x1="551.25" y1="866.98" x2="788.74" y2="1258.14" gradientTransform="translate(113.03 246.3) rotate(2.12) scale(.99 1.01) skewX(3.85)" xlink:href="#linear-gradient-17"/><linearGradient id="linear-gradient-114" x1="489.16" y1="904.67" x2="726.65" y2="1295.83" gradientTransform="translate(113.03 246.3) rotate(2.12) scale(.99 1.01) skewX(3.85)" xlink:href="#linear-gradient-17"/><linearGradient id="linear-gradient-115" x1="335.78" y1="-381.25" x2="207.48" y2="-616.47" gradientTransform="translate(255.45 2410.06) rotate(5.92) scale(1.37)" gradientUnits="userSpaceOnUse"><stop offset="0" stop-color="#fe7f0a"/><stop offset="1" stop-color="#ffb538"/></linearGradient><linearGradient id="linear-gradient-116" x1="214.06" y1="-715.46" x2="133.26" y2="-565.81" xlink:href="#linear-gradient-115"/><linearGradient id="linear-gradient-117" x1="208.18" y1="-704.57" x2="140.2" y2="-578.67" gradientTransform="translate(255.45 2410.06) rotate(5.92) scale(1.37)" xlink:href="#linear-gradient"/><linearGradient id="linear-gradient-118" x1="216.23" y1="-710.94" x2="166.49" y2="-618.81" gradientTransform="translate(255.45 2410.06) rotate(5.92) scale(1.37)" gradientUnits="userSpaceOnUse"><stop offset="0" stop-color="#fff"/><stop offset="1" stop-color="#ffb538"/></linearGradient><linearGradient id="linear-gradient-119" x1="256.07" y1="-610.15" x2="-7.68" y2="-732.13" gradientTransform="translate(255.45 2410.06) rotate(5.92) scale(1.37)" xlink:href="#linear-gradient-53"/><linearGradient id="linear-gradient-120" x1="256.11" y1="-610.23" x2="-7.64" y2="-732.21" gradientTransform="translate(255.45 2410.06) rotate(5.92) scale(1.37)" xlink:href="#linear-gradient-53"/><linearGradient id="linear-gradient-121" x1="255.92" y1="-609.82" x2="-7.84" y2="-731.8" gradientTransform="translate(255.45 2410.06) rotate(5.92) scale(1.37)" xlink:href="#linear-gradient-53"/><linearGradient id="linear-gradient-122" x1="256.14" y1="-610.31" x2="-7.61" y2="-732.29" gradientTransform="translate(255.45 2410.06) rotate(5.92) scale(1.37)" xlink:href="#linear-gradient-53"/><linearGradient id="linear-gradient-123" x1="255.99" y1="-609.98" x2="-7.76" y2="-731.97" gradientTransform="translate(255.45 2410.06) rotate(5.92) scale(1.37)" xlink:href="#linear-gradient-53"/><linearGradient id="linear-gradient-124" x1="255.95" y1="-609.9" x2="-7.8" y2="-731.89" gradientTransform="translate(255.45 2410.06) rotate(5.92) scale(1.37)" xlink:href="#linear-gradient-53"/><linearGradient id="linear-gradient-125" x1="256.03" y1="-610.06" x2="-7.72" y2="-732.05" gradientTransform="translate(255.45 2410.06) rotate(5.92) scale(1.37)" xlink:href="#linear-gradient-53"/><linearGradient id="linear-gradient-126" x1="256.3" y1="-610.64" x2="-7.45" y2="-732.62" gradientTransform="translate(255.45 2410.06) rotate(5.92) scale(1.37)" xlink:href="#linear-gradient-53"/><linearGradient id="linear-gradient-127" x1="255.03" y1="-607.91" x2="-8.72" y2="-729.89" gradientTransform="translate(255.45 2410.06) rotate(5.92) scale(1.37)" xlink:href="#linear-gradient-53"/><linearGradient id="linear-gradient-128" x1="256.34" y1="-610.72" x2="-7.41" y2="-732.71" gradientTransform="translate(255.45 2410.06) rotate(5.92) scale(1.37)" xlink:href="#linear-gradient-53"/><linearGradient id="linear-gradient-129" x1="256.26" y1="-610.56" x2="-7.49" y2="-732.54" gradientTransform="translate(255.45 2410.06) rotate(5.92) scale(1.37)" xlink:href="#linear-gradient-53"/><linearGradient id="linear-gradient-130" x1="256.22" y1="-610.47" x2="-7.53" y2="-732.46" gradientTransform="translate(255.45 2410.06) rotate(5.92) scale(1.37)" xlink:href="#linear-gradient-53"/><linearGradient id="linear-gradient-131" x1="256.18" y1="-610.39" x2="-7.57" y2="-732.38" gradientTransform="translate(255.45 2410.06) rotate(5.92) scale(1.37)" xlink:href="#linear-gradient-53"/><linearGradient id="linear-gradient-132" x1="1641.24" y1="694.9" x2="1165.99" y2="1442.92" gradientUnits="userSpaceOnUse"><stop offset="0" stop-color="#b9b9b9"/><stop offset="1" stop-color="#c6c1c1"/></linearGradient><linearGradient id="linear-gradient-133" x1="1652.03" y1="680.58" x2="1176.78" y2="1428.6" gradientTransform="matrix(1,0,0,1,0,0)" xlink:href="#linear-gradient"/><linearGradient id="linear-gradient-134" x1="1350.55" y1="596.61" x2="1282.82" y2="703.22" xlink:href="#linear-gradient-132"/><linearGradient id="linear-gradient-135" x1="1601.04" y1="1056.42" x2="1380.16" y2="1404.07" xlink:href="#linear-gradient-132"/><linearGradient id="linear-gradient-136" x1="900.65" y1="1082.89" x2="709.03" y2="1082.89" gradientTransform="matrix(1,0,0,1,0,0)" xlink:href="#linear-gradient-115"/><linearGradient id="linear-gradient-137" x1="700.64" y1="832.34" x2="921.74" y2="832.34" gradientTransform="matrix(1,0,0,1,0,0)" xlink:href="#linear-gradient-115"/><linearGradient id="linear-gradient-138" x1="748.87" y1="581.88" x2="875.84" y2="581.88" gradientTransform="matrix(1,0,0,1,0,0)" xlink:href="#linear-gradient"/></defs><g id="Layer_4"><g opacity=".17"><ellipse cx="1596.6" cy="1599.84" rx="243.52" ry="71.62" fill="#4c0000" opacity="0"/><ellipse cx="1596.6" cy="1599.84" rx="237.63" ry="69.89" fill="#4a0101" opacity=".04"/><ellipse cx="1596.6" cy="1599.84" rx="231.74" ry="68.15" fill="#480202" opacity=".08"/><ellipse cx="1596.6" cy="1599.84" rx="225.84" ry="66.42" fill="#460303" opacity=".12"/><ellipse cx="1596.6" cy="1599.84" rx="219.95" ry="64.69" fill="#440404" opacity=".15"/><ellipse cx="1596.6" cy="1599.84" rx="214.06" ry="62.95" fill="#420505" opacity=".19"/><ellipse cx="1596.6" cy="1599.84" rx="208.16" ry="61.22" fill="#400606" opacity=".23"/><ellipse cx="1596.6" cy="1599.84" rx="202.27" ry="59.49" fill="#3e0606" opacity=".27"/><ellipse cx="1596.6" cy="1599.84" rx="196.37" ry="57.75" fill="#3c0707" opacity=".31"/><ellipse cx="1596.6" cy="1599.84" rx="190.48" ry="56.02" fill="#3a0808" opacity=".35"/><ellipse cx="1596.6" cy="1599.84" rx="184.59" ry="54.29" fill="#380909" opacity=".38"/><ellipse cx="1596.6" cy="1599.84" rx="178.69" ry="52.55" fill="#360a0a" opacity=".42"/><ellipse cx="1596.6" cy="1599.84" rx="172.8" ry="50.82" fill="#340b0b" opacity=".46"/><ellipse cx="1596.6" cy="1599.84" rx="166.91" ry="49.09" fill="#330c0c" opacity=".5"/><ellipse cx="1596.6" cy="1599.84" rx="161.01" ry="47.35" fill="#310d0d" opacity=".54"/><ellipse cx="1596.6" cy="1599.84" rx="155.12" ry="45.62" fill="#2f0e0e" opacity=".58"/><ellipse cx="1596.6" cy="1599.84" rx="149.22" ry="43.89" fill="#2d0f0f" opacity=".62"/><ellipse cx="1596.6" cy="1599.84" rx="143.33" ry="42.15" fill="#2b1010" opacity=".65"/><ellipse cx="1596.6" cy="1599.84" rx="137.44" ry="40.42" fill="#291111" opacity=".69"/><ellipse cx="1596.6" cy="1599.84" rx="131.54" ry="38.69" fill="#271212" opacity=".73"/><ellipse cx="1596.6" cy="1599.84" rx="125.65" ry="36.95" fill="#251212" opacity=".77"/><ellipse cx="1596.6" cy="1599.84" rx="119.76" ry="35.22" fill="#231313" opacity=".81"/><ellipse cx="1596.6" cy="1599.84" rx="113.86" ry="33.49" fill="#211414" opacity=".85"/><ellipse cx="1596.6" cy="1599.84" rx="107.97" ry="31.75" fill="#1f1515" opacity=".88"/><ellipse cx="1596.6" cy="1599.84" rx="102.07" ry="30.02" fill="#1d1616" opacity=".92"/><ellipse cx="1596.6" cy="1599.84" rx="96.18" ry="28.29" fill="#1b1717" opacity=".96"/><ellipse cx="1596.6" cy="1599.84" rx="90.29" ry="26.55" fill="#191818"/></g><g opacity=".17"><ellipse cx="771.98" cy="1798.42" rx="243.52" ry="71.62" fill="#4c0000" opacity="0"/><ellipse cx="771.98" cy="1798.42" rx="237.63" ry="69.89" fill="#4a0101" opacity=".04"/><ellipse cx="771.98" cy="1798.42" rx="231.74" ry="68.15" fill="#480202" opacity=".08"/><ellipse cx="771.98" cy="1798.42" rx="225.84" ry="66.42" fill="#460303" opacity=".12"/><ellipse cx="771.98" cy="1798.42" rx="219.95" ry="64.69" fill="#440404" opacity=".15"/><ellipse cx="771.98" cy="1798.42" rx="214.06" ry="62.95" fill="#420505" opacity=".19"/><ellipse cx="771.98" cy="1798.42" rx="208.16" ry="61.22" fill="#400606" opacity=".23"/><ellipse cx="771.98" cy="1798.42" rx="202.27" ry="59.49" fill="#3e0606" opacity=".27"/><ellipse cx="771.98" cy="1798.42" rx="196.37" ry="57.75" fill="#3c0707" opacity=".31"/><ellipse cx="771.98" cy="1798.42" rx="190.48" ry="56.02" fill="#3a0808" opacity=".35"/><ellipse cx="771.98" cy="1798.42" rx="184.59" ry="54.29" fill="#380909" opacity=".38"/><ellipse cx="771.98" cy="1798.42" rx="178.69" ry="52.55" fill="#360a0a" opacity=".42"/><ellipse cx="771.98" cy="1798.42" rx="172.8" ry="50.82" fill="#340b0b" opacity=".46"/><ellipse cx="771.98" cy="1798.42" rx="166.91" ry="49.09" fill="#330c0c" opacity=".5"/><ellipse cx="771.98" cy="1798.42" rx="161.01" ry="47.35" fill="#310d0d" opacity=".54"/><ellipse cx="771.98" cy="1798.42" rx="155.12" ry="45.62" fill="#2f0e0e" opacity=".58"/><ellipse cx="771.98" cy="1798.42" rx="149.22" ry="43.89" fill="#2d0f0f" opacity=".62"/><ellipse cx="771.98" cy="1798.42" rx="143.33" ry="42.15" fill="#2b1010" opacity=".65"/><ellipse cx="771.98" cy="1798.42" rx="137.44" ry="40.42" fill="#291111" opacity=".69"/><ellipse cx="771.98" cy="1798.42" rx="131.54" ry="38.69" fill="#271212" opacity=".73"/><ellipse cx="771.98" cy="1798.42" rx="125.65" ry="36.95" fill="#251212" opacity=".77"/><ellipse cx="771.98" cy="1798.42" rx="119.76" ry="35.22" fill="#231313" opacity=".81"/><ellipse cx="771.98" cy="1798.42" rx="113.86" ry="33.49" fill="#211414" opacity=".85"/><ellipse cx="771.98" cy="1798.42" rx="107.97" ry="31.75" fill="#1f1515" opacity=".88"/><ellipse cx="771.98" cy="1798.42" rx="102.07" ry="30.02" fill="#1d1616" opacity=".92"/><ellipse cx="771.98" cy="1798.42" rx="96.18" ry="28.29" fill="#1b1717" opacity=".96"/><ellipse cx="771.98" cy="1798.42" rx="90.29" ry="26.55" fill="#191818"/></g><g opacity=".17"><ellipse cx="1741.7" cy="960.56" rx="243.52" ry="71.62" fill="#4c0000" opacity="0"/><ellipse cx="1741.7" cy="960.56" rx="237.63" ry="69.89" fill="#4a0101" opacity=".04"/><ellipse cx="1741.7" cy="960.56" rx="231.74" ry="68.15" fill="#480202" opacity=".08"/><ellipse cx="1741.7" cy="960.56" rx="225.84" ry="66.42" fill="#460303" opacity=".12"/><ellipse cx="1741.7" cy="960.56" rx="219.95" ry="64.69" fill="#440404" opacity=".15"/><ellipse cx="1741.7" cy="960.56" rx="214.06" ry="62.95" fill="#420505" opacity=".19"/><ellipse cx="1741.7" cy="960.56" rx="208.16" ry="61.22" fill="#400606" opacity=".23"/><ellipse cx="1741.7" cy="960.56" rx="202.27" ry="59.49" fill="#3e0606" opacity=".27"/><ellipse cx="1741.7" cy="960.56" rx="196.37" ry="57.75" fill="#3c0707" opacity=".31"/><ellipse cx="1741.7" cy="960.56" rx="190.48" ry="56.02" fill="#3a0808" opacity=".35"/><ellipse cx="1741.7" cy="960.56" rx="184.59" ry="54.29" fill="#380909" opacity=".38"/><ellipse cx="1741.7" cy="960.56" rx="178.69" ry="52.55" fill="#360a0a" opacity=".42"/><ellipse cx="1741.7" cy="960.56" rx="172.8" ry="50.82" fill="#340b0b" opacity=".46"/><ellipse cx="1741.7" cy="960.56" rx="166.91" ry="49.09" fill="#330c0c" opacity=".5"/><ellipse cx="1741.7" cy="960.56" rx="161.01" ry="47.35" fill="#310d0d" opacity=".54"/><ellipse cx="1741.7" cy="960.56" rx="155.12" ry="45.62" fill="#2f0e0e" opacity=".58"/><ellipse cx="1741.7" cy="960.56" rx="149.22" ry="43.89" fill="#2d0f0f" opacity=".62"/><ellipse cx="1741.7" cy="960.56" rx="143.33" ry="42.15" fill="#2b1010" opacity=".65"/><ellipse cx="1741.7" cy="960.56" rx="137.44" ry="40.42" fill="#291111" opacity=".69"/><ellipse cx="1741.7" cy="960.56" rx="131.54" ry="38.69" fill="#271212" opacity=".73"/><ellipse cx="1741.7" cy="960.56" rx="125.65" ry="36.95" fill="#251212" opacity=".77"/><ellipse cx="1741.7" cy="960.56" rx="119.76" ry="35.22" fill="#231313" opacity=".81"/><ellipse cx="1741.7" cy="960.56" rx="113.86" ry="33.49" fill="#211414" opacity=".85"/><ellipse cx="1741.7" cy="960.56" rx="107.97" ry="31.75" fill="#1f1515" opacity=".88"/><ellipse cx="1741.7" cy="960.56" rx="102.07" ry="30.02" fill="#1d1616" opacity=".92"/><ellipse cx="1741.7" cy="960.56" rx="96.18" ry="28.29" fill="#1b1717" opacity=".96"/><ellipse cx="1741.7" cy="960.56" rx="90.29" ry="26.55" fill="#191818"/></g><g isolation="isolate"><polygon points="1638.89 964.83 1753.56 917.63 1784.74 847.89 1670.08 895.1 1638.89 964.83" fill="#c1c1c1"/><polygon points="1495.49 471.65 1610.15 424.44 1538.56 396.27 1423.89 443.48 1495.49 471.65" fill="#828282"/><path d="M1649.87,777.21c-3.96-2.41-7.82-5.04-11.58-7.82-1.25-.92-2.43-1.96-3.66-2.92-2.14-1.68-4.31-3.31-6.38-5.1-.35-.31-.69-.65-1.04-.96-.76-.67-1.48-1.37-2.23-2.05-2.59-2.37-5.11-4.81-7.57-7.34-.83-.85-1.67-1.7-2.48-2.58-.55-.58-1.13-1.13-1.67-1.73-.96-1.05-1.8-2.21-2.73-3.29-2.25-2.59-4.46-5.21-6.59-7.93-.57-.72-1.2-1.38-1.76-2.12-.82-1.08-1.53-2.24-2.33-3.34-1.68-2.31-3.32-4.65-4.91-7.05-.64-.96-1.35-1.86-1.98-2.83-.68-1.06-1.25-2.18-1.91-3.26-1.4-2.27-2.75-4.56-4.06-6.89-.63-1.11-1.32-2.16-1.93-3.28-.57-1.04-1.03-2.14-1.58-3.19-1.24-2.39-2.42-4.8-3.57-7.23-.58-1.21-1.24-2.39-1.79-3.61-.44-.98-.79-2.01-1.22-3-1.15-2.66-2.23-5.35-3.27-8.06-.51-1.34-1.13-2.64-1.62-3.99-.29-.8-.49-1.64-.77-2.44-1.18-3.39-2.24-6.81-3.24-10.24-.41-1.39-.93-2.75-1.31-4.14-.12-.44-.17-.88-.29-1.32-1.57-5.92-2.89-11.89-3.91-17.88-.05-.29-.14-.58-.19-.87-.29-1.75-.42-3.5-.66-5.25-.42-3-.85-6-1.13-9.01-.2-2.2-.27-4.38-.4-6.58-.16-2.9-.34-5.79-.37-8.67,0-.62-.08-1.24-.08-1.86,0-3.53.12-7.05.34-10.55.03-.5.1-.99.13-1.49.27-3.87.7-7.7,1.24-11.5.15-1.12.32-2.23.5-3.34.7-4.25,1.5-8.46,2.54-12.61.2-.78.4-1.56.61-2.34.48-1.77,1.12-3.38,1.66-5.1.75-2.39,1.45-4.81,2.3-7.08.75-2,1.62-3.88,2.44-5.79.93-2.17,1.84-4.37,2.87-6.43.2-.41.36-.88.57-1.29,1.44-2.79,2.99-5.46,4.6-8.04.34-.54.7-1.04,1.05-1.57,1-1.55,1.99-3.11,3.05-4.57.84-1.16,1.74-2.26,2.62-3.37.32-.41.63-.83.95-1.23,1.66-2.03,3.37-4.01,5.15-5.86.59-.62,1.22-1.18,1.83-1.79.38-.38.77-.76,1.16-1.13,1.96-1.87,3.95-3.67,6.02-5.33.34-.27.72-.48,1.06-.74,1.64-1.28,3.36-2.39,5.07-3.54,1.15-.77,2.23-1.67,3.41-2.38.31-.19.65-.32.97-.5,1.85-1.09,3.77-2,5.69-2.95,1.23-.61,2.41-1.35,3.67-1.9.54-.24,1.08-.47,1.63-.69l114.66-47.21c-1.82.75-3.55,1.73-5.32,2.6-1.9.94-3.83,1.85-5.66,2.93-1.5.89-2.93,1.91-4.39,2.89-1.71,1.15-3.43,2.27-5.07,3.55-2.44,1.9-4.81,3.91-7.08,6.08-.39.37-.77.75-1.15,1.12-2.43,2.4-4.76,4.94-6.98,7.65-.33.4-.64.82-.96,1.23-1.99,2.51-3.88,5.17-5.67,7.94-.34.53-.71,1.03-1.05,1.57-1.85,2.96-3.56,6.09-5.18,9.33-1.03,2.06-1.94,4.25-2.87,6.42-.83,1.92-1.7,3.8-2.44,5.8-.85,2.28-1.56,4.7-2.3,7.09-.77,2.47-1.61,4.86-2.27,7.43-1.04,4.14-1.84,8.35-2.54,12.6-.18,1.12-.35,2.24-.51,3.36-.54,3.8-.96,7.62-1.24,11.48-.03.5-.1,1-.13,1.51-.25,4.11-.3,8.26-.26,12.41.03,2.89.2,5.78.37,8.68.13,2.19.2,4.37.4,6.56.28,3,.72,6,1.13,9.01.29,2.05.5,4.09.85,6.13,1.03,5.99,2.35,11.96,3.92,17.88.48,1.83,1.06,3.63,1.59,5.45,1.01,3.43,2.06,6.85,3.24,10.24.76,2.17,1.58,4.31,2.4,6.46,1.04,2.7,2.11,5.39,3.26,8.04.96,2.23,1.97,4.43,3.01,6.62,1.14,2.43,2.33,4.84,3.57,7.22,1.13,2.19,2.31,4.35,3.52,6.49,1.31,2.32,2.66,4.62,4.05,6.88,1.26,2.05,2.56,4.08,3.89,6.08,1.59,2.4,3.24,4.75,4.93,7.07,1.33,1.83,2.68,3.65,4.07,5.43,2.12,2.72,4.34,5.35,6.6,7.94,1.46,1.68,2.88,3.39,4.39,5.01.82.87,1.66,1.73,2.49,2.58,2.45,2.52,4.97,4.97,7.55,7.33.74.68,1.48,1.39,2.23,2.06,2.42,2.13,4.94,4.11,7.46,6.09,1.22.95,2.38,1.98,3.62,2.89,3.76,2.78,7.61,5.41,11.58,7.83,33.18,20.21,67.04,23.22,94.88,11.76l-114.66,47.21c-27.84,11.46-61.7,8.45-94.88-11.76Z" fill="#949494"/><path d="M1832.13,969.78c1.36-.65,2.73-1.26,4.08-1.94,4.13-2.1,8.21-4.31,12.2-6.71l114.67-47.21c-3.99,2.39-8.07,4.61-12.2,6.71-1.33.68-2.7,1.27-4.05,1.92-2.15,1.03-4.28,2.12-6.46,3.07-1.25.55-2.51,1.08-3.78,1.6l-114.66,47.21c3.46-1.42,6.84-3.04,10.22-4.66Z" fill="#999"/><g isolation="isolate"><g clip-path="url(#clippath)"><g isolation="isolate"><path d="M1576.2,301.03l114.66-47.21c-10.51,2.41-20.74,5.66-30.63,9.73l-114.66,47.21c9.89-4.07,20.12-7.32,30.63-9.73" fill="#858585"/></g></g></g><polygon points="1848.41 961.13 1963.07 913.92 1939.26 825.82 1824.6 873.02 1848.41 961.13" fill="#b9b9b9"/><polygon points="1621.53 380.44 1736.2 333.23 1690.86 253.82 1576.2 301.03 1621.53 380.44" fill="#a9a9a9"/><path d="M1827.3,870.76c1.76-1.45,3.51-2.93,5.21-4.47.93-.84,1.84-1.72,2.75-2.59,1.5-1.42,2.99-2.85,4.44-4.34.89-.91,1.77-1.85,2.64-2.78,1.61-1.72,3.19-3.5,4.75-5.31.82-.95,1.63-1.89,2.42-2.86,1.68-2.05,3.31-4.16,4.92-6.3.57-.76,1.16-1.49,1.71-2.27,2.4-3.32,4.7-6.78,6.92-10.33.55-.88,1.08-1.79,1.62-2.69,1.77-2.95,3.49-5.98,5.13-9.09.74-1.39,1.51-2.75,2.23-4.18l114.66-47.21c-.4.81-.81,1.61-1.22,2.4-.32.61-.68,1.16-1,1.77-1.65,3.11-3.36,6.14-5.14,9.09-.54.9-1.07,1.81-1.62,2.7-2.22,3.56-4.52,7.01-6.92,10.33-.11.15-.2.31-.31.46-.45.62-.95,1.19-1.41,1.8-1.6,2.15-3.23,4.26-4.91,6.3-.8.97-1.62,1.92-2.44,2.87-1.55,1.81-3.13,3.57-4.74,5.29-.5.53-.96,1.11-1.46,1.63-.39.4-.8.76-1.18,1.16-1.46,1.49-2.94,2.92-4.44,4.34-.92.87-1.82,1.76-2.76,2.6-1.7,1.54-3.46,3.01-5.22,4.46-.64.53-1.25,1.1-1.89,1.62-.27.21-.53.43-.81.64l-114.66,47.21c.92-.72,1.79-1.51,2.7-2.26Z" fill="#b3b3b3"/><path d="M1697.46,390.06c-26.08-9.01-51.71-11.97-75.93-9.62l114.66-47.21c9.08-.88,18.36-1.02,27.79-.36,6.28.43,12.63,1.22,19.04,2.36,3.2.58,6.42,1.24,9.64,1.99,6.45,1.51,12.94,3.38,19.46,5.63h0l-114.67,47.21Z" fill="#858585"/><path d="M1896.94,695.83c-.07-5.61-.39-11.23-.76-16.87-.18-2.73-.24-5.45-.49-8.19-.75-8.26-1.78-16.53-3.15-24.78-.02-.1-.02-.21-.05-.32-1.31-7.83-2.9-15.65-4.74-23.43l114.66-47.21c1.85,7.78,3.43,15.6,4.75,23.43,0,0,0,.01,0,.02.02.1.02.2.04.3,1.37,8.25,2.4,16.51,3.15,24.77.25,2.74.31,5.47.49,8.22.37,5.63.7,11.24.76,16.85,0,.93.12,1.86.12,2.79.02,5.8-.12,11.58-.43,17.33l-114.66,47.21c.36-6.67.39-13.39.31-20.12Z" fill="#adadad"/><path d="M1831.32,496.7c-.56-.79-1.14-1.56-1.71-2.35-3.8-5.31-7.75-10.49-11.83-15.55-.68-.84-1.33-1.71-2.01-2.54-4.38-5.34-8.95-10.49-13.64-15.51-1.04-1.12-2.11-2.22-3.17-3.33-4.86-5.05-9.82-10-14.99-14.68l114.66-47.21c5.17,4.68,10.13,9.63,15,14.69,1.06,1.1,2.11,2.19,3.16,3.31.93,1,1.9,1.95,2.83,2.96,3.71,4.08,7.3,8.28,10.82,12.56.68.83,1.33,1.7,2.01,2.54,2.14,2.65,4.29,5.29,6.35,8.01,1.87,2.47,3.67,5.01,5.47,7.53.57.79,1.15,1.56,1.71,2.35,3.01,4.28,5.97,8.62,8.8,13.05,1.3,2.04,2.59,4.09,3.85,6.15l-114.66,47.21c-4.01-6.55-8.24-12.95-12.64-19.2Z" fill="#8a8a8a"/><path d="M2058.3,794.53l-114.66,47.21c1.9-5.03,3.66-10.21,5.33-15.46.53-1.66,1-3.38,1.51-5.06,1.36-4.55,2.71-9.12,3.9-13.83,3.01-11.98,5.37-24.17,7.1-36.51l114.66-47.21c-1.73,12.33-4.09,24.53-7.11,36.51-.53,2.12-1.09,4.24-1.66,6.33-.7,2.55-1.49,5.01-2.24,7.51-.51,1.68-.98,3.39-1.51,5.05-1.67,5.26-3.43,10.43-5.33,15.47Z" fill="#b8b8b8"/><polygon points="1961.48 770.87 2076.14 723.66 2011.29 668.74 1896.62 715.95 1961.48 770.87" fill="#919191"/><polygon points="1783.98 442.75 1898.65 395.54 1906.2 311.41 1791.54 358.62 1783.98 442.75" fill="#c5c5c5"/><g isolation="isolate"><g clip-path="url(#clippath-1)"><g isolation="isolate"><path d="M1791.54,358.62l114.66-47.21c-9.95-7.61-20.26-14.69-30.93-21.19-10.63-6.47-21.28-12.15-31.96-17.11l-114.66,47.21c10.67,4.95,21.33,10.63,31.96,17.11,10.67,6.5,20.97,13.58,30.93,21.19" fill="#858585"/></g></g></g><polygon points="1887.75 622.24 2002.41 575.04 2058.38 535.39 1943.72 582.6 1887.75 622.24" fill="#a2a2a2"/><polygon points="1911.93 505.49 2026.59 458.28 1958.63 468.69 1843.97 515.9 1911.93 505.49" fill="gray"/><path d="M1937.05,562.95c-.2-.55-.43-1.09-.63-1.64-2.06-5.62-4.23-11.21-6.49-16.76-.84-2.05-1.75-4.07-2.61-6.11-1.63-3.83-3.28-7.65-5-11.44-3.31-7.25-6.74-14.45-10.39-21.51l114.66-47.21c3.65,7.07,7.08,14.25,10.38,21.5.32.69.67,1.35.99,2.04,1.39,3.1,2.68,6.25,4.01,9.38.87,2.05,1.79,4.08,2.63,6.14,2.25,5.49,4.38,11.02,6.43,16.59.23.61.48,1.21.7,1.82.02.04.04.09.05.13,2.34,6.46,4.55,12.97,6.61,19.51l-114.66,47.21c-2.08-6.59-4.31-13.15-6.67-19.65Z" fill="#9e9e9e"/><path d="M1954.37,807.38c-3.02,11.98-6.61,23.42-10.74,34.35l-71.59-28.17c-12.27,24.5-28.44,44.45-47.45,59.46l23.81,88.11c-17.74,10.64-36.88,18.37-57.02,23.08l-45.32-79.46c-24.2,2.49-49.86-.56-75.98-9.65l-31.19,69.73c-10.63-4.92-21.29-10.61-31.96-17.11-10.63-6.47-20.93-13.55-30.93-21.19l7.55-84.13c-23.09-20.88-43.26-45.74-59.94-73.12l-67.97,10.47c-12.78-24.76-23.46-50.65-31.78-77.17l55.9-39.57c-7.35-31.05-10.56-62.81-8.86-93.76l-64.85-54.93c1.79-12.35,4.1-24.58,7.12-36.56,3.02-11.98,6.66-23.39,10.72-34.3l71.59,28.17c12.26-24.45,28.48-44.37,47.45-59.46l-23.74-88.13c17.69-10.67,36.83-18.4,57.01-23.03l45.33,79.41c24.22-2.35,49.85.61,75.93,9.62l31.19-69.73c10.67,4.95,21.33,10.63,31.96,17.11,10.67,6.5,20.97,13.58,30.93,21.19l-7.56,84.13c23.13,20.96,43.28,45.88,59.99,73.15l67.96-10.41c12.74,24.67,23.42,50.57,31.8,77.11l-55.97,39.65c7.39,31.09,10.56,62.81,8.88,93.7l64.86,54.92c-1.73,12.33-4.09,24.53-7.11,36.51ZM1717.66,508c-65.89-40.13-134.52-12.4-153.23,61.9-18.72,74.35,19.55,167.19,85.44,207.31,65.94,40.16,134.57,12.43,153.29-61.92,18.71-74.3-19.57-167.13-85.5-207.28" fill="url(#linear-gradient)"/><path d="M1658.61,380.97c11.25,1.38,22.69,3.94,34.22,7.62l-.33.73c-11.41-3.94-22.73-6.66-33.89-8.35Z" fill="url(#linear-gradient-2)"/><path d="M1490.53,470.91l-67-26.37c.13-.35.24-.72.37-1.07l67.17,26.43c-.17.34-.37.66-.54,1Z" fill="url(#linear-gradient-3)"/><path d="M1665.12,894.36c1.54.54,3.08.98,4.63,1.48l-30.85,69c-1.44-.67-2.88-1.46-4.33-2.16l30.55-68.32Z" fill="url(#linear-gradient-4)"/><path d="M1741.7,905.07c-12.21.92-24.77.43-37.56-1.52,12.6,1.55,24.96,1.69,36.96.46l.6,1.06Z" fill="url(#linear-gradient-5)"/><path d="M1564.43,569.9c-18.72,74.35,19.55,167.19,85.44,207.31,15.2,9.26,30.51,14.75,45.35,17.05-16.36-1.73-33.42-7.5-50.31-17.79-65.89-40.13-104.16-132.96-85.44-207.31,14.4-57.18,58.38-86.61,107.91-78.93-47.49-5.03-89.04,24.4-102.95,79.67Z" fill="url(#linear-gradient-6)"/><path d="M1791.38,984.22l-1.04-1.82c18.69-4.77,36.53-12.07,53.1-22.01l-23.81-88.11c19-15.01,35.18-34.96,47.45-59.46l4.43,1.74c-12.21,24.04-28.18,43.67-46.91,58.46l23.8,88.11c-17.74,10.64-36.88,18.38-57.02,23.08Z" fill="url(#linear-gradient-7)"/><path d="M1949.42,806.64c3.01-11.98,5.37-24.18,7.11-36.51l-64.86-54.92c1.68-30.89-1.48-62.62-8.88-93.71l55.98-39.64c-8.22-26.04-18.68-51.46-31.12-75.72l4.28-.66c12.74,24.67,23.42,50.57,31.79,77.11l-55.97,39.65c7.39,31.08,10.55,62.81,8.88,93.7l64.85,54.92c-1.73,12.33-4.09,24.53-7.1,36.51-3.02,11.98-6.61,23.42-10.74,34.36l-4.59-1.81c3.96-10.62,7.45-21.69,10.37-33.29Z" fill="url(#linear-gradient-8)"/><path d="M1616.57,379.7l-44.3-77.61c1.32-.33,2.6-.76,3.93-1.06l44.74,78.37c-1.46.1-2.92.16-4.37.3Z" fill="url(#linear-gradient-9)"/><path d="M1839.01,515.16c-16.71-27.28-36.86-52.19-59.99-73.15l7.56-84.13c-9.96-7.61-20.26-14.7-30.93-21.19-9.19-5.6-18.41-10.49-27.63-14.95l.63-1.42c10.68,4.95,21.33,10.64,31.96,17.11,10.67,6.5,20.97,13.58,30.93,21.19l-7.56,84.12c22.73,20.61,42.56,45.06,59.09,71.79l-4.06.62Z" fill="url(#linear-gradient-10)"/><path d="M1518.66,768.54c.29.47.61.9.9,1.37l-63.9,9.84c-.24-.46-.45-.94-.68-1.4l63.69-9.81Z" fill="url(#linear-gradient-11)"/></g><g opacity=".17"><ellipse cx="221.29" cy="1185.73" rx="221.29" ry="84.74" fill="#4c0000" opacity="0"/><ellipse cx="221.29" cy="1185.73" rx="215.93" ry="82.69" fill="#4a0101" opacity=".04"/><ellipse cx="221.29" cy="1185.73" rx="210.58" ry="80.64" fill="#480202" opacity=".08"/><ellipse cx="221.29" cy="1185.73" rx="205.22" ry="78.59" fill="#460303" opacity=".12"/><ellipse cx="221.29" cy="1185.73" rx="199.86" ry="76.54" fill="#440404" opacity=".15"/><ellipse cx="221.29" cy="1185.73" rx="194.51" ry="74.48" fill="#420505" opacity=".19"/><ellipse cx="221.29" cy="1185.73" rx="189.15" ry="72.43" fill="#400606" opacity=".23"/><ellipse cx="221.29" cy="1185.73" rx="183.8" ry="70.38" fill="#3e0606" opacity=".27"/><ellipse cx="221.29" cy="1185.73" rx="178.44" ry="68.33" fill="#3c0707" opacity=".31"/><ellipse cx="221.29" cy="1185.73" rx="173.09" ry="66.28" fill="#3a0808" opacity=".35"/><ellipse cx="221.29" cy="1185.73" rx="167.73" ry="64.23" fill="#380909" opacity=".38"/><ellipse cx="221.29" cy="1185.73" rx="162.38" ry="62.18" fill="#360a0a" opacity=".42"/><ellipse cx="221.29" cy="1185.73" rx="157.02" ry="60.13" fill="#340b0b" opacity=".46"/><ellipse cx="221.29" cy="1185.73" rx="151.66" ry="58.08" fill="#330c0c" opacity=".5"/><ellipse cx="221.29" cy="1185.73" rx="146.31" ry="56.03" fill="#310d0d" opacity=".54"/><ellipse cx="221.29" cy="1185.73" rx="140.95" ry="53.98" fill="#2f0e0e" opacity=".58"/><ellipse cx="221.29" cy="1185.73" rx="135.6" ry="51.93" fill="#2d0f0f" opacity=".62"/><ellipse cx="221.29" cy="1185.73" rx="130.24" ry="49.87" fill="#2b1010" opacity=".65"/><ellipse cx="221.29" cy="1185.73" rx="124.89" ry="47.82" fill="#291111" opacity=".69"/><ellipse cx="221.29" cy="1185.73" rx="119.53" ry="45.77" fill="#271212" opacity=".73"/><ellipse cx="221.29" cy="1185.73" rx="114.18" ry="43.72" fill="#251212" opacity=".77"/><ellipse cx="221.29" cy="1185.73" rx="108.82" ry="41.67" fill="#231313" opacity=".81"/><ellipse cx="221.29" cy="1185.73" rx="103.46" ry="39.62" fill="#211414" opacity=".85"/><ellipse cx="221.29" cy="1185.73" rx="98.11" ry="37.57" fill="#1f1515" opacity=".88"/><ellipse cx="221.29" cy="1185.73" rx="92.75" ry="35.52" fill="#1d1616" opacity=".92"/><ellipse cx="221.29" cy="1185.73" rx="87.4" ry="33.47" fill="#1b1717" opacity=".96"/><path d="M303.33,1185.73c0,17.35-36.73,31.42-82.04,31.42-45.31,0-82.04-14.07-82.04-31.42s36.73-31.42,82.04-31.42c45.31,0,82.04,14.07,82.04,31.42Z" fill="#191818"/></g><g opacity=".17"><ellipse cx="1082.01" cy="1684.58" rx="221.29" ry="84.74" fill="#4c0000" opacity="0"/><ellipse cx="1082.01" cy="1684.58" rx="215.93" ry="82.69" fill="#4a0101" opacity=".04"/><ellipse cx="1082.01" cy="1684.58" rx="210.58" ry="80.64" fill="#480202" opacity=".08"/><ellipse cx="1082.01" cy="1684.58" rx="205.22" ry="78.59" fill="#460303" opacity=".12"/><ellipse cx="1082.01" cy="1684.58" rx="199.86" ry="76.54" fill="#440404" opacity=".15"/><ellipse cx="1082.01" cy="1684.58" rx="194.51" ry="74.48" fill="#420505" opacity=".19"/><ellipse cx="1082.01" cy="1684.58" rx="189.15" ry="72.43" fill="#400606" opacity=".23"/><ellipse cx="1082.01" cy="1684.58" rx="183.8" ry="70.38" fill="#3e0606" opacity=".27"/><ellipse cx="1082.01" cy="1684.58" rx="178.44" ry="68.33" fill="#3c0707" opacity=".31"/><ellipse cx="1082.01" cy="1684.58" rx="173.09" ry="66.28" fill="#3a0808" opacity=".35"/><ellipse cx="1082.01" cy="1684.58" rx="167.73" ry="64.23" fill="#380909" opacity=".38"/><ellipse cx="1082.01" cy="1684.58" rx="162.38" ry="62.18" fill="#360a0a" opacity=".42"/><ellipse cx="1082.01" cy="1684.58" rx="157.02" ry="60.13" fill="#340b0b" opacity=".46"/><ellipse cx="1082.01" cy="1684.58" rx="151.66" ry="58.08" fill="#330c0c" opacity=".5"/><ellipse cx="1082.01" cy="1684.58" rx="146.31" ry="56.03" fill="#310d0d" opacity=".54"/><ellipse cx="1082.01" cy="1684.58" rx="140.95" ry="53.98" fill="#2f0e0e" opacity=".58"/><ellipse cx="1082.01" cy="1684.58" rx="135.6" ry="51.93" fill="#2d0f0f" opacity=".62"/><ellipse cx="1082.01" cy="1684.58" rx="130.24" ry="49.87" fill="#2b1010" opacity=".65"/><ellipse cx="1082.01" cy="1684.58" rx="124.89" ry="47.82" fill="#291111" opacity=".69"/><ellipse cx="1082.01" cy="1684.58" rx="119.53" ry="45.77" fill="#271212" opacity=".73"/><ellipse cx="1082.01" cy="1684.58" rx="114.18" ry="43.72" fill="#251212" opacity=".77"/><ellipse cx="1082.01" cy="1684.58" rx="108.82" ry="41.67" fill="#231313" opacity=".81"/><ellipse cx="1082.01" cy="1684.58" rx="103.46" ry="39.62" fill="#211414" opacity=".85"/><ellipse cx="1082.01" cy="1684.58" rx="98.11" ry="37.57" fill="#1f1515" opacity=".88"/><ellipse cx="1082.01" cy="1684.58" rx="92.75" ry="35.52" fill="#1d1616" opacity=".92"/><ellipse cx="1082.01" cy="1684.58" rx="87.4" ry="33.47" fill="#1b1717" opacity=".96"/><path d="M1164.05,1684.58c0,17.35-36.73,31.42-82.04,31.42-45.31,0-82.04-14.07-82.04-31.42s36.73-31.42,82.04-31.42c45.31,0,82.04,14.07,82.04,31.42Z" fill="#191818"/></g><polygon points="306.36 549.73 950.49 166.91 685.02 0 40.89 382.81 306.36 549.73" fill="url(#linear-gradient-12)"/><polygon points="40.89 382.81 40.89 1070.75 306.36 1237.67 306.36 549.73 40.89 382.81" fill="url(#linear-gradient-13)"/><polygon points="950.49 166.91 950.49 854.85 306.36 1237.67 306.36 549.73 950.49 166.91" fill="url(#linear-gradient-14)"/><polygon points="40.89 598.1 306.36 765.02 306.36 772.22 40.89 605.3 40.89 598.1" fill="url(#linear-gradient-15)"/><polygon points="40.89 723.18 306.36 890.1 306.36 897.3 40.89 730.38 40.89 723.18" fill="url(#linear-gradient-16)"/><polyline points="96.12 1105.48 96.12 830.59 239.86 922.6 239.86 1193.24" fill="none" stroke="#afafaf" stroke-dasharray="22.4 14.93" stroke-miterlimit="1" stroke-width="14.93"/><polygon points="629.2 627.5 595.71 647.76 595.71 639.95 629.2 619.69 629.2 627.5" fill="url(#linear-gradient-17)"/><polygon points="670.33 602.63 636.84 622.88 636.84 615.07 670.33 594.81 670.33 602.63" fill="url(#linear-gradient-18)"/><polygon points="711.47 577.75 677.97 598.01 677.97 590.19 711.47 569.93 711.47 577.75" fill="url(#linear-gradient-19)"/><polygon points="629.2 646.39 595.71 666.65 595.71 658.83 629.2 638.57 629.2 646.39" fill="url(#linear-gradient-20)"/><polygon points="670.33 621.51 636.84 641.77 636.84 633.95 670.33 613.7 670.33 621.51" fill="url(#linear-gradient-21)"/><polygon points="711.47 596.64 677.97 616.89 677.97 609.08 711.47 588.82 711.47 596.64" fill="url(#linear-gradient-22)"/><polygon points="629.2 665.28 595.71 685.54 595.71 677.72 629.2 657.46 629.2 665.28" fill="url(#linear-gradient-23)"/><polygon points="670.33 640.4 636.84 660.66 636.84 652.84 670.33 632.58 670.33 640.4" fill="url(#linear-gradient-24)"/><polygon points="711.47 615.52 677.97 635.78 677.97 627.96 711.47 607.71 711.47 615.52" fill="url(#linear-gradient-25)"/><polygon points="629.2 684.17 595.71 704.43 595.71 696.61 629.2 676.35 629.2 684.17" fill="url(#linear-gradient-26)"/><polygon points="670.33 659.29 636.84 679.55 636.84 671.73 670.33 651.47 670.33 659.29" fill="url(#linear-gradient-27)"/><polygon points="711.47 634.41 677.97 654.67 677.97 646.85 711.47 626.59 711.47 634.41" fill="url(#linear-gradient-28)"/><polygon points="629.2 703.06 595.71 723.32 595.71 715.5 629.2 695.24 629.2 703.06" fill="url(#linear-gradient-29)"/><polygon points="670.33 678.18 636.84 698.44 636.84 690.62 670.33 670.36 670.33 678.18" fill="url(#linear-gradient-30)"/><polygon points="711.47 653.3 677.97 673.56 677.97 665.74 711.47 645.48 711.47 653.3" fill="url(#linear-gradient-31)"/><polygon points="629.2 721.95 595.71 742.2 595.71 734.39 629.2 714.13 629.2 721.95" fill="url(#linear-gradient-32)"/><polygon points="670.33 697.07 636.84 717.32 636.84 709.51 670.33 689.25 670.33 697.07" fill="url(#linear-gradient-33)"/><polygon points="711.47 672.19 677.97 692.45 677.97 684.63 711.47 664.37 711.47 672.19" fill="url(#linear-gradient-34)"/><polygon points="629.2 740.83 595.71 761.09 595.71 753.27 629.2 733.02 629.2 740.83" fill="url(#linear-gradient-35)"/><polygon points="670.33 715.95 636.84 736.21 636.84 728.39 670.33 708.14 670.33 715.95" fill="url(#linear-gradient-36)"/><polygon points="711.47 691.08 677.97 711.33 677.97 703.52 711.47 683.26 711.47 691.08" fill="url(#linear-gradient-37)"/><polygon points="629.2 759.72 595.71 779.98 595.71 772.16 629.2 751.9 629.2 759.72" fill="url(#linear-gradient-38)"/><polygon points="670.33 734.84 636.84 755.1 636.84 747.28 670.33 727.02 670.33 734.84" fill="url(#linear-gradient-39)"/><polygon points="711.47 709.96 677.97 730.22 677.97 722.4 711.47 702.15 711.47 709.96" fill="url(#linear-gradient-40)"/><polygon points="629.2 778.61 595.71 798.87 595.71 791.05 629.2 770.79 629.2 778.61" fill="url(#linear-gradient-41)"/><polygon points="670.33 753.73 636.84 773.99 636.84 766.17 670.33 745.91 670.33 753.73" fill="url(#linear-gradient-42)"/><polygon points="711.47 728.85 677.97 749.11 677.97 741.29 711.47 721.03 711.47 728.85" fill="url(#linear-gradient-43)"/><polygon points="629.2 797.5 595.71 817.76 595.71 809.94 629.2 789.68 629.2 797.5" fill="url(#linear-gradient-44)"/><polygon points="670.33 772.62 636.84 792.88 636.84 785.06 670.33 764.8 670.33 772.62" fill="url(#linear-gradient-45)"/><polygon points="711.47 747.74 677.97 768 677.97 760.18 711.47 739.92 711.47 747.74" fill="url(#linear-gradient-46)"/><path d="M198.74,976.2c0,18.63-15.1,24.2-33.74,12.44-18.63-11.76-33.74-36.4-33.74-55.03s15.1-24.2,33.74-12.44c18.63,11.76,33.74,36.4,33.74,55.03Z" fill="url(#linear-gradient-47)"/><g opacity=".17"><ellipse cx="1196.16" cy="1249.25" rx="285.06" ry="83.83" fill="#4c0000" opacity="0"/><ellipse cx="1196.16" cy="1249.25" rx="278.16" ry="81.81" fill="#4a0101" opacity=".04"/><ellipse cx="1196.16" cy="1249.25" rx="271.26" ry="79.78" fill="#480202" opacity=".08"/><ellipse cx="1196.16" cy="1249.25" rx="264.36" ry="77.75" fill="#460303" opacity=".12"/><ellipse cx="1196.16" cy="1249.25" rx="257.46" ry="75.72" fill="#440404" opacity=".15"/><ellipse cx="1196.16" cy="1249.25" rx="250.56" ry="73.69" fill="#420505" opacity=".19"/><ellipse cx="1196.16" cy="1249.25" rx="243.66" ry="71.66" fill="#400606" opacity=".23"/><ellipse cx="1196.16" cy="1249.25" rx="236.76" ry="69.63" fill="#3e0606" opacity=".27"/><ellipse cx="1196.16" cy="1249.25" rx="229.87" ry="67.6" fill="#3c0707" opacity=".31"/><ellipse cx="1196.16" cy="1249.25" rx="222.97" ry="65.57" fill="#3a0808" opacity=".35"/><ellipse cx="1196.16" cy="1249.25" rx="216.07" ry="63.54" fill="#380909" opacity=".38"/><ellipse cx="1196.16" cy="1249.25" rx="209.17" ry="61.52" fill="#360a0a" opacity=".42"/><ellipse cx="1196.16" cy="1249.25" rx="202.27" ry="59.49" fill="#340b0b" opacity=".46"/><ellipse cx="1196.16" cy="1249.25" rx="195.37" ry="57.46" fill="#330c0c" opacity=".5"/><ellipse cx="1196.16" cy="1249.25" rx="188.47" ry="55.43" fill="#310d0d" opacity=".54"/><ellipse cx="1196.16" cy="1249.25" rx="181.57" ry="53.4" fill="#2f0e0e" opacity=".58"/><ellipse cx="1196.16" cy="1249.25" rx="174.67" ry="51.37" fill="#2d0f0f" opacity=".62"/><ellipse cx="1196.16" cy="1249.25" rx="167.78" ry="49.34" fill="#2b1010" opacity=".65"/><ellipse cx="1196.16" cy="1249.25" rx="160.88" ry="47.31" fill="#291111" opacity=".69"/><ellipse cx="1196.16" cy="1249.25" rx="153.98" ry="45.28" fill="#271212" opacity=".73"/><ellipse cx="1196.16" cy="1249.25" rx="147.08" ry="43.26" fill="#251212" opacity=".77"/><ellipse cx="1196.16" cy="1249.25" rx="140.18" ry="41.23" fill="#231313" opacity=".81"/><ellipse cx="1196.16" cy="1249.25" rx="133.28" ry="39.2" fill="#211414" opacity=".85"/><ellipse cx="1196.16" cy="1249.25" rx="126.38" ry="37.17" fill="#1f1515" opacity=".88"/><ellipse cx="1196.16" cy="1249.25" rx="119.48" ry="35.14" fill="#1d1616" opacity=".92"/><ellipse cx="1196.16" cy="1249.25" rx="112.58" ry="33.11" fill="#1b1717" opacity=".96"/><path d="M1301.84,1249.25c0,17.17-47.32,31.08-105.68,31.08-58.37,0-105.69-13.92-105.69-31.08s47.32-31.08,105.69-31.08c58.37,0,105.68,13.92,105.68,31.08Z" fill="#191818"/></g><path d="M1301.99,1135.58s-8.06,37.93,20.52,49.96c28.58,12.04,16.26,46.3-21.56,66.67-25.13,13.54-50.33,30.75-64.41,40.78-7.09,5.05-16.41,5.66-24.12,1.62l-257.31-134.7c-6.81-3.57-7.48-13.07-1.2-17.51,14.4-10.18,38.36-26.39,62.27-39.27,37.82-20.37,50.14-54.63,21.56-66.67-28.58-12.04-20.52-49.96-20.52-49.96l284.77,149.08Z" fill="url(#linear-gradient-48)"/><path d="M1298.86,1135.58s-8.06,37.93,20.52,49.96c28.58,12.04,16.26,46.3-21.56,66.67-25.13,13.54-50.33,30.75-64.41,40.78-7.09,5.05-16.41,5.66-24.12,1.62l-257.31-134.7c-6.81-3.57-7.48-13.07-1.2-17.51,14.4-10.18,38.36-26.39,62.27-39.27,37.82-20.37,50.14-54.63,21.56-66.67-28.58-12.04-20.52-49.96-20.52-49.96l284.77,149.08Z" fill="url(#linear-gradient-49)"/><path d="M1095.41,299.07l609.8,264.17c28.22,12.3,42.47,44.02,32.94,73.29l-193.16,558.39c-9.32,28.59-41.94,42.14-68.77,28.57l-602-304.48c-20.3-10.27-30.1-33.8-23.09-55.45l172.47-532.16c9.68-29.88,43.02-44.89,71.81-32.34Z" fill="url(#linear-gradient-50)"/><path d="M1094.64,300.1l609.8,264.17c28.22,12.3,42.47,44.02,32.94,73.29l-193.16,558.39c-9.32,28.59-41.94,42.14-68.77,28.57l-602-304.48c-20.3-10.27-30.1-33.8-23.09-55.45l172.47-532.16c9.68-29.88,43.02-44.89,71.81-32.34Z" fill="url(#linear-gradient-51)"/><path d="M1072.32,308.79l609.8,264.17c28.22,12.3,42.47,44.02,32.94,73.29l-193.16,558.39c-9.32,28.59-41.94,42.14-68.77,28.57l-602-304.48c-20.3-10.27-30.1-33.8-23.09-55.45l172.47-532.16c9.68-29.88,43.02-44.89,71.81-32.34Z" fill="url(#linear-gradient-52)"/><path d="M1475.22,1219.21c-4.65,0-9.15-1.08-13.38-3.22l-602-304.48c-11.9-6.02-17.55-19.59-13.44-32.28l172.47-532.16c4.54-14.02,17.5-23.44,32.24-23.44,4.64,0,9.18.96,13.5,2.84l609.8,264.17c19.2,8.37,28.79,29.7,22.3,49.62l-193.16,558.39c-4.01,12.29-15.39,20.55-28.33,20.55Z" fill="url(#linear-gradient-53)"/><path d="M1682.13,572.95l-609.8-264.17c-15.28-6.66-31.8-5.5-45.42,1.47,13.09-5.81,28.5-6.39,42.8-.16l609.8,264.17c28.22,12.3,42.47,44.02,32.94,73.29l-193.16,558.39c-4.02,12.34-12.39,21.85-22.75,27.62,11.55-5.56,21.02-15.57,25.37-28.93l193.16-558.39c9.54-29.27-4.72-60.99-32.94-73.29Z" fill="url(#linear-gradient-54)"/><path d="M633.93,1104.88l-225.21,133.26c-16.28,8.78-16.18,32.51.19,42.33l663.26,397.78c18.66,11.19,41.66,10.71,59.01-1.24l251.32-172.96c15.97-11,13.75-35.71-4.04-44.84l-685.06-354.47c-19.02-9.76-41.22-9.7-59.48.14Z" fill="url(#linear-gradient-55)"/><path d="M633.93,1103.15l-225.21,133.26c-16.28,8.78-16.18,32.51.19,42.33l663.26,397.78c18.66,11.19,41.66,10.71,59.01-1.24l251.32-172.96c15.97-11,13.75-35.71-4.04-44.84l-685.06-354.47c-19.02-9.76-41.22-9.7-59.48.14Z" fill="url(#linear-gradient-56)"/><path d="M633.93,1082.95l-225.21,133.26c-16.28,8.78-16.18,32.51.19,42.33l663.26,397.78c18.66,11.19,41.66,10.71,59.02-1.24l251.32-172.96c15.97-11,13.75-35.71-4.04-44.84l-685.06-354.47c-19.02-9.76-41.22-9.7-59.48.14Z" fill="url(#linear-gradient-57)"/><path d="M1382.5,1481l-251.32,172.96c-17.36,11.95-40.35,12.43-59.02,1.24l-663.26-397.78c-8.01-4.81-12.11-12.95-12.31-21.04-.16,8.45,3.93,17.12,12.31,22.15l663.26,397.78c18.66,11.19,41.66,10.7,59.02-1.24l251.32-172.96c7.25-4.99,10.71-12.8,10.71-20.7-.32,7.52-3.8,14.84-10.71,19.6Z" fill="#fff"/><polygon points="1153.67 1409.1 1183.44 1389.74 1143.68 1368.24 1114.41 1387.28 1153.67 1409.1" fill="url(#linear-gradient-58)"/><polygon points="873.42 1349.76 834.48 1327.73 805.38 1346.65 843.84 1369 873.42 1349.76" fill="url(#linear-gradient-59)"/><polygon points="923.09 1377.86 884.15 1355.82 854.44 1375.15 892.9 1397.5 923.09 1377.86" fill="url(#linear-gradient-60)"/><polygon points="778.39 1243.38 817.39 1265.38 844.05 1248.04 804.85 1226.17 778.39 1243.38" fill="url(#linear-gradient-61)"/><polygon points="728.66 1215.33 767.65 1237.32 794.06 1220.15 754.86 1198.28 728.66 1215.33" fill="url(#linear-gradient-62)"/><polygon points="724.4 1265.46 685.45 1243.43 658.22 1261.14 696.68 1283.49 724.4 1265.46" fill="url(#linear-gradient-63)"/><polygon points="823.74 1321.66 784.8 1299.63 756.33 1318.15 794.79 1340.49 823.74 1321.66" fill="url(#linear-gradient-64)"/><polygon points="1155.88 1468.07 1116.95 1446.03 1092.47 1461.96 1131.49 1483.94 1155.88 1468.07" fill="url(#linear-gradient-65)"/><polygon points="972.77 1405.95 933.82 1383.92 903.5 1403.65 941.95 1426 972.77 1405.95" fill="url(#linear-gradient-66)"/><polygon points="1203.75 1436.94 1234.15 1417.16 1194.39 1395.66 1164.49 1415.11 1203.75 1436.94" fill="url(#linear-gradient-67)"/><polygon points="1193.99 1443.29 1154.79 1421.42 1126.58 1439.78 1165.57 1461.77 1193.99 1443.29" fill="url(#linear-gradient-68)"/><polygon points="1106.23 1439.96 1067.3 1417.92 1042.71 1433.91 1081.72 1455.9 1106.23 1439.96" fill="url(#linear-gradient-69)"/><polygon points="1022.44 1434.05 983.5 1412.02 952.55 1432.15 991.01 1454.5 1022.44 1434.05" fill="url(#linear-gradient-70)"/><polygon points="1072.12 1462.15 1033.17 1440.12 1001.6 1460.65 1040.06 1483 1072.12 1462.15" fill="url(#linear-gradient-71)"/><polygon points="774.07 1293.56 735.13 1271.53 707.28 1289.64 745.73 1311.99 774.07 1293.56" fill="url(#linear-gradient-72)"/><polygon points="1144 1415.39 1104.8 1393.53 1076.84 1411.72 1115.83 1433.71 1144 1415.39" fill="url(#linear-gradient-73)"/><polygon points="1027.09 1383.66 1066.09 1405.66 1094 1387.5 1054.81 1365.63 1027.09 1383.66" fill="url(#linear-gradient-74)"/><polygon points="857.96 1299.4 819.04 1277.36 793.9 1293.71 832.92 1315.69 857.96 1299.4" fill="url(#linear-gradient-75)"/><polygon points="694.38 1237.62 733.39 1259.61 758.66 1243.17 719.73 1221.13 694.38 1237.62" fill="url(#linear-gradient-76)"/><path d="M1294.59,1449.84l-49.48-26.76-30.54,19.86,68.55,38.1,13.41-8.66c8.04-5.19,6.96-17.74-1.93-22.55Z" fill="url(#linear-gradient-77)"/><polygon points="644.62 1209.58 683.63 1231.57 709.01 1215.06 670.08 1193.02 644.62 1209.58" fill="url(#linear-gradient-78)"/><polygon points="877.88 1299.5 916.87 1321.49 944.03 1303.82 904.84 1281.96 877.88 1299.5" fill="url(#linear-gradient-79)"/><polygon points="808.31 1271.29 769.38 1249.25 744.14 1265.66 783.16 1287.65 808.31 1271.29" fill="url(#linear-gradient-80)"/><polygon points="977.35 1355.61 1016.35 1377.6 1044.01 1359.61 1004.82 1337.74 977.35 1355.61" fill="url(#linear-gradient-81)"/><polygon points="907.62 1327.51 868.69 1305.47 843.67 1321.75 882.68 1343.73 907.62 1327.51" fill="url(#linear-gradient-82)"/><polygon points="1056.57 1411.85 1017.65 1389.81 992.95 1405.87 1031.96 1427.86 1056.57 1411.85" fill="url(#linear-gradient-83)"/><polygon points="927.61 1327.55 966.61 1349.55 994.02 1331.72 954.83 1309.85 927.61 1327.55" fill="url(#linear-gradient-84)"/><polygon points="1006.92 1383.73 968 1361.7 943.19 1377.83 982.2 1399.81 1006.92 1383.73" fill="url(#linear-gradient-85)"/><polygon points="957.27 1355.62 918.34 1333.58 893.43 1349.79 932.44 1371.77 957.27 1355.62" fill="url(#linear-gradient-86)"/><polygon points="828.14 1271.44 867.13 1293.43 894.04 1275.93 854.85 1254.07 828.14 1271.44" fill="url(#linear-gradient-87)"/><polygon points="943.24 1438.21 907.45 1461.49 946.21 1483.64 981.63 1460.6 943.24 1438.21" fill="url(#linear-gradient-88)"/><polygon points="992.21 1466.77 956.89 1489.74 995.65 1511.89 1030.6 1489.16 992.21 1466.77" fill="url(#linear-gradient-89)"/><polygon points="894.27 1409.65 858.01 1433.24 896.77 1455.39 932.66 1432.04 894.27 1409.65" fill="url(#linear-gradient-90)"/><polygon points="1041.18 1495.32 1006.33 1517.99 1045.09 1540.14 1079.57 1517.71 1041.18 1495.32" fill="url(#linear-gradient-91)"/><polygon points="883.69 1403.48 698.39 1295.42 660.26 1320.23 845.92 1428.05 847.33 1427.14 847.33 1427.14 883.69 1403.48" fill="url(#linear-gradient-92)"/><path d="M544.82,1205.87l-21.96,12.77c-8.78,5.1-8.08,18.46,1.25,23.79l26.59,15.2,39.18-25.49-45.05-26.27Z" fill="url(#linear-gradient-93)"/><path d="M726.99,1142.95l-25.79-13.94c-7.82-4.23-16.95-4.23-24.23,0l-13.31,7.74,39.28,21.83,24.04-15.64Z" fill="url(#linear-gradient-94)"/><path d="M1055.77,1546.24l50.97,29.13c9.96,5.69,21.81,5.57,30.91-.31l19.09-12.34-66.6-38.84-34.38,22.36Z" fill="url(#linear-gradient-95)"/><polygon points="1176.31 1467.83 1244.27 1506.16 1273.18 1487.47 1204.79 1449.31 1176.31 1467.83" fill="url(#linear-gradient-96)"/><polygon points="1121.79 1490.25 1082.84 1468.22 1050.66 1489.16 1089.11 1511.5 1121.79 1490.25" fill="url(#linear-gradient-97)"/><polygon points="1099.71 1517.66 1166.46 1556.44 1200.23 1534.62 1132.52 1496.32 1099.71 1517.66" fill="url(#linear-gradient-98)"/><polygon points="1142.23 1490 1210.1 1528.24 1234.4 1512.53 1166.6 1474.15 1142.23 1490" fill="url(#linear-gradient-99)"/><polygon points="600.46 1238.31 561.38 1263.73 600.14 1285.88 638.85 1260.7 600.46 1238.31" fill="url(#linear-gradient-100)"/><polygon points="753.03 1186.42 777.71 1170.37 737.95 1148.87 713.77 1164.6 753.03 1186.42" fill="url(#linear-gradient-101)"/><polygon points="853.19 1242.09 879.14 1225.21 839.38 1203.71 813.93 1220.27 853.19 1242.09" fill="url(#linear-gradient-102)"/><polygon points="803.11 1214.26 828.43 1197.79 788.67 1176.29 763.85 1192.44 803.11 1214.26" fill="url(#linear-gradient-103)"/><polygon points="649.43 1266.87 610.82 1291.98 649.58 1314.13 687.82 1289.25 649.43 1266.87" fill="url(#linear-gradient-104)"/><polygon points="1053.51 1353.43 1082.01 1334.9 1042.24 1313.4 1014.25 1331.61 1053.51 1353.43" fill="url(#linear-gradient-105)"/><polygon points="953.35 1297.76 980.57 1280.05 940.81 1258.55 914.09 1275.94 953.35 1297.76" fill="url(#linear-gradient-106)"/><polygon points="1003.43 1325.59 1031.29 1307.48 991.53 1285.98 964.17 1303.77 1003.43 1325.59" fill="url(#linear-gradient-107)"/><polygon points="903.27 1269.93 929.86 1252.63 890.1 1231.14 864.01 1248.1 903.27 1269.93" fill="url(#linear-gradient-108)"/><polygon points="625.05 1209.26 581.42 1184.58 553.95 1200.56 598.57 1226.49 625.05 1209.26" fill="url(#linear-gradient-109)"/><polygon points="609.17 1232.64 647.63 1254.99 674.72 1237.36 635.78 1215.33 609.17 1232.64" fill="url(#linear-gradient-110)"/><polygon points="1103.59 1381.26 1132.72 1362.32 1092.96 1340.82 1064.33 1359.44 1103.59 1381.26" fill="url(#linear-gradient-111)"/><polygon points="694.07 1164.36 654.32 1142.18 627.07 1158.03 668.17 1181.21 694.07 1164.36" fill="url(#linear-gradient-112)"/><polygon points="678.92 1187.27 717.91 1209.27 744.06 1192.25 704.87 1170.39 678.92 1187.27" fill="url(#linear-gradient-113)"/><polygon points="659.35 1186.95 617.8 1163.42 590.69 1179.19 633.87 1203.52 659.35 1186.95" fill="url(#linear-gradient-114)"/><path d="M889.83,1791.72c-9.64-1-18.8-4.03-27.21-8.99l-583.29-344.4c-32.65-19.28-44.97-60.96-28.05-94.89,14.28-28.64,45.26-45.66,77.1-42.36,11.07,1.15,21.58,4.62,31.24,10.33l564.85,333.51c37.82,22.33,52.09,70.61,32.49,109.91-12.43,24.94-39.42,39.76-67.14,36.88Z" fill="url(#linear-gradient-115)"/><path d="M872,1798.07c-9.64-1-18.8-4.03-27.21-8.99l-583.29-344.4c-32.65-19.28-44.97-60.96-28.05-94.89,14.28-28.64,45.26-45.66,77.1-42.36,11.07,1.15,21.58,4.62,31.24,10.33l564.85,333.51c37.82,22.33,52.09,70.61,32.49,109.91-12.43,24.94-39.42,39.76-67.14,36.88Z" fill="url(#linear-gradient-116)"/><path d="M333.99,1330.96l564.85,333.51c31.07,18.34,42.67,57.58,26.57,89.87h0c-13.44,26.95-46.91,36.84-72.84,21.53l-583.29-344.4c-25.88-15.28-35.54-47.96-22.13-74.85h0c16.02-32.12,55.92-43.92,86.83-25.67Z" fill="url(#linear-gradient-117)"/><path d="M906.64,1651.28l-564.85-333.51c-9.66-5.7-20.17-9.18-31.24-10.33-13.99-1.45-27.81,1.03-40.13,6.69,11.63-4.83,24.47-6.92,37.47-5.57,11.07,1.15,21.58,4.62,31.24,10.33l564.86,333.51c37.82,22.33,52.09,70.61,32.49,109.91-6.97,13.97-18.5,24.77-32.18,31.05,14.83-6.07,27.43-17.3,34.84-32.17,19.6-39.3,5.32-87.58-32.5-109.91Z" fill="url(#linear-gradient-118)"/><polygon points="466.52 1427.01 450.77 1417.71 410.98 1497.35 426.74 1506.65 466.52 1427.01" fill="url(#linear-gradient-119)"/><polygon points="499.69 1446.59 483.94 1437.29 444.15 1516.93 459.9 1526.23 499.69 1446.59" fill="url(#linear-gradient-120)"/><path d="M294.05,1428.31l39.78-79.64-7.63-4.51c-2.74-1.62-5.6-2.91-8.55-3.93l-39.35,78.78,15.75,9.3Z" fill="url(#linear-gradient-121)"/><polygon points="532.86 1466.18 517.11 1456.88 477.33 1536.52 493.08 1545.82 532.86 1466.18" fill="url(#linear-gradient-122)"/><polygon points="400.17 1387.84 384.42 1378.54 344.64 1458.18 360.39 1467.48 400.17 1387.84" fill="url(#linear-gradient-123)"/><polygon points="367 1368.25 351.25 1358.95 311.47 1438.59 327.22 1447.89 367 1368.25" fill="url(#linear-gradient-124)"/><polygon points="433.34 1407.42 417.59 1398.12 377.81 1477.76 393.56 1487.06 433.34 1407.42" fill="url(#linear-gradient-125)"/><polygon points="665.54 1544.52 649.79 1535.22 610.01 1614.86 625.76 1624.16 665.54 1544.52" fill="url(#linear-gradient-126)"/><path d="M296.07,1338.28c-14.91,2.15-28.3,11.36-35.19,25.19-6.71,13.46-5.46,29.03,2.09,41.07l33.1-66.26Z" fill="url(#linear-gradient-127)"/><polygon points="682.96 1554.8 643.18 1634.44 662.04 1645.58 701.58 1565.8 682.96 1554.8" fill="url(#linear-gradient-128)"/><polygon points="632.37 1524.93 616.62 1515.63 576.84 1595.27 592.59 1604.57 632.37 1524.93" fill="url(#linear-gradient-129)"/><polygon points="599.2 1505.35 583.45 1496.05 543.67 1575.69 559.42 1584.99 599.2 1505.35" fill="url(#linear-gradient-130)"/><polygon points="566.03 1485.76 550.28 1476.46 510.5 1556.1 526.25 1565.4 566.03 1485.76" fill="url(#linear-gradient-131)"/><path d="M1701.64,1417.44l-264.16-474.67c46.85-49.86,70.19-117.42,57.28-185.89-19.17-101.64-111.98-172.39-219.72-176.01l71.01,154.74-175.16,78.75-82.38-163.66c-53.1,50.57-80.47,122.46-66.72,195.37,20.56,109.04,125.86,182.52,243.43,175.72l236.68,498.48c26.53,55.88,93.24,79.81,149.24,53.54h0c58.96-27.65,82.15-99.49,50.48-156.39Z" fill="url(#linear-gradient-132)"/><path d="M1712.42,1403.11l-264.16-474.67c46.85-49.86,70.19-117.42,57.28-185.89-19.17-101.64-111.98-172.39-219.72-176.01l71.01,154.74-175.16,78.75-82.38-163.66c-53.1,50.57-80.47,122.46-66.72,195.37,20.56,109.04,125.86,182.52,243.43,175.72l236.68,498.48c26.53,55.88,93.24,79.81,149.24,53.55h0c58.96-27.65,82.15-99.49,50.48-156.39Z" fill="url(#linear-gradient-133)"/><polygon points="1275.04 580.88 1285.83 566.55 1356.84 721.29 1340.43 723.35 1275.04 580.88" fill="url(#linear-gradient-134)"/><path d="M1342.77,994.49l58.34-29.04,240.7,453.78c12.54,23.63,1.23,52.89-23.94,61.95h0c-21.28,7.66-44.91-2.07-54.61-22.51l-220.49-464.19Z" fill="url(#linear-gradient-135)"/><path d="M924.1,910.15c21.17-30.7,14.82-67.34,14.82-67.34l-124.99,20.69-124.99-20.69s-6.35,36.64,14.82,67.34c21.17,30.7,2.12,220.86,0,254.39-2.11,33.44-9.46,152.51,109.72,158.37v.07c.15,0,.29-.03.45-.03.15,0,.29.03.45.03v-.07c119.18-5.86,111.84-124.93,109.72-158.37-2.12-33.53-21.17-223.7,0-254.39Z" fill="url(#linear-gradient-136)"/><ellipse cx="813.93" cy="832.34" rx="125.44" ry="60.87" fill="url(#linear-gradient-137)"/><path d="M852.38,316.4h-76.89l-33.59,146.41,29.91,44.62v326.89l6.54,3.69c22.09,12.45,49.08,12.45,71.17,0l6.54-3.69v-326.89l29.91-44.62-33.59-146.41Z" fill="url(#linear-gradient-138)"/></g></svg>