<?xml version="1.0" encoding="UTF-8"?><svg id="Layer_2" xmlns="http://www.w3.org/2000/svg" xmlns:xlink="http://www.w3.org/1999/xlink" viewBox="0 0 2214.54 1769.83"><defs><linearGradient id="linear-gradient" x1="-115.06" y1="1725.12" x2="-1427.34" y2="2023.73" gradientTransform="translate(901.16 -1288.21) rotate(-12.05)" gradientUnits="userSpaceOnUse"><stop offset="0" stop-color="#303030"/><stop offset="1" stop-color="#727272"/></linearGradient><linearGradient id="linear-gradient-2" x1="-168" y1="1737.23" x2="-1375.57" y2="2012.01" gradientTransform="translate(901.16 -1288.21) rotate(-12.05)" gradientUnits="userSpaceOnUse"><stop offset="0" stop-color="#f9f9f9"/><stop offset="1" stop-color="#f0f0f0"/></linearGradient><linearGradient id="linear-gradient-3" x1="-378.76" y1="1330.94" x2="-633" y2="1388.79" gradientTransform="translate(902.32 -1306.6) rotate(-13.65) skewX(-1.59)" gradientUnits="userSpaceOnUse"><stop offset="0" stop-color="#3abaf9"/><stop offset="1" stop-color="#267ebd"/></linearGradient><linearGradient id="linear-gradient-4" x1="1330.17" y1="1219.49" x2="1153.9" y2="790.44" gradientUnits="userSpaceOnUse"><stop offset="0" stop-color="#b92222"/><stop offset=".25" stop-color="#dd2f2f"/><stop offset=".85" stop-color="#ff6757"/></linearGradient><linearGradient id="linear-gradient-5" x1="1130.35" y1="712.23" x2="814.1" y2="500.71" xlink:href="#linear-gradient-4"/><linearGradient id="linear-gradient-6" x1="1659.17" y1="853.55" x2="487.63" y2="1120.13" xlink:href="#linear-gradient-4"/><linearGradient id="linear-gradient-7" x1="1611.11" y1="692.77" x2="575.87" y2="928.33" gradientUnits="userSpaceOnUse"><stop offset="0" stop-color="#b92222"/><stop offset=".25" stop-color="#fff"/><stop offset=".85" stop-color="#ff6757"/></linearGradient><linearGradient id="linear-gradient-8" x1="1488.2" y1="1111.76" x2="1469.75" y2="1115.96" xlink:href="#linear-gradient-7"/><linearGradient id="linear-gradient-9" x1="209.85" y1="1024.31" x2="2092.32" y2="1024.31" gradientUnits="userSpaceOnUse"><stop offset="0" stop-color="#e33936"/><stop offset="1" stop-color="#ff9d00"/></linearGradient><linearGradient id="linear-gradient-10" x1="199.7" y1="1038.02" x2="2082.16" y2="1038.02" gradientUnits="userSpaceOnUse"><stop offset="0" stop-color="#ffe94d"/><stop offset="1" stop-color="#ff9d00"/></linearGradient><linearGradient id="linear-gradient-11" x1="4202.06" y1="-2519.02" x2="4026.5" y2="-2777.2" gradientTransform="translate(-2788.28 2033.05) rotate(25.8)" gradientUnits="userSpaceOnUse"><stop offset="0" stop-color="#e0e0e0"/><stop offset="1" stop-color="#f0f0f0"/></linearGradient><linearGradient id="linear-gradient-12" x1="1870.38" y1="1423.99" x2="2052.6" y2="1423.99" gradientUnits="userSpaceOnUse"><stop offset="0" stop-color="#afafaf"/><stop offset="1" stop-color="#ddd"/></linearGradient><linearGradient id="linear-gradient-13" x1="4073.29" y1="-2464.26" x2="3917.6" y2="-2693.21" gradientTransform="translate(-2788.28 2033.05) rotate(25.8)" xlink:href="#linear-gradient"/><linearGradient id="linear-gradient-14" x1="1873.78" y1="1303.84" x2="1402.07" y2="1411.18" gradientUnits="userSpaceOnUse"><stop offset="0" stop-color="#ce8074"/><stop offset="1" stop-color="#fcab92"/></linearGradient><linearGradient id="linear-gradient-15" x1="1518.76" y1="1421.9" x2="1559.95" y2="1351.3" xlink:href="#linear-gradient-14"/><linearGradient id="linear-gradient-16" x1="1670.64" y1="1440.99" x2="1664.1" y2="1390" xlink:href="#linear-gradient-14"/><linearGradient id="linear-gradient-17" x1="1507.33" y1="1516.15" x2="1528.9" y2="1434.43" xlink:href="#linear-gradient-14"/><linearGradient id="linear-gradient-18" x1="1650.76" y1="1517.95" x2="1655.34" y2="1458.46" xlink:href="#linear-gradient-14"/><linearGradient id="linear-gradient-19" x1="1635.71" y1="1569.35" x2="1627.22" y2="1526.86" xlink:href="#linear-gradient-14"/><linearGradient id="linear-gradient-20" x1="1491.35" y1="1574.53" x2="1515.54" y2="1518.96" xlink:href="#linear-gradient-14"/><linearGradient id="linear-gradient-21" x1="1487.11" y1="1631.47" x2="1500.84" y2="1579.17" xlink:href="#linear-gradient-14"/><linearGradient id="linear-gradient-22" x1="1625.56" y1="1627.33" x2="1611.18" y2="1578.29" xlink:href="#linear-gradient-14"/><linearGradient id="linear-gradient-23" x1="1695.1" y1="1503.23" x2="1692.98" y2="1503.71" xlink:href="#linear-gradient-14"/><linearGradient id="linear-gradient-24" x1="916.99" y1="-1747.48" x2="1006" y2="-1484.62" gradientTransform="translate(450.19 2323.73) rotate(11.15) scale(1.24 1.2) skewX(2.73)" gradientUnits="userSpaceOnUse"><stop offset="0" stop-color="#82fb7c"/><stop offset="1" stop-color="#0ba2b3"/></linearGradient><linearGradient id="linear-gradient-25" x1="821.27" y1="-1546.49" x2="1005.81" y2="-1718.79" xlink:href="#linear-gradient-24"/></defs><g id="Layer_4"><g opacity=".1"><ellipse cx="1892.71" cy="1630.43" rx="321.83" ry="139.4" transform="translate(-2.64 3.07) rotate(-.09)" fill="#4c0000" opacity="0"/><ellipse cx="1892.71" cy="1630.43" rx="313.54" ry="135.81" transform="translate(-2.64 3.07) rotate(-.09)" fill="#4a0101" opacity=".04"/><ellipse cx="1892.71" cy="1630.43" rx="305.25" ry="132.22" transform="translate(-2.64 3.07) rotate(-.09)" fill="#480202" opacity=".08"/><ellipse cx="1892.71" cy="1630.43" rx="296.96" ry="128.63" transform="translate(-2.64 3.07) rotate(-.09)" fill="#460303" opacity=".12"/><ellipse cx="1892.71" cy="1630.43" rx="288.67" ry="125.04" transform="translate(-2.64 3.07) rotate(-.09)" fill="#440404" opacity=".15"/><ellipse cx="1892.71" cy="1630.43" rx="280.38" ry="121.45" transform="translate(-2.64 3.07) rotate(-.09)" fill="#420505" opacity=".19"/><ellipse cx="1892.71" cy="1630.43" rx="272.09" ry="117.86" transform="translate(-2.64 3.08) rotate(-.09)" fill="#400606" opacity=".23"/><ellipse cx="1892.71" cy="1630.43" rx="263.8" ry="114.27" transform="translate(-2.64 3.08) rotate(-.09)" fill="#3e0606" opacity=".27"/><ellipse cx="1892.71" cy="1630.43" rx="255.51" ry="110.68" transform="translate(-2.65 3.08) rotate(-.09)" fill="#3c0707" opacity=".31"/><ellipse cx="1892.71" cy="1630.43" rx="247.22" ry="107.09" transform="translate(-2.65 3.08) rotate(-.09)" fill="#3a0808" opacity=".35"/><ellipse cx="1892.71" cy="1630.43" rx="238.93" ry="103.49" transform="translate(-2.65 3.08) rotate(-.09)" fill="#380909" opacity=".38"/><ellipse cx="1892.71" cy="1630.43" rx="230.64" ry="99.9" transform="translate(-2.65 3.08) rotate(-.09)" fill="#360a0a" opacity=".42"/><ellipse cx="1892.71" cy="1630.43" rx="222.35" ry="96.31" transform="translate(-2.65 3.08) rotate(-.09)" fill="#340b0b" opacity=".46"/><ellipse cx="1892.71" cy="1630.43" rx="214.06" ry="92.72" transform="translate(-2.65 3.08) rotate(-.09)" fill="#330c0c" opacity=".5"/><ellipse cx="1892.71" cy="1630.43" rx="205.77" ry="89.13" transform="translate(-2.65 3.08) rotate(-.09)" fill="#310d0d" opacity=".54"/><ellipse cx="1892.71" cy="1630.43" rx="197.48" ry="85.54" transform="translate(-2.65 3.08) rotate(-.09)" fill="#2f0e0e" opacity=".58"/><ellipse cx="1892.71" cy="1630.43" rx="189.19" ry="81.95" transform="translate(-2.65 3.08) rotate(-.09)" fill="#2d0f0f" opacity=".62"/><ellipse cx="1892.71" cy="1630.43" rx="180.9" ry="78.36" transform="translate(-2.65 3.08) rotate(-.09)" fill="#2b1010" opacity=".65"/><ellipse cx="1892.71" cy="1630.43" rx="172.61" ry="74.77" transform="translate(-2.65 3.08) rotate(-.09)" fill="#291111" opacity=".69"/><ellipse cx="1892.71" cy="1630.43" rx="164.32" ry="71.18" transform="translate(-2.65 3.08) rotate(-.09)" fill="#271212" opacity=".73"/><ellipse cx="1892.71" cy="1630.43" rx="156.03" ry="67.59" transform="translate(-2.65 3.08) rotate(-.09)" fill="#251212" opacity=".77"/><ellipse cx="1892.71" cy="1630.43" rx="147.74" ry="63.99" transform="translate(-2.65 3.08) rotate(-.09)" fill="#231313" opacity=".81"/><ellipse cx="1892.71" cy="1630.43" rx="139.45" ry="60.4" transform="translate(-2.65 3.08) rotate(-.09)" fill="#211414" opacity=".85"/><ellipse cx="1892.71" cy="1630.43" rx="131.16" ry="56.81" transform="translate(-2.65 3.08) rotate(-.09)" fill="#1f1515" opacity=".88"/><ellipse cx="1892.71" cy="1630.43" rx="122.87" ry="53.22" transform="translate(-2.65 3.09) rotate(-.09)" fill="#1d1616" opacity=".92"/><ellipse cx="1892.71" cy="1630.43" rx="114.58" ry="49.63" transform="translate(-2.66 3.09) rotate(-.09)" fill="#1b1717" opacity=".96"/><ellipse cx="1892.71" cy="1630.43" rx="106.29" ry="46.04" transform="translate(-2.66 3.09) rotate(-.09)" fill="#191818"/></g><g opacity=".1"><ellipse cx="1740.55" cy="869.66" rx="321.83" ry="139.4" transform="translate(-1.41 2.83) rotate(-.09)" fill="#4c0000" opacity="0"/><ellipse cx="1740.55" cy="869.66" rx="313.54" ry="135.81" transform="translate(-1.41 2.83) rotate(-.09)" fill="#4a0101" opacity=".04"/><ellipse cx="1740.55" cy="869.66" rx="305.25" ry="132.22" transform="translate(-1.41 2.83) rotate(-.09)" fill="#480202" opacity=".08"/><ellipse cx="1740.55" cy="869.66" rx="296.96" ry="128.63" transform="translate(-1.41 2.83) rotate(-.09)" fill="#460303" opacity=".12"/><ellipse cx="1740.55" cy="869.66" rx="288.67" ry="125.04" transform="translate(-1.41 2.83) rotate(-.09)" fill="#440404" opacity=".15"/><ellipse cx="1740.55" cy="869.66" rx="280.38" ry="121.45" transform="translate(-1.41 2.83) rotate(-.09)" fill="#420505" opacity=".19"/><ellipse cx="1740.55" cy="869.66" rx="272.09" ry="117.86" transform="translate(-1.41 2.83) rotate(-.09)" fill="#400606" opacity=".23"/><ellipse cx="1740.55" cy="869.66" rx="263.8" ry="114.27" transform="translate(-1.41 2.83) rotate(-.09)" fill="#3e0606" opacity=".27"/><ellipse cx="1740.55" cy="869.66" rx="255.51" ry="110.68" transform="translate(-1.41 2.83) rotate(-.09)" fill="#3c0707" opacity=".31"/><ellipse cx="1740.55" cy="869.66" rx="247.22" ry="107.09" transform="translate(-1.41 2.83) rotate(-.09)" fill="#3a0808" opacity=".35"/><ellipse cx="1740.55" cy="869.66" rx="238.93" ry="103.49" transform="translate(-1.41 2.83) rotate(-.09)" fill="#380909" opacity=".38"/><ellipse cx="1740.55" cy="869.66" rx="230.64" ry="99.9" transform="translate(-1.41 2.83) rotate(-.09)" fill="#360a0a" opacity=".42"/><ellipse cx="1740.55" cy="869.66" rx="222.35" ry="96.31" transform="translate(-1.41 2.83) rotate(-.09)" fill="#340b0b" opacity=".46"/><ellipse cx="1740.55" cy="869.66" rx="214.06" ry="92.72" transform="translate(-1.41 2.83) rotate(-.09)" fill="#330c0c" opacity=".5"/><ellipse cx="1740.55" cy="869.66" rx="205.77" ry="89.13" transform="translate(-1.41 2.83) rotate(-.09)" fill="#310d0d" opacity=".54"/><ellipse cx="1740.54" cy="869.66" rx="197.48" ry="85.54" transform="translate(-1.41 2.83) rotate(-.09)" fill="#2f0e0e" opacity=".58"/><ellipse cx="1740.54" cy="869.66" rx="189.19" ry="81.95" transform="translate(-1.41 2.83) rotate(-.09)" fill="#2d0f0f" opacity=".62"/><ellipse cx="1740.54" cy="869.66" rx="180.9" ry="78.36" transform="translate(-1.41 2.83) rotate(-.09)" fill="#2b1010" opacity=".65"/><ellipse cx="1740.54" cy="869.66" rx="172.61" ry="74.77" transform="translate(-1.41 2.83) rotate(-.09)" fill="#291111" opacity=".69"/><ellipse cx="1740.54" cy="869.66" rx="164.32" ry="71.18" transform="translate(-1.41 2.83) rotate(-.09)" fill="#271212" opacity=".73"/><ellipse cx="1740.54" cy="869.66" rx="156.03" ry="67.59" transform="translate(-1.41 2.83) rotate(-.09)" fill="#251212" opacity=".77"/><ellipse cx="1740.54" cy="869.66" rx="147.74" ry="63.99" transform="translate(-1.41 2.83) rotate(-.09)" fill="#231313" opacity=".81"/><ellipse cx="1740.54" cy="869.66" rx="139.45" ry="60.4" transform="translate(-1.41 2.84) rotate(-.09)" fill="#211414" opacity=".85"/><ellipse cx="1740.54" cy="869.66" rx="131.16" ry="56.81" transform="translate(-1.41 2.84) rotate(-.09)" fill="#1f1515" opacity=".88"/><ellipse cx="1740.54" cy="869.66" rx="122.87" ry="53.22" transform="translate(-1.41 2.84) rotate(-.09)" fill="#1d1616" opacity=".92"/><ellipse cx="1740.54" cy="869.66" rx="114.58" ry="49.63" transform="translate(-1.42 2.84) rotate(-.09)" fill="#1b1717" opacity=".96"/><ellipse cx="1740.54" cy="869.66" rx="106.29" ry="46.04" transform="translate(-1.42 2.84) rotate(-.09)" fill="#191818"/></g><g opacity=".1"><ellipse cx="951.13" cy="1602.76" rx="321.83" ry="139.4" transform="translate(-2.6 1.55) rotate(-.09)" fill="#4c0000" opacity="0"/><ellipse cx="951.13" cy="1602.76" rx="313.54" ry="135.81" transform="translate(-2.6 1.55) rotate(-.09)" fill="#4a0101" opacity=".04"/><ellipse cx="951.13" cy="1602.76" rx="305.25" ry="132.22" transform="translate(-2.6 1.55) rotate(-.09)" fill="#480202" opacity=".08"/><ellipse cx="951.13" cy="1602.76" rx="296.96" ry="128.63" transform="translate(-2.6 1.55) rotate(-.09)" fill="#460303" opacity=".12"/><ellipse cx="951.13" cy="1602.76" rx="288.67" ry="125.04" transform="translate(-2.6 1.55) rotate(-.09)" fill="#440404" opacity=".15"/><ellipse cx="951.13" cy="1602.76" rx="280.38" ry="121.45" transform="translate(-2.6 1.55) rotate(-.09)" fill="#420505" opacity=".19"/><ellipse cx="951.13" cy="1602.76" rx="272.09" ry="117.86" transform="translate(-2.6 1.55) rotate(-.09)" fill="#400606" opacity=".23"/><ellipse cx="951.13" cy="1602.76" rx="263.8" ry="114.27" transform="translate(-2.6 1.55) rotate(-.09)" fill="#3e0606" opacity=".27"/><ellipse cx="951.13" cy="1602.76" rx="255.51" ry="110.68" transform="translate(-2.6 1.55) rotate(-.09)" fill="#3c0707" opacity=".31"/><ellipse cx="951.13" cy="1602.76" rx="247.22" ry="107.09" transform="translate(-2.6 1.55) rotate(-.09)" fill="#3a0808" opacity=".35"/><ellipse cx="951.13" cy="1602.76" rx="238.93" ry="103.49" transform="translate(-2.6 1.55) rotate(-.09)" fill="#380909" opacity=".38"/><ellipse cx="951.13" cy="1602.76" rx="230.64" ry="99.9" transform="translate(-2.6 1.55) rotate(-.09)" fill="#360a0a" opacity=".42"/><ellipse cx="951.13" cy="1602.76" rx="222.35" ry="96.31" transform="translate(-2.6 1.55) rotate(-.09)" fill="#340b0b" opacity=".46"/><ellipse cx="951.13" cy="1602.76" rx="214.06" ry="92.72" transform="translate(-2.6 1.55) rotate(-.09)" fill="#330c0c" opacity=".5"/><ellipse cx="951.13" cy="1602.76" rx="205.77" ry="89.13" transform="translate(-2.6 1.55) rotate(-.09)" fill="#310d0d" opacity=".54"/><ellipse cx="951.13" cy="1602.76" rx="197.48" ry="85.54" transform="translate(-2.6 1.55) rotate(-.09)" fill="#2f0e0e" opacity=".58"/><ellipse cx="951.12" cy="1602.76" rx="189.19" ry="81.95" transform="translate(-2.6 1.55) rotate(-.09)" fill="#2d0f0f" opacity=".62"/><ellipse cx="951.12" cy="1602.76" rx="180.9" ry="78.36" transform="translate(-2.6 1.55) rotate(-.09)" fill="#2b1010" opacity=".65"/><ellipse cx="951.12" cy="1602.76" rx="172.61" ry="74.77" transform="translate(-2.61 1.55) rotate(-.09)" fill="#291111" opacity=".69"/><ellipse cx="951.12" cy="1602.76" rx="164.32" ry="71.18" transform="translate(-2.61 1.55) rotate(-.09)" fill="#271212" opacity=".73"/><ellipse cx="951.12" cy="1602.76" rx="156.03" ry="67.59" transform="translate(-2.61 1.55) rotate(-.09)" fill="#251212" opacity=".77"/><ellipse cx="951.12" cy="1602.76" rx="147.74" ry="63.99" transform="translate(-2.61 1.55) rotate(-.09)" fill="#231313" opacity=".81"/><ellipse cx="951.12" cy="1602.76" rx="139.45" ry="60.4" transform="translate(-2.61 1.55) rotate(-.09)" fill="#211414" opacity=".85"/><ellipse cx="951.12" cy="1602.76" rx="131.16" ry="56.81" transform="translate(-2.61 1.55) rotate(-.09)" fill="#1f1515" opacity=".88"/><ellipse cx="951.12" cy="1602.76" rx="122.87" ry="53.22" transform="translate(-2.61 1.55) rotate(-.09)" fill="#1d1616" opacity=".92"/><ellipse cx="951.12" cy="1602.76" rx="114.58" ry="49.63" transform="translate(-2.61 1.55) rotate(-.09)" fill="#1b1717" opacity=".96"/><ellipse cx="951.12" cy="1602.76" rx="106.29" ry="46.04" transform="translate(-2.61 1.55) rotate(-.09)" fill="#191818"/></g><g opacity=".1"><ellipse cx="359.04" cy="1257.94" rx="321.83" ry="139.4" transform="translate(-2.04 .58) rotate(-.09)" fill="#4c0000" opacity="0"/><ellipse cx="359.04" cy="1257.94" rx="313.54" ry="135.81" transform="translate(-2.04 .58) rotate(-.09)" fill="#4a0101" opacity=".04"/><ellipse cx="359.04" cy="1257.94" rx="305.25" ry="132.22" transform="translate(-2.04 .58) rotate(-.09)" fill="#480202" opacity=".08"/><ellipse cx="359.04" cy="1257.94" rx="296.96" ry="128.63" transform="translate(-2.04 .58) rotate(-.09)" fill="#460303" opacity=".12"/><ellipse cx="359.04" cy="1257.94" rx="288.67" ry="125.04" transform="translate(-2.04 .58) rotate(-.09)" fill="#440404" opacity=".15"/><ellipse cx="359.04" cy="1257.94" rx="280.38" ry="121.45" transform="translate(-2.04 .58) rotate(-.09)" fill="#420505" opacity=".19"/><ellipse cx="359.04" cy="1257.94" rx="272.09" ry="117.86" transform="translate(-2.04 .58) rotate(-.09)" fill="#400606" opacity=".23"/><ellipse cx="359.04" cy="1257.94" rx="263.8" ry="114.27" transform="translate(-2.04 .58) rotate(-.09)" fill="#3e0606" opacity=".27"/><ellipse cx="359.04" cy="1257.94" rx="255.51" ry="110.68" transform="translate(-2.04 .58) rotate(-.09)" fill="#3c0707" opacity=".31"/><ellipse cx="359.04" cy="1257.94" rx="247.22" ry="107.09" transform="translate(-2.04 .58) rotate(-.09)" fill="#3a0808" opacity=".35"/><ellipse cx="359.04" cy="1257.94" rx="238.93" ry="103.49" transform="translate(-2.04 .58) rotate(-.09)" fill="#380909" opacity=".38"/><ellipse cx="359.04" cy="1257.94" rx="230.64" ry="99.9" transform="translate(-2.04 .58) rotate(-.09)" fill="#360a0a" opacity=".42"/><ellipse cx="359.04" cy="1257.94" rx="222.35" ry="96.31" transform="translate(-2.04 .58) rotate(-.09)" fill="#340b0b" opacity=".46"/><ellipse cx="359.03" cy="1257.94" rx="214.06" ry="92.72" transform="translate(-2.04 .59) rotate(-.09)" fill="#330c0c" opacity=".5"/><ellipse cx="359.03" cy="1257.94" rx="205.77" ry="89.13" transform="translate(-2.04 .59) rotate(-.09)" fill="#310d0d" opacity=".54"/><ellipse cx="359.03" cy="1257.94" rx="197.48" ry="85.54" transform="translate(-2.04 .59) rotate(-.09)" fill="#2f0e0e" opacity=".58"/><ellipse cx="359.03" cy="1257.94" rx="189.19" ry="81.95" transform="translate(-2.04 .59) rotate(-.09)" fill="#2d0f0f" opacity=".62"/><ellipse cx="359.03" cy="1257.94" rx="180.9" ry="78.36" transform="translate(-2.04 .59) rotate(-.09)" fill="#2b1010" opacity=".65"/><ellipse cx="359.03" cy="1257.94" rx="172.61" ry="74.77" transform="translate(-2.05 .59) rotate(-.09)" fill="#291111" opacity=".69"/><ellipse cx="359.03" cy="1257.94" rx="164.32" ry="71.18" transform="translate(-2.05 .59) rotate(-.09)" fill="#271212" opacity=".73"/><ellipse cx="359.03" cy="1257.94" rx="156.03" ry="67.59" transform="translate(-2.05 .59) rotate(-.09)" fill="#251212" opacity=".77"/><ellipse cx="359.03" cy="1257.94" rx="147.74" ry="63.99" transform="translate(-2.05 .59) rotate(-.09)" fill="#231313" opacity=".81"/><ellipse cx="359.03" cy="1257.94" rx="139.45" ry="60.4" transform="translate(-2.05 .59) rotate(-.09)" fill="#211414" opacity=".85"/><ellipse cx="359.03" cy="1257.94" rx="131.16" ry="56.81" transform="translate(-2.05 .59) rotate(-.09)" fill="#1f1515" opacity=".88"/><ellipse cx="359.03" cy="1257.94" rx="122.87" ry="53.22" transform="translate(-2.05 .59) rotate(-.09)" fill="#1d1616" opacity=".92"/><ellipse cx="359.03" cy="1257.94" rx="114.58" ry="49.63" transform="translate(-2.05 .59) rotate(-.09)" fill="#1b1717" opacity=".96"/><ellipse cx="359.03" cy="1257.94" rx="106.29" ry="46.04" transform="translate(-2.05 .59) rotate(-.09)" fill="#191818"/></g><polygon points="331.88 20.65 1063.18 238.22 748 1389.85 0 1144.84 331.88 20.65" fill="url(#linear-gradient)"/><polygon points="46.44 1118.81 359.97 69.62 1015.59 264.67 721.17 1340.43 46.44 1118.81" fill="url(#linear-gradient-2)"/><path d="M804.09,100.38l-7.25-2.15c-7.33-2.17-12.03-9.19-11.28-16.91.98-10.1-.02-20.56-3.4-30.88-10.93-33.37-44.72-54.5-79.83-49.78-25.39,3.42-45.96,18.54-57.66,38.77-3.94,6.81-11.91,10.14-19.28,7.96l-2.28-.68c-19.62-5.82-40.6,6.06-46.19,26.16l-24.58,88.42,244.25,71.83,28.71-92.02c5.44-17.45-4.03-35.63-21.21-40.72ZM729.45,121.04c-32.52,14.63-67.87-7.37-68.66-42.71-.44-19.75,11.57-38.68,29.74-46.85,32.51-14.63,67.87,7.35,68.67,42.7.44,19.75-11.57,38.69-29.74,46.86Z" fill="url(#linear-gradient-3)"/><path d="M942.7,409.47l-388.69-110.48c-3.78-1.07-6-5.05-4.92-8.83l.55-1.93c1.07-3.78,5.05-6,8.83-4.92l388.69,110.48c3.78,1.07,6,5.05,4.92,8.83l-.55,1.93c-1.07,3.78-5.05,6-8.83,4.92Z" fill="#c4c4c4"/><path d="M929.89,454.54l-388.69-110.48c-3.78-1.07-6-5.05-4.92-8.83l.55-1.93c1.07-3.78,5.05-6,8.83-4.92l388.69,110.48c3.78,1.07,6,5.05,4.92,8.83l-.55,1.93c-1.07,3.78-5.05,6-8.83,4.92Z" fill="#c4c4c4"/><path d="M861.37,483.78l-332.98-94.64c-3.78-1.07-6-5.05-4.92-8.83l.55-1.93c1.07-3.78,5.05-6,8.83-4.92l332.98,94.64c3.78,1.07,6,5.05,4.92,8.83l-.55,1.93c-1.07,3.78-5.05,6-8.83,4.92Z" fill="#c4c4c4"/><path d="M408.98,234.45l-33.43,117.62,98.81,28.08,33.43-117.62-98.81-28.08ZM423.73,335.89l-4.04-57.08,14.66-7.26,3.83,40.48,39.23-8.93,2.15,19.42-55.83,13.36Z" fill="#c4c4c4"/><path d="M893.12,583.89l-388.69-110.48c-3.78-1.07-6-5.05-4.92-8.83l.55-1.93c1.07-3.78,5.05-6,8.83-4.92l388.69,110.48c3.78,1.07,6,5.05,4.92,8.83l-.55,1.93c-1.07,3.78-5.05,6-8.83,4.92Z" fill="#c4c4c4"/><path d="M880.31,628.97l-388.69-110.48c-3.78-1.07-6-5.05-4.92-8.83l.55-1.93c1.07-3.78,5.05-6,8.83-4.92l388.69,110.48c3.78,1.07,6,5.05,4.92,8.83l-.55,1.93c-1.07,3.78-5.05,6-8.83,4.92Z" fill="#c4c4c4"/><path d="M811.79,658.21l-332.98-94.64c-3.78-1.07-6-5.05-4.92-8.83l.55-1.93c1.07-3.78,5.05-6,8.83-4.92l332.98,94.64c3.78,1.07,6,5.05,4.92,8.83l-.55,1.93c-1.07,3.78-5.05,6-8.83,4.92Z" fill="#c4c4c4"/><path d="M359.39,408.87l-33.43,117.62,98.81,28.08,33.43-117.62-98.81-28.08ZM374.15,510.31l-4.04-57.08,14.66-7.26,3.83,40.48,39.23-8.93,2.15,19.43-55.83,13.36Z" fill="#c4c4c4"/><path d="M843.54,758.32l-388.69-110.48c-3.78-1.07-6-5.05-4.92-8.83l.55-1.93c1.07-3.78,5.05-6,8.83-4.92l388.69,110.48c3.78,1.07,6,5.05,4.92,8.83l-.55,1.93c-1.07,3.78-5.05,6-8.83,4.92Z" fill="#c4c4c4"/><path d="M830.72,803.39l-388.69-110.48c-3.78-1.07-6-5.05-4.92-8.83l.55-1.93c1.07-3.78,5.05-6,8.83-4.92l388.69,110.48c3.78,1.07,6,5.05,4.92,8.83l-.55,1.93c-1.07,3.78-5.05,6-8.83,4.92Z" fill="#c4c4c4"/><path d="M762.21,832.63l-332.98-94.64c-3.78-1.07-6-5.05-4.92-8.83l.55-1.93c1.07-3.78,5.05-6,8.83-4.92l332.98,94.64c3.78,1.07,6,5.05,4.92,8.83l-.55,1.93c-1.07,3.78-5.05,6-8.83,4.92Z" fill="#c4c4c4"/><path d="M309.81,583.3l-33.43,117.62,98.81,28.08,33.43-117.62-98.81-28.08ZM324.57,684.74l-4.04-57.08,14.66-7.26,3.83,40.48,39.23-8.93,2.15,19.42-55.83,13.36Z" fill="#c4c4c4"/><path d="M793.95,932.74l-388.69-110.48c-3.78-1.07-6-5.05-4.92-8.83l.55-1.93c1.07-3.78,5.05-6,8.83-4.92l388.69,110.48c3.78,1.07,6,5.05,4.92,8.83l-.55,1.93c-1.07,3.78-5.05,6-8.83,4.92Z" fill="#c4c4c4"/><path d="M781.14,977.82l-388.69-110.48c-3.78-1.07-6-5.05-4.92-8.83l.55-1.93c1.07-3.78,5.05-6,8.83-4.92l388.69,110.48c3.78,1.07,6,5.05,4.92,8.83l-.55,1.93c-1.07,3.78-5.05,6-8.83,4.92Z" fill="#c4c4c4"/><path d="M712.63,1007.06l-332.98-94.64c-3.78-1.07-6-5.05-4.92-8.83l.55-1.93c1.07-3.78,5.05-6,8.83-4.92l332.98,94.64c3.78,1.07,6,5.05,4.92,8.83l-.55,1.93c-1.07,3.78-5.05,6-8.83,4.92Z" fill="#c4c4c4"/><path d="M260.23,757.72l-33.43,117.62,98.81,28.08,33.43-117.62-98.81-28.08ZM274.99,859.16l-4.04-57.08,14.66-7.26,3.83,40.48,39.23-8.93,2.15,19.43-55.83,13.36Z" fill="#c4c4c4"/><path d="M744.37,1107.17l-388.69-110.48c-3.78-1.07-6-5.05-4.92-8.83l.55-1.93c1.07-3.78,5.05-6,8.83-4.92l388.69,110.48c3.78,1.07,6,5.05,4.92,8.83l-.55,1.93c-1.07,3.78-5.05,6-8.83,4.92Z" fill="#c4c4c4"/><path d="M731.56,1152.24l-388.69-110.48c-3.78-1.07-6-5.05-4.92-8.83l.55-1.93c1.07-3.78,5.05-6,8.83-4.92l388.69,110.48c3.78,1.07,6,5.05,4.92,8.83l-.55,1.93c-1.07,3.78-5.05,6-8.83,4.92Z" fill="#c4c4c4"/><path d="M663.04,1181.48l-332.98-94.64c-3.78-1.07-6-5.05-4.92-8.83l.55-1.93c1.07-3.78,5.05-6,8.83-4.92l332.98,94.64c3.78,1.07,6,5.05,4.92,8.83l-.55,1.93c-1.07,3.78-5.05,6-8.83,4.92Z" fill="#c4c4c4"/><path d="M210.65,932.15l-33.43,117.62,98.81,28.08,33.43-117.62-98.81-28.08ZM225.41,1033.58l-4.04-57.08,14.66-7.26,3.83,40.48,39.23-8.93,2.15,19.42-55.83,13.36Z" fill="#c4c4c4"/><path d="M1539.51,1147.74c-221.55,173.47-507.42,378.46-507.42,378.46l-78.4,32.91c-5.26-44.12,39.14-229.19-156.6-523.61-120.34-181.06-140.39-330.79-105.94-435.69,36.59-111.84,135.07-172.76,239.71-166.27,202.73,12.52,236.4,219.47,236.4,219.47,0,0,240.16-148.36,376.01-52.22,135.84,96.14,217.78,373.48-3.76,546.95Z" fill="url(#linear-gradient-4)"/><path d="M1167.26,653.01l-94.2,72.14-381.91-125.33c-104.75-15.55,135.07-172.76,239.71-166.27,202.73,12.52,236.4,219.47,236.4,219.47Z" fill="url(#linear-gradient-5)"/><path d="M1452.19,1143.26c-9.54,9.34-19.79,18.49-30.75,27.51-3.31,2.66-6.61,5.32-9.99,7.98-221.54,173.47-457.74,380.35-457.74,380.35,0,0-2.08-77.33-250.8-451.45-60.72-91.34-95.88-174.64-111.39-248.27-3.63-17.13-6.16-33.67-7.72-49.69-19.46-197.86,111.13-312.75,252.88-303.93,202.73,12.52,236.4,219.4,236.4,219.4,0,0,240.1-148.37,375.94-52.23,126.83,89.72,177.17,301.47,3.18,470.33Z" fill="url(#linear-gradient-6)"/><g opacity=".58"><path d="M834.34,508.79c202.74,12.54,236.4,219.46,236.4,219.46,0,0,240.14-148.39,375.99-52.25,113.5,80.33,165.68,258.38,50.6,415.96,118.03-158.33,65.94-338.19-48.29-419.04-135.85-96.14-376,52.25-376,52.25,0,0-33.66-206.92-236.39-219.46-74.46-4.61-145.79,24.95-193.96,82.67,1.52-1.66,3.12-3.21,4.69-4.81,47.94-52.48,116.01-79.17,186.97-74.78Z" fill="url(#linear-gradient-7)"/><path d="M1473.49,1121.11c1.25-1.39,2.38-2.81,3.6-4.21,2.84-3.49,5.66-6.99,8.33-10.5-3.82,4.93-7.78,9.83-11.94,14.71Z" fill="url(#linear-gradient-8)"/></g><path d="M2073.52,1486.73l-807.43-445.34-223.93,327.98c-4.67,6.84-13.15,9.97-21.14,7.82-7.99-2.16-13.75-9.13-14.34-17.39l-40.47-559.58-145.91,133.89c-6.29,5.78-15.62,6.77-22.99,2.45L219.48,598.15c-9.27-5.43-12.39-17.35-6.96-26.63,5.43-9.27,17.35-12.39,26.63-6.96l565.43,331.15,164.98-151.39c5.5-5.05,13.4-6.51,20.34-3.75,6.94,2.76,11.69,9.24,12.23,16.68l39.35,544.09,202.44-296.52c5.66-8.28,16.69-10.91,25.47-6.07l822.93,453.89-18.8,34.08Z" fill="url(#linear-gradient-9)"/><g opacity=".3"><path d="M1452.19,1143.26c-9.54,9.34-19.79,18.49-30.75,27.51l-143.3-79.01-223.88,328c-4.67,6.81-13.17,9.93-21.15,7.79-8.04-2.14-13.75-9.15-14.34-17.39l-40.48-559.6-145.9,133.9c-6.29,5.77-15.64,6.81-23.03,2.46l-217.85-127.54c-3.63-17.13-6.16-33.67-7.72-49.69l232.83,136.36,164.97-151.35c5.51-5.06,13.43-6.55,20.37-3.76,6.94,2.72,11.68,9.21,12.2,16.67l39.38,544.09,202.47-296.54c5.64-8.24,16.67-10.9,25.43-6.03l170.75,94.13Z" fill="#0f0004"/></g><path d="M2063.36,1500.44l-807.43-445.34-223.93,327.98c-4.67,6.84-13.15,9.97-21.14,7.82-7.99-2.16-13.75-9.13-14.34-17.39l-40.47-559.58-145.91,133.89c-6.29,5.78-15.62,6.77-22.99,2.45L209.33,611.86c-9.27-5.43-12.39-17.35-6.96-26.63,5.43-9.27,17.35-12.39,26.63-6.96l565.43,331.15,164.98-151.39c5.5-5.05,13.4-6.51,20.34-3.75,6.94,2.76,11.69,9.24,12.23,16.68l39.35,544.09,202.44-296.52c5.66-8.28,16.69-10.91,25.47-6.07l822.93,453.89-18.8,34.08Z" fill="url(#linear-gradient-10)"/><path d="M1950.51,1267.88l127.49-9.81c23-1.59,47.06,11.87,66.79,40.73,2.27,3.35,4.44,6.88,6.5,10.42.68,1.14,1.25,2.35,1.93,3.49.84,1.67,1.79,3.2,2.63,4.93.35.69.65,1.5,1,2.25,1.33,2.64,2.55,5.41,3.77,8.18.51,1.27,1.2,2.47,1.71,3.75.23.64.45,1.28.68,1.91.73,1.79,1.41,3.65,2.08,5.51.6,1.62,1.25,3.24,1.8,4.93q0,.06.07.11c.24.82.49,1.81.8,2.68.53,1.51,1,3.02,1.41,4.54.4,1.34.85,2.62,1.25,3.96.48,1.63.85,3.39,1.33,5.09.27,1.23.66,2.51.93,3.74.17.65.33,1.29.5,1.93.79,3.46,1.53,6.98,2.21,10.5,0,.12.08.29.09.41.1.53.13,1.01.23,1.53.51,2.82,1.02,5.64,1.47,8.53.14,1.06.22,2.13.41,3.18.15,1.24.3,2.48.46,3.72.15,1.18.29,2.36.44,3.54.31,2.6.5,5.14.69,7.69.06.77.17,1.54.17,2.25.02.24.09.47.11.71.22,3.68.43,7.36.52,10.99-.02.54-.04,1.07,0,1.61.04,1.31.02,2.62.05,3.87-.03,2.03.06,4.05.04,6.08-.03,1.2-.12,2.39-.15,3.59-.05,1.73-.1,3.46-.21,5.14-.09,1.26-.06,2.45-.14,3.71-.13,1.5-.32,2.94-.39,4.44-.19,2.28-.38,4.5-.63,6.78-.11.96-.15,1.92-.26,2.88-.15,1.2-.43,2.3-.58,3.44-.41,3.31-.89,6.5-1.54,9.71-.04.3-.13.66-.16.97-.15,1.14-.31,2.29-.52,3.43-.22,1.03-.5,2.06-.72,3.09-.35,1.69-.7,3.39-1.12,5.03-.69,2.73-1.39,5.41-2.14,8.08-.42,1.58-.9,3.17-1.38,4.69-.86,2.81-1.79,5.56-2.84,8.32-.44,1.28-.88,2.57-1.38,3.86-1.56,3.93-3.17,7.8-4.98,11.51-1.7,3.58-3.54,6.88-5.44,10.12-.48.81-1.01,1.62-1.49,2.44-.53.87-1.06,1.75-1.6,2.56-.53.87-1.2,1.52-1.73,2.4-1.61,2.32-3.3,4.53-4.99,6.57-.48.69-1.02,1.51-1.57,2.14-.55.63-1.16,1.16-1.71,1.79-1.05,1.15-2.15,2.3-3.21,3.34-.66.7-1.32,1.47-1.99,2.06-.78.71-1.57,1.31-2.35,2.02-.9.72-1.74,1.44-2.58,2.16-.51.34-.95.79-1.4,1.18-1.47,1.06-2.95,2.01-4.43,2.89-.45.33-.91.66-1.36.93-.11.07-.23.14-.34.21-2,1.22-4.01,2.2-6.02,3.13-.29.14-.64.29-.98.43-.64.23-1.28.45-1.91.68-.98.43-2.02.87-3.07,1.24-.93.3-1.93.5-2.92.75-.64.17-1.28.33-1.93.5-.41.09-.76.23-1.17.33-2,.39-4.06.66-6.13.87l-.71.05-127.43,9.81c2.67-.2,5.32-.63,7.95-1.25.65-.11,1.29-.33,1.93-.5,2.05-.51,4.02-1.19,6.05-2,.64-.23,1.28-.45,1.86-.68,2.48-1.08,4.95-2.33,7.41-3.77.46-.27.91-.61,1.36-.94,1.93-1.22,3.86-2.61,5.78-4.06.9-.72,1.74-1.44,2.58-2.16,1.45-1.3,2.9-2.66,4.34-4.08,1.12-1.03,2.16-2.19,3.21-3.33,1.16-1.22,2.25-2.55,3.34-3.89,1.69-2.09,3.32-4.3,4.93-6.62,1.13-1.63,2.26-3.21,3.33-4.96.53-.81,1.01-1.62,1.49-2.44,1.9-3.24,3.74-6.53,5.44-10.12,1.81-3.71,3.49-7.59,4.98-11.51.51-1.23.94-2.57,1.44-3.86.99-2.76,1.97-5.51,2.84-8.31.48-1.53.9-3.11,1.38-4.69.76-2.68,1.45-5.35,2.08-8.08.42-1.64.83-3.34,1.18-5.03.44-2.06.76-4.17,1.2-6.29,0-.06.05-.18.04-.24.63-3.5,1.2-7.06,1.71-10.67.26-2.1.58-4.21.78-6.31.25-2.28.44-4.5.63-6.78.22-2.7.43-5.4.53-8.08.11-1.74.16-3.47.21-5.2.12-3.23.12-6.44.12-9.66-.03-1.25-.01-2.56-.05-3.87-.09-4.4-.24-8.86-.57-13.3-.05-.71-.17-1.48-.22-2.19-.28-3.79-.68-7.58-1.14-11.3-.15-1.24-.3-2.48-.45-3.72-.53-3.89-1.12-7.84-1.83-11.72-.1-.53-.19-1-.29-1.53-.8-4.29-1.77-8.57-2.8-12.84-.27-1.23-.61-2.52-.93-3.74-.76-3.04-1.64-6.07-2.52-9.05-.47-1.52-.94-3.03-1.41-4.54-.16-.52-.32-1.05-.53-1.51-.69-2.09-1.44-4.18-2.19-6.21-.68-1.86-1.35-3.71-2.02-5.51-.8-1.91-1.59-3.75-2.45-5.66-1.16-2.77-2.44-5.54-3.71-8.19-1.19-2.42-2.44-4.83-3.69-7.17-.62-1.15-1.25-2.35-1.86-3.44-2.12-3.6-4.23-7.13-6.5-10.48-19.78-28.86-43.85-42.32-66.85-40.73Z" fill="url(#linear-gradient-11)"/><path d="M2033.45,1529.34c-30.84,63.68-88.06,68.21-127.83,10-39.73-58.16-46.95-157.02-16.11-220.7,30.87-63.74,88.1-68.16,127.83-10,39.77,58.21,46.98,156.96,16.11,220.7Z" fill="url(#linear-gradient-12)"/><path d="M1826.67,1298.05l113.06-8.7c20.4-1.41,41.74,10.53,59.23,36.12,2.02,2.97,3.94,6.1,5.76,9.24.6,1.01,1.11,2.09,1.71,3.1.74,1.48,1.59,2.84,2.33,4.37.31.61.58,1.33.89,1.99,1.18,2.34,2.26,4.8,3.34,7.25.45,1.13,1.06,2.19,1.51,3.32.2.57.4,1.13.6,1.7.65,1.59,1.25,3.24,1.84,4.88.53,1.44,1.11,2.88,1.59,4.37q0,.05.06.1c.21.72.44,1.61.71,2.38.47,1.34.89,2.68,1.25,4.03.35,1.19.76,2.32,1.11,3.51.42,1.45.75,3.01,1.18,4.51.24,1.09.59,2.23.83,3.32.15.57.3,1.14.44,1.71.7,3.07,1.36,6.19,1.96,9.31,0,.11.07.26.08.36.09.47.12.89.21,1.36.45,2.5.9,5.01,1.3,7.57.12.94.19,1.89.37,2.82.13,1.1.27,2.2.41,3.3.13,1.05.26,2.09.39,3.14.28,2.3.45,4.56.61,6.82.05.68.15,1.36.15,2,.02.21.08.42.1.63.19,3.26.38,6.53.46,9.74-.02.48-.03.95,0,1.43.03,1.16.02,2.32.04,3.43-.02,1.8.06,3.59.03,5.39-.03,1.06-.11,2.12-.13,3.18-.04,1.54-.09,3.07-.19,4.56-.08,1.12-.05,2.17-.13,3.29-.11,1.33-.28,2.61-.34,3.93-.16,2.02-.34,3.99-.56,6.01-.09.85-.14,1.7-.23,2.55-.13,1.07-.38,2.04-.51,3.05-.36,2.93-.79,5.77-1.37,8.61-.03.27-.11.59-.15.86-.14,1.01-.27,2.03-.46,3.05-.2.91-.44,1.83-.64,2.74-.31,1.5-.62,3.01-.99,4.46-.61,2.42-1.23,4.8-1.9,7.17-.37,1.4-.79,2.81-1.22,4.16-.77,2.49-1.59,4.93-2.52,7.38-.39,1.14-.78,2.28-1.23,3.42-1.38,3.49-2.81,6.92-4.42,10.21-1.51,3.17-3.14,6.1-4.83,8.97-.42.72-.9,1.44-1.32,2.16-.47.77-.94,1.55-1.42,2.27-.47.78-1.06,1.35-1.53,2.12-1.43,2.06-2.92,4.02-4.43,5.82-.43.61-.9,1.34-1.39,1.9-.49.56-1.03,1.03-1.52,1.59-.93,1.02-1.91,2.04-2.84,2.96-.59.62-1.17,1.3-1.77,1.82-.69.63-1.39,1.16-2.09,1.79-.8.64-1.54,1.28-2.29,1.91-.45.3-.85.7-1.24,1.04-1.31.94-2.62,1.78-3.93,2.57-.4.29-.8.59-1.21.83-.1.06-.2.12-.3.18-1.77,1.08-3.55,1.95-5.34,2.77-.26.12-.56.25-.87.38-.57.2-1.13.4-1.7.6-.87.38-1.79.77-2.72,1.1-.82.27-1.71.44-2.59.67-.57.15-1.14.3-1.71.44-.36.08-.67.21-1.03.29-1.77.34-3.6.59-5.44.77l-.63.05-113.01,8.7c2.37-.18,4.71-.56,7.05-1.11.57-.09,1.14-.3,1.71-.44,1.82-.45,3.57-1.06,5.36-1.77.57-.2,1.13-.4,1.65-.6,2.2-.96,4.39-2.07,6.57-3.34.41-.24.81-.54,1.21-.83,1.72-1.08,3.42-2.32,5.12-3.6.8-.64,1.54-1.28,2.29-1.91,1.29-1.15,2.57-2.36,3.85-3.62.99-.92,1.92-1.94,2.85-2.96,1.03-1.08,2-2.26,2.97-3.45,1.5-1.86,2.94-3.81,4.37-5.87,1-1.45,2.01-2.85,2.95-4.39.47-.72.9-1.44,1.32-2.16,1.69-2.87,3.32-5.79,4.83-8.97,1.61-3.29,3.09-6.73,4.42-10.21.45-1.09.83-2.28,1.28-3.42.88-2.44,1.75-4.89,2.52-7.37.43-1.35.8-2.76,1.22-4.16.67-2.37,1.29-4.75,1.84-7.17.37-1.45.73-2.96,1.04-4.46.39-1.83.67-3.7,1.06-5.58,0-.05.04-.16.04-.21.56-3.11,1.07-6.26,1.51-9.47.23-1.86.51-3.74.69-5.6.22-2.02.39-3.99.56-6.01.19-2.39.38-4.79.47-7.17.1-1.54.14-3.08.19-4.61.1-2.86.1-5.72.1-8.57-.03-1.11-.01-2.27-.04-3.43-.08-3.9-.22-7.86-.51-11.8-.05-.63-.15-1.31-.2-1.94-.25-3.36-.61-6.72-1.01-10.02-.13-1.1-.27-2.2-.4-3.3-.47-3.45-.99-6.95-1.62-10.4-.09-.47-.17-.89-.26-1.35-.71-3.8-1.57-7.6-2.49-11.39-.24-1.09-.54-2.23-.83-3.32-.68-2.7-1.46-5.39-2.24-8.02-.42-1.34-.83-2.69-1.25-4.03-.14-.46-.28-.93-.47-1.34-.62-1.86-1.28-3.71-1.94-5.51-.6-1.65-1.2-3.29-1.79-4.89-.71-1.69-1.41-3.33-2.17-5.02-1.03-2.46-2.16-4.91-3.29-7.26-1.06-2.14-2.17-4.28-3.27-6.36-.55-1.02-1.11-2.09-1.65-3.05-1.88-3.19-3.75-6.33-5.76-9.29-17.55-25.59-38.88-37.53-59.28-36.12Z" fill="url(#linear-gradient-13)"/><path d="M1900.22,1529.91c-27.35,56.47-78.1,60.49-113.36,8.87-35.23-51.57-41.64-139.25-14.29-195.72,27.37-56.53,78.13-60.45,113.36-8.87,35.27,51.62,41.66,139.2,14.29,195.72Z" fill="#343434"/><path d="M1898.6,1444.86c-.97,110.54-55.79,123.32-55.79,123.32,0,0-156.6,57.74-211.42,72.4-20.37,5.45-45.8,6.03-70.97,3.89-14.92-1.3-29.78-3.5-43.4-6.29-.07,0-.13,0-.13-.06-7.98-1.56-15.51-3.37-22.45-5.32-.13-.07-.2-.07-.26-.07-14.79-4.09-26.6-8.63-33.09-12.72-23.48-14.66-20.56-59.68-20.56-59.68,0,0-12.71-7.85-6.81-35.22,5.84-27.44,27.38-33.28,27.38-33.28,0,0-16.61-.98-10.18-46.97,6.49-45.99,19.98-46.97,19.98-46.97,0,0-20.56-52.87,12.71-90.04,1.5-1.69,3.24-3.31,5.06-4.67,38.6-30.88,144.67-13.95,144.67-13.95,0,0-1.94-66.56,0-149.73,1.95-83.23,73.44-76.36,73.44-76.36,0,0,.97,86.09,4.87,115.47,3.96,29.39,45.02,125.27,74.41,137.99,13.2,5.72,26.01,6.29,36.11,5.19,21.21-2.31,42.36,6.53,53.86,24.5,12.21,19.08,23.01,49.78,22.58,98.56Z" fill="url(#linear-gradient-14)"/><path d="M1619.38,1384.72l-10.18,37.3-11.22,41.33h-.07l-127.02-65.46s-20.56-52.87,12.71-90.04c1.5-1.69,3.24-3.31,5.06-4.67,21.67,14.08,73.89,49.82,103.8,70.39,8.17,5.64,17.32,9.41,26.92,11.16Z" fill="url(#linear-gradient-15)"/><path d="M1740.44,1404.97c-1.43,27.96-26.6,35.35-26.6,35.35l-115.86,23.03,11.22-41.33,10.18-37.3c7.14,1.43,14.53,1.69,21.93.78l86.22-10.7s14.4,2.2,12.91,30.17Z" fill="url(#linear-gradient-16)"/><path d="M1597.91,1463.35l-9.4,34.51-11.68,42.82-115.73-48.85s-16.61-.98-10.18-46.97c6.49-45.99,19.98-46.97,19.98-46.97l127.02,65.46Z" fill="url(#linear-gradient-17)"/><path d="M1724.61,1475.61c-7.27,20.11-22.51,25.88-28.8,27.37l-.72.2c-1.36.32-2.14.39-2.14.39,0,0,.13.07.39.2l-116.51,36.91,11.68-42.82,9.4-34.51h.07l115.86-23.03s20.17,9.54,10.77,35.29Z" fill="url(#linear-gradient-18)"/><path d="M1706.64,1534.45c-5.64,18.03-25.63,20.82-30.56,21.28.71,0,1.75.07,2.98.33h.19l-118.65,43.98,11.48-42.04,4.74-17.32,116.51-36.91c2.79,1.62,19.27,11.81,13.3,30.68Z" fill="url(#linear-gradient-19)"/><path d="M1576.83,1540.68l-4.74,17.32-11.48,42.04-120.08-39.7s-12.71-7.85-6.81-35.22c5.84-27.44,27.38-33.28,27.38-33.28l115.73,48.85Z" fill="url(#linear-gradient-20)"/><path d="M1560.61,1600.04l-12.33,45.15c-5.38-.97-17.06-3.63-31.27-7.01-.07,0-.13,0-.13-.06-7.01-1.62-14.66-3.44-22.45-5.32-.13-.07-.2-.07-.26-.07-14.79-4.09-26.6-8.63-33.09-12.72-23.48-14.66-20.56-59.68-20.56-59.68l120.08,39.7Z" fill="url(#linear-gradient-21)"/><path d="M1690.1,1583.04c-5.77,29.45-36.72,33.09-45.34,36.07-7.27,2.47-60.46,20.63-84.34,25.37-4.48.91-7.92,1.36-9.86,1.1-.52-.06-1.3-.19-2.27-.39l12.33-45.15,118.65-43.98c5.77,1.23,14.92,6.23,10.83,26.99Z" fill="url(#linear-gradient-22)"/><path d="M1695.09,1503.19l-1.75.58c-.26-.13-.39-.2-.39-.2,0,0,.78-.06,2.14-.39Z" fill="url(#linear-gradient-23)"/><path d="M2089.99,652.01c-16.48,129.53-118.16,216.81-227.11,194.95-108.96-21.86-183.92-144.59-167.45-274.11,16.48-129.53,118.16-216.81,227.11-194.95,108.96,21.86,183.92,144.59,167.45,274.11Z" fill="url(#linear-gradient-24)"/><path d="M2045.33,645.38c-16.48,129.53-118.16,216.81-227.11,194.95-108.96-21.86-183.92-144.59-167.45-274.11,16.48-129.53,118.16-216.81,227.11-194.95,108.96,21.86,183.92,144.59,167.45,274.11Z" fill="url(#linear-gradient-25)"/><path d="M1836.84,560.7c-5.04,23.74-23.73,32.09-42.6,28.08-18.2-3.87-31.54-18.47-26.94-41.22,4.79-22.53,23.43-31.79,42.75-27.68,20.45,4.34,31.36,19.34,26.79,40.83ZM1783.13,550.38c-3.5,14.29,1.14,26.69,13.5,29.31,13.03,2.77,21.16-6.73,24.32-21.64,2.91-13.69.17-26.23-13.54-29.14-12.36-2.63-21.27,7.25-24.29,21.46ZM1782.84,635.8l110.58-98.22,12.58,2.67-110.58,98.22-12.58-2.67ZM1921.99,627.51c-5.04,23.74-23.73,32.09-42.38,28.13-18.2-3.87-31.54-18.47-26.98-41.05,4.82-22.7,23.46-31.96,42.79-27.86,20.45,4.34,31.13,19.29,26.57,40.78ZM1868.29,617.19c-3.28,14.34,1.59,26.78,13.73,29.36,13.03,2.77,21.16-6.73,24.33-21.64,2.91-13.69.17-26.23-13.54-29.14-12.36-2.63-21.49,7.21-24.51,21.42Z" fill="#fff"/></g></svg>