<svg width="166" height="166" viewBox="0 0 166 166" fill="none" xmlns="http://www.w3.org/2000/svg">
<path d="M88.1875 15.5625C76.7183 15.5625 67.4375 24.8433 67.4375 36.3125H36.3125V62.25C24.8433 62.25 15.5625 71.5308 15.5625 83C15.5625 94.4692 24.8433 103.75 36.3125 103.75V129.688H67.4375C67.4375 141.157 76.7183 150.438 88.1875 150.438C99.6567 150.438 108.938 141.157 108.938 129.688H140.062V93.375H129.688C123.507 93.375 119.312 89.1804 119.312 83C119.312 76.8196 123.507 72.625 129.688 72.625H140.062V36.3125H108.938C108.938 24.8433 99.6567 15.5625 88.1875 15.5625ZM88.1875 25.9375C94.3679 25.9375 98.5625 30.1321 98.5625 36.3125V46.6875H129.688V62.25C118.218 62.25 108.938 71.5308 108.938 83C108.938 94.4692 118.218 103.75 129.688 103.75V119.312H98.5625V129.688C98.5625 135.868 94.3679 140.062 88.1875 140.062C82.0071 140.062 77.8125 135.868 77.8125 129.688V119.312H46.6875V93.375H36.3125C30.1321 93.375 25.9375 89.1804 25.9375 83C25.9375 76.8196 30.1321 72.625 36.3125 72.625H46.6875V46.6875H77.8125V36.3125C77.8125 30.1321 82.0071 25.9375 88.1875 25.9375Z" fill="#483BB7"/>
</svg>
