<?xml version="1.0" encoding="UTF-8" standalone="no"?>
<!-- Created with Inkscape (http://www.inkscape.org/) -->

<svg
   width="210mm"
   height="297mm"
   viewBox="0 0 210 297"
   version="1.1"
   id="svg1"
   xml:space="preserve"
   inkscape:export-filename="bitmap.svg"
   inkscape:export-xdpi="96"
   inkscape:export-ydpi="96"
   inkscape:version="1.4 (86a8ad7, 2024-10-11)"
   sodipodi:docname="LLama SVG.svg"
   xmlns:inkscape="http://www.inkscape.org/namespaces/inkscape"
   xmlns:sodipodi="http://sodipodi.sourceforge.net/DTD/sodipodi-0.dtd"
   xmlns="http://www.w3.org/2000/svg"
   xmlns:svg="http://www.w3.org/2000/svg"><sodipodi:namedview
     id="namedview1"
     pagecolor="#ffffff"
     bordercolor="#000000"
     borderopacity="0.25"
     inkscape:showpageshadow="2"
     inkscape:pageopacity="0.0"
     inkscape:pagecheckerboard="0"
     inkscape:deskcolor="#d1d1d1"
     inkscape:document-units="mm"
     inkscape:zoom="1.0396254"
     inkscape:cx="277.98474"
     inkscape:cy="648.79137"
     inkscape:window-width="2192"
     inkscape:window-height="1353"
     inkscape:window-x="1114"
     inkscape:window-y="24"
     inkscape:window-maximized="0"
     inkscape:current-layer="svg1" /><defs
     id="defs1" /><path
     style="fill:#050505;stroke:none"
     d="m 81.295288,94.993111 c -2.64322,-1.8277 -4.7153,-8.86515 -8.15941,-8.86515 -2.80775,0 -1.21964,8.2663 -2.34292,10.15644 -3.79808,6.390999 -17.94489,5.504949 -18.39034,15.112869 -0.22669,4.88957 7.20477,7.12544 10.90101,8.18741 1.44997,0.41659 4.8302,0.49395 4.98234,2.4224 0.65767,8.33599 -5.05033,18.11858 -6.20956,26.43186 -1.73883,12.46976 3.51336,21.76141 6.97356,33.3375 1.46843,4.91266 1.66631,11.22338 4.47852,15.56007 0.82291,1.269 1.92162,2.34786 3.27905,3.03265 1.24144,0.62628 2.5845,0.8051 3.95859,0.63766 11.23562,-1.36908 3.35666,-14.15167 9.32421,-18.7055 4.3848,-3.34604 14.690782,-2.03866 19.779952,-1.33217 9.51364,1.32071 0.75234,19.10683 9.26585,20.81488 4.72467,0.9479 7.50199,-2.00177 9.47062,-5.98467 3.39651,-6.87176 4.65223,-15.77589 5.91416,-23.28333 0.3736,-2.22259 -0.4995,-4.77849 0.25249,-6.87917 2.22238,-6.20824 6.78549,-10.16295 5.67505,-17.4625 -0.23824,-1.56605 -0.89039,-3.15409 -1.72022,-4.49687 -0.61962,-1.00262 -1.39942,-1.85688 -2.28702,-2.62794 -6.55137,-5.69121 -5.04847,4.15047 -4.8926,8.18314 0.0327,0.84663 0.3938,3.26578 -0.68804,3.62115 -1.9176,0.62989 -7.94943,-3.20958 -10.14237,-3.81275 -8.1771,-2.24913 -23.104022,2.32733 -29.574452,-3.86843 -3.00834,-2.88064 -1.96915,-9.62059 -1.55077,-13.40247 1.10004,-9.94382 5.40871,-21.23252 3.61933,-31.22083 -0.87959,-4.909859 -2.58396,-10.346779 -6.19222,-13.946139 -0.97025,-0.96785 -3.97194,-3.58443 -5.4206,-2.15267 -1.48307,1.46576 0.14048,8.27604 -0.30421,10.54256 m -1.32291,9.524999 c -0.8189,2.92179 -4.57366,4.44219 -7.39932,3.45489 -0.78936,-0.2758 -2.41173,-1.63174 -1.14659,-2.39461 1.23022,-0.74181 3.44219,-0.1878 4.84174,-0.41605 1.24754,-0.20346 2.43865,-0.54347 3.70417,-0.64423 z"
     id="path2"
     inkscape:export-filename="path2.png"
     inkscape:export-xdpi="96"
     inkscape:export-ydpi="96" /></svg>
