<svg xmlns="http://www.w3.org/2000/svg" xmlns:xlink="http://www.w3.org/1999/xlink" width="500" zoomAndPan="magnify" viewBox="0 0 375 374.999991" height="500" preserveAspectRatio="xMidYMid meet" version="1.0"><defs><clipPath id="856112c527"><path d="M 47.667969 0 L 327.417969 0 L 327.417969 375 L 47.667969 375 Z M 47.667969 0 " clip-rule="nonzero"/></clipPath></defs><g clip-path="url(#856112c527)"><path fill="#ffffff" d="M 139.273438 35.332031 C 130.894531 29.539062 124.324219 7.230469 113.410156 7.230469 C 104.507812 7.230469 109.542969 33.433594 105.980469 39.425781 C 93.941406 59.683594 49.097656 56.875 47.6875 87.332031 C 46.96875 102.832031 70.523438 109.917969 82.242188 113.285156 C 86.835938 114.605469 97.550781 114.851562 98.035156 120.964844 C 100.121094 147.390625 82.023438 178.398438 78.351562 204.75 C 72.839844 244.277344 89.488281 273.734375 100.457031 310.429688 C 105.109375 326 105.738281 346.003906 114.652344 359.753906 C 117.261719 363.773438 120.742188 367.195312 125.046875 369.367188 C 128.980469 371.351562 133.238281 371.917969 137.59375 371.386719 C 173.210938 367.046875 148.234375 326.527344 167.152344 312.09375 C 181.050781 301.484375 213.722656 305.628906 229.851562 307.871094 C 260.011719 312.054688 232.238281 368.4375 259.226562 373.851562 C 274.203125 376.855469 283.003906 367.503906 289.246094 354.878906 C 300.011719 333.097656 303.992188 304.871094 307.992188 281.074219 C 309.179688 274.027344 306.410156 265.925781 308.792969 259.265625 C 315.839844 239.585938 330.304688 227.050781 326.785156 203.914062 C 326.027344 198.949219 323.960938 193.914062 321.332031 189.65625 C 319.367188 186.480469 316.894531 183.773438 314.082031 181.328125 C 293.3125 163.285156 298.078125 194.484375 298.570312 207.265625 C 298.675781 209.949219 299.820312 217.621094 296.390625 218.746094 C 290.3125 220.742188 271.191406 208.570312 264.238281 206.660156 C 238.320312 199.53125 191.003906 214.039062 170.492188 194.398438 C 160.957031 185.265625 164.25 163.902344 165.574219 151.914062 C 169.0625 120.390625 182.722656 84.605469 177.046875 52.945312 C 174.261719 37.382812 168.859375 20.148438 157.421875 8.738281 C 154.34375 5.667969 144.828125 -2.625 140.238281 1.914062 C 135.535156 6.558594 140.683594 28.148438 139.273438 35.332031 M 135.078125 65.527344 C 132.484375 74.789062 120.582031 79.605469 111.625 76.476562 C 109.121094 75.601562 103.980469 71.304688 107.988281 68.886719 C 111.890625 66.535156 118.902344 68.292969 123.335938 67.566406 C 127.292969 66.921875 131.066406 65.84375 135.078125 65.527344 Z M 135.078125 65.527344 " fill-opacity="1" fill-rule="nonzero"/></g></svg>