<?xml version="1.0" encoding="UTF-8"?><svg id="Layer_2" xmlns="http://www.w3.org/2000/svg" xmlns:xlink="http://www.w3.org/1999/xlink" viewBox="0 0 1880.94 2175.77"><defs><linearGradient id="linear-gradient" x1="109.2" y1="975.17" x2="897.13" y2="975.17" gradientUnits="userSpaceOnUse"><stop offset="0" stop-color="#262c3d"/><stop offset="1" stop-color="#7d859e"/></linearGradient><linearGradient id="linear-gradient-2" x1="109.2" y1="973.52" x2="897.13" y2="973.52" gradientUnits="userSpaceOnUse"><stop offset="0" stop-color="#cbcbd6"/><stop offset="1" stop-color="#f9faf9"/></linearGradient><linearGradient id="linear-gradient-3" x1="856.92" y1="745.55" x2="240.12" y2="745.55" gradientUnits="userSpaceOnUse"><stop offset="0" stop-color="#b6bac5"/><stop offset="1" stop-color="#7d859e"/></linearGradient><linearGradient id="linear-gradient-4" x1="856.82" y1="858.74" x2="240.21" y2="858.74" gradientUnits="userSpaceOnUse"><stop offset="0" stop-color="#cbcbd6"/><stop offset=".47" stop-color="#fff"/><stop offset="1" stop-color="#f9faf9"/></linearGradient><linearGradient id="linear-gradient-5" x1="487.11" y1="1009.07" x2="853.79" y2="1009.07" gradientUnits="userSpaceOnUse"><stop offset="0" stop-color="#cbcbd6"/><stop offset="1" stop-color="#aeb3bf"/></linearGradient><linearGradient id="linear-gradient-6" x1="487.11" y1="1009.68" x2="838.39" y2="1009.68" xlink:href="#linear-gradient-3"/><linearGradient id="linear-gradient-7" x1="746.39" y1="987.53" x2="833.27" y2="987.53" gradientUnits="userSpaceOnUse"><stop offset="0" stop-color="#fabb0c"/><stop offset="1" stop-color="#79bef3"/></linearGradient><linearGradient id="linear-gradient-8" y1="716.43" y2="716.43" xlink:href="#linear-gradient"/><linearGradient id="linear-gradient-9" y1="714.78" y2="714.78" xlink:href="#linear-gradient-2"/><linearGradient id="linear-gradient-10" y1="486.81" y2="486.81" xlink:href="#linear-gradient-3"/><linearGradient id="linear-gradient-11" y1="600" y2="600" xlink:href="#linear-gradient-4"/><linearGradient id="linear-gradient-12" y1="750.33" y2="750.33" xlink:href="#linear-gradient-5"/><linearGradient id="linear-gradient-13" x1="487.11" y1="750.95" x2="838.39" y2="750.95" xlink:href="#linear-gradient-3"/><linearGradient id="linear-gradient-14" y1="728.79" y2="728.79" xlink:href="#linear-gradient-7"/><linearGradient id="linear-gradient-15" y1="457.7" y2="457.7" xlink:href="#linear-gradient"/><linearGradient id="linear-gradient-16" y1="456.05" y2="456.05" xlink:href="#linear-gradient-2"/><linearGradient id="linear-gradient-17" x1="856.92" y1="228.07" x2="240.12" y2="228.07" xlink:href="#linear-gradient-2"/><linearGradient id="linear-gradient-18" y1="341.26" y2="341.26" xlink:href="#linear-gradient-4"/><linearGradient id="linear-gradient-19" y1="491.59" y2="491.59" xlink:href="#linear-gradient-5"/><linearGradient id="linear-gradient-20" x1="487.11" y1="492.21" x2="838.39" y2="492.21" xlink:href="#linear-gradient-3"/><linearGradient id="linear-gradient-21" y1="470.06" y2="470.06" xlink:href="#linear-gradient-7"/><filter id="luminosity-noclip" x="1372.11" y="1500.05" width="444.13" height="675.72" color-interpolation-filters="sRGB" filterUnits="userSpaceOnUse"><feFlood flood-color="#fff" result="bg"/><feBlend in="SourceGraphic" in2="bg"/></filter><filter id="luminosity-noclip-2" x="1372.11" y="-9279.89" width="444.13" height="32766" color-interpolation-filters="sRGB" filterUnits="userSpaceOnUse"><feFlood flood-color="#fff" result="bg"/><feBlend in="SourceGraphic" in2="bg"/></filter><mask id="mask-1" x="1372.11" y="-9279.89" width="444.13" height="32766" maskUnits="userSpaceOnUse"/><linearGradient id="linear-gradient-22" x1="1510.46" y1="1678.07" x2="1652.16" y2="1948.59" gradientUnits="userSpaceOnUse"><stop offset="0" stop-color="#fff"/><stop offset="1" stop-color="#000"/></linearGradient><mask id="mask" x="1372.11" y="1500.05" width="444.13" height="675.72" maskUnits="userSpaceOnUse"><g filter="url(#luminosity-noclip)"><g mask="url(#mask-1)"><polygon points="1372.11 2175.77 1816.25 1916.64 1816.25 1500.05 1372.11 1759.18 1372.11 2175.77" fill="url(#linear-gradient-22)" mix-blend-mode="multiply"/></g></g></mask><linearGradient id="linear-gradient-23" x1="1510.46" y1="1678.07" x2="1652.16" y2="1948.59" gradientUnits="userSpaceOnUse"><stop offset="0" stop-color="#3895e0"/><stop offset="1" stop-color="#4dffe1"/></linearGradient><filter id="luminosity-noclip-3" x="808.06" y="1435.42" width="564.99" height="740.35" color-interpolation-filters="sRGB" filterUnits="userSpaceOnUse"><feFlood flood-color="#fff" result="bg"/><feBlend in="SourceGraphic" in2="bg"/></filter><filter id="luminosity-noclip-4" x="808.06" y="-9279.89" width="564.99" height="32766" color-interpolation-filters="sRGB" filterUnits="userSpaceOnUse"><feFlood flood-color="#fff" result="bg"/><feBlend in="SourceGraphic" in2="bg"/></filter><mask id="mask-3" x="808.06" y="-9279.89" width="564.99" height="32766" maskUnits="userSpaceOnUse"/><linearGradient id="linear-gradient-24" x1="1119.85" y1="1659.11" x2="1063.17" y2="1942.51" xlink:href="#linear-gradient-22"/><mask id="mask-2" x="808.06" y="1435.42" width="564.99" height="740.35" maskUnits="userSpaceOnUse"><g filter="url(#luminosity-noclip-3)"><g mask="url(#mask-3)"><polygon points="1373.04 2175.77 808.06 1852.01 808.06 1435.42 1373.04 1759.18 1373.04 2175.77" fill="url(#linear-gradient-24)" mix-blend-mode="multiply"/></g></g></mask><linearGradient id="linear-gradient-25" x1="1119.85" y1="1659.11" x2="1063.17" y2="1942.51" xlink:href="#linear-gradient-23"/><linearGradient id="linear-gradient-26" x1="1701.62" y1="1454.67" x2="1009.79" y2="1491.08" xlink:href="#linear-gradient"/><linearGradient id="linear-gradient-27" x1="1701.62" y1="1453.12" x2="1009.79" y2="1489.54" xlink:href="#linear-gradient-2"/><linearGradient id="linear-gradient-28" x1="806.04" y1="1427.49" x2="1820.55" y2="1427.49" xlink:href="#linear-gradient-2"/><linearGradient id="linear-gradient-29" x1="1302.93" y1="1477.48" x2="1116.49" y2="1482.53" gradientUnits="userSpaceOnUse"><stop offset="0" stop-color="#cbcbd6"/><stop offset="1" stop-color="#878c9f"/></linearGradient><linearGradient id="linear-gradient-30" x1="1316.42" y1="1504.51" x2="1061.9" y2="1516.25" xlink:href="#linear-gradient-2"/><linearGradient id="linear-gradient-31" x1="1801.67" y1="1310.45" x2="1000.63" y2="1153.82" gradientUnits="userSpaceOnUse"><stop offset="0" stop-color="#3b3e5e"/><stop offset="1" stop-color="#626282"/></linearGradient><linearGradient id="linear-gradient-32" x1="1795.5" y1="1342.02" x2="994.46" y2="1185.39" xlink:href="#linear-gradient-31"/><linearGradient id="linear-gradient-33" x1="1799.1" y1="1323.57" x2="998.07" y2="1166.94" xlink:href="#linear-gradient-31"/><linearGradient id="linear-gradient-34" x1="1796.54" y1="1336.68" x2="995.5" y2="1180.05" xlink:href="#linear-gradient-31"/><linearGradient id="linear-gradient-35" x1="1793.98" y1="1349.79" x2="992.94" y2="1193.17" xlink:href="#linear-gradient-31"/><linearGradient id="linear-gradient-36" x1="1791.41" y1="1362.91" x2="990.37" y2="1206.28" gradientUnits="userSpaceOnUse"><stop offset="0" stop-color="#3b3e5e"/><stop offset=".7" stop-color="#565777"/><stop offset="1" stop-color="#626282"/></linearGradient><linearGradient id="linear-gradient-37" x1="1788.85" y1="1376.02" x2="987.81" y2="1219.4" xlink:href="#linear-gradient-31"/><linearGradient id="linear-gradient-38" x1="1786.28" y1="1389.14" x2="985.25" y2="1232.51" xlink:href="#linear-gradient-31"/><linearGradient id="linear-gradient-39" x1="1783.72" y1="1402.25" x2="982.68" y2="1245.62" xlink:href="#linear-gradient-31"/><linearGradient id="linear-gradient-40" x1="1781.15" y1="1415.37" x2="980.12" y2="1258.74" xlink:href="#linear-gradient-31"/><linearGradient id="linear-gradient-41" x1="1778.59" y1="1428.48" x2="977.55" y2="1271.85" xlink:href="#linear-gradient-31"/><linearGradient id="linear-gradient-42" x1="1776.03" y1="1441.6" x2="974.99" y2="1284.97" xlink:href="#linear-gradient-31"/><linearGradient id="linear-gradient-43" x1="1773.46" y1="1454.71" x2="972.42" y2="1298.08" xlink:href="#linear-gradient-31"/><linearGradient id="linear-gradient-44" x1="1770.35" y1="1470.63" x2="969.31" y2="1314" xlink:href="#linear-gradient-31"/><linearGradient id="linear-gradient-45" x1="1792.48" y1="1357.45" x2="991.44" y2="1200.83" xlink:href="#linear-gradient-31"/><linearGradient id="linear-gradient-46" x1="1789.91" y1="1370.57" x2="988.88" y2="1213.94" xlink:href="#linear-gradient-31"/><linearGradient id="linear-gradient-47" x1="1787.35" y1="1383.68" x2="986.31" y2="1227.06" xlink:href="#linear-gradient-31"/><linearGradient id="linear-gradient-48" x1="1784.79" y1="1396.8" x2="983.75" y2="1240.17" xlink:href="#linear-gradient-31"/><linearGradient id="linear-gradient-49" x1="1782.22" y1="1409.91" x2="981.18" y2="1253.29" xlink:href="#linear-gradient-31"/><linearGradient id="linear-gradient-50" x1="1779.66" y1="1423.03" x2="978.62" y2="1266.4" xlink:href="#linear-gradient-31"/><linearGradient id="linear-gradient-51" x1="1777.09" y1="1436.14" x2="976.05" y2="1279.51" xlink:href="#linear-gradient-31"/><linearGradient id="linear-gradient-52" x1="1774.53" y1="1449.26" x2="973.49" y2="1292.63" xlink:href="#linear-gradient-31"/><linearGradient id="linear-gradient-53" x1="1771.96" y1="1462.37" x2="970.93" y2="1305.74" xlink:href="#linear-gradient-31"/><linearGradient id="linear-gradient-54" x1="1769.4" y1="1475.49" x2="968.36" y2="1318.86" xlink:href="#linear-gradient-31"/><linearGradient id="linear-gradient-55" x1="1766.84" y1="1488.6" x2="965.8" y2="1331.97" xlink:href="#linear-gradient-31"/><linearGradient id="linear-gradient-56" x1="1764.27" y1="1501.71" x2="963.23" y2="1345.09" xlink:href="#linear-gradient-31"/><linearGradient id="linear-gradient-57" x1="1778.91" y1="1426.86" x2="977.87" y2="1270.23" xlink:href="#linear-gradient-31"/><linearGradient id="linear-gradient-58" x1="1775.89" y1="1442.3" x2="974.85" y2="1285.67" xlink:href="#linear-gradient-31"/><linearGradient id="linear-gradient-59" x1="1773.33" y1="1455.41" x2="972.28" y2="1298.78" xlink:href="#linear-gradient-31"/><linearGradient id="linear-gradient-60" x1="1765.63" y1="1494.76" x2="964.59" y2="1338.13" xlink:href="#linear-gradient-31"/><linearGradient id="linear-gradient-61" x1="1757.94" y1="1534.1" x2="956.9" y2="1377.47" xlink:href="#linear-gradient-31"/><linearGradient id="linear-gradient-62" x1="1755.37" y1="1547.21" x2="954.34" y2="1390.59" xlink:href="#linear-gradient-31"/><linearGradient id="linear-gradient-63" x1="1752.81" y1="1560.33" x2="951.77" y2="1403.7" xlink:href="#linear-gradient-31"/><linearGradient id="linear-gradient-64" x1="1750.25" y1="1573.44" x2="949.2" y2="1416.81" xlink:href="#linear-gradient-31"/><linearGradient id="linear-gradient-65" x1="1747.68" y1="1586.56" x2="946.64" y2="1429.93" xlink:href="#linear-gradient-31"/><linearGradient id="linear-gradient-66" x1="1789.53" y1="1372.54" x2="988.49" y2="1215.91" xlink:href="#linear-gradient-31"/><linearGradient id="linear-gradient-67" x1="1786.07" y1="1390.22" x2="985.03" y2="1233.59" xlink:href="#linear-gradient-31"/><linearGradient id="linear-gradient-68" x1="1783.51" y1="1403.34" x2="982.47" y2="1246.71" xlink:href="#linear-gradient-31"/><linearGradient id="linear-gradient-69" x1="1780.94" y1="1416.45" x2="979.9" y2="1259.82" xlink:href="#linear-gradient-31"/><linearGradient id="linear-gradient-70" x1="1778.38" y1="1429.57" x2="977.34" y2="1272.94" xlink:href="#linear-gradient-31"/><linearGradient id="linear-gradient-71" x1="1775.81" y1="1442.68" x2="974.78" y2="1286.05" xlink:href="#linear-gradient-31"/><linearGradient id="linear-gradient-72" x1="1773.25" y1="1455.79" x2="972.21" y2="1299.17" xlink:href="#linear-gradient-31"/><linearGradient id="linear-gradient-73" x1="1770.68" y1="1468.91" x2="969.65" y2="1312.28" xlink:href="#linear-gradient-31"/><linearGradient id="linear-gradient-74" x1="1768.12" y1="1482.02" x2="967.08" y2="1325.4" xlink:href="#linear-gradient-31"/><linearGradient id="linear-gradient-75" x1="1765.56" y1="1495.14" x2="964.52" y2="1338.51" xlink:href="#linear-gradient-31"/><linearGradient id="linear-gradient-76" x1="1762.99" y1="1508.25" x2="961.96" y2="1351.63" xlink:href="#linear-gradient-31"/><linearGradient id="linear-gradient-77" x1="1759.58" y1="1525.68" x2="958.54" y2="1369.05" xlink:href="#linear-gradient-31"/><linearGradient id="linear-gradient-78" x1="1783.73" y1="1402.2" x2="982.69" y2="1245.57" xlink:href="#linear-gradient-31"/><linearGradient id="linear-gradient-79" x1="1780" y1="1421.26" x2="978.96" y2="1264.63" xlink:href="#linear-gradient-31"/><linearGradient id="linear-gradient-80" x1="1777.44" y1="1434.37" x2="976.4" y2="1277.75" xlink:href="#linear-gradient-31"/><linearGradient id="linear-gradient-81" x1="1774.87" y1="1447.49" x2="973.84" y2="1290.86" xlink:href="#linear-gradient-31"/><linearGradient id="linear-gradient-82" x1="1772.31" y1="1460.6" x2="971.27" y2="1303.97" xlink:href="#linear-gradient-31"/><linearGradient id="linear-gradient-83" x1="1769.74" y1="1473.72" x2="968.71" y2="1317.09" xlink:href="#linear-gradient-31"/><linearGradient id="linear-gradient-84" x1="1767.18" y1="1486.83" x2="966.14" y2="1330.2" xlink:href="#linear-gradient-31"/><linearGradient id="linear-gradient-85" x1="1764.62" y1="1499.95" x2="963.57" y2="1343.32" xlink:href="#linear-gradient-31"/><linearGradient id="linear-gradient-86" x1="1762.05" y1="1513.06" x2="961.01" y2="1356.43" xlink:href="#linear-gradient-31"/><linearGradient id="linear-gradient-87" x1="1759.49" y1="1526.17" x2="958.45" y2="1369.55" xlink:href="#linear-gradient-31"/><linearGradient id="linear-gradient-88" x1="1755.07" y1="1548.78" x2="954.03" y2="1392.15" xlink:href="#linear-gradient-31"/><linearGradient id="linear-gradient-89" x1="1784.13" y1="1340.65" x2="1392" y2="609.16" xlink:href="#linear-gradient"/><linearGradient id="linear-gradient-90" x1="1257.96" y1="991.07" x2="1844.58" y2="991.07" xlink:href="#linear-gradient"/><linearGradient id="linear-gradient-91" x1="1429.59" y1="649.86" x2="1973.4" y2="1330.22" gradientUnits="userSpaceOnUse"><stop offset="0" stop-color="#262c3d"/><stop offset=".38" stop-color="#fff"/><stop offset="1" stop-color="#7d859e"/></linearGradient><linearGradient id="linear-gradient-92" x1="1438.21" y1="707.24" x2="1721.88" y2="1394.32" xlink:href="#linear-gradient"/><linearGradient id="linear-gradient-93" x1="1025.6" y1="462.98" x2="1309.27" y2="1150.06" xlink:href="#linear-gradient"/><linearGradient id="linear-gradient-94" x1="1652.33" y1="817.65" x2="1706.61" y2="817.65" gradientTransform="translate(0 -935.43) rotate(30.37) scale(1.16 .86) skewX(23.57)" gradientUnits="userSpaceOnUse"><stop offset="0" stop-color="#1d7ece"/><stop offset="1" stop-color="#17538c"/></linearGradient><linearGradient id="linear-gradient-95" x1="1717.15" y1="817.65" x2="1771.44" y2="817.65" xlink:href="#linear-gradient-94"/><linearGradient id="linear-gradient-96" x1="838.39" y1="702.12" x2="1224.96" y2="702.12" gradientUnits="userSpaceOnUse"><stop offset="0" stop-color="#fabb0c"/><stop offset="1" stop-color="#f88019"/></linearGradient></defs><g id="Layer_4"><g opacity=".56"><g opacity="0"><path d="M76.69,1129.3c-1.69-82.54,171.08-147.52,385.89-145.13,214.81,2.39,390.32,71.25,392.01,153.79,1.69,82.55-171.08,147.52-385.89,145.13-214.81-2.39-390.32-71.25-392.01-153.79Z" fill="#141723"/></g><g opacity=".01"><path d="M81.12,1129.08c-1.67-81.73,169.38-146.06,382.06-143.69s386.45,70.54,388.12,152.27c1.67,81.73-169.38,146.06-382.06,143.69-212.68-2.37-386.45-70.54-388.12-152.27Z" fill="#141723"/></g><g opacity=".02"><path d="M85.55,1128.86c-1.66-80.91,167.68-144.59,378.23-142.25,210.55,2.34,382.57,69.83,384.23,150.74,1.66,80.91-167.68,144.59-378.23,142.25-210.55-2.34-382.57-69.83-384.23-150.74Z" fill="#141723"/></g><g opacity=".04"><path d="M89.98,1128.63c-1.64-80.09,165.99-143.13,374.4-140.81s378.7,69.13,380.34,149.21c1.64,80.09-165.99,143.13-374.4,140.81-208.42-2.32-378.7-69.13-380.34-149.21Z" fill="#141723"/></g><g opacity=".05"><path d="M94.41,1128.41c-1.62-79.27,164.29-141.66,370.57-139.37,206.28,2.3,374.83,68.42,376.45,147.69,1.62,79.27-164.29,141.66-370.57,139.37-206.28-2.3-374.83-68.42-376.45-147.69Z" fill="#141723"/></g><g opacity=".06"><path d="M98.84,1128.19c-1.61-78.45,162.59-140.2,366.74-137.93,204.15,2.27,370.95,67.71,372.56,146.16,1.61,78.45-162.59,140.2-366.74,137.93-204.15-2.27-370.95-67.71-372.56-146.16Z" fill="#141723"/></g><g opacity=".07"><path d="M103.28,1127.96c-1.59-77.63,160.89-138.74,362.91-136.49,202.02,2.25,367.08,67,368.67,144.63,1.59,77.63-160.89,138.74-362.91,136.49-202.02-2.25-367.08-67-368.67-144.63Z" fill="#141723"/></g><g opacity=".09"><path d="M107.71,1127.74c-1.57-76.81,159.19-137.27,359.08-135.05,199.89,2.23,363.2,66.3,364.78,143.11,1.57,76.81-159.19,137.27-359.08,135.05-199.89-2.23-363.2-66.3-364.78-143.11Z" fill="#141723"/></g><g opacity=".1"><path d="M112.14,1127.52c-1.56-75.99,157.49-135.81,355.25-133.61,197.76,2.2,359.33,65.59,360.89,141.58,1.56,75.99-157.49,135.81-355.25,133.61-197.76-2.2-359.33-65.59-360.89-141.58Z" fill="#141723"/></g><g opacity=".11"><path d="M116.57,1127.3c-1.54-75.17,155.8-134.34,351.42-132.17,195.62,2.18,355.46,64.88,356.99,140.05,1.54,75.17-155.8,134.34-351.42,132.17-195.62-2.18-355.46-64.88-356.99-140.05Z" fill="#141723"/></g><g opacity=".12"><path d="M121,1127.07c-1.52-74.35,154.1-132.88,347.59-130.72,193.49,2.15,351.58,64.18,353.1,138.53,1.52,74.35-154.1,132.88-347.59,130.72-193.49-2.15-351.58-64.18-353.1-138.53Z" fill="#141723"/></g><g opacity=".14"><path d="M125.43,1126.85c-1.51-73.53,152.4-131.42,343.76-129.28,191.36,2.13,347.71,63.47,349.21,137,1.51,73.53-152.4,131.42-343.76,129.28-191.36-2.13-347.71-63.47-349.21-137Z" fill="#141723"/></g><g opacity=".15"><path d="M129.87,1126.63c-1.49-72.71,150.7-129.95,339.93-127.84,189.23,2.11,343.83,62.76,345.32,135.47,1.49,72.71-150.7,129.95-339.93,127.84-189.23-2.11-343.83-62.76-345.32-135.47Z" fill="#141723"/></g><g opacity=".16"><path d="M134.3,1126.4c-1.47-71.89,149-128.49,336.1-126.4s339.96,62.05,341.43,133.95c1.47,71.89-149,128.49-336.1,126.4-187.09-2.08-339.96-62.05-341.43-133.95Z" fill="#141723"/></g><g opacity=".17"><path d="M138.73,1126.18c-1.46-71.07,147.31-127.02,332.27-124.96,184.96,2.06,336.08,61.35,337.54,132.42,1.46,71.07-147.31,127.02-332.27,124.96-184.96-2.06-336.08-61.35-337.54-132.42Z" fill="#141723"/></g><g opacity=".19"><path d="M143.16,1125.96c-1.44-70.26,145.61-125.56,328.44-123.52,182.83,2.04,332.21,60.64,333.65,130.89,1.44,70.26-145.61,125.56-328.44,123.52-182.83-2.04-332.21-60.64-333.65-130.89Z" fill="#141723"/></g><g opacity=".2"><path d="M147.59,1125.73c-1.42-69.44,143.91-124.09,324.61-122.08,180.7,2.01,328.34,59.93,329.76,129.37,1.42,69.44-143.91,124.09-324.61,122.08-180.7-2.01-328.34-59.93-329.76-129.37Z" fill="#141723"/></g><g opacity=".21"><path d="M152.02,1125.51c-1.41-68.62,142.21-122.63,320.78-120.64,178.57,1.99,324.46,59.23,325.87,127.84,1.41,68.62-142.21,122.63-320.78,120.64-178.57-1.99-324.46-59.22-325.87-127.84Z" fill="#141723"/></g><g opacity=".22"><path d="M156.46,1125.29c-1.39-67.8,140.51-121.17,316.95-119.2,176.43,1.96,320.59,58.52,321.98,126.32,1.39,67.8-140.51,121.17-316.95,119.2-176.43-1.96-320.59-58.52-321.98-126.32Z" fill="#141723"/></g><g opacity=".23"><path d="M160.89,1125.06c-1.37-66.98,138.82-119.7,313.12-117.76,174.3,1.94,316.71,57.81,318.09,124.79,1.37,66.98-138.82,119.7-313.12,117.76-174.3-1.94-316.71-57.81-318.09-124.79Z" fill="#141723"/></g><g opacity=".25"><path d="M165.32,1124.84c-1.35-66.16,137.12-118.24,309.29-116.32,172.17,1.92,312.84,57.1,314.19,123.26,1.35,66.16-137.12,118.24-309.29,116.32-172.17-1.92-312.84-57.1-314.19-123.26Z" fill="#141723"/></g><g opacity=".26"><path d="M169.75,1124.62c-1.34-65.34,135.42-116.77,305.46-114.88,170.04,1.89,308.97,56.4,310.3,121.74,1.34,65.34-135.42,116.77-305.46,114.88-170.04-1.89-308.97-56.4-310.3-121.74Z" fill="#141723"/></g><g opacity=".27"><path d="M174.18,1124.39c-1.32-64.52,133.72-115.31,301.63-113.44,167.91,1.87,305.09,55.69,306.41,120.21,1.32,64.52-133.72,115.31-301.63,113.44-167.91-1.87-305.09-55.69-306.41-120.21Z" fill="#141723"/></g><g opacity=".28"><path d="M178.62,1124.17c-1.3-63.7,132.02-113.84,297.8-112,165.77,1.85,301.22,54.98,302.52,118.68,1.3,63.7-132.02,113.84-297.8,112-165.77-1.85-301.22-54.98-302.52-118.68Z" fill="#141723"/></g><g opacity=".3"><path d="M183.05,1123.95c-1.29-62.88,130.33-112.38,293.97-110.56,163.64,1.82,297.34,54.27,298.63,117.16,1.29,62.88-130.33,112.38-293.97,110.56-163.64-1.82-297.34-54.27-298.63-117.16Z" fill="#141723"/></g><g opacity=".31"><path d="M187.48,1123.72c-1.27-62.06,128.63-110.92,290.14-109.12,161.51,1.8,293.47,53.57,294.74,115.63,1.27,62.06-128.63,110.92-290.14,109.12-161.51-1.8-293.47-53.57-294.74-115.63Z" fill="#141723"/></g><g opacity=".32"><path d="M191.91,1123.5c-1.25-61.24,126.93-109.45,286.31-107.68,159.38,1.77,289.59,52.86,290.85,114.1,1.25,61.24-126.93,109.45-286.31,107.68-159.38-1.77-289.59-52.86-290.85-114.1Z" fill="#141723"/></g><g opacity=".33"><path d="M196.34,1123.28c-1.24-60.42,125.23-107.99,282.48-106.24,157.24,1.75,285.72,52.15,286.96,112.58,1.24,60.42-125.23,107.99-282.48,106.24-157.24-1.75-285.72-52.15-286.96-112.58Z" fill="#141723"/></g><g opacity=".35"><path d="M200.77,1123.06c-1.22-59.6,123.53-106.52,278.65-104.8,155.11,1.73,281.85,51.45,283.07,111.05s-123.53,106.52-278.65,104.8c-155.11-1.73-281.85-51.45-283.07-111.05Z" fill="#141723"/></g><g opacity=".36"><path d="M205.21,1122.83c-1.2-58.79,121.84-105.06,274.82-103.36,152.98,1.7,277.97,50.74,279.18,109.52,1.2,58.79-121.84,105.06-274.82,103.36-152.98-1.7-277.97-50.74-279.18-109.52Z" fill="#141723"/></g><g opacity=".37"><path d="M209.64,1122.61c-1.19-57.97,120.14-103.59,270.99-101.91,150.85,1.68,274.1,50.03,275.28,108,1.19,57.97-120.14,103.59-270.99,101.91-150.85-1.68-274.1-50.03-275.28-108Z" fill="#141723"/></g><g opacity=".38"><path d="M214.07,1122.39c-1.17-57.15,118.44-102.13,267.16-100.47,148.72,1.66,270.22,49.32,271.39,106.47,1.17,57.15-118.44,102.13-267.16,100.47-148.72-1.66-270.22-49.32-271.39-106.47Z" fill="#141723"/></g><g opacity=".4"><path d="M218.5,1122.16c-1.15-56.33,116.74-100.67,263.33-99.03,146.58,1.63,266.35,48.62,267.5,104.94,1.15,56.33-116.74,100.67-263.33,99.03-146.58-1.63-266.35-48.62-267.5-104.94Z" fill="#141723"/></g><g opacity=".41"><path d="M222.93,1121.94c-1.14-55.51,115.04-99.2,259.5-97.59,144.45,1.61,262.48,47.91,263.61,103.42,1.14,55.51-115.04,99.2-259.5,97.59-144.45-1.61-262.48-47.91-263.61-103.42Z" fill="#141723"/></g><g opacity=".42"><path d="M227.36,1121.72c-1.12-54.69,113.35-97.74,255.67-96.15,142.32,1.58,258.6,47.2,259.72,101.89,1.12,54.69-113.35,97.74-255.67,96.15-142.32-1.58-258.6-47.2-259.72-101.89Z" fill="#141723"/></g><g opacity=".43"><path d="M231.8,1121.49c-1.1-53.87,111.65-96.27,251.84-94.71,140.19,1.56,254.73,46.5,255.83,100.37,1.1,53.87-111.65,96.27-251.84,94.71-140.19-1.56-254.73-46.5-255.83-100.37Z" fill="#141723"/></g><g opacity=".44"><path d="M236.23,1121.27c-1.09-53.05,109.95-94.81,248.01-93.27,138.06,1.54,250.85,45.79,251.94,98.84s-109.95,94.81-248.01,93.27c-138.06-1.54-250.85-45.79-251.94-98.84Z" fill="#141723"/></g><g opacity=".46"><path d="M240.66,1121.05c-1.07-52.23,108.25-93.35,244.17-91.83,135.92,1.51,246.98,45.08,248.05,97.31,1.07,52.23-108.25,93.34-244.17,91.83-135.92-1.51-246.98-45.08-248.05-97.31Z" fill="#141723"/></g><g opacity=".47"><path d="M245.09,1120.82c-1.05-51.41,106.55-91.88,240.34-90.39,133.79,1.49,243.1,44.37,244.16,95.79,1.05,51.41-106.55,91.88-240.34,90.39-133.79-1.49-243.1-44.37-244.16-95.79Z" fill="#141723"/></g><g opacity=".48"><path d="M249.52,1120.6c-1.04-50.59,104.85-90.42,236.51-88.95,131.66,1.47,239.23,43.67,240.27,94.26,1.04,50.59-104.86,90.42-236.51,88.95-131.66-1.47-239.23-43.67-240.27-94.26Z" fill="#141723"/></g><g opacity=".49"><path d="M253.95,1120.38c-1.02-49.77,103.16-88.95,232.68-87.51,129.53,1.44,235.36,42.96,236.38,92.73,1.02,49.77-103.16,88.95-232.68,87.51-129.53-1.44-235.36-42.96-236.38-92.73Z" fill="#141723"/></g><g opacity=".51"><path d="M258.39,1120.15c-1-48.95,101.46-87.49,228.85-86.07,127.39,1.42,231.48,42.25,232.48,91.21,1,48.95-101.46,87.49-228.85,86.07s-231.48-42.25-232.48-91.21Z" fill="#141723"/></g><g opacity=".52"><path d="M262.82,1119.93c-.99-48.13,99.76-86.02,225.02-84.63,125.26,1.39,227.61,41.55,228.59,89.68.99,48.13-99.76,86.02-225.02,84.63-125.26-1.39-227.61-41.55-228.59-89.68Z" fill="#141723"/></g><g opacity=".53"><path d="M267.25,1119.71c-.97-47.31,98.06-84.56,221.19-83.19,123.13,1.37,223.73,40.84,224.7,88.15.97,47.31-98.06,84.56-221.19,83.19-123.13-1.37-223.73-40.84-224.7-88.15Z" fill="#141723"/></g><g opacity=".54"><path d="M271.68,1119.48c-.95-46.5,96.36-83.1,217.36-81.75,121,1.35,219.86,40.13,220.81,86.63.95,46.5-96.36,83.1-217.36,81.75-121-1.35-219.86-40.13-220.81-86.63Z" fill="#141723"/></g><g opacity=".56"><path d="M276.11,1119.26c-.94-45.68,94.67-81.63,213.53-80.31,118.87,1.32,215.99,39.42,216.92,85.1.94,45.68-94.67,81.63-213.53,80.31-118.87-1.32-215.99-39.42-216.92-85.1Z" fill="#141723"/></g><g opacity=".57"><path d="M280.54,1119.04c-.92-44.86,92.97-80.17,209.7-78.87,116.73,1.3,212.11,38.72,213.03,83.57.92,44.86-92.97,80.17-209.7,78.87-116.73-1.3-212.11-38.72-213.03-83.57Z" fill="#141723"/></g><g opacity=".58"><path d="M284.98,1118.82c-.9-44.04,91.27-78.7,205.87-77.43s208.24,38.01,209.14,82.05c.9,44.04-91.27,78.7-205.87,77.43-114.6-1.28-208.24-38.01-209.14-82.05Z" fill="#141723"/></g><g opacity=".59"><path d="M289.41,1118.59c-.89-43.22,89.57-77.24,202.04-75.99,112.47,1.25,204.36,37.3,205.25,80.52.89,43.22-89.57,77.24-202.04,75.99-112.47-1.25-204.36-37.3-205.25-80.52Z" fill="#141723"/></g><g opacity=".6"><path d="M293.84,1118.37c-.87-42.4,87.87-75.77,198.21-74.55,110.34,1.23,200.49,36.6,201.36,78.99.87,42.4-87.87,75.77-198.21,74.55-110.34-1.23-200.49-36.6-201.36-78.99Z" fill="#141723"/></g><g opacity=".62"><path d="M298.27,1118.15c-.85-41.58,86.18-74.31,194.38-73.11,108.21,1.2,196.61,35.89,197.47,77.47.85,41.58-86.18,74.31-194.38,73.1-108.21-1.2-196.61-35.89-197.47-77.47Z" fill="#141723"/></g><g opacity=".63"><path d="M302.7,1117.92c-.83-40.76,84.48-72.85,190.55-71.66,106.07,1.18,192.74,35.18,193.57,75.94.83,40.76-84.48,72.85-190.55,71.66-106.07-1.18-192.74-35.18-193.57-75.94Z" fill="#141723"/></g><g opacity=".64"><path d="M307.13,1117.7c-.82-39.94,82.78-71.38,186.72-70.22,103.94,1.16,188.87,34.47,189.68,74.42.82,39.94-82.78,71.38-186.72,70.22-103.94-1.16-188.87-34.47-189.68-74.42Z" fill="#141723"/></g><g opacity=".65"><path d="M311.57,1117.48c-.8-39.12,81.08-69.92,182.89-68.78,101.81,1.13,184.99,33.77,185.79,72.89.8,39.12-81.08,69.92-182.89,68.78-101.81-1.13-184.99-33.77-185.79-72.89Z" fill="#141723"/></g><g opacity=".67"><path d="M316,1117.25c-.78-38.3,79.38-68.45,179.06-67.34,99.68,1.11,181.12,33.06,181.9,71.36.78,38.3-79.38,68.45-179.06,67.34-99.68-1.11-181.12-33.06-181.9-71.36Z" fill="#141723"/></g><g opacity=".68"><path d="M320.43,1117.03c-.77-37.48,77.69-66.99,175.23-65.9,97.55,1.09,177.24,32.35,178.01,69.84s-77.69,66.99-175.23,65.9c-97.54-1.09-177.24-32.35-178.01-69.84Z" fill="#141723"/></g><g opacity=".69"><path d="M324.86,1116.81c-.75-36.66,75.99-65.52,171.4-64.46,95.41,1.06,173.37,31.65,174.12,68.31.75,36.66-75.99,65.52-171.4,64.46-95.41-1.06-173.37-31.65-174.12-68.31Z" fill="#141723"/></g><g opacity=".7"><path d="M329.29,1116.58c-.73-35.84,74.29-64.06,167.57-63.02,93.28,1.04,169.49,30.94,170.23,66.78.73,35.84-74.29,64.06-167.57,63.02-93.28-1.04-169.49-30.94-170.23-66.78Z" fill="#141723"/></g><g opacity=".72"><path d="M333.72,1116.36c-.72-35.03,72.59-62.6,163.74-61.58,91.15,1.01,165.62,30.23,166.34,65.26.72,35.03-72.59,62.6-163.74,61.58-91.15-1.01-165.62-30.23-166.34-65.26Z" fill="#141723"/></g><g opacity=".73"><path d="M338.16,1116.14c-.7-34.21,70.89-61.13,159.91-60.14,89.02.99,161.75,29.52,162.45,63.73.7,34.21-70.89,61.13-159.91,60.14-89.02-.99-161.75-29.52-162.45-63.73Z" fill="#141723"/></g><g opacity=".74"><path d="M342.59,1115.91c-.68-33.39,69.2-59.67,156.08-58.7,86.88.97,157.87,28.82,158.56,62.2.68,33.39-69.2,59.67-156.08,58.7-86.88-.97-157.87-28.82-158.56-62.2Z" fill="#141723"/></g><g opacity=".75"><path d="M347.02,1115.69c-.67-32.57,67.5-58.2,152.25-57.26,84.75.94,154,28.11,154.67,60.68.67,32.57-67.5,58.2-152.25,57.26-84.75-.94-154-28.11-154.66-60.68Z" fill="#141723"/></g><g opacity=".77"><path d="M351.45,1115.47c-.65-31.75,65.8-56.74,148.42-55.82,82.62.92,150.12,27.4,150.77,59.15.65,31.75-65.8,56.74-148.42,55.82-82.62-.92-150.12-27.4-150.77-59.15Z" fill="#141723"/></g><g opacity=".78"><path d="M355.88,1115.24c-.63-30.93,64.1-55.27,144.59-54.38,80.49.9,146.25,26.7,146.88,57.62.63,30.93-64.1,55.27-144.59,54.38-80.49-.9-146.25-26.7-146.88-57.62Z" fill="#141723"/></g><g opacity=".79"><path d="M360.31,1115.02c-.62-30.11,62.4-53.81,140.76-52.94,78.36.87,142.38,25.99,142.99,56.1.62,30.11-62.4,53.81-140.76,52.94s-142.38-25.99-142.99-56.1Z" fill="#141723"/></g><g opacity=".8"><path d="M364.75,1114.8c-.6-29.29,60.71-52.35,136.93-51.5,76.22.85,138.5,25.28,139.1,54.57.6,29.29-60.71,52.35-136.93,51.5-76.22-.85-138.5-25.28-139.1-54.57Z" fill="#141723"/></g><g opacity=".81"><path d="M369.18,1114.58c-.58-28.47,59.01-50.88,133.1-50.06,74.09.82,134.63,24.57,135.21,53.04.58,28.47-59.01,50.88-133.1,50.06-74.09-.82-134.63-24.57-135.21-53.04Z" fill="#141723"/></g><g opacity=".83"><path d="M373.61,1114.35c-.57-27.65,57.31-49.42,129.27-48.62,71.96.8,130.75,23.87,131.32,51.52.57,27.65-57.31,49.42-129.27,48.62-71.96-.8-130.75-23.87-131.32-51.52Z" fill="#141723"/></g><g opacity=".84"><path d="M378.04,1114.13c-.55-26.83,55.61-47.95,125.44-47.18,69.83.78,126.88,23.16,127.43,49.99.55,26.83-55.61,47.95-125.44,47.18-69.83-.78-126.88-23.16-127.43-49.99Z" fill="#141723"/></g><g opacity=".85"><path d="M382.47,1113.91c-.53-26.01,53.91-46.49,121.61-45.74,67.7.75,123,22.45,123.54,48.47.53,26.01-53.91,46.49-121.61,45.74-67.7-.75-123-22.45-123.54-48.47Z" fill="#141723"/></g><g opacity=".86"><path d="M386.9,1113.68c-.52-25.19,52.22-45.03,117.78-44.3,65.56.73,119.13,21.75,119.65,46.94.52,25.19-52.22,45.03-117.78,44.3-65.56-.73-119.13-21.75-119.65-46.94Z" fill="#141723"/></g><g opacity=".88"><path d="M391.34,1113.46c-.5-24.37,50.52-43.56,113.95-42.85,63.43.71,115.26,21.04,115.76,45.41.5,24.37-50.52,43.56-113.95,42.85-63.43-.71-115.26-21.04-115.76-45.41Z" fill="#141723"/></g><g opacity=".89"><path d="M395.77,1113.24c-.48-23.56,48.82-42.1,110.12-41.41,61.3.68,111.38,20.33,111.86,43.89.48,23.56-48.82,42.1-110.12,41.41-61.3-.68-111.38-20.33-111.86-43.89Z" fill="#141723"/></g><g opacity=".9"><path d="M400.2,1113.01c-.47-22.74,47.12-40.63,106.29-39.97,59.17.66,107.51,19.62,107.97,42.36.47,22.74-47.12,40.63-106.29,39.97-59.17-.66-107.51-19.62-107.97-42.36Z" fill="#141723"/></g><g opacity=".91"><path d="M404.63,1112.79c-.45-21.92,45.42-39.17,102.46-38.53,57.03.63,103.63,18.92,104.08,40.83.45,21.92-45.42,39.17-102.46,38.53-57.03-.63-103.63-18.92-104.08-40.83Z" fill="#141723"/></g><g opacity=".93"><path d="M409.06,1112.57c-.43-21.1,43.72-37.7,98.63-37.09,54.9.61,99.76,18.21,100.19,39.31.43,21.1-43.73,37.7-98.63,37.09-54.9-.61-99.76-18.21-100.19-39.31Z" fill="#141723"/></g><g opacity=".94"><path d="M413.49,1112.34c-.42-20.28,42.03-36.24,94.8-35.65,52.77.59,95.89,17.5,96.3,37.78.42,20.28-42.03,36.24-94.8,35.65-52.77-.59-95.89-17.5-96.3-37.78Z" fill="#141723"/></g><g opacity=".95"><path d="M417.93,1112.12c-.4-19.46,40.33-34.78,90.97-34.21,50.64.56,92.01,16.8,92.41,36.25.4,19.46-40.33,34.78-90.97,34.21-50.64-.56-92.01-16.8-92.41-36.25Z" fill="#141723"/></g><g opacity=".96"><path d="M422.36,1111.9c-.38-18.64,38.63-33.31,87.14-32.77,48.51.54,88.14,16.09,88.52,34.73.38,18.64-38.63,33.31-87.14,32.77-48.51-.54-88.14-16.09-88.52-34.73Z" fill="#141723"/></g><g opacity=".98"><path d="M426.79,1111.67c-.36-17.82,36.93-31.85,83.31-31.33,46.37.52,84.26,15.38,84.63,33.2.36,17.82-36.93,31.85-83.31,31.33-46.37-.52-84.26-15.38-84.63-33.2Z" fill="#141723"/></g><g opacity=".99"><path d="M431.22,1111.45c-.35-17,35.23-30.38,79.48-29.89,44.24.49,80.39,14.67,80.74,31.67.35,17-35.23,30.38-79.48,29.89-44.24-.49-80.39-14.67-80.74-31.67Z" fill="#141723"/></g><path d="M435.65,1111.23c-.33-16.18,33.54-28.92,75.65-28.45,42.11.47,76.51,13.97,76.85,30.15.33,16.18-33.54,28.92-75.65,28.45-42.11-.47-76.51-13.97-76.85-30.15Z" fill="#141723"/></g><path d="M896.15,759.8c-.37,4.13-.66,8.26-1.41,12.37-.62,3.38-1.65,6.74-2.53,10.1-1.03,3.92-1.99,7.85-3.37,11.75-1.15,3.22-2.66,6.4-4.05,9.6-1.78,4.11-3.56,8.21-5.75,12.27-3.02,5.61-6.28,11.18-10.07,16.67-.61.88-1.29,1.75-1.92,2.63-3.92,5.47-8.27,10.87-12.96,16.19-.88,1-1.68,2.02-2.59,3.02-5.07,5.54-10.68,10.96-16.59,16.29-3.77,3.4-7.97,6.68-12.09,9.98-3.64,2.92-7.14,5.88-11.05,8.72-4.45,3.24-9.36,6.32-14.16,9.45-4.95,3.22-9.65,6.53-14.98,9.63-11.78,6.85-24.3,12.98-37.12,18.78-3.69,1.66-7.47,3.22-11.23,4.79-10.05,4.22-20.37,8.12-30.92,11.71-3.79,1.29-7.51,2.68-11.36,3.89-6.64,2.09-13.44,3.92-20.24,5.78-5.16,1.4-10.26,2.9-15.49,4.17-7.16,1.73-14.46,3.17-21.75,4.65-4.96,1-9.87,2.13-14.88,3.02-14.73,2.6-29.69,4.66-44.76,6.23-4.65.49-9.33.78-14,1.17-8.84.74-17.69,1.39-26.59,1.77-5.7.25-11.4.37-17.11.47-7.18.13-14.35.19-21.52.1-6.04-.08-12.07-.26-18.1-.5-6.65-.26-13.28-.6-19.9-1.06-6.1-.42-12.17-.93-18.24-1.52-6.57-.63-13.12-1.37-19.64-2.2-5.89-.75-11.76-1.58-17.6-2.49-7.01-1.09-13.96-2.31-20.87-3.63-5.47-1.04-10.93-2.12-16.34-3.3-8.25-1.81-16.37-3.85-24.45-5.99-4.5-1.19-9.05-2.32-13.49-3.62-14.46-4.22-28.59-8.95-42.25-14.27-6.78-2.64-13.33-5.53-19.87-8.44-3.38-1.5-6.88-2.87-10.2-4.44-9.93-4.71-19.59-9.71-28.87-15.07-77.61-44.81-116.37-103.64-116.21-162.38l-.44,229.16c-.17,58.74,38.6,117.57,116.21,162.38,9.29,5.36,18.95,10.36,28.88,15.08,3.3,1.57,6.79,2.93,10.15,4.42,5.88,2.61,11.67,5.33,17.74,7.72.69.27,1.45.46,2.15.73,13.67,5.32,27.79,10.04,42.26,14.27,1.16.34,2.23.81,3.39,1.15,3.3.94,6.76,1.59,10.1,2.48,8.08,2.14,16.19,4.18,24.45,5.99,2.2.48,4.31,1.14,6.52,1.6,3.23.67,6.56,1.09,9.82,1.71,6.92,1.32,13.85,2.54,20.85,3.63,2.81.44,5.55,1.06,8.37,1.45,3.06.43,6.17.64,9.24,1.03,6.54.83,13.08,1.56,19.67,2.2,3.13.3,6.22.79,9.36,1.05,2.92.24,5.87.27,8.8.47,6.65.46,13.3.8,19.98,1.07,3.34.13,6.66.45,10,.53,2.67.07,5.34-.07,8.01-.04,7.21.1,14.4.03,21.61-.1,3.57-.07,7.14.07,10.71-.05,2.12-.07,4.21-.33,6.32-.42,8.92-.39,17.78-1.04,26.64-1.78,3.56-.3,7.16-.36,10.7-.71,1.1-.11,2.17-.34,3.27-.46,15.08-1.58,30.03-3.63,44.76-6.23.72-.13,1.47-.17,2.19-.3,4.3-.77,8.45-1.85,12.71-2.72,7.28-1.48,14.56-2.91,21.71-4.64,5.24-1.27,10.34-2.77,15.5-4.17,6.8-1.85,13.61-3.69,20.25-5.78,1.43-.45,2.93-.78,4.35-1.24,2.4-.78,4.59-1.83,6.97-2.64,10.57-3.6,20.88-7.5,30.94-11.73,3.76-1.58,7.53-3.12,11.21-4.79,12.83-5.79,25.35-11.93,37.13-18.78,1.62-.94,3.22-1.89,4.81-2.84,3.62-2.18,6.7-4.53,10.14-6.76,4.82-3.13,9.73-6.23,14.2-9.47,3.9-2.84,7.39-5.79,11.03-8.71,4.12-3.31,8.32-6.59,12.1-9.99.76-.69,1.7-1.33,2.44-2.02,5.06-4.68,9.73-9.45,14.15-14.28.91-1,1.71-2.02,2.59-3.03,2.63-2.98,5.31-5.94,7.69-8.97,1.87-2.38,3.53-4.8,5.26-7.2.63-.88,1.31-1.75,1.92-2.64,3.13-4.52,6.07-9.08,8.67-13.7.55-.98.86-1.99,1.39-2.97,2.18-4.06,3.96-8.16,5.75-12.26,1.04-2.4,2.45-4.75,3.35-7.15.3-.81.41-1.64.7-2.45,1.39-3.9,2.35-7.84,3.38-11.77.7-2.66,1.75-5.28,2.28-7.95.14-.7.11-1.42.24-2.12.76-4.12,1.05-8.26,1.42-12.4.24-2.7.85-5.38.92-8.08.03-1.15.05-2.31.05-3.46l.44-229.16c-.01,3.86-.63,7.7-.98,11.55Z" fill="url(#linear-gradient)"/><path d="M896.15,758.15c-.37,4.13-.66,8.26-1.41,12.37-.62,3.38-1.65,6.74-2.53,10.1-1.03,3.92-1.99,7.85-3.37,11.75-1.15,3.22-2.66,6.4-4.05,9.6-1.78,4.11-3.56,8.21-5.75,12.27-3.02,5.61-6.28,11.18-10.07,16.67-.61.88-1.29,1.75-1.92,2.63-3.92,5.47-8.27,10.87-12.96,16.19-.88,1-1.68,2.02-2.59,3.02-5.07,5.54-10.68,10.96-16.59,16.29-3.77,3.4-7.97,6.68-12.09,9.98-3.64,2.92-7.14,5.88-11.05,8.72-4.45,3.24-9.36,6.32-14.16,9.45-4.95,3.22-9.65,6.53-14.98,9.63-11.78,6.85-24.3,12.98-37.12,18.78-3.69,1.66-7.47,3.22-11.23,4.79-10.05,4.22-20.37,8.12-30.92,11.71-3.79,1.29-7.51,2.68-11.36,3.89-6.64,2.09-13.44,3.92-20.24,5.78-5.16,1.4-10.26,2.9-15.49,4.17-7.16,1.73-14.46,3.17-21.75,4.65-4.96,1-9.87,2.13-14.88,3.02-14.73,2.6-29.69,4.66-44.76,6.23-4.65.49-9.33.78-14,1.17-8.84.74-17.69,1.38-26.59,1.77-5.7.25-11.4.37-17.11.47-7.18.13-14.35.19-21.52.1-6.04-.08-12.07-.26-18.1-.5-6.65-.26-13.28-.6-19.9-1.06-6.1-.42-12.17-.93-18.24-1.52-6.57-.63-13.12-1.37-19.64-2.2-5.89-.75-11.76-1.58-17.6-2.49-7.01-1.09-13.96-2.31-20.87-3.63-5.47-1.04-10.93-2.12-16.34-3.3-8.25-1.81-16.37-3.85-24.45-5.99-4.5-1.19-9.05-2.32-13.49-3.62-14.46-4.22-28.59-8.95-42.25-14.27-6.78-2.64-13.33-5.53-19.87-8.44-3.38-1.5-6.88-2.87-10.2-4.44-9.93-4.71-19.59-9.71-28.87-15.07-77.61-44.81-116.37-103.64-116.21-162.38l-.44,229.16c-.17,58.74,38.6,117.57,116.21,162.38,9.29,5.36,18.95,10.36,28.88,15.08,3.3,1.57,6.79,2.93,10.15,4.42,5.88,2.61,11.67,5.33,17.74,7.72.69.27,1.45.46,2.15.73,13.67,5.32,27.79,10.04,42.26,14.27,1.16.34,2.23.81,3.39,1.15,3.3.94,6.76,1.59,10.1,2.48,8.08,2.14,16.19,4.18,24.45,5.99,2.2.48,4.31,1.14,6.52,1.6,3.23.67,6.56,1.09,9.82,1.71,6.92,1.32,13.85,2.54,20.85,3.63,2.81.44,5.55,1.06,8.37,1.45,3.06.43,6.17.64,9.24,1.03,6.54.83,13.08,1.56,19.67,2.2,3.13.3,6.22.79,9.36,1.05,2.92.24,5.87.27,8.8.47,6.65.46,13.3.8,19.98,1.07,3.34.13,6.66.45,10,.53,2.67.07,5.34-.07,8.01-.04,7.21.1,14.4.03,21.61-.1,3.57-.07,7.14.07,10.71-.05,2.12-.07,4.21-.33,6.32-.42,8.92-.39,17.78-1.04,26.64-1.78,3.56-.3,7.16-.36,10.7-.71,1.1-.11,2.17-.34,3.27-.46,15.08-1.58,30.03-3.63,44.76-6.23.72-.13,1.47-.17,2.19-.3,4.3-.77,8.45-1.85,12.71-2.72,7.28-1.48,14.56-2.91,21.71-4.64,5.24-1.27,10.34-2.77,15.5-4.17,6.8-1.85,13.61-3.69,20.25-5.78,1.43-.45,2.93-.78,4.35-1.24,2.4-.78,4.59-1.83,6.97-2.64,10.57-3.6,20.88-7.5,30.94-11.73,3.76-1.58,7.53-3.12,11.21-4.79,12.83-5.79,25.35-11.93,37.13-18.78,1.62-.94,3.22-1.89,4.81-2.84,3.62-2.17,6.7-4.53,10.14-6.76,4.82-3.13,9.73-6.23,14.2-9.47,3.9-2.84,7.39-5.79,11.03-8.71,4.12-3.31,8.32-6.59,12.1-9.99.76-.69,1.7-1.33,2.44-2.02,5.06-4.68,9.73-9.45,14.15-14.28.91-1,1.71-2.02,2.59-3.03,2.63-2.98,5.31-5.94,7.69-8.97,1.87-2.38,3.53-4.8,5.26-7.2.63-.88,1.31-1.75,1.92-2.64,3.13-4.52,6.07-9.08,8.67-13.7.55-.98.86-1.99,1.39-2.97,2.18-4.06,3.96-8.16,5.75-12.26,1.04-2.4,2.45-4.75,3.35-7.15.3-.81.41-1.64.7-2.45,1.39-3.9,2.35-7.84,3.38-11.77.7-2.66,1.75-5.28,2.28-7.95.14-.7.11-1.42.24-2.12.76-4.12,1.05-8.26,1.42-12.4.24-2.7.85-5.38.92-8.07.03-1.15.05-2.31.05-3.46l.44-229.16c-.01,3.86-.63,7.7-.98,11.55Z" fill="url(#linear-gradient-2)"/><path d="M780.94,584.25c154.23,89.05,155.05,233.46,1.69,322.58-153.23,89.05-402.55,89.05-556.78,0-154.23-89.05-155.05-233.46-1.82-322.51,153.35-89.12,402.67-89.12,556.9-.07Z" fill="url(#linear-gradient-3)"/><path d="M782.63,903.6c-153.23,89.05-402.55,89.05-556.78,0-76.45-44.14-115.09-101.89-116.08-159.75-.43,58.94,38.2,118.01,116.08,162.98,154.24,89.05,403.55,89.04,556.78,0,77.34-44.94,115.35-103.95,114.37-162.82-.44,57.8-38.44,115.48-114.37,159.6Z" fill="url(#linear-gradient-4)"/><path d="M853.79,905.94v83.05c-.73.73-1.47,1.65-2.2,2.57-5.13,5.5-10.82,10.82-16.68,16.32-3.85,3.3-7.88,6.6-12.1,9.9-3.67,2.93-7.15,5.87-11,8.8-4.4,3.12-9.35,6.23-14.12,9.35-4.95,3.3-9.72,6.6-15.03,9.72-11.73,6.78-24.38,12.84-37.22,18.7-3.67,1.65-7.34,3.3-11.19,4.77-10.08,4.22-20.35,8.07-30.8,11.73-3.85,1.28-7.52,2.75-11.37,3.85-6.78,2.2-13.57,4.03-20.35,5.87-5.13,1.28-10.27,2.93-15.4,4.22-7.15,1.65-14.48,3.12-21.82,4.58-4.95.92-9.9,2.2-14.85,2.93-14.67,2.75-29.7,4.77-44.73,6.24-4.77.55-9.35.92-14.12,1.28-8.8.73-17.6,1.28-26.58,1.65-5.68.37-11.37.37-17.05.55-7.15.18-14.3.18-21.45.18-2.93-.18-5.87-.18-8.62-.37v-14.3c2.02.18,4.22.18,6.24.18,6.96.18,13.75.18,20.72,0,5.5-.18,11-.18,16.5-.55,8.62-.36,17.05-.92,25.67-1.65,4.4-.37,8.98-.55,13.38-1.1,14.67-1.47,28.97-3.48,43.27-5.87,4.76-.92,9.53-1.83,14.3-2.93,6.97-1.28,13.93-2.75,20.9-4.4,5.13-1.1,9.9-2.57,15.04-3.85,6.41-1.84,13.02-3.48,19.43-5.5,3.67-1.1,7.33-2.57,11-3.67,10.08-3.48,19.99-7.15,29.7-11.19,3.67-1.47,7.33-2.93,10.82-4.58,12.28-5.5,24.39-11.18,35.75-17.78,5.13-2.93,9.72-6.05,14.48-9.17,4.58-2.93,9.35-5.87,13.57-8.98,3.85-2.57,7.15-5.5,10.64-8.25,4.03-3.12,8.07-6.24,11.73-9.35,5.68-5.13,11-10.27,15.95-15.59.73-.73,1.47-1.65,2.2-2.38v-59.4c4.58-4.22,9.17-8.62,13.2-13.02.73-.92,1.47-1.83,2.2-2.57Z" fill="url(#linear-gradient-5)"/><path d="M838.39,921.52v59.4c-.73.73-1.47,1.65-2.2,2.38-4.95,5.32-10.27,10.45-15.95,15.59-3.67,3.12-7.7,6.23-11.73,9.35-3.48,2.75-6.78,5.68-10.64,8.25-4.22,3.12-8.98,6.05-13.57,8.98-4.77,3.12-9.35,6.23-14.48,9.17-11.37,6.6-23.47,12.28-35.75,17.78-3.48,1.65-7.15,3.12-10.82,4.58-9.72,4.03-19.62,7.7-29.7,11.19-3.67,1.1-7.33,2.56-11,3.67-6.42,2.02-13.02,3.67-19.43,5.5-5.13,1.28-9.9,2.75-15.04,3.85-6.97,1.65-13.93,3.12-20.9,4.4-4.77,1.1-9.53,2.02-14.3,2.93-14.3,2.39-28.6,4.4-43.27,5.87-4.4.55-8.98.73-13.38,1.1-8.62.73-17.05,1.28-25.67,1.65-5.5.37-11,.37-16.5.55-6.96.18-13.75.18-20.72,0-2.02,0-4.22,0-6.24-.18v-68.75c2.75.18,5.68.18,8.62.37,7.15,0,14.3,0,21.45-.18,5.68,0,11.37-.18,17.05-.37,8.98-.55,17.78-1.1,26.58-1.83,4.77-.37,9.35-.73,14.12-1.28,15.04-1.47,30.07-3.48,44.73-6.24,4.95-.73,9.9-2.01,14.85-2.93,7.33-1.47,14.67-2.93,21.82-4.58,5.13-1.28,10.27-2.75,15.4-4.22,6.78-1.84,13.57-3.67,20.35-5.87,3.85-1.1,7.52-2.56,11.37-3.85,10.45-3.48,20.72-7.52,30.8-11.73,3.85-1.47,7.52-3.12,11.19-4.77,12.83-5.68,25.48-11.92,37.22-18.7,5.32-3.12,10.08-6.42,15.03-9.72,4.77-3.12,9.72-6.24,14.12-9.35,3.85-2.93,7.34-5.87,11-8.8,4.22-3.3,8.25-6.6,12.1-9.9,1.1-1.1,2.39-2.2,3.48-3.3Z" fill="url(#linear-gradient-6)"/><polygon points="838.39 980.92 853.79 988.99 853.79 905.94 838.39 921.52 838.39 980.92" fill="#545e75"/><path d="M512.59,1049.63v30.71c-3.12.18-6.23.18-9.35.18v-30.71c3.12,0,6.23,0,9.35-.18Z" fill="#545e75"/><path d="M531.29,1049.26v30.53h-.73c-2.93.18-5.68.37-8.62.37v-30.71c3.12.18,6.23,0,9.35-.18Z" fill="#545e75"/><path d="M549.99,1048.16v30.34c-3.12.37-6.23.55-9.35.55v-30.16c3.12-.18,6.23-.37,9.35-.73Z" fill="#545e75"/><path d="M568.69,1046.7v30.34c-3.12.37-6.23.73-9.35.92v-30.34c.55-.18.92-.18,1.47-.18,2.75-.18,5.32-.37,7.88-.73Z" fill="#545e75"/><path d="M606.09,1042.11v30.16c-3.12.55-6.23.92-9.35,1.47v-30.16c3.12-.37,6.24-.92,9.35-1.47Z" fill="#545e75"/><path d="M587.39,1044.68v30.35c-3.12.36-6.23.73-9.35,1.1v-30.34c3.12-.18,6.24-.55,9.35-1.1Z" fill="#545e75"/><path d="M624.98,1038.81v29.8c-3.12.92-6.42,1.47-9.53,2.01v-29.98c1.47-.18,2.75-.55,4.22-.73,1.84-.18,3.67-.55,5.32-1.1Z" fill="#545e75"/><path d="M643.68,1034.96v29.79c-3.12.73-6.42,1.47-9.53,2.02v-29.79h.37c3.12-.55,6.23-1.28,9.17-2.02Z" fill="#545e75"/><path d="M662.38,1030.74v29.43c-3.12.73-6.24,1.65-9.35,2.38v-29.43c1.1-.18,2.2-.55,3.3-.73,2.02-.55,4.03-1.1,6.05-1.65Z" fill="#545e75"/><path d="M681.08,1025.61v29.24c-3.12,1.1-6.24,1.83-9.35,2.75v-29.43c3.12-.92,6.23-1.65,9.35-2.57Z" fill="#545e75"/><path d="M699.78,1019.75v28.88c-2.02.73-4.22,1.47-6.24,2.2-1.1.36-2.02.73-3.12,1.1v-29.06c.55-.18,1.1-.37,1.65-.55,2.57-.73,5.13-1.65,7.7-2.56Z" fill="#545e75"/><path d="M718.48,1012.96v28.51c-3.12,1.28-6.23,2.56-9.35,3.85v-28.88c3.12-1.1,6.23-2.2,9.35-3.48Z" fill="#545e75"/><path d="M737.18,1005.44v28.14c-1.1.55-2.02.92-3.12,1.47-2.01.92-4.03,1.84-6.23,2.57v-28.33c2.2-.73,4.22-1.65,6.42-2.57,1.1-.36,2.02-.73,2.93-1.28Z" fill="#545e75"/><path d="M833.27,952.1c-3.37,2.85-6.82,5.71-10.47,8.56-3.67,2.93-7.15,5.87-11,8.8-4.4,3.12-9.35,6.23-14.12,9.35-4.95,3.3-9.72,6.6-15.03,9.72-11.44,6.61-23.76,12.68-36.26,18.25v16.18c12.5-5.57,24.82-11.64,36.26-18.25,5.32-3.12,10.08-6.42,15.03-9.72,4.77-3.12,9.72-6.24,14.12-9.35,3.85-2.93,7.34-5.87,11-8.8,3.65-2.85,7.09-5.71,10.47-8.56v-16.18Z" fill="url(#linear-gradient-7)"/><path d="M896.15,501.07c-.37,4.13-.66,8.26-1.41,12.37-.62,3.38-1.65,6.74-2.53,10.1-1.03,3.92-1.99,7.85-3.37,11.75-1.15,3.22-2.66,6.4-4.05,9.6-1.78,4.11-3.56,8.21-5.75,12.27-3.02,5.61-6.28,11.18-10.07,16.67-.61.88-1.29,1.75-1.92,2.63-3.92,5.47-8.27,10.87-12.96,16.19-.88,1-1.68,2.02-2.59,3.02-5.07,5.54-10.68,10.96-16.59,16.29-3.77,3.4-7.97,6.68-12.09,9.98-3.64,2.92-7.14,5.88-11.05,8.72-4.45,3.24-9.36,6.32-14.16,9.45-4.95,3.22-9.65,6.53-14.98,9.63-11.78,6.85-24.3,12.98-37.12,18.78-3.69,1.66-7.47,3.22-11.23,4.79-10.05,4.22-20.37,8.12-30.92,11.71-3.79,1.29-7.51,2.68-11.36,3.89-6.64,2.09-13.44,3.92-20.24,5.78-5.16,1.4-10.26,2.9-15.49,4.17-7.16,1.73-14.46,3.17-21.75,4.65-4.96,1-9.87,2.13-14.88,3.02-14.73,2.6-29.69,4.66-44.76,6.23-4.65.49-9.33.78-14,1.17-8.84.74-17.69,1.38-26.59,1.77-5.7.25-11.4.37-17.11.47-7.18.13-14.35.19-21.52.1-6.04-.08-12.07-.26-18.1-.5-6.65-.26-13.28-.6-19.9-1.06-6.1-.42-12.17-.93-18.24-1.52-6.57-.63-13.12-1.37-19.64-2.2-5.89-.75-11.76-1.58-17.6-2.49-7.01-1.09-13.96-2.31-20.87-3.63-5.47-1.04-10.93-2.12-16.34-3.3-8.25-1.81-16.37-3.85-24.45-5.99-4.5-1.19-9.05-2.32-13.49-3.62-14.46-4.22-28.59-8.95-42.25-14.27-6.78-2.64-13.33-5.53-19.87-8.44-3.38-1.5-6.88-2.87-10.2-4.44-9.93-4.71-19.59-9.71-28.87-15.07-77.61-44.81-116.37-103.64-116.21-162.38l-.44,229.16c-.17,58.74,38.6,117.57,116.21,162.38,9.29,5.36,18.95,10.36,28.88,15.08,3.3,1.57,6.79,2.93,10.15,4.42,5.88,2.61,11.67,5.33,17.74,7.72.69.27,1.45.46,2.15.73,13.67,5.32,27.79,10.04,42.26,14.27,1.16.34,2.23.81,3.39,1.15,3.3.94,6.76,1.59,10.1,2.48,8.08,2.14,16.19,4.18,24.45,5.99,2.2.48,4.31,1.14,6.52,1.6,3.23.67,6.56,1.09,9.82,1.71,6.92,1.32,13.85,2.54,20.85,3.63,2.81.44,5.55,1.06,8.37,1.45,3.06.43,6.17.64,9.24,1.03,6.54.83,13.08,1.56,19.67,2.2,3.13.3,6.22.79,9.36,1.05,2.92.24,5.87.27,8.8.47,6.65.46,13.3.8,19.98,1.07,3.34.13,6.66.45,10,.53,2.67.07,5.34-.07,8.01-.04,7.21.1,14.4.03,21.61-.1,3.57-.07,7.14.07,10.71-.05,2.12-.07,4.21-.33,6.32-.42,8.92-.39,17.78-1.04,26.64-1.78,3.56-.3,7.16-.36,10.7-.71,1.1-.11,2.17-.34,3.27-.46,15.08-1.58,30.03-3.63,44.76-6.23.72-.13,1.47-.17,2.19-.3,4.3-.77,8.45-1.85,12.71-2.72,7.28-1.48,14.56-2.91,21.71-4.64,5.24-1.27,10.34-2.77,15.5-4.17,6.8-1.85,13.61-3.69,20.25-5.78,1.43-.45,2.93-.78,4.35-1.24,2.4-.78,4.59-1.83,6.97-2.64,10.57-3.6,20.88-7.5,30.94-11.73,3.76-1.58,7.53-3.12,11.21-4.79,12.83-5.79,25.35-11.93,37.13-18.78,1.62-.94,3.22-1.89,4.81-2.84,3.62-2.18,6.7-4.53,10.14-6.76,4.82-3.13,9.73-6.23,14.2-9.47,3.9-2.84,7.39-5.79,11.03-8.71,4.12-3.31,8.32-6.59,12.1-9.99.76-.69,1.7-1.33,2.44-2.02,5.06-4.68,9.73-9.45,14.15-14.28.91-1,1.71-2.02,2.59-3.03,2.63-2.98,5.31-5.94,7.69-8.97,1.87-2.38,3.53-4.8,5.26-7.2.63-.88,1.31-1.75,1.92-2.64,3.13-4.52,6.07-9.08,8.67-13.7.55-.98.86-1.99,1.39-2.97,2.18-4.06,3.96-8.16,5.75-12.26,1.04-2.4,2.45-4.75,3.35-7.15.3-.81.41-1.64.7-2.45,1.39-3.9,2.35-7.84,3.38-11.77.7-2.66,1.75-5.28,2.28-7.95.14-.7.11-1.42.24-2.12.76-4.12,1.05-8.26,1.42-12.4.24-2.7.85-5.38.92-8.08.03-1.15.05-2.31.05-3.46l.44-229.16c-.01,3.86-.63,7.7-.98,11.55Z" fill="url(#linear-gradient-8)"/><path d="M896.15,499.42c-.37,4.13-.66,8.26-1.41,12.37-.62,3.38-1.65,6.74-2.53,10.1-1.03,3.92-1.99,7.85-3.37,11.75-1.15,3.22-2.66,6.4-4.05,9.6-1.78,4.11-3.56,8.21-5.75,12.27-3.02,5.61-6.28,11.18-10.07,16.67-.61.88-1.29,1.75-1.92,2.63-3.92,5.47-8.27,10.87-12.96,16.19-.88,1-1.68,2.02-2.59,3.02-5.07,5.54-10.68,10.96-16.59,16.29-3.77,3.4-7.97,6.68-12.09,9.98-3.64,2.92-7.14,5.88-11.05,8.72-4.45,3.24-9.36,6.32-14.16,9.45-4.95,3.22-9.65,6.53-14.98,9.63-11.78,6.85-24.3,12.98-37.12,18.78-3.69,1.66-7.47,3.22-11.23,4.79-10.05,4.22-20.37,8.12-30.92,11.71-3.79,1.29-7.51,2.68-11.36,3.89-6.64,2.09-13.44,3.92-20.24,5.78-5.16,1.4-10.26,2.9-15.49,4.17-7.16,1.73-14.46,3.17-21.75,4.65-4.96,1-9.87,2.13-14.88,3.02-14.73,2.6-29.69,4.66-44.76,6.23-4.65.49-9.33.78-14,1.17-8.84.74-17.69,1.38-26.59,1.77-5.7.25-11.4.37-17.11.47-7.18.13-14.35.19-21.52.1-6.04-.08-12.07-.26-18.1-.5-6.65-.26-13.28-.6-19.9-1.06-6.1-.42-12.17-.93-18.24-1.52-6.57-.63-13.12-1.37-19.64-2.2-5.89-.75-11.76-1.58-17.6-2.49-7.01-1.09-13.96-2.31-20.87-3.63-5.47-1.04-10.93-2.12-16.34-3.3-8.25-1.81-16.37-3.85-24.45-5.99-4.5-1.19-9.05-2.32-13.49-3.62-14.46-4.22-28.59-8.95-42.25-14.27-6.78-2.64-13.33-5.53-19.87-8.44-3.38-1.5-6.88-2.87-10.2-4.44-9.93-4.71-19.59-9.71-28.87-15.07-77.61-44.81-116.37-103.64-116.21-162.38l-.44,229.16c-.17,58.74,38.6,117.57,116.21,162.38,9.29,5.36,18.95,10.36,28.88,15.08,3.3,1.57,6.79,2.93,10.15,4.42,5.88,2.61,11.67,5.33,17.74,7.72.69.27,1.45.46,2.15.72,13.67,5.32,27.79,10.04,42.26,14.27,1.16.34,2.23.81,3.39,1.15,3.3.94,6.76,1.59,10.1,2.48,8.08,2.14,16.19,4.18,24.45,5.99,2.2.48,4.31,1.14,6.52,1.6,3.23.67,6.56,1.09,9.82,1.71,6.92,1.32,13.85,2.54,20.85,3.63,2.81.44,5.55,1.05,8.37,1.45,3.06.43,6.17.64,9.24,1.03,6.54.83,13.08,1.56,19.67,2.2,3.13.3,6.22.79,9.36,1.05,2.92.24,5.87.27,8.8.47,6.65.46,13.3.8,19.98,1.07,3.34.13,6.66.45,10,.53,2.67.07,5.34-.07,8.01-.04,7.21.1,14.4.03,21.61-.1,3.57-.07,7.14.07,10.71-.05,2.12-.07,4.21-.33,6.32-.42,8.92-.39,17.78-1.04,26.64-1.78,3.56-.3,7.16-.36,10.7-.71,1.1-.11,2.17-.34,3.27-.46,15.08-1.58,30.03-3.63,44.76-6.23.72-.13,1.47-.17,2.19-.3,4.3-.77,8.45-1.85,12.71-2.72,7.28-1.48,14.56-2.91,21.71-4.64,5.24-1.27,10.34-2.77,15.5-4.17,6.8-1.85,13.61-3.69,20.25-5.78,1.43-.45,2.93-.78,4.35-1.24,2.4-.78,4.59-1.83,6.97-2.64,10.57-3.6,20.88-7.5,30.94-11.73,3.76-1.58,7.53-3.12,11.21-4.79,12.83-5.79,25.35-11.93,37.13-18.78,1.62-.94,3.22-1.89,4.81-2.84,3.62-2.18,6.7-4.53,10.14-6.76,4.82-3.13,9.73-6.23,14.2-9.47,3.9-2.84,7.39-5.79,11.03-8.71,4.12-3.31,8.32-6.59,12.1-9.99.76-.69,1.7-1.33,2.44-2.02,5.06-4.68,9.73-9.45,14.15-14.28.91-1,1.71-2.02,2.59-3.03,2.63-2.98,5.31-5.94,7.69-8.97,1.87-2.38,3.53-4.8,5.26-7.2.63-.88,1.31-1.75,1.92-2.64,3.13-4.52,6.07-9.08,8.67-13.7.55-.98.86-1.99,1.39-2.97,2.18-4.06,3.96-8.16,5.75-12.26,1.04-2.4,2.45-4.75,3.35-7.15.3-.81.41-1.64.7-2.45,1.39-3.9,2.35-7.84,3.38-11.77.7-2.66,1.75-5.28,2.28-7.95.14-.7.11-1.42.24-2.12.76-4.12,1.05-8.26,1.42-12.4.24-2.7.85-5.38.92-8.08.03-1.15.05-2.31.05-3.46l.44-229.16c-.01,3.86-.63,7.7-.98,11.55Z" fill="url(#linear-gradient-9)"/><path d="M780.94,325.51c154.23,89.05,155.05,233.46,1.69,322.58-153.23,89.05-402.55,89.05-556.78,0-154.23-89.05-155.05-233.46-1.82-322.51,153.35-89.12,402.67-89.12,556.9-.07Z" fill="url(#linear-gradient-10)"/><path d="M782.63,644.87c-153.23,89.05-402.55,89.05-556.78,0-76.45-44.14-115.09-101.89-116.08-159.75-.43,58.94,38.2,118.01,116.08,162.98,154.24,89.05,403.55,89.04,556.78,0,77.34-44.94,115.35-103.95,114.37-162.82-.44,57.8-38.44,115.48-114.37,159.6Z" fill="url(#linear-gradient-11)"/><path d="M853.79,647.2v83.05c-.73.73-1.47,1.65-2.2,2.57-5.13,5.5-10.82,10.82-16.68,16.32-3.85,3.3-7.88,6.6-12.1,9.9-3.67,2.93-7.15,5.87-11,8.8-4.4,3.12-9.35,6.23-14.12,9.35-4.95,3.3-9.72,6.6-15.03,9.72-11.73,6.78-24.38,12.84-37.22,18.7-3.67,1.65-7.34,3.3-11.19,4.77-10.08,4.22-20.35,8.07-30.8,11.73-3.85,1.28-7.52,2.75-11.37,3.85-6.78,2.2-13.57,4.03-20.35,5.87-5.13,1.28-10.27,2.93-15.4,4.22-7.15,1.65-14.48,3.12-21.82,4.58-4.95.92-9.9,2.2-14.85,2.93-14.67,2.75-29.7,4.77-44.73,6.24-4.77.55-9.35.92-14.12,1.28-8.8.73-17.6,1.28-26.58,1.65-5.68.37-11.37.37-17.05.55-7.15.18-14.3.18-21.45.18-2.93-.18-5.87-.18-8.62-.37v-14.3c2.02.18,4.22.18,6.24.18,6.96.18,13.75.18,20.72,0,5.5-.18,11-.18,16.5-.55,8.62-.36,17.05-.92,25.67-1.65,4.4-.37,8.98-.55,13.38-1.1,14.67-1.47,28.97-3.48,43.27-5.87,4.76-.92,9.53-1.83,14.3-2.93,6.97-1.28,13.93-2.75,20.9-4.4,5.13-1.1,9.9-2.57,15.04-3.85,6.41-1.84,13.02-3.48,19.43-5.5,3.67-1.1,7.33-2.57,11-3.67,10.08-3.48,19.99-7.15,29.7-11.19,3.67-1.47,7.33-2.93,10.82-4.58,12.28-5.5,24.39-11.18,35.75-17.78,5.13-2.93,9.72-6.05,14.48-9.17,4.58-2.93,9.35-5.87,13.57-8.98,3.85-2.57,7.15-5.5,10.64-8.25,4.03-3.12,8.07-6.24,11.73-9.35,5.68-5.13,11-10.27,15.95-15.59.73-.73,1.47-1.65,2.2-2.38v-59.4c4.58-4.22,9.17-8.62,13.2-13.02.73-.92,1.47-1.83,2.2-2.57Z" fill="url(#linear-gradient-12)"/><path d="M838.39,662.78v59.4c-.73.73-1.47,1.65-2.2,2.38-4.95,5.32-10.27,10.45-15.95,15.59-3.67,3.12-7.7,6.23-11.73,9.35-3.48,2.75-6.78,5.68-10.64,8.25-4.22,3.12-8.98,6.05-13.57,8.98-4.77,3.12-9.35,6.23-14.48,9.17-11.37,6.6-23.47,12.28-35.75,17.78-3.48,1.65-7.15,3.12-10.82,4.58-9.72,4.03-19.62,7.7-29.7,11.19-3.67,1.1-7.33,2.56-11,3.67-6.42,2.02-13.02,3.67-19.43,5.5-5.13,1.28-9.9,2.75-15.04,3.85-6.97,1.65-13.93,3.12-20.9,4.4-4.77,1.1-9.53,2.02-14.3,2.93-14.3,2.39-28.6,4.4-43.27,5.87-4.4.55-8.98.73-13.38,1.1-8.62.73-17.05,1.28-25.67,1.65-5.5.37-11,.37-16.5.55-6.96.18-13.75.18-20.72,0-2.02,0-4.22,0-6.24-.18v-68.75c2.75.18,5.68.18,8.62.37,7.15,0,14.3,0,21.45-.18,5.68,0,11.37-.18,17.05-.37,8.98-.55,17.78-1.1,26.58-1.83,4.77-.37,9.35-.73,14.12-1.28,15.04-1.47,30.07-3.48,44.73-6.24,4.95-.73,9.9-2.01,14.85-2.93,7.33-1.47,14.67-2.93,21.82-4.58,5.13-1.28,10.27-2.75,15.4-4.22,6.78-1.84,13.57-3.67,20.35-5.87,3.85-1.1,7.52-2.56,11.37-3.85,10.45-3.48,20.72-7.52,30.8-11.73,3.85-1.47,7.52-3.12,11.19-4.77,12.83-5.68,25.48-11.92,37.22-18.7,5.32-3.12,10.08-6.42,15.03-9.72,4.77-3.12,9.72-6.24,14.12-9.35,3.85-2.93,7.34-5.87,11-8.8,4.22-3.3,8.25-6.6,12.1-9.9,1.1-1.1,2.39-2.2,3.48-3.3Z" fill="url(#linear-gradient-13)"/><polygon points="838.39 722.19 853.79 730.25 853.79 647.2 838.39 662.78 838.39 722.19" fill="#545e75"/><path d="M512.59,790.89v30.71c-3.12.18-6.23.18-9.35.18v-30.71c3.12,0,6.23,0,9.35-.18Z" fill="#545e75"/><path d="M531.29,790.52v30.53h-.73c-2.93.18-5.68.37-8.62.37v-30.71c3.12.18,6.23,0,9.35-.18Z" fill="#545e75"/><path d="M549.99,789.42v30.34c-3.12.37-6.23.55-9.35.55v-30.16c3.12-.18,6.23-.37,9.35-.73Z" fill="#545e75"/><path d="M568.69,787.96v30.34c-3.12.37-6.23.73-9.35.92v-30.34c.55-.18.92-.18,1.47-.18,2.75-.18,5.32-.37,7.88-.73Z" fill="#545e75"/><path d="M606.09,783.37v30.16c-3.12.55-6.23.92-9.35,1.47v-30.16c3.12-.37,6.24-.92,9.35-1.47Z" fill="#545e75"/><path d="M587.39,785.94v30.35c-3.12.36-6.23.73-9.35,1.1v-30.34c3.12-.18,6.24-.55,9.35-1.1Z" fill="#545e75"/><path d="M624.98,780.07v29.8c-3.12.92-6.42,1.47-9.53,2.01v-29.98c1.47-.18,2.75-.55,4.22-.73,1.84-.18,3.67-.55,5.32-1.1Z" fill="#545e75"/><path d="M643.68,776.22v29.79c-3.12.73-6.42,1.47-9.53,2.02v-29.79h.37c3.12-.55,6.23-1.28,9.17-2.02Z" fill="#545e75"/><path d="M662.38,772.01v29.43c-3.12.73-6.24,1.65-9.35,2.38v-29.43c1.1-.18,2.2-.55,3.3-.73,2.02-.55,4.03-1.1,6.05-1.65Z" fill="#545e75"/><path d="M681.08,766.87v29.24c-3.12,1.1-6.24,1.83-9.35,2.75v-29.43c3.12-.92,6.23-1.65,9.35-2.57Z" fill="#545e75"/><path d="M699.78,761.01v28.88c-2.02.73-4.22,1.47-6.24,2.2-1.1.36-2.02.73-3.12,1.1v-29.06c.55-.18,1.1-.37,1.65-.55,2.57-.73,5.13-1.65,7.7-2.56Z" fill="#545e75"/><path d="M718.48,754.22v28.51c-3.12,1.28-6.23,2.56-9.35,3.85v-28.88c3.12-1.1,6.23-2.2,9.35-3.48Z" fill="#545e75"/><path d="M737.18,746.71v28.14c-1.1.55-2.02.92-3.12,1.47-2.01.92-4.03,1.84-6.23,2.57v-28.33c2.2-.73,4.22-1.65,6.42-2.57,1.1-.36,2.02-.73,2.93-1.28Z" fill="#545e75"/><path d="M833.27,693.36c-3.37,2.85-6.82,5.71-10.47,8.56-3.67,2.93-7.15,5.87-11,8.8-4.4,3.12-9.35,6.23-14.12,9.35-4.95,3.3-9.72,6.6-15.03,9.72-11.44,6.61-23.76,12.68-36.26,18.25v16.18c12.5-5.57,24.82-11.64,36.26-18.25,5.32-3.12,10.08-6.42,15.03-9.72,4.77-3.12,9.72-6.24,14.12-9.35,3.85-2.93,7.34-5.87,11-8.8,3.65-2.85,7.09-5.71,10.47-8.56v-16.18Z" fill="url(#linear-gradient-14)"/><path d="M896.15,242.33c-.37,4.13-.66,8.26-1.41,12.37-.62,3.38-1.65,6.74-2.53,10.1-1.03,3.92-1.99,7.85-3.37,11.75-1.15,3.22-2.66,6.4-4.05,9.6-1.78,4.11-3.56,8.21-5.75,12.27-3.02,5.61-6.28,11.18-10.07,16.67-.61.88-1.29,1.75-1.92,2.63-3.92,5.47-8.27,10.87-12.96,16.19-.88,1-1.68,2.02-2.59,3.02-5.07,5.54-10.68,10.96-16.59,16.29-3.77,3.4-7.97,6.68-12.09,9.98-3.64,2.92-7.14,5.88-11.05,8.72-4.45,3.24-9.36,6.32-14.16,9.45-4.95,3.22-9.65,6.53-14.98,9.63-11.78,6.85-24.3,12.98-37.12,18.78-3.69,1.66-7.47,3.22-11.23,4.79-10.05,4.22-20.37,8.12-30.92,11.71-3.79,1.29-7.51,2.68-11.36,3.89-6.64,2.09-13.44,3.92-20.24,5.78-5.16,1.4-10.26,2.9-15.49,4.17-7.16,1.73-14.46,3.17-21.75,4.65-4.96,1-9.87,2.13-14.88,3.02-14.73,2.6-29.69,4.66-44.76,6.23-4.65.49-9.33.78-14,1.17-8.84.74-17.69,1.38-26.59,1.77-5.7.25-11.4.37-17.11.47-7.18.13-14.35.19-21.52.1-6.04-.08-12.07-.26-18.1-.5-6.65-.26-13.28-.6-19.9-1.06-6.1-.42-12.17-.93-18.24-1.52-6.57-.63-13.12-1.37-19.64-2.2-5.89-.75-11.76-1.58-17.6-2.49-7.01-1.09-13.96-2.31-20.87-3.63-5.47-1.04-10.93-2.12-16.34-3.3-8.25-1.81-16.37-3.85-24.45-5.99-4.5-1.19-9.05-2.32-13.49-3.62-14.46-4.22-28.59-8.95-42.25-14.27-6.78-2.64-13.33-5.53-19.87-8.44-3.38-1.5-6.88-2.87-10.2-4.44-9.93-4.71-19.59-9.71-28.87-15.07-77.61-44.81-116.37-103.64-116.21-162.38l-.44,229.16c-.17,58.74,38.6,117.57,116.21,162.38,9.29,5.36,18.95,10.36,28.88,15.08,3.3,1.57,6.79,2.93,10.15,4.42,5.88,2.61,11.67,5.33,17.74,7.72.69.27,1.45.46,2.15.73,13.67,5.32,27.79,10.04,42.26,14.27,1.16.34,2.23.81,3.39,1.15,3.3.94,6.76,1.59,10.1,2.48,8.08,2.14,16.19,4.18,24.45,5.99,2.2.48,4.31,1.14,6.52,1.6,3.23.67,6.56,1.09,9.82,1.71,6.92,1.32,13.85,2.54,20.85,3.63,2.81.44,5.55,1.05,8.37,1.45,3.06.43,6.17.64,9.24,1.03,6.54.83,13.08,1.56,19.67,2.2,3.13.3,6.22.79,9.36,1.05,2.92.24,5.87.27,8.8.47,6.65.46,13.3.8,19.98,1.07,3.34.13,6.66.45,10,.53,2.67.06,5.34-.07,8.01-.04,7.21.1,14.4.03,21.61-.1,3.57-.07,7.14.07,10.71-.05,2.12-.07,4.21-.33,6.32-.42,8.92-.39,17.78-1.04,26.64-1.78,3.56-.3,7.16-.36,10.7-.71,1.1-.11,2.17-.34,3.27-.46,15.08-1.58,30.03-3.63,44.76-6.23.72-.13,1.47-.17,2.19-.3,4.3-.77,8.45-1.85,12.71-2.72,7.28-1.48,14.56-2.91,21.71-4.64,5.24-1.27,10.34-2.77,15.5-4.17,6.8-1.85,13.61-3.69,20.25-5.78,1.43-.45,2.93-.78,4.35-1.24,2.4-.78,4.59-1.83,6.97-2.64,10.57-3.6,20.88-7.5,30.94-11.73,3.76-1.58,7.53-3.12,11.21-4.79,12.83-5.79,25.35-11.93,37.13-18.78,1.62-.94,3.22-1.89,4.81-2.84,3.62-2.17,6.7-4.53,10.14-6.76,4.82-3.13,9.73-6.23,14.2-9.47,3.9-2.84,7.39-5.79,11.03-8.71,4.12-3.31,8.32-6.59,12.1-9.99.76-.69,1.7-1.33,2.44-2.02,5.06-4.68,9.73-9.45,14.15-14.28.91-1,1.71-2.02,2.59-3.03,2.63-2.98,5.31-5.94,7.69-8.97,1.87-2.38,3.53-4.8,5.26-7.2.63-.88,1.31-1.75,1.92-2.64,3.13-4.52,6.07-9.08,8.67-13.7.55-.98.86-1.99,1.39-2.97,2.18-4.06,3.96-8.16,5.75-12.26,1.04-2.4,2.45-4.75,3.35-7.15.3-.81.41-1.64.7-2.45,1.39-3.9,2.35-7.84,3.38-11.77.7-2.66,1.75-5.28,2.28-7.95.14-.7.11-1.42.24-2.12.76-4.12,1.05-8.26,1.42-12.4.24-2.7.85-5.38.92-8.07.03-1.15.05-2.31.05-3.46l.44-229.16c-.01,3.86-.63,7.7-.98,11.55Z" fill="url(#linear-gradient-15)"/><path d="M896.15,240.68c-.37,4.13-.66,8.26-1.41,12.37-.62,3.38-1.65,6.74-2.53,10.1-1.03,3.92-1.99,7.85-3.37,11.75-1.15,3.22-2.66,6.4-4.05,9.6-1.78,4.11-3.56,8.21-5.75,12.27-3.02,5.61-6.28,11.18-10.07,16.67-.61.88-1.29,1.75-1.92,2.63-3.92,5.47-8.27,10.87-12.96,16.19-.88,1-1.68,2.02-2.59,3.02-5.07,5.54-10.68,10.96-16.59,16.29-3.77,3.4-7.97,6.68-12.09,9.98-3.64,2.92-7.14,5.88-11.05,8.72-4.45,3.24-9.36,6.32-14.16,9.45-4.95,3.22-9.65,6.53-14.98,9.63-11.78,6.85-24.3,12.98-37.12,18.78-3.69,1.66-7.47,3.22-11.23,4.79-10.05,4.22-20.37,8.12-30.92,11.71-3.79,1.29-7.51,2.68-11.36,3.89-6.64,2.09-13.44,3.92-20.24,5.78-5.16,1.4-10.26,2.9-15.49,4.17-7.16,1.73-14.46,3.17-21.75,4.65-4.96,1-9.87,2.13-14.88,3.02-14.73,2.6-29.69,4.66-44.76,6.23-4.65.49-9.33.78-14,1.17-8.84.74-17.69,1.38-26.59,1.77-5.7.25-11.4.37-17.11.47-7.18.13-14.35.19-21.52.1-6.04-.08-12.07-.26-18.1-.5-6.65-.26-13.28-.6-19.9-1.06-6.1-.42-12.17-.93-18.24-1.52-6.57-.63-13.12-1.37-19.64-2.2-5.89-.75-11.76-1.58-17.6-2.49-7.01-1.09-13.96-2.31-20.87-3.63-5.47-1.04-10.93-2.12-16.34-3.3-8.25-1.81-16.37-3.85-24.45-5.99-4.5-1.19-9.05-2.32-13.49-3.62-14.46-4.22-28.59-8.95-42.25-14.27-6.78-2.64-13.33-5.53-19.87-8.44-3.38-1.5-6.88-2.87-10.2-4.44-9.93-4.71-19.59-9.71-28.87-15.07-77.61-44.81-116.37-103.64-116.21-162.38l-.44,229.16c-.17,58.74,38.6,117.57,116.21,162.38,9.29,5.36,18.95,10.36,28.88,15.08,3.3,1.57,6.79,2.93,10.15,4.42,5.88,2.61,11.67,5.33,17.74,7.72.69.27,1.45.46,2.15.72,13.67,5.32,27.79,10.04,42.26,14.27,1.16.34,2.23.81,3.39,1.15,3.3.94,6.76,1.59,10.1,2.48,8.08,2.14,16.19,4.18,24.45,5.99,2.2.48,4.31,1.14,6.52,1.6,3.23.67,6.56,1.09,9.82,1.71,6.92,1.32,13.85,2.54,20.85,3.63,2.81.44,5.55,1.05,8.37,1.45,3.06.43,6.17.64,9.24,1.03,6.54.83,13.08,1.56,19.67,2.2,3.13.3,6.22.79,9.36,1.05,2.92.24,5.87.27,8.8.47,6.65.46,13.3.8,19.98,1.07,3.34.13,6.66.45,10,.53,2.67.07,5.34-.07,8.01-.04,7.21.1,14.4.03,21.61-.1,3.57-.07,7.14.07,10.71-.05,2.12-.07,4.21-.33,6.32-.42,8.92-.39,17.78-1.04,26.64-1.78,3.56-.3,7.16-.36,10.7-.71,1.1-.11,2.17-.34,3.27-.46,15.08-1.58,30.03-3.63,44.76-6.23.72-.13,1.47-.17,2.19-.3,4.3-.77,8.45-1.85,12.71-2.72,7.28-1.48,14.56-2.91,21.71-4.64,5.24-1.27,10.34-2.77,15.5-4.17,6.8-1.85,13.61-3.69,20.25-5.78,1.43-.45,2.93-.78,4.35-1.24,2.4-.78,4.59-1.83,6.97-2.64,10.57-3.6,20.88-7.5,30.94-11.73,3.76-1.58,7.53-3.12,11.21-4.79,12.83-5.79,25.35-11.93,37.13-18.78,1.62-.94,3.22-1.89,4.81-2.84,3.62-2.17,6.7-4.53,10.14-6.76,4.82-3.13,9.73-6.23,14.2-9.47,3.9-2.84,7.39-5.79,11.03-8.71,4.12-3.31,8.32-6.59,12.1-9.99.76-.69,1.7-1.33,2.44-2.02,5.06-4.68,9.73-9.45,14.15-14.28.91-1,1.71-2.02,2.59-3.03,2.63-2.98,5.31-5.94,7.69-8.97,1.87-2.38,3.53-4.8,5.26-7.2.63-.88,1.31-1.75,1.92-2.64,3.13-4.52,6.07-9.08,8.67-13.7.55-.98.86-1.99,1.39-2.97,2.18-4.06,3.96-8.16,5.75-12.26,1.04-2.4,2.45-4.75,3.35-7.15.3-.81.41-1.64.7-2.45,1.39-3.9,2.35-7.84,3.38-11.77.7-2.66,1.75-5.28,2.28-7.95.14-.7.11-1.42.24-2.12.76-4.12,1.05-8.26,1.42-12.4.24-2.7.85-5.38.92-8.07.03-1.15.05-2.31.05-3.46l.44-229.16c-.01,3.86-.63,7.7-.98,11.55Z" fill="url(#linear-gradient-16)"/><path d="M780.94,66.78c154.23,89.05,155.05,233.46,1.69,322.58-153.23,89.05-402.55,89.05-556.78,0-154.23-89.05-155.05-233.46-1.82-322.51,153.35-89.12,402.67-89.12,556.9-.07Z" fill="url(#linear-gradient-17)"/><path d="M782.63,386.13c-153.23,89.05-402.55,89.05-556.78,0-76.45-44.14-115.09-101.89-116.08-159.75-.43,58.94,38.2,118.01,116.08,162.98,154.24,89.05,403.55,89.04,556.78,0,77.34-44.94,115.35-103.95,114.37-162.82-.44,57.8-38.44,115.48-114.37,159.6Z" fill="url(#linear-gradient-18)"/><path d="M853.79,388.46v83.05c-.73.73-1.47,1.65-2.2,2.57-5.13,5.5-10.82,10.82-16.68,16.32-3.85,3.3-7.88,6.6-12.1,9.9-3.67,2.93-7.15,5.87-11,8.8-4.4,3.12-9.35,6.23-14.12,9.35-4.95,3.3-9.72,6.6-15.03,9.72-11.73,6.78-24.38,12.84-37.22,18.7-3.67,1.65-7.34,3.3-11.19,4.77-10.08,4.22-20.35,8.07-30.8,11.73-3.85,1.28-7.52,2.75-11.37,3.85-6.78,2.2-13.57,4.03-20.35,5.87-5.13,1.28-10.27,2.93-15.4,4.22-7.15,1.65-14.48,3.12-21.82,4.58-4.95.92-9.9,2.2-14.85,2.93-14.67,2.75-29.7,4.77-44.73,6.24-4.77.55-9.35.92-14.12,1.28-8.8.73-17.6,1.28-26.58,1.65-5.68.37-11.37.37-17.05.55-7.15.18-14.3.18-21.45.18-2.93-.18-5.87-.18-8.62-.37v-14.3c2.02.18,4.22.18,6.24.18,6.96.18,13.75.18,20.72,0,5.5-.18,11-.18,16.5-.55,8.62-.36,17.05-.92,25.67-1.65,4.4-.37,8.98-.55,13.38-1.1,14.67-1.47,28.97-3.48,43.27-5.87,4.76-.92,9.53-1.83,14.3-2.93,6.97-1.28,13.93-2.75,20.9-4.4,5.13-1.1,9.9-2.57,15.04-3.85,6.41-1.84,13.02-3.48,19.43-5.5,3.67-1.1,7.33-2.57,11-3.67,10.08-3.48,19.99-7.15,29.7-11.19,3.67-1.47,7.33-2.93,10.82-4.58,12.28-5.5,24.39-11.18,35.75-17.78,5.13-2.93,9.72-6.05,14.48-9.17,4.58-2.93,9.35-5.87,13.57-8.98,3.85-2.57,7.15-5.5,10.64-8.25,4.03-3.12,8.07-6.24,11.73-9.35,5.68-5.13,11-10.27,15.95-15.59.73-.73,1.47-1.65,2.2-2.38v-59.4c4.58-4.22,9.17-8.62,13.2-13.02.73-.92,1.47-1.83,2.2-2.57Z" fill="url(#linear-gradient-19)"/><path d="M838.39,404.05v59.4c-.73.73-1.47,1.65-2.2,2.38-4.95,5.32-10.27,10.45-15.95,15.59-3.67,3.12-7.7,6.23-11.73,9.35-3.48,2.75-6.78,5.68-10.64,8.25-4.22,3.12-8.98,6.05-13.57,8.98-4.77,3.12-9.35,6.23-14.48,9.17-11.37,6.6-23.47,12.28-35.75,17.78-3.48,1.65-7.15,3.12-10.82,4.58-9.72,4.03-19.62,7.7-29.7,11.19-3.67,1.1-7.33,2.56-11,3.67-6.42,2.02-13.02,3.67-19.43,5.5-5.13,1.28-9.9,2.75-15.04,3.85-6.97,1.65-13.93,3.12-20.9,4.4-4.77,1.1-9.53,2.02-14.3,2.93-14.3,2.39-28.6,4.4-43.27,5.87-4.4.55-8.98.73-13.38,1.1-8.62.73-17.05,1.28-25.67,1.65-5.5.37-11,.37-16.5.55-6.96.18-13.75.18-20.72,0-2.02,0-4.22,0-6.24-.18v-68.75c2.75.18,5.68.18,8.62.37,7.15,0,14.3,0,21.45-.18,5.68,0,11.37-.18,17.05-.37,8.98-.55,17.78-1.1,26.58-1.83,4.77-.37,9.35-.73,14.12-1.28,15.04-1.47,30.07-3.48,44.73-6.24,4.95-.73,9.9-2.01,14.85-2.93,7.33-1.47,14.67-2.93,21.82-4.58,5.13-1.28,10.27-2.75,15.4-4.22,6.78-1.84,13.57-3.67,20.35-5.87,3.85-1.1,7.52-2.56,11.37-3.85,10.45-3.48,20.72-7.52,30.8-11.73,3.85-1.47,7.52-3.12,11.19-4.77,12.83-5.68,25.48-11.92,37.22-18.7,5.32-3.12,10.08-6.42,15.03-9.72,4.77-3.12,9.72-6.24,14.12-9.35,3.85-2.93,7.34-5.87,11-8.8,4.22-3.3,8.25-6.6,12.1-9.9,1.1-1.1,2.39-2.2,3.48-3.3Z" fill="url(#linear-gradient-20)"/><polygon points="838.39 463.45 853.79 471.51 853.79 388.46 838.39 404.05 838.39 463.45" fill="#545e75"/><path d="M512.59,532.15v30.71c-3.12.18-6.23.18-9.35.18v-30.71c3.12,0,6.23,0,9.35-.18Z" fill="#545e75"/><path d="M531.29,531.79v30.53h-.73c-2.93.18-5.68.37-8.62.37v-30.71c3.12.18,6.23,0,9.35-.18Z" fill="#545e75"/><path d="M549.99,530.69v30.34c-3.12.37-6.23.55-9.35.55v-30.16c3.12-.18,6.23-.37,9.35-.73Z" fill="#545e75"/><path d="M568.69,529.22v30.34c-3.12.37-6.23.73-9.35.92v-30.34c.55-.18.92-.18,1.47-.18,2.75-.18,5.32-.37,7.88-.73Z" fill="#545e75"/><path d="M606.09,524.64v30.16c-3.12.55-6.23.92-9.35,1.47v-30.16c3.12-.37,6.24-.92,9.35-1.47Z" fill="#545e75"/><path d="M587.39,527.2v30.35c-3.12.36-6.23.73-9.35,1.1v-30.34c3.12-.18,6.24-.55,9.35-1.1Z" fill="#545e75"/><path d="M624.98,521.34v29.8c-3.12.92-6.42,1.47-9.53,2.01v-29.98c1.47-.18,2.75-.55,4.22-.73,1.84-.18,3.67-.55,5.32-1.1Z" fill="#545e75"/><path d="M643.68,517.49v29.79c-3.12.73-6.42,1.47-9.53,2.02v-29.79h.37c3.12-.55,6.23-1.28,9.17-2.02Z" fill="#545e75"/><path d="M662.38,513.27v29.43c-3.12.73-6.24,1.65-9.35,2.38v-29.43c1.1-.18,2.2-.55,3.3-.73,2.02-.55,4.03-1.1,6.05-1.65Z" fill="#545e75"/><path d="M681.08,508.14v29.24c-3.12,1.1-6.24,1.83-9.35,2.75v-29.43c3.12-.92,6.23-1.65,9.35-2.57Z" fill="#545e75"/><path d="M699.78,502.27v28.88c-2.02.73-4.22,1.47-6.24,2.2-1.1.36-2.02.73-3.12,1.1v-29.06c.55-.18,1.1-.37,1.65-.55,2.57-.73,5.13-1.65,7.7-2.56Z" fill="#545e75"/><path d="M718.48,495.48v28.51c-3.12,1.28-6.23,2.56-9.35,3.85v-28.88c3.12-1.1,6.23-2.2,9.35-3.48Z" fill="#545e75"/><path d="M737.18,487.97v28.14c-1.1.55-2.02.92-3.12,1.47-2.01.92-4.03,1.84-6.23,2.57v-28.33c2.2-.73,4.22-1.65,6.42-2.57,1.1-.36,2.02-.73,2.93-1.28Z" fill="#545e75"/><path d="M833.27,434.63c-3.37,2.85-6.82,5.71-10.47,8.56-3.67,2.93-7.15,5.87-11,8.8-4.4,3.12-9.35,6.23-14.12,9.35-4.95,3.3-9.72,6.6-15.03,9.72-11.44,6.61-23.76,12.68-36.26,18.25v16.18c12.5-5.57,24.82-11.64,36.26-18.25,5.32-3.12,10.08-6.42,15.03-9.72,4.77-3.12,9.72-6.24,14.12-9.35,3.85-2.93,7.34-5.87,11-8.8,3.65-2.85,7.09-5.71,10.47-8.56v-16.18Z" fill="url(#linear-gradient-21)"/><path d="M324.86,580.16c0,17.43-14.13,23.9-31.56,14.45-17.43-9.45-31.56-31.24-31.56-48.67s14.13-23.9,31.56-14.45c17.43,9.45,31.56,31.24,31.56,48.67Z" fill="#545e75"/><path d="M294.6,562.68l-248.22,151.63c-23.11,14.12-37.21,39.25-37.21,66.33v476.28c0,24.87,13.51,47.77,35.27,59.81l282.92,156.49c20.66,11.43,45.87,10.87,66-1.47l391.59-239.92c19.9-12.2,44.94-12.3,64.95-.26l158.86,95.6" fill="none" stroke="#929497" stroke-miterlimit="10" stroke-width="18.33"/><g opacity=".7"><g mask="url(#mask)"><polygon points="1372.11 2175.77 1816.25 1916.64 1816.25 1500.05 1372.11 1759.18 1372.11 2175.77" fill="url(#linear-gradient-23)" opacity=".51"/></g><g mask="url(#mask-2)"><polygon points="1373.04 2175.77 808.06 1852.01 808.06 1435.42 1373.04 1759.18 1373.04 2175.77" fill="url(#linear-gradient-25)" opacity=".51"/></g></g><path d="M1394.96,1770.03l415.23-236.69c5.29-3.01,8.55-7.8,9.79-13,.56-2.34,3.93-51.79-2.03-55.32l-546.2-286.2c-10.73-6.35-24.04-6.46-34.87-.29l-427.25,206.61c-6.74,3.84-3.31,56.49-2.11,59.58,1.66,4.28,4.72,8.12,9.19,10.76l530.48,314.14c14.7,8.7,32.93,8.85,47.77.4Z" fill="url(#linear-gradient-26)"/><path d="M1394.96,1768.49l415.23-236.69c5.29-3.01,8.55-7.8,9.79-13,.56-2.34,3.93-51.79-2.03-55.32l-546.2-286.2c-10.73-6.35-24.04-6.46-34.87-.29l-427.25,206.61c-6.74,3.84-3.31,56.49-2.11,59.58,1.66,4.28,4.72,8.12,9.19,10.76l530.48,314.14c14.7,8.7,32.93,8.85,47.77.4Z" fill="url(#linear-gradient-27)"/><path d="M1394.96,1722.39l415.23-236.69c13.68-7.8,13.84-27.46.29-35.48l-538.73-319.03c-10.73-6.35-24.04-6.46-34.87-.29l-419.86,239.33c-14.51,8.27-14.68,29.12-.31,37.63l530.48,314.14c14.7,8.7,32.93,8.85,47.77.4Z" fill="url(#linear-gradient-28)"/><path d="M1810.19,1484.68l-415.23,236.69c-14.84,8.46-33.08,8.31-47.78-.4l-530.48-314.14c-7-4.15-10.49-11.23-10.61-18.36-.22,7.47,3.27,15.03,10.61,19.38l530.48,314.14c14.7,8.7,32.94,8.85,47.78.4l415.23-236.69c7.02-4,10.42-11.13,10.29-18.21-.21,6.73-3.61,13.37-10.29,17.18Z" fill="#fff"/><polygon points="1321.32 1524.37 1317.44 1526.7 1160.7 1436.19 1060.88 1494.07 1056.99 1491.93 1160.7 1431.73 1321.32 1524.37" fill="url(#linear-gradient-29)"/><polygon points="1317.44 1526.7 1217.61 1584.58 1060.88 1494.07 1160.7 1436.19 1317.44 1526.7" fill="url(#linear-gradient-30)"/><polygon points="1277.25 1202.13 1252.79 1187.93 1226.04 1203.68 1250.49 1217.88 1277.25 1202.13" fill="url(#linear-gradient-31)"/><polygon points="1257.51 1234.46 1215.34 1209.97 1188.59 1225.72 1230.75 1250.2 1257.51 1234.46" fill="url(#linear-gradient-32)"/><polygon points="1312.59 1222.66 1288.14 1208.46 1261.39 1224.2 1285.84 1238.4 1312.59 1222.66" fill="url(#linear-gradient-33)"/><polygon points="1347.94 1243.19 1323.49 1228.99 1296.73 1244.73 1321.19 1258.93 1347.94 1243.19" fill="url(#linear-gradient-34)"/><polygon points="1383.29 1263.71 1358.84 1249.51 1332.08 1265.26 1356.54 1279.46 1383.29 1263.71" fill="url(#linear-gradient-35)"/><polygon points="1418.64 1284.24 1394.19 1270.04 1367.43 1285.79 1391.88 1299.99 1418.64 1284.24" fill="url(#linear-gradient-36)"/><polygon points="1453.99 1304.77 1429.54 1290.57 1402.78 1306.31 1427.23 1320.51 1453.99 1304.77" fill="url(#linear-gradient-37)"/><polygon points="1489.34 1325.3 1464.88 1311.1 1438.13 1326.84 1462.58 1341.04 1489.34 1325.3" fill="url(#linear-gradient-38)"/><polygon points="1524.69 1345.82 1500.23 1331.62 1473.48 1347.37 1497.93 1361.57 1524.69 1345.82" fill="url(#linear-gradient-39)"/><polygon points="1560.03 1366.35 1535.58 1352.15 1508.83 1367.9 1533.28 1382.1 1560.03 1366.35" fill="url(#linear-gradient-40)"/><polygon points="1595.38 1386.88 1570.93 1372.68 1544.17 1388.42 1568.63 1402.62 1595.38 1386.88" fill="url(#linear-gradient-41)"/><polygon points="1630.73 1407.41 1606.28 1393.21 1579.52 1408.95 1603.98 1423.15 1630.73 1407.41" fill="url(#linear-gradient-42)"/><polygon points="1666.08 1427.93 1641.63 1413.73 1614.87 1429.48 1639.32 1443.68 1666.08 1427.93" fill="url(#linear-gradient-43)"/><polygon points="1676.98 1434.26 1650.22 1450.01 1689.79 1472.99 1716.55 1457.24 1676.98 1434.26" fill="url(#linear-gradient-44)"/><polygon points="1290.26 1253.48 1265.81 1239.28 1239.05 1255.02 1263.5 1269.22 1290.26 1253.48" fill="url(#linear-gradient-45)"/><polygon points="1325.61 1274 1301.15 1259.8 1274.4 1275.55 1298.85 1289.75 1325.61 1274" fill="url(#linear-gradient-46)"/><polygon points="1360.96 1294.53 1336.5 1280.33 1309.75 1296.08 1334.2 1310.28 1360.96 1294.53" fill="url(#linear-gradient-47)"/><polygon points="1396.3 1315.06 1371.85 1300.86 1345.1 1316.6 1369.55 1330.8 1396.3 1315.06" fill="url(#linear-gradient-48)"/><polygon points="1431.65 1335.59 1407.2 1321.39 1380.44 1337.13 1404.9 1351.33 1431.65 1335.59" fill="url(#linear-gradient-49)"/><polygon points="1467 1356.11 1442.55 1341.91 1415.79 1357.66 1440.25 1371.86 1467 1356.11" fill="url(#linear-gradient-50)"/><polygon points="1502.35 1376.64 1477.9 1362.44 1451.14 1378.19 1475.59 1392.39 1502.35 1376.64" fill="url(#linear-gradient-51)"/><polygon points="1537.7 1397.17 1513.25 1382.97 1486.49 1398.71 1510.94 1412.91 1537.7 1397.17" fill="url(#linear-gradient-52)"/><polygon points="1573.05 1417.7 1548.59 1403.5 1521.84 1419.24 1546.29 1433.44 1573.05 1417.7" fill="url(#linear-gradient-53)"/><polygon points="1608.4 1438.22 1583.94 1424.02 1557.19 1439.77 1581.64 1453.97 1608.4 1438.22" fill="url(#linear-gradient-54)"/><polygon points="1643.74 1458.75 1619.29 1444.55 1592.54 1460.3 1616.99 1474.5 1643.74 1458.75" fill="url(#linear-gradient-55)"/><polygon points="1627.88 1480.83 1652.34 1495.03 1679.09 1479.28 1654.64 1465.08 1627.88 1480.83" fill="url(#linear-gradient-56)"/><polygon points="1076.23 1291.83 1118.4 1316.32 1145.15 1300.58 1102.99 1276.09 1076.23 1291.83" fill="url(#linear-gradient-57)"/><polygon points="1126.69 1321.14 1151.15 1335.34 1177.9 1319.59 1153.45 1305.39 1126.69 1321.14" fill="url(#linear-gradient-58)"/><polygon points="1162.04 1341.67 1186.5 1355.87 1213.25 1340.12 1188.8 1325.92 1162.04 1341.67" fill="url(#linear-gradient-59)"/><polygon points="1365.54 1428.56 1354.65 1422.23 1330.19 1408.03 1319.3 1401.7 1294.85 1387.5 1283.95 1381.18 1259.5 1366.98 1224.15 1346.45 1197.39 1362.19 1232.74 1382.72 1257.19 1396.92 1268.09 1403.25 1292.54 1417.45 1303.44 1423.78 1327.89 1437.98 1338.79 1444.31 1351.01 1451.41 1363.24 1458.51 1390 1442.76 1377.77 1435.66 1365.54 1428.56" fill="url(#linear-gradient-60)"/><polygon points="1374.13 1464.83 1398.59 1479.03 1425.34 1463.29 1400.89 1449.09 1374.13 1464.83" fill="url(#linear-gradient-61)"/><polygon points="1409.48 1485.36 1433.94 1499.56 1460.69 1483.82 1436.24 1469.62 1409.48 1485.36" fill="url(#linear-gradient-62)"/><polygon points="1444.83 1505.89 1469.28 1520.09 1496.04 1504.34 1471.59 1490.14 1444.83 1505.89" fill="url(#linear-gradient-63)"/><polygon points="1480.18 1526.42 1504.63 1540.62 1531.39 1524.87 1506.94 1510.67 1480.18 1526.42" fill="url(#linear-gradient-64)"/><polygon points="1515.53 1546.94 1539.98 1561.14 1566.74 1545.4 1542.29 1531.2 1515.53 1546.94" fill="url(#linear-gradient-65)"/><polygon points="1232.15 1263.52 1177.89 1232.01 1151.13 1247.75 1205.39 1279.27 1232.15 1263.52" fill="url(#linear-gradient-66)"/><polygon points="1264.9 1282.54 1240.45 1268.34 1213.69 1284.08 1238.14 1298.28 1264.9 1282.54" fill="url(#linear-gradient-67)"/><polygon points="1300.25 1303.07 1275.8 1288.87 1249.04 1304.61 1273.49 1318.81 1300.25 1303.07" fill="url(#linear-gradient-68)"/><polygon points="1335.6 1323.59 1311.14 1309.39 1284.39 1325.14 1308.84 1339.34 1335.6 1323.59" fill="url(#linear-gradient-69)"/><polygon points="1370.95 1344.12 1346.49 1329.92 1319.74 1345.67 1344.19 1359.87 1370.95 1344.12" fill="url(#linear-gradient-70)"/><polygon points="1406.29 1364.65 1381.84 1350.45 1355.09 1366.19 1379.54 1380.39 1406.29 1364.65" fill="url(#linear-gradient-71)"/><polygon points="1441.64 1385.18 1417.19 1370.98 1390.43 1386.72 1414.89 1400.92 1441.64 1385.18" fill="url(#linear-gradient-72)"/><polygon points="1476.99 1405.7 1452.54 1391.5 1425.78 1407.25 1450.24 1421.45 1476.99 1405.7" fill="url(#linear-gradient-73)"/><polygon points="1512.34 1426.23 1487.89 1412.03 1461.13 1427.78 1485.58 1441.98 1512.34 1426.23" fill="url(#linear-gradient-74)"/><polygon points="1547.69 1446.76 1523.24 1432.56 1496.48 1448.3 1520.93 1462.5 1547.69 1446.76" fill="url(#linear-gradient-75)"/><polygon points="1583.04 1467.29 1558.58 1453.09 1531.83 1468.83 1556.28 1483.03 1583.04 1467.29" fill="url(#linear-gradient-76)"/><polygon points="1567.18 1489.36 1614.89 1517.06 1641.64 1501.32 1593.93 1473.61 1567.18 1489.36" fill="url(#linear-gradient-77)"/><polygon points="1202.12 1289.87 1140.44 1254.05 1113.68 1269.79 1175.37 1305.62 1202.12 1289.87" fill="url(#linear-gradient-78)"/><polygon points="1234.87 1308.89 1210.42 1294.69 1183.66 1310.43 1208.12 1324.63 1234.87 1308.89" fill="url(#linear-gradient-79)"/><polygon points="1270.22 1329.42 1245.77 1315.22 1219.01 1330.96 1243.47 1345.16 1270.22 1329.42" fill="url(#linear-gradient-80)"/><polygon points="1305.57 1349.94 1281.12 1335.74 1254.36 1351.49 1278.81 1365.69 1305.57 1349.94" fill="url(#linear-gradient-81)"/><polygon points="1340.92 1370.47 1316.47 1356.27 1289.71 1372.02 1314.16 1386.22 1340.92 1370.47" fill="url(#linear-gradient-82)"/><polygon points="1376.27 1391 1351.82 1376.8 1325.06 1392.55 1349.51 1406.75 1376.27 1391" fill="url(#linear-gradient-83)"/><polygon points="1411.62 1411.53 1387.16 1397.33 1360.41 1413.07 1384.86 1427.27 1411.62 1411.53" fill="url(#linear-gradient-84)"/><polygon points="1446.97 1432.06 1422.51 1417.86 1395.76 1433.6 1420.21 1447.8 1446.97 1432.06" fill="url(#linear-gradient-85)"/><polygon points="1482.31 1452.58 1457.86 1438.38 1431.1 1454.13 1455.56 1468.33 1482.31 1452.58" fill="url(#linear-gradient-86)"/><polygon points="1517.66 1473.11 1493.21 1458.91 1466.45 1474.66 1490.91 1488.86 1517.66 1473.11" fill="url(#linear-gradient-87)"/><polygon points="1501.8 1495.18 1577.43 1539.1 1604.19 1523.36 1528.56 1479.44 1501.8 1495.18" fill="url(#linear-gradient-88)"/><path d="M1316.6,1118.32l506.78,335.63c7.08,4.2,48.56-22.32,50.33-23.97,4.37-4.09,7.22-9.92,7.22-16.74v-541.19c0-20.31-10.7-39.12-28.17-49.5l-520.87-309.49c-6.92-4.11-14.61-4.43-21.22-2-1.87.69-44.72,16.31-44.72,25.28l28.35,542.8c0,16.08,8.47,30.97,22.3,39.18Z" fill="url(#linear-gradient-89)"/><path d="M1280.25,1136.49l529.61,314.68c15.32,9.1,34.73-1.94,34.73-19.76v-541.19c0-20.31-10.7-39.12-28.17-49.5l-520.87-309.49c-16.59-9.85-37.59,2.1-37.59,21.39v544.69c0,16.08,8.47,30.97,22.3,39.18Z" fill="url(#linear-gradient-90)"/><path d="M1821.56,1410.34c-1.12,0-2.2-.3-3.26-.94l-529.6-314.67c-8.78-5.22-14.22-14.78-14.22-24.99v-517.11c0-5.19,4.36-8.4,8.42-8.4,1.44,0,2.86.41,4.21,1.2l520.88,309.49c12.39,7.37,20.09,20.89,20.09,35.31v513.62c0,1.84-.64,3.4-1.92,4.62-1.25,1.19-2.92,1.88-4.59,1.88h0Z" fill="#1d2330"/><path d="M1816.42,840.72l-520.87-309.49c-8.48-5.04-18.08-4.32-25.47.1,7.13-3.55,15.88-3.88,23.71.77l520.87,309.49c17.46,10.38,28.17,29.18,28.17,49.5v541.19c0,8.69-4.66,15.72-11.16,19.64,7.41-3.65,12.92-11.07,12.92-20.52v-541.19c0-20.31-10.7-39.12-28.17-49.5Z" fill="url(#linear-gradient-91)" opacity=".51"/><polygon points="1751.66 1416.43 1740.16 1423.11 1703.6 1401.99 1715.09 1395.31 1751.66 1416.43" fill="#302a2a"/><polygon points="1339.05 1171.76 1327.55 1178.44 1290.99 1157.33 1302.48 1150.65 1339.05 1171.76" fill="#302a2a"/><polygon points="1751.66 1415.45 1740.16 1422.13 1703.6 1401.01 1715.09 1394.33 1751.66 1415.45" fill="url(#linear-gradient-92)"/><polygon points="1339.05 1171.19 1327.55 1177.87 1290.99 1156.76 1302.48 1150.08 1339.05 1171.19" fill="url(#linear-gradient-93)"/><polygon points="1505.02 750.4 1495.26 744.68 1495.26 737.49 1505.02 743.21 1505.02 750.4" fill="#cdd8d4"/><polygon points="1505.02 767.91 1495.26 762.19 1495.26 755 1505.02 760.72 1505.02 767.91" fill="#cdd8d4"/><polygon points="1505.02 785.43 1495.26 779.7 1495.26 772.51 1505.02 778.23 1505.02 785.43" fill="#cdd8d4"/><polygon points="1505.02 802.94 1495.26 797.22 1495.26 790.03 1505.02 795.75 1505.02 802.94" fill="#cdd8d4"/><polygon points="1505.02 820.45 1495.26 814.73 1495.26 807.54 1505.02 813.26 1505.02 820.45" fill="#cdd8d4"/><polygon points="1505.02 837.96 1495.26 832.24 1495.26 825.05 1505.02 830.77 1505.02 837.96" fill="#cdd8d4"/><polygon points="1505.02 855.48 1495.26 849.76 1495.26 842.56 1505.02 848.28 1505.02 855.48" fill="#cdd8d4"/><polygon points="1505.02 872.99 1495.26 867.27 1495.26 860.08 1505.02 865.8 1505.02 872.99" fill="#cdd8d4"/><polygon points="1505.02 890.5 1495.26 884.78 1495.26 877.59 1505.02 883.31 1505.02 890.5" fill="#cdd8d4"/><polygon points="1505.02 908.02 1495.26 902.3 1495.26 895.1 1505.02 900.82 1505.02 908.02" fill="#cdd8d4"/><polygon points="1505.02 925.53 1495.26 919.81 1495.26 912.62 1505.02 918.34 1505.02 925.53" fill="#cdd8d4"/><polygon points="1505.02 943.04 1495.26 937.32 1495.26 930.13 1505.02 935.85 1505.02 943.04" fill="#cdd8d4"/><polygon points="1505.02 960.56 1495.26 954.83 1495.26 947.64 1505.02 953.36 1505.02 960.56" fill="#cdd8d4"/><polygon points="1505.02 978.07 1495.26 972.35 1495.26 965.16 1505.02 970.88 1505.02 978.07" fill="#cdd8d4"/><polygon points="1505.02 995.58 1495.26 989.86 1495.26 982.67 1505.02 988.39 1505.02 995.58" fill="#cdd8d4"/><polygon points="1505.02 1013.09 1495.26 1007.37 1495.26 1000.18 1505.02 1005.9 1505.02 1013.09" fill="#cdd8d4"/><polygon points="1505.02 1030.61 1495.26 1024.89 1495.26 1017.69 1505.02 1023.42 1505.02 1030.61" fill="#cdd8d4"/><polygon points="1505.02 1048.12 1495.26 1042.4 1495.26 1035.21 1505.02 1040.93 1505.02 1048.12" fill="#cdd8d4"/><polygon points="1505.02 1065.63 1495.26 1059.91 1495.26 1052.72 1505.02 1058.44 1505.02 1065.63" fill="#cdd8d4"/><polygon points="1505.02 1083.15 1495.26 1077.43 1495.26 1070.23 1505.02 1075.95 1505.02 1083.15" fill="#cdd8d4"/><polygon points="1505.02 1100.66 1495.26 1094.94 1495.26 1087.75 1505.02 1093.47 1505.02 1100.66" fill="#cdd8d4"/><polygon points="1505.02 1118.17 1495.26 1112.45 1495.26 1105.26 1505.02 1110.98 1505.02 1118.17" fill="#cdd8d4"/><polygon points="1505.02 1135.69 1495.26 1129.97 1495.26 1122.77 1505.02 1128.49 1505.02 1135.69" fill="#cdd8d4"/><polygon points="1505.02 1153.2 1495.26 1147.48 1495.26 1140.29 1505.02 1146.01 1505.02 1153.2" fill="#cdd8d4"/><polygon points="1505.02 1170.71 1495.26 1164.99 1495.26 1157.8 1505.02 1163.52 1505.02 1170.71" fill="#cdd8d4"/><polygon points="1307.28 634.51 1297.51 628.79 1297.51 621.6 1307.28 627.32 1307.28 634.51" fill="#cdd8d4"/><polygon points="1349.99 659.54 1315.78 639.49 1315.78 632.3 1349.99 652.35 1349.99 659.54" fill="#998359"/><polygon points="1391.98 684.15 1357.77 664.1 1357.77 656.91 1391.98 676.96 1391.98 684.15" fill="#998359"/><polygon points="1433.96 708.75 1399.75 688.71 1399.75 681.51 1433.96 701.56 1433.96 708.75" fill="#998359"/><polygon points="1307.28 652.02 1297.51 646.3 1297.51 639.11 1307.28 644.83 1307.28 652.02" fill="#cdd8d4"/><polygon points="1307.28 669.53 1297.51 663.81 1297.51 656.62 1307.28 662.34 1307.28 669.53" fill="#cdd8d4"/><polygon points="1343.54 690.79 1317.67 675.62 1317.67 668.43 1343.54 683.6 1343.54 690.79" fill="#cdd8d4"/><polygon points="1373.41 708.29 1347.53 693.13 1347.53 685.93 1373.41 701.1 1373.41 708.29" fill="#cdd8d4"/><polygon points="1403.27 725.79 1377.39 710.63 1377.39 703.44 1403.27 718.6 1403.27 725.79" fill="#247489"/><polygon points="1307.28 687.05 1297.51 681.33 1297.51 674.13 1307.28 679.85 1307.28 687.05" fill="#cdd8d4"/><polygon points="1357.14 716.27 1314.07 691.03 1314.07 683.84 1357.14 709.08 1357.14 716.27" fill="#247489"/><polygon points="1405.63 744.69 1362.56 719.45 1362.56 712.26 1405.63 737.5 1405.63 744.69" fill="#cdd8d4"/><polygon points="1454.12 773.11 1411.05 747.87 1411.05 740.67 1454.12 765.92 1454.12 773.11" fill="#cdd8d4"/><polygon points="1307.28 704.56 1297.51 698.84 1297.51 691.65 1307.28 697.37 1307.28 704.56" fill="#cdd8d4"/><polygon points="1345.76 727.11 1314.07 708.54 1314.07 701.35 1345.76 719.92 1345.76 727.11" fill="#247489"/><polygon points="1307.28 722.07 1297.51 716.35 1297.51 709.16 1307.28 714.88 1307.28 722.07" fill="#cdd8d4"/><polygon points="1331.22 736.11 1321.46 730.39 1321.46 723.2 1331.22 728.92 1331.22 736.11" fill="#cdd8d4"/><polygon points="1307.28 739.59 1297.51 733.87 1297.51 726.67 1307.28 732.39 1307.28 739.59" fill="#cdd8d4"/><polygon points="1331.22 753.62 1321.46 747.9 1321.46 740.71 1331.22 746.43 1331.22 753.62" fill="#cdd8d4"/><polygon points="1307.28 757.1 1297.51 751.38 1297.51 744.19 1307.28 749.91 1307.28 757.1" fill="#cdd8d4"/><polygon points="1331.22 771.13 1321.46 765.41 1321.46 758.22 1331.22 763.94 1331.22 771.13" fill="#cdd8d4"/><polygon points="1373.41 760.83 1334.47 738.01 1334.47 730.82 1373.41 753.64 1373.41 760.83" fill="#247489"/><polygon points="1385.97 785.71 1334.47 755.53 1334.47 748.33 1385.97 778.51 1385.97 785.71" fill="#247489"/><polygon points="1392.03 806.77 1334.47 773.04 1334.47 765.85 1392.03 799.58 1392.03 806.77" fill="#247489"/><polygon points="1307.28 774.61 1297.51 768.89 1297.51 761.7 1307.28 767.42 1307.28 774.61" fill="#cdd8d4"/><polygon points="1344.23 796.27 1334.47 790.55 1334.47 783.36 1344.23 789.08 1344.23 796.27" fill="#247489"/><polygon points="1406.81 832.95 1349.17 799.17 1349.17 791.97 1406.81 825.75 1406.81 832.95" fill="#247489"/><polygon points="1307.28 792.12 1297.51 786.4 1297.51 779.21 1307.28 784.93 1307.28 792.12" fill="#cdd8d4"/><polygon points="1307.28 809.64 1297.51 803.92 1297.51 796.73 1307.28 802.45 1307.28 809.64" fill="#cdd8d4"/><polygon points="1307.28 827.15 1297.51 821.43 1297.51 814.24 1307.28 819.96 1307.28 827.15" fill="#cdd8d4"/><polygon points="1307.28 844.66 1297.51 838.94 1297.51 831.75 1307.28 837.47 1307.28 844.66" fill="#cdd8d4"/><polygon points="1307.28 862.18 1297.51 856.46 1297.51 849.26 1307.28 854.98 1307.28 862.18" fill="#cdd8d4"/><polygon points="1307.28 879.69 1297.51 873.97 1297.51 866.78 1307.28 872.5 1307.28 879.69" fill="#cdd8d4"/><polygon points="1307.28 897.2 1297.51 891.48 1297.51 884.29 1307.28 890.01 1307.28 897.2" fill="#cdd8d4"/><polygon points="1307.28 914.72 1297.51 909 1297.51 901.8 1307.28 907.52 1307.28 914.72" fill="#cdd8d4"/><polygon points="1388.64 839.81 1350.16 817.26 1350.16 810.07 1388.64 832.62 1388.64 839.81" fill="#247489"/><polygon points="1432.17 865.32 1393.69 842.77 1393.69 835.58 1432.17 858.13 1432.17 865.32" fill="#cdd8d4"/><polygon points="1475.7 890.84 1437.22 868.28 1437.22 861.09 1475.7 883.64 1475.7 890.84" fill="#cdd8d4"/><polygon points="1382.82 853.91 1350.16 834.77 1350.16 827.58 1382.82 846.72 1382.82 853.91" fill="#cdd8d4"/><polygon points="1419.84 875.61 1387.17 856.46 1387.17 849.27 1419.84 868.41 1419.84 875.61" fill="#247489"/><polygon points="1456.85 897.3 1424.19 878.16 1424.19 870.96 1456.85 890.11 1456.85 897.3" fill="#cdd8d4"/><polygon points="1389.37 875.27 1350.16 852.29 1350.16 845.09 1389.37 868.07 1389.37 875.27" fill="#924443"/><polygon points="1433.8 901.3 1394.59 878.33 1394.59 871.13 1433.8 894.11 1433.8 901.3" fill="#cdd8d4"/><polygon points="1382.82 888.94 1350.16 869.8 1350.16 862.61 1382.82 881.75 1382.82 888.94" fill="#cdd8d4"/><polygon points="1422.03 911.92 1389.37 892.78 1389.37 885.59 1422.03 904.73 1422.03 911.92" fill="#cdd8d4"/><polygon points="1382.82 906.45 1350.16 887.31 1350.16 880.12 1382.82 899.26 1382.82 906.45" fill="#247489"/><polygon points="1418.95 927.63 1386.29 908.49 1386.29 901.29 1418.95 920.44 1418.95 927.63" fill="#cdd8d4"/><polygon points="1455.08 948.8 1422.42 929.66 1422.42 922.47 1455.08 941.61 1455.08 948.8" fill="#cdd8d4"/><polygon points="1376.37 920.19 1350.16 904.82 1350.16 897.63 1376.37 912.99 1376.37 920.19" fill="#cdd8d4"/><polygon points="1406.07 937.59 1379.86 922.23 1379.86 915.04 1406.07 930.4 1406.07 937.59" fill="#247489"/><polygon points="1435.77 955 1409.56 939.64 1409.56 932.44 1435.77 947.8 1435.77 955" fill="#cdd8d4"/><polygon points="1465.47 972.4 1439.26 957.04 1439.26 949.85 1465.47 965.21 1465.47 972.4" fill="#cdd8d4"/><polygon points="1382.82 941.48 1350.16 922.34 1350.16 915.15 1382.82 934.29 1382.82 941.48" fill="#247489"/><polygon points="1418.95 962.65 1386.29 943.51 1386.29 936.32 1418.95 955.46 1418.95 962.65" fill="#cdd8d4"/><polygon points="1455.08 983.83 1422.42 964.69 1422.42 957.49 1455.08 976.64 1455.08 983.83" fill="#cdd8d4"/><polygon points="1382.82 958.99 1350.16 939.85 1350.16 932.66 1382.82 951.8 1382.82 958.99" fill="#247489"/><polygon points="1419.84 980.68 1387.17 961.54 1387.17 954.35 1419.84 973.49 1419.84 980.68" fill="#cdd8d4"/><polygon points="1307.28 932.23 1297.51 926.51 1297.51 919.32 1307.28 925.04 1307.28 932.23" fill="#cdd8d4"/><polygon points="1307.28 949.74 1297.51 944.02 1297.51 936.83 1307.28 942.55 1307.28 949.74" fill="#cdd8d4"/><polygon points="1307.28 967.26 1297.51 961.53 1297.51 954.34 1307.28 960.06 1307.28 967.26" fill="#cdd8d4"/><polygon points="1307.28 984.77 1297.51 979.05 1297.51 971.86 1307.28 977.58 1307.28 984.77" fill="#cdd8d4"/><polygon points="1307.28 1002.28 1297.51 996.56 1297.51 989.37 1307.28 995.09 1307.28 1002.28" fill="#cdd8d4"/><polygon points="1331.22 946.26 1321.46 940.54 1321.46 933.35 1331.22 939.07 1331.22 946.26" fill="#cdd8d4"/><polygon points="1331.22 963.78 1321.46 958.06 1321.46 950.87 1331.22 956.59 1331.22 963.78" fill="#cdd8d4"/><polygon points="1331.22 981.29 1321.46 975.57 1321.46 968.38 1331.22 974.1 1331.22 981.29" fill="#cdd8d4"/><polygon points="1331.22 998.8 1321.46 993.08 1321.46 985.89 1331.22 991.61 1331.22 998.8" fill="#cdd8d4"/><polygon points="1331.22 1016.32 1321.46 1010.6 1321.46 1003.4 1331.22 1009.12 1331.22 1016.32" fill="#cdd8d4"/><polygon points="1383.87 977.12 1336.47 949.34 1336.47 942.15 1383.87 969.92 1383.87 977.12" fill="#247489"/><polygon points="1366.49 984.45 1336.47 966.85 1336.47 959.66 1366.49 977.26 1366.49 984.45" fill="#247489"/><polygon points="1376.95 1008.09 1336.47 984.37 1336.47 977.17 1376.95 1000.9 1376.95 1008.09" fill="#247489"/><polygon points="1369.36 1021.16 1336.47 1001.88 1336.47 994.69 1369.36 1013.96 1369.36 1021.16" fill="#247489"/><polygon points="1358.06 1032.05 1336.47 1019.39 1336.47 1012.2 1358.06 1024.85 1358.06 1032.05" fill="#247489"/><polygon points="1307.28 1019.79 1297.51 1014.07 1297.51 1006.88 1307.28 1012.6 1307.28 1019.79" fill="#cdd8d4"/><polygon points="1307.28 1037.31 1297.51 1031.59 1297.51 1024.39 1307.28 1030.11 1307.28 1037.31" fill="#cdd8d4"/><polygon points="1307.28 1054.82 1297.51 1049.1 1297.51 1041.91 1307.28 1047.63 1307.28 1054.82" fill="#cdd8d4"/><polygon points="1321.46 1028.11 1311.7 1022.39 1311.7 1015.2 1321.46 1020.92 1321.46 1028.11" fill="#cdd8d4"/><polygon points="1321.46 1045.62 1311.7 1039.9 1311.7 1032.71 1321.46 1038.43 1321.46 1045.62" fill="#cdd8d4"/><polygon points="1321.46 1063.14 1311.7 1057.42 1311.7 1050.22 1321.46 1055.94 1321.46 1063.14" fill="#cdd8d4"/><polygon points="1365.49 1053.91 1328.57 1032.27 1328.57 1025.08 1365.49 1046.72 1365.49 1053.91" fill="#247489"/><polygon points="1353.85 1064.6 1328.57 1049.79 1328.57 1042.59 1353.85 1057.41 1353.85 1064.6" fill="#247489"/><polygon points="1347.03 1078.12 1328.57 1067.3 1328.57 1060.11 1347.03 1070.92 1347.03 1078.12" fill="#247489"/><polygon points="1548.79 776.05 1522.67 760.74 1522.67 753.55 1548.79 768.86 1548.79 776.05" fill="#9a7b9b"/><polygon points="1594.53 802.86 1551.91 777.88 1551.91 770.68 1594.53 795.67 1594.53 802.86" fill="#247489"/><polygon points="1576.96 810.07 1522.67 778.26 1522.67 771.07 1576.96 802.88 1576.96 810.07" fill="#924443"/><polygon points="1641.79 848.07 1587.5 816.25 1587.5 809.06 1641.79 840.87 1641.79 848.07" fill="#998359"/><polygon points="1706.61 886.06 1652.33 854.24 1652.33 847.05 1706.61 878.87 1706.61 886.06" fill="url(#linear-gradient-94)"/><polygon points="1771.44 924.05 1717.15 892.24 1717.15 885.04 1771.44 916.86 1771.44 924.05" fill="url(#linear-gradient-95)"/><polygon points="1547.41 810.27 1522.67 795.77 1522.67 788.58 1547.41 803.07 1547.41 810.27" fill="#9a7b9b"/><polygon points="1614.64 849.67 1554.01 814.14 1554.01 806.95 1614.64 842.48 1614.64 849.67" fill="#924443"/><polygon points="1682.64 889.52 1622.01 853.99 1622.01 846.8 1682.64 882.33 1682.64 889.52" fill="#cdd8d4"/><polygon points="1603.35 860.57 1544.94 826.33 1544.94 819.14 1603.35 853.38 1603.35 860.57" fill="#247489"/><polygon points="1667.85 898.37 1609.44 864.13 1609.44 856.94 1667.85 891.18 1667.85 898.37" fill="#998359"/><polygon points="1732.35 936.17 1673.94 901.94 1673.94 894.74 1732.35 928.98 1732.35 936.17" fill="#cdd8d4"/><polygon points="1796.85 973.97 1738.44 939.74 1738.44 932.54 1796.85 966.78 1796.85 973.97" fill="#247489"/><polygon points="1566.27 856.35 1533.37 837.07 1533.37 829.87 1566.27 849.15 1566.27 856.35" fill="#9a7b9b"/><polygon points="1578.94 881.29 1541.5 859.34 1541.5 852.15 1578.94 874.1 1578.94 881.29" fill="#247489"/><polygon points="1623.3 907.29 1585.86 885.34 1585.86 878.15 1623.3 900.09 1623.3 907.29" fill="#247489"/><polygon points="1557.6 886.29 1534 872.46 1534 865.27 1557.6 879.1 1557.6 886.29" fill="#9a7b9b"/><polygon points="1542.93 895.21 1522.67 883.34 1522.67 876.14 1542.93 888.02 1542.93 895.21" fill="#9a7b9b"/><polygon points="1552.43 935.8 1522.67 918.36 1522.67 911.17 1552.43 928.61 1552.43 935.8" fill="#9a7b9b"/><polygon points="1587.41 956.3 1557.66 938.86 1557.66 931.67 1587.41 949.11 1587.41 956.3" fill="#247489"/><polygon points="1578.56 968.63 1532.67 941.73 1532.67 934.54 1578.56 961.43 1578.56 968.63" fill="#924443"/><polygon points="1629.21 998.31 1583.33 971.42 1583.33 964.23 1629.21 991.12 1629.21 998.31" fill="#998359"/><polygon points="1679.87 1028 1633.98 1001.11 1633.98 993.92 1679.87 1020.81 1679.87 1028" fill="#cdd8d4"/><polygon points="1730.53 1057.69 1684.64 1030.8 1684.64 1023.61 1730.53 1050.5 1730.53 1057.69" fill="#247489"/><polygon points="1781.19 1087.38 1735.3 1060.49 1735.3 1053.3 1781.19 1080.19 1781.19 1087.38" fill="#cdd8d4"/><polygon points="1549.44 969.07 1522.67 953.39 1522.67 946.2 1549.44 961.88 1549.44 969.07" fill="#9a7b9b"/><polygon points="1545.48 1001.78 1522.67 988.41 1522.67 981.22 1545.48 994.59 1545.48 1001.78" fill="#9a7b9b"/><polygon points="1589.06 1027.32 1549.44 1004.1 1549.44 996.91 1589.06 1020.13 1589.06 1027.32" fill="#247489"/><polygon points="1583.33 1041.47 1532.67 1011.79 1532.67 1004.59 1583.33 1034.28 1583.33 1041.47" fill="#924443"/><polygon points="1639.72 1074.52 1589.06 1044.83 1589.06 1037.64 1639.72 1067.33 1639.72 1074.52" fill="#998359"/><polygon points="1696.11 1107.57 1645.45 1077.88 1645.45 1070.69 1696.11 1100.38 1696.11 1107.57" fill="#cdd8d4"/><polygon points="1752.5 1140.62 1701.84 1110.93 1701.84 1103.74 1752.5 1133.43 1752.5 1140.62" fill="#cdd8d4"/><polygon points="1808.89 1173.67 1758.23 1143.98 1758.23 1136.79 1808.89 1166.48 1808.89 1173.67" fill="#247489"/><polygon points="1544.6 1036.29 1534.84 1030.57 1534.84 1023.38 1544.6 1029.1 1544.6 1036.29" fill="#9a7b9b"/><polygon points="1592.31 1064.25 1551.49 1040.33 1551.49 1033.14 1592.31 1057.06 1592.31 1064.25" fill="#924443"/><polygon points="1641.39 1093.02 1600.57 1069.09 1600.57 1061.9 1641.39 1085.83 1641.39 1093.02" fill="#247489"/><polygon points="1690.47 1121.78 1649.65 1097.86 1649.65 1090.67 1690.47 1114.59 1690.47 1121.78" fill="#cdd8d4"/><polygon points="1739.55 1150.55 1698.73 1126.62 1698.73 1119.43 1739.55 1143.35 1739.55 1150.55" fill="#cdd8d4"/><polygon points="1604.27 1088.77 1546.61 1054.98 1546.61 1047.79 1604.27 1081.58 1604.27 1088.77" fill="#247489"/><polygon points="1668.55 1126.44 1610.89 1092.65 1610.89 1085.46 1668.55 1119.25 1668.55 1126.44" fill="#998359"/><polygon points="1732.82 1164.12 1675.17 1130.33 1675.17 1123.13 1732.82 1156.92 1732.82 1164.12" fill="#cdd8d4"/><polygon points="1797.1 1201.79 1739.45 1168 1739.45 1160.81 1797.1 1194.6 1797.1 1201.79" fill="#924443"/><polygon points="1556.22 1078.13 1534.84 1065.6 1534.84 1058.41 1556.22 1070.94 1556.22 1078.13" fill="#9a7b9b"/><polygon points="1579.82 1109.47 1544.56 1088.81 1544.56 1081.61 1579.82 1102.28 1579.82 1109.47" fill="#247489"/><polygon points="1620.37 1133.23 1585.1 1112.57 1585.1 1105.37 1620.37 1126.04 1620.37 1133.23" fill="#998359"/><polygon points="1553.04 1111.29 1534.84 1100.62 1534.84 1093.43 1553.04 1104.1 1553.04 1111.29" fill="#9a7b9b"/><polygon points="1542.18 1122.44 1522.67 1111.01 1522.67 1103.81 1542.18 1115.24 1542.18 1122.44" fill="#9a7b9b"/><polygon points="1563.32 1169.85 1522.67 1146.03 1522.67 1138.84 1563.32 1162.66 1563.32 1169.85" fill="#998359"/><polygon points="1609.38 1196.85 1568.74 1173.03 1568.74 1165.84 1609.38 1189.66 1609.38 1196.85" fill="#247489"/><polygon points="1532.43 1169.26 1522.67 1163.54 1522.67 1156.35 1532.43 1162.07 1532.43 1169.26" fill="#9a7b9b"/><polygon points="1560.12 1203 1522.67 1181.06 1522.67 1173.87 1560.12 1195.81 1560.12 1203" fill="#9a7b9b"/><polygon points="1607.78 1230.94 1570.34 1208.99 1570.34 1201.8 1607.78 1223.75 1607.78 1230.94" fill="#247489"/><polygon points="1655.45 1258.87 1618 1236.93 1618 1229.73 1655.45 1251.68 1655.45 1258.87" fill="#998359"/><polygon points="1703.11 1286.81 1665.67 1264.86 1665.67 1257.67 1703.11 1279.61 1703.11 1286.81" fill="#924443"/><path d="M1240.44,792.11l-158.81-203.93c-4.35-5.58-9.83-7.64-12.96-5.98-1.53.81-21.27,16.74-21.27,19.35l18.77,41.42c0,5.4-4.38,7.28-9.77,4.2l-188.67-107.51c-3.09-1.76-5.85-1.9-7.64-.68-1.34.91-21.23,17.56-21.23,19.86l19.09,61.49c0,5.4,4.38,12.27,9.77,15.35l188.67,107.51c5.4,3.08,9.77,9.95,9.77,15.35v55.65c0,7.95,8.99,17.7,15.46,16.76l142.07-6.99c1.55-.22,19.4-16.98,20.07-18.2,1.68-3.06.57-8.64-3.33-13.65Z" fill="#b0550b"/><path d="M1220.87,809.63l-158.81-203.93c-6.47-8.31-15.46-8.8-15.46-.85v55.65c0,5.4-4.38,7.28-9.77,4.2l-188.67-107.51c-5.4-3.08-9.77-1.19-9.77,4.2v76.47c0,5.4,4.38,12.27,9.77,15.35l188.67,107.51c5.4,3.08,9.77,9.95,9.77,15.35v55.65c0,7.95,8.99,17.7,15.46,16.76l158.81-22.94c5.46-.79,5.46-8.9,0-15.91Z" fill="url(#linear-gradient-96)"/></g></svg>