<?xml version="1.0" encoding="UTF-8"?><svg id="Layer_2" xmlns="http://www.w3.org/2000/svg" xmlns:xlink="http://www.w3.org/1999/xlink" viewBox="0 0 2344.55 1937.03"><defs><linearGradient id="linear-gradient" x1="1512.62" y1="-2.08" x2="1319.33" y2="845.6" gradientUnits="userSpaceOnUse"><stop offset="0" stop-color="#cbcbd6"/><stop offset="1" stop-color="#8b8b8d"/></linearGradient><linearGradient id="linear-gradient-2" x1="1217.84" y1="749.41" x2="1774.42" y2="-151.82" xlink:href="#linear-gradient"/><linearGradient id="linear-gradient-3" x1="1118.73" y1="301.02" x2="1215.14" y2="144.91" gradientUnits="userSpaceOnUse"><stop offset="0" stop-color="#5b677c"/><stop offset="1" stop-color="#39a9a5"/></linearGradient><linearGradient id="linear-gradient-4" x1="1191.39" y1="275.84" x2="1249.72" y2="181.38" gradientUnits="userSpaceOnUse"><stop offset="0" stop-color="#fabb0c"/><stop offset="1" stop-color="#f88019"/></linearGradient><linearGradient id="linear-gradient-5" x1="1014" y1="386.52" x2="1014" y2="548.45" xlink:href="#linear-gradient-3"/><linearGradient id="linear-gradient-6" x1="1062.81" y1="386.48" x2="1062.81" y2="548.95" xlink:href="#linear-gradient-4"/><linearGradient id="linear-gradient-7" x1="1105.79" y1="386.25" x2="1105.79" y2="549.7" xlink:href="#linear-gradient-3"/><linearGradient id="linear-gradient-8" x1="1154.01" y1="386.58" x2="1154.01" y2="550.63" xlink:href="#linear-gradient-4"/><linearGradient id="linear-gradient-9" x1="1200.17" y1="386.85" x2="1200.17" y2="551.74" xlink:href="#linear-gradient-3"/><linearGradient id="linear-gradient-10" x1="1247.44" y1="387.32" x2="1247.44" y2="552.97" xlink:href="#linear-gradient-4"/><linearGradient id="linear-gradient-11" x1="1285.98" y1="387.06" x2="1285.98" y2="554.35" xlink:href="#linear-gradient-3"/><linearGradient id="linear-gradient-12" x1="1056.51" y1="572.87" x2="1056.51" y2="590.52" xlink:href="#linear-gradient-4"/><linearGradient id="linear-gradient-13" x1="1048.06" y1="604.37" x2="1048.06" y2="621.91" xlink:href="#linear-gradient-3"/><linearGradient id="linear-gradient-14" x1="1297.92" y1="208.55" x2="1297.92" y2="225.56" xlink:href="#linear-gradient-4"/><linearGradient id="linear-gradient-15" x1="1290.63" y1="239.04" x2="1290.63" y2="256.3" xlink:href="#linear-gradient-3"/><linearGradient id="linear-gradient-16" x1="1860.03" y1="278.52" x2="1666.74" y2="1126.2" gradientUnits="userSpaceOnUse"><stop offset="0" stop-color="#3b3e5e"/><stop offset="1" stop-color="#626282"/></linearGradient><linearGradient id="linear-gradient-17" x1="1565.25" y1="1030.01" x2="2121.83" y2="128.78" xlink:href="#linear-gradient-16"/><linearGradient id="linear-gradient-18" x1="1813.41" y1="1531.87" x2="1106.42" y2="1766.01" gradientUnits="userSpaceOnUse"><stop offset="0" stop-color="#cbcbd6"/><stop offset="1" stop-color="#626282"/></linearGradient><linearGradient id="linear-gradient-19" x1="915.01" y1="1649.38" x2="1788.71" y2="1649.38" gradientUnits="userSpaceOnUse"><stop offset="0" stop-color="#cbcbd6"/><stop offset="1" stop-color="#f9faf9"/></linearGradient><linearGradient id="linear-gradient-20" x1="1788.71" y1="1435.75" x2="1858.02" y2="1435.75" xlink:href="#linear-gradient-16"/><linearGradient id="linear-gradient-21" x1="1199.39" y1="1392.16" x2="1855.11" y2="1392.16" xlink:href="#linear-gradient-16"/><linearGradient id="linear-gradient-22" x1="1818.13" y1="1296.48" x2="1364.65" y2="1446.66" xlink:href="#linear-gradient-16"/><linearGradient id="linear-gradient-23" x1="1815.06" y1="1293.46" x2="1361.58" y2="1443.64" xlink:href="#linear-gradient-19"/><linearGradient id="linear-gradient-24" x1="1778.2" y1="1258.04" x2="1361.48" y2="1396.04" xlink:href="#linear-gradient-16"/><linearGradient id="linear-gradient-25" x1="1270.58" y1="1448.78" x2="1832.56" y2="1323.69" gradientUnits="userSpaceOnUse"><stop offset="0" stop-color="#c9e2dc"/><stop offset="1" stop-color="#626282"/></linearGradient><linearGradient id="linear-gradient-26" x1="1198.18" y1="1516.48" x2="1369.69" y2="1516.48" xlink:href="#linear-gradient-25"/><linearGradient id="linear-gradient-27" x1="1480.67" y1="1526.39" x2="1413.46" y2="1548.65" xlink:href="#linear-gradient-16"/><linearGradient id="linear-gradient-28" x1="1546.25" y1="1536.63" x2="1479.1" y2="1558.87" xlink:href="#linear-gradient-16"/><linearGradient id="linear-gradient-29" x1="1612.86" y1="1546.67" x2="1545.18" y2="1569.09" xlink:href="#linear-gradient-16"/><linearGradient id="linear-gradient-30" x1="1681.54" y1="1556.52" x2="1612.53" y2="1579.38" xlink:href="#linear-gradient-16"/><linearGradient id="linear-gradient-31" x1="1447.71" y1="1555.5" x2="1141.36" y2="1697.47" xlink:href="#linear-gradient-18"/><linearGradient id="linear-gradient-32" x1="1504.79" y1="1577.24" x2="1433.07" y2="1600.99" xlink:href="#linear-gradient-16"/><linearGradient id="linear-gradient-33" x1="1571.84" y1="1588.55" x2="1499.55" y2="1612.49" xlink:href="#linear-gradient-16"/><linearGradient id="linear-gradient-34" x1="1640.35" y1="1599.58" x2="1566.89" y2="1623.91" xlink:href="#linear-gradient-16"/><linearGradient id="linear-gradient-35" x1="1455.64" y1="1572.62" x2="1149.29" y2="1714.59" xlink:href="#linear-gradient-18"/><linearGradient id="linear-gradient-36" x1="1457.31" y1="1622.17" x2="1384.45" y2="1646.3" xlink:href="#linear-gradient-16"/><linearGradient id="linear-gradient-37" x1="1524.62" y1="1635.21" x2="1451.38" y2="1659.46" xlink:href="#linear-gradient-16"/><linearGradient id="linear-gradient-38" x1="1592.81" y1="1647.88" x2="1518.76" y2="1672.4" xlink:href="#linear-gradient-16"/><linearGradient id="linear-gradient-39" x1="1463.58" y1="1589.75" x2="1157.23" y2="1731.72" xlink:href="#linear-gradient-18"/><linearGradient id="linear-gradient-40" x1="1408.58" y1="1667.47" x2="1337.84" y2="1690.9" xlink:href="#linear-gradient-16"/><linearGradient id="linear-gradient-41" x1="1476.22" y1="1682.23" x2="1405.49" y2="1705.66" xlink:href="#linear-gradient-16"/><linearGradient id="linear-gradient-42" x1="1544.16" y1="1696.56" x2="1473.17" y2="1720.07" xlink:href="#linear-gradient-16"/><linearGradient id="linear-gradient-43" x1="1470.99" y1="1605.74" x2="1164.64" y2="1747.71" xlink:href="#linear-gradient-18"/><linearGradient id="linear-gradient-44" x1="1413.76" y1="1678.78" x2="1303.41" y2="1715.33" xlink:href="#linear-gradient-16"/><linearGradient id="linear-gradient-45" x1="1431.68" y1="1725.23" x2="1366.69" y2="1746.75" xlink:href="#linear-gradient-16"/><linearGradient id="linear-gradient-46" x1="1499.64" y1="1740.76" x2="1435.16" y2="1762.11" xlink:href="#linear-gradient-16"/><linearGradient id="linear-gradient-47" x1="1236.5" y1="1529.57" x2="1164.23" y2="1553.5" xlink:href="#linear-gradient-16"/><linearGradient id="linear-gradient-48" x1="1414.92" y1="1484.75" x2="1108.57" y2="1626.72" xlink:href="#linear-gradient-18"/><linearGradient id="linear-gradient-49" x1="1431.35" y1="1520.2" x2="1125" y2="1662.17" xlink:href="#linear-gradient-18"/><linearGradient id="linear-gradient-50" x1="1188.03" y1="1567.28" x2="1115.61" y2="1591.26" xlink:href="#linear-gradient-16"/><linearGradient id="linear-gradient-51" x1="1421.34" y1="1498.6" x2="1114.99" y2="1640.57" xlink:href="#linear-gradient-18"/><linearGradient id="linear-gradient-52" x1="1438.49" y1="1535.61" x2="1132.14" y2="1677.58" xlink:href="#linear-gradient-18"/><linearGradient id="linear-gradient-53" x1="1138.09" y1="1605.32" x2="1067.92" y2="1628.55" xlink:href="#linear-gradient-16"/><linearGradient id="linear-gradient-54" x1="1427.72" y1="1512.38" x2="1121.37" y2="1654.34" xlink:href="#linear-gradient-18"/><linearGradient id="linear-gradient-55" x1="1445.62" y1="1551" x2="1139.27" y2="1692.96" xlink:href="#linear-gradient-18"/><linearGradient id="linear-gradient-56" x1="1090.59" y1="1641.52" x2="1024.87" y2="1663.29" xlink:href="#linear-gradient-4"/><linearGradient id="linear-gradient-57" x1="1433.8" y1="1525.49" x2="1127.45" y2="1667.46" xlink:href="#linear-gradient-18"/><linearGradient id="linear-gradient-58" x1="1452.33" y1="1565.48" x2="1145.98" y2="1707.45" xlink:href="#linear-gradient-18"/><linearGradient id="linear-gradient-59" x1="61.07" y1="1186.63" x2="1041.75" y2="1186.63" xlink:href="#linear-gradient-3"/><linearGradient id="linear-gradient-60" x1="773.72" y1="798.99" x2="321.15" y2="1153.82" xlink:href="#linear-gradient-3"/><linearGradient id="linear-gradient-61" x1="541.29" y1="1232.44" x2="573.89" y2="1232.44" xlink:href="#linear-gradient-3"/><linearGradient id="linear-gradient-62" x1="573.89" y1="1072.55" x2="1041.75" y2="1072.55" xlink:href="#linear-gradient-3"/><linearGradient id="linear-gradient-63" x1="807.42" y1="841.98" x2="354.85" y2="1196.79" gradientUnits="userSpaceOnUse"><stop offset="0" stop-color="#fff"/><stop offset="1" stop-color="#39a9a5"/></linearGradient><linearGradient id="linear-gradient-64" x1="584.68" y1="1292.42" x2="1125.07" y2="1292.42" gradientUnits="userSpaceOnUse"><stop offset="0" stop-color="#aa4f0b"/><stop offset="1" stop-color="#f88019"/></linearGradient><linearGradient id="linear-gradient-65" x1="1074.37" y1="1249.03" x2="559.03" y2="1099.16" xlink:href="#linear-gradient-4"/><linearGradient id="linear-gradient-66" x1="1036.9" y1="1325.35" x2="537.38" y2="1180.08" gradientUnits="userSpaceOnUse"><stop offset="0" stop-color="#fff"/><stop offset="1" stop-color="#f88019"/></linearGradient></defs><g id="Layer_4"><g opacity=".5"><ellipse cx="1363.86" cy="1805.74" rx="561.87" ry="131.29" fill="#141723" opacity="0"/><ellipse cx="1367.29" cy="1802.34" rx="540.36" ry="126.26" fill="#141723" opacity=".05"/><ellipse cx="1370.73" cy="1798.93" rx="518.85" ry="121.23" fill="#141723" opacity=".1"/><ellipse cx="1374.17" cy="1795.53" rx="497.34" ry="116.21" fill="#141723" opacity=".14"/><ellipse cx="1377.61" cy="1792.12" rx="475.83" ry="111.18" fill="#141723" opacity=".19"/><ellipse cx="1381.04" cy="1788.72" rx="454.32" ry="106.16" fill="#141723" opacity=".24"/><ellipse cx="1384.48" cy="1785.31" rx="432.81" ry="101.13" fill="#141723" opacity=".29"/><ellipse cx="1387.92" cy="1781.91" rx="411.3" ry="96.1" fill="#141723" opacity=".33"/><ellipse cx="1391.36" cy="1778.5" rx="389.79" ry="91.08" fill="#141723" opacity=".38"/><ellipse cx="1394.79" cy="1775.1" rx="368.28" ry="86.05" fill="#141723" opacity=".43"/><ellipse cx="1398.23" cy="1771.69" rx="346.76" ry="81.02" fill="#141723" opacity=".48"/><ellipse cx="1401.67" cy="1768.29" rx="325.25" ry="76" fill="#141723" opacity=".52"/><ellipse cx="1405.11" cy="1764.88" rx="303.74" ry="70.97" fill="#141723" opacity=".57"/><ellipse cx="1408.54" cy="1761.47" rx="282.23" ry="65.95" fill="#141723" opacity=".62"/><ellipse cx="1411.98" cy="1758.07" rx="260.72" ry="60.92" fill="#141723" opacity=".67"/><ellipse cx="1415.42" cy="1754.66" rx="239.21" ry="55.89" fill="#141723" opacity=".71"/><ellipse cx="1418.85" cy="1751.26" rx="217.7" ry="50.87" fill="#141723" opacity=".76"/><ellipse cx="1422.29" cy="1747.85" rx="196.19" ry="45.84" fill="#141723" opacity=".81"/><ellipse cx="1425.73" cy="1744.45" rx="174.68" ry="40.81" fill="#141723" opacity=".86"/><ellipse cx="1429.17" cy="1741.04" rx="153.17" ry="35.79" fill="#141723" opacity=".9"/><ellipse cx="1432.6" cy="1737.64" rx="131.65" ry="30.76" fill="#141723" opacity=".95"/><ellipse cx="1436.04" cy="1734.23" rx="110.14" ry="25.74" fill="#141723"/></g><g opacity=".5"><ellipse cx="561.87" cy="1400.67" rx="561.87" ry="131.29" fill="#141723" opacity="0"/><ellipse cx="565.31" cy="1397.27" rx="540.36" ry="126.26" fill="#141723" opacity=".05"/><ellipse cx="568.75" cy="1393.86" rx="518.85" ry="121.23" fill="#141723" opacity=".1"/><ellipse cx="572.19" cy="1390.46" rx="497.34" ry="116.21" fill="#141723" opacity=".14"/><ellipse cx="575.62" cy="1387.05" rx="475.83" ry="111.18" fill="#141723" opacity=".19"/><ellipse cx="579.06" cy="1383.65" rx="454.32" ry="106.16" fill="#141723" opacity=".24"/><ellipse cx="582.5" cy="1380.24" rx="432.81" ry="101.13" fill="#141723" opacity=".29"/><ellipse cx="585.94" cy="1376.84" rx="411.3" ry="96.1" fill="#141723" opacity=".33"/><ellipse cx="589.37" cy="1373.43" rx="389.79" ry="91.08" fill="#141723" opacity=".38"/><ellipse cx="592.81" cy="1370.03" rx="368.28" ry="86.05" fill="#141723" opacity=".43"/><ellipse cx="596.25" cy="1366.62" rx="346.76" ry="81.02" fill="#141723" opacity=".48"/><ellipse cx="599.68" cy="1363.22" rx="325.25" ry="76" fill="#141723" opacity=".52"/><ellipse cx="603.12" cy="1359.81" rx="303.74" ry="70.97" fill="#141723" opacity=".57"/><ellipse cx="606.56" cy="1356.41" rx="282.23" ry="65.95" fill="#141723" opacity=".62"/><ellipse cx="610" cy="1353" rx="260.72" ry="60.92" fill="#141723" opacity=".67"/><ellipse cx="613.43" cy="1349.59" rx="239.21" ry="55.89" fill="#141723" opacity=".71"/><ellipse cx="616.87" cy="1346.19" rx="217.7" ry="50.87" fill="#141723" opacity=".76"/><ellipse cx="620.31" cy="1342.78" rx="196.19" ry="45.84" fill="#141723" opacity=".81"/><ellipse cx="623.75" cy="1339.38" rx="174.68" ry="40.81" fill="#141723" opacity=".86"/><ellipse cx="627.18" cy="1335.97" rx="153.17" ry="35.79" fill="#141723" opacity=".9"/><ellipse cx="630.62" cy="1332.57" rx="131.65" ry="30.76" fill="#141723" opacity=".95"/><ellipse cx="634.06" cy="1329.16" rx="110.14" ry="25.74" fill="#141723"/></g><g opacity=".5"><ellipse cx="1249.68" cy="968.42" rx="561.87" ry="131.29" fill="#141723" opacity="0"/><ellipse cx="1253.11" cy="965.01" rx="540.36" ry="126.26" fill="#141723" opacity=".05"/><ellipse cx="1256.55" cy="961.61" rx="518.85" ry="121.23" fill="#141723" opacity=".1"/><ellipse cx="1259.99" cy="958.2" rx="497.34" ry="116.21" fill="#141723" opacity=".14"/><ellipse cx="1263.43" cy="954.8" rx="475.83" ry="111.18" fill="#141723" opacity=".19"/><ellipse cx="1266.86" cy="951.39" rx="454.32" ry="106.16" fill="#141723" opacity=".24"/><ellipse cx="1270.3" cy="947.99" rx="432.81" ry="101.13" fill="#141723" opacity=".29"/><ellipse cx="1273.74" cy="944.58" rx="411.3" ry="96.1" fill="#141723" opacity=".33"/><ellipse cx="1277.18" cy="941.18" rx="389.79" ry="91.08" fill="#141723" opacity=".38"/><ellipse cx="1280.61" cy="937.77" rx="368.28" ry="86.05" fill="#141723" opacity=".43"/><ellipse cx="1284.05" cy="934.37" rx="346.76" ry="81.02" fill="#141723" opacity=".48"/><ellipse cx="1287.49" cy="930.96" rx="325.25" ry="76" fill="#141723" opacity=".52"/><ellipse cx="1290.92" cy="927.55" rx="303.74" ry="70.97" fill="#141723" opacity=".57"/><ellipse cx="1294.36" cy="924.15" rx="282.23" ry="65.95" fill="#141723" opacity=".62"/><ellipse cx="1297.8" cy="920.74" rx="260.72" ry="60.92" fill="#141723" opacity=".67"/><ellipse cx="1301.24" cy="917.34" rx="239.21" ry="55.89" fill="#141723" opacity=".71"/><ellipse cx="1304.67" cy="913.93" rx="217.7" ry="50.87" fill="#141723" opacity=".76"/><ellipse cx="1308.11" cy="910.53" rx="196.19" ry="45.84" fill="#141723" opacity=".81"/><ellipse cx="1311.55" cy="907.12" rx="174.68" ry="40.81" fill="#141723" opacity=".86"/><ellipse cx="1314.99" cy="903.72" rx="153.17" ry="35.79" fill="#141723" opacity=".9"/><ellipse cx="1318.42" cy="900.31" rx="131.65" ry="30.76" fill="#141723" opacity=".95"/><ellipse cx="1321.86" cy="896.91" rx="110.14" ry="25.74" fill="#141723"/></g><g opacity=".5"><ellipse cx="1613.25" cy="1175.45" rx="561.87" ry="131.29" fill="#141723" opacity="0"/><ellipse cx="1616.68" cy="1172.04" rx="540.36" ry="126.26" fill="#141723" opacity=".05"/><ellipse cx="1620.12" cy="1168.64" rx="518.85" ry="121.23" fill="#141723" opacity=".1"/><ellipse cx="1623.56" cy="1165.23" rx="497.34" ry="116.21" fill="#141723" opacity=".14"/><ellipse cx="1627" cy="1161.83" rx="475.83" ry="111.18" fill="#141723" opacity=".19"/><ellipse cx="1630.43" cy="1158.42" rx="454.32" ry="106.16" fill="#141723" opacity=".24"/><ellipse cx="1633.87" cy="1155.02" rx="432.81" ry="101.13" fill="#141723" opacity=".29"/><ellipse cx="1637.31" cy="1151.61" rx="411.3" ry="96.1" fill="#141723" opacity=".33"/><ellipse cx="1640.75" cy="1148.21" rx="389.79" ry="91.08" fill="#141723" opacity=".38"/><ellipse cx="1644.18" cy="1144.8" rx="368.28" ry="86.05" fill="#141723" opacity=".43"/><ellipse cx="1647.62" cy="1141.4" rx="346.76" ry="81.02" fill="#141723" opacity=".48"/><ellipse cx="1651.06" cy="1137.99" rx="325.25" ry="76" fill="#141723" opacity=".52"/><ellipse cx="1654.49" cy="1134.59" rx="303.74" ry="70.97" fill="#141723" opacity=".57"/><ellipse cx="1657.93" cy="1131.18" rx="282.23" ry="65.95" fill="#141723" opacity=".62"/><ellipse cx="1661.37" cy="1127.78" rx="260.72" ry="60.92" fill="#141723" opacity=".67"/><ellipse cx="1664.81" cy="1124.37" rx="239.21" ry="55.89" fill="#141723" opacity=".71"/><ellipse cx="1668.24" cy="1120.97" rx="217.7" ry="50.87" fill="#141723" opacity=".76"/><ellipse cx="1671.68" cy="1117.56" rx="196.19" ry="45.84" fill="#141723" opacity=".81"/><ellipse cx="1675.12" cy="1114.16" rx="174.68" ry="40.81" fill="#141723" opacity=".86"/><ellipse cx="1678.56" cy="1110.75" rx="153.17" ry="35.79" fill="#141723" opacity=".9"/><ellipse cx="1681.99" cy="1107.35" rx="131.65" ry="30.76" fill="#141723" opacity=".95"/><ellipse cx="1685.43" cy="1103.94" rx="110.14" ry="25.74" fill="#141723"/></g><path d="M1051.54,49.5l886.56-25.4c36.85-1.79,65.43,31.75,57.81,67.85l-164.99,781.83c-9.11,43.17-48.37,73.22-92.42,70.74l-881.02-49.69c-35.48-2-60.26-35.98-51.31-70.38L999.79,91.55c6.2-23.82,27.16-40.86,51.75-42.05Z" fill="url(#linear-gradient)"/><path d="M1031.97,25.47L1918.53.07c36.85-1.79,65.43,31.75,57.81,67.85l-164.99,781.83c-9.11,43.17-48.37,73.22-92.42,70.74l-881.02-49.69c-35.48-2-60.26-35.98-51.31-70.38L980.22,67.52c6.2-23.82,27.16-40.86,51.75-42.05Z" fill="url(#linear-gradient-2)"/><path d="M1720.36,894.72l-881-49.69c-9.16-.51-17.51-5.07-22.91-12.49-5.41-7.4-7.18-16.74-4.88-25.63L1005.19,74.12c3.4-13.07,14.65-22.23,28.06-22.88,0,0,886.18-25.37,886.27-25.37,11.14,0,19.65,4.09,25.43,11.23,5.8,7.16,8.05,16.45,6.14,25.48l-164.98,781.82c-6.16,29.21-32.3,50.4-62.14,50.4l-3.6-.09Z" fill="#fdfdff"/><path d="M1228.81,299.56c-24.69,32.33-62.53,54.39-100.65,54.48-56.55.13-93.26-47.64-79.87-104.57,13.42-57.06,72.44-100.73,129.27-101.6,30.34-.46,53.98,11.32,67.46,31.23-36.4,27.59-54.76,41.56-91.9,69.64,30.85,20.03,45.93,30.15,75.69,50.81Z" fill="url(#linear-gradient-3)"/><path d="M1255.19,247.33c-4.47,18.79-13.41,36.72-25.4,52.22-29.76-20.67-44.83-30.79-75.67-50.82,37.13-28.09,55.48-42.06,91.88-69.65,11.7,17.46,15.58,41.36,9.19,68.24Z" fill="url(#linear-gradient-4)"/><path d="M1021.95,539.97c-12.48-.1-18.76-.13-31.39-.18,6.33-24.37,9.42-36.6,15.5-61.02,12.63.02,18.9.04,31.38.1-6.08,24.46-9.17,36.7-15.49,61.1Z" fill="url(#linear-gradient-5)"/><path d="M1066.99,540.44c-12.29-.16-18.47-.23-30.89-.35,9.27-35.87,13.76-53.92,22.56-89.85,12.41.05,18.59.08,30.87.15-8.8,36.02-13.29,54.11-22.54,90.05Z" fill="url(#linear-gradient-6)"/><path d="M1111.39,541.14c-12.13-.22-18.22-.32-30.46-.5,7.88-30.74,11.73-46.19,19.3-77.01,12.22.1,18.31.15,30.42.27-7.56,30.92-11.4,46.42-19.26,77.24Z" fill="url(#linear-gradient-7)"/><path d="M1155.24,542.04c-11.99-.27-18.01-.4-30.09-.64,11.37-44.79,16.88-67.4,27.69-112.24,12.06.08,18.06.12,30.02.21-10.81,45.01-16.31,67.71-27.63,112.66Z" fill="url(#linear-gradient-8)"/><path d="M1198.62,543.1c-11.87-.31-17.83-.46-29.78-.74,13.55-54.02,20.11-81.38,32.96-135.34,11.92.06,17.86.09,29.7.16-12.86,54.2-19.41,81.68-32.88,135.93Z" fill="url(#linear-gradient-9)"/><path d="M1241.63,544.29c-11.79-.34-17.69-.51-29.54-.83,16.98-68.66,25.18-103.63,41.25-171.86,11.81,0,17.69,0,29.43.01-16.07,68.55-24.27,103.7-41.15,172.68Z" fill="url(#linear-gradient-10)"/><path d="M1284.36,545.59c-11.72-.37-17.59-.55-29.35-.9,13.33-54.73,19.85-82.47,32.69-137.17,11.72.08,17.57.12,29.24.2-12.82,54.98-19.33,82.87-32.58,137.87Z" fill="url(#linear-gradient-11)"/><path d="M1850.56,151.14c-152.14.27-219.77,3.05-357.95,7.71-3.02.1-4.87-2.42-4.11-5.57h0c.75-3.16,3.84-5.82,6.85-5.93,138.17-4.85,205.79-7.77,357.99-7.97,3.32,0,5.43,2.63,4.67,5.86h0c-.76,3.23-4.12,5.9-7.44,5.91Z" fill="#d5d5d7"/><path d="M1844.07,178.84c-151.99.4-219.65,2.86-357.85,7-3.02.09-4.86-2.49-4.1-5.71h0c.76-3.22,3.85-5.93,6.87-6.02,138.19-4.37,205.84-6.97,357.9-7.32,3.32,0,5.41,2.68,4.64,6h0c-.77,3.31-4.13,6.04-7.45,6.05Z" fill="#d5d5d7"/><path d="M1837.5,207.15c-151.82.48-219.5,2.59-357.7,6.18-3.02.08-4.86-2.55-4.09-5.83h0c.77-3.28,3.86-6.02,6.88-6.1,138.2-3.83,205.87-6.1,357.77-6.55,3.32,0,5.4,2.74,4.61,6.12h0c-.79,3.38-4.15,6.17-7.47,6.18Z" fill="#d5d5d7"/><path d="M1830.84,236.01c-151.65.51-219.35,2.26-357.54,5.25-3.02.07-4.85-2.61-4.08-5.95h0c.77-3.33,3.87-6.1,6.89-6.17,138.2-3.25,205.89-5.16,357.61-5.66,3.31-.01,5.38,2.79,4.59,6.24h0c-.79,3.45-4.16,6.28-7.47,6.3Z" fill="#d5d5d7"/><path d="M1824.13,265.37c-151.47.51-219.18,1.87-357.36,4.22-3.02.05-4.85-2.68-4.07-6.05h0c.78-3.38,3.88-6.18,6.9-6.24,138.19-2.63,205.89-4.16,357.44-4.67,3.31-.01,5.37,2.84,4.57,6.34h0c-.8,3.5-4.17,6.39-7.48,6.4Z" fill="#d5d5d7"/><path d="M1817.38,295.16c-151.3.47-219.01,1.44-357.18,3.12-3.02.04-4.84-2.74-4.06-6.15h0c.78-3.42,3.89-6.24,6.91-6.28,138.17-1.97,205.89-3.12,357.26-3.6,3.31-.01,5.36,2.88,4.56,6.43h0c-.8,3.55-4.17,6.47-7.48,6.49Z" fill="#d5d5d7"/><path d="M1738.33,679.23c-261.21-7.37-521.99-19.91-783.19-27.44-1.95,0-3.09-1.59-2.54-3.53h0c.56-1.94,2.62-3.52,4.57-3.51,261.02,7.38,521.63,19.66,782.65,26.88,1.96,0,3.22,1.72,2.81,3.81h0c-.41,2.09-2.35,3.79-4.3,3.79Z" fill="#d5d5d7"/><path d="M1734.93,696.71c-261.68-7.68-522.87-20.82-784.54-28.68-1.96,0-3.09-1.59-2.52-3.52h0c.57-1.93,2.63-3.5,4.59-3.49,261.47,7.72,522.47,20.6,783.94,28.15,1.96,0,3.23,1.71,2.83,3.78h0c-.4,2.07-2.33,3.76-4.29,3.76Z" fill="#d5d5d7"/><path d="M1731.59,714.04c-262.19-7.97-523.84-21.68-786.02-29.84-1.96,0-3.09-1.58-2.51-3.5h0c.58-1.92,2.65-3.49,4.61-3.48,261.96,8.03,523.41,21.49,785.37,29.35,1.96,0,3.24,1.69,2.85,3.75h0c-.39,2.05-2.32,3.72-4.28,3.72Z" fill="#d5d5d7"/><path d="M1728.32,731.2c-262.75-8.23-524.91-22.48-787.65-30.91-1.96,0-3.09-1.57-2.5-3.48h0c.58-1.91,2.67-3.47,4.63-3.46,262.49,8.31,524.43,22.33,786.93,30.46,1.96,0,3.25,1.67,2.87,3.7h0c-.39,2.03-2.31,3.69-4.27,3.69Z" fill="#d5d5d7"/><path d="M1725.13,748.17c-263.35-8.47-526.07-23.22-789.42-31.89-1.96,0-3.09-1.56-2.49-3.45h0c.59-1.9,2.69-3.45,4.65-3.44,263.08,8.57,525.55,23.11,788.64,31.48,1.97,0,3.27,1.66,2.89,3.67h0c-.38,2.01-2.29,3.65-4.26,3.64Z" fill="#d5d5d7"/><path d="M1722.01,764.94c-264.01-8.67-527.34-23.9-791.34-32.77-1.97,0-3.09-1.54-2.48-3.43h0c.6-1.88,2.71-3.43,4.67-3.42,263.71,8.79,526.77,23.82,790.49,32.4,1.97,0,3.28,1.63,2.91,3.62h0c-.37,1.99-2.28,3.61-4.25,3.6Z" fill="#d5d5d7"/><path d="M1793,404.86c-150.74.16-218.54-.41-356.76-1.31-3.02-.02-4.83-2.91-4.04-6.42h0c.8-3.51,3.92-6.37,6.93-6.35,138.2.58,205.98.96,356.78.76,3.29,0,5.34,2.99,4.53,6.65h0c-.8,3.67-4.16,6.67-7.45,6.68Z" fill="#d5d5d7"/><path d="M1786.26,435.81c-150.63.04-218.48-.96-356.75-2.62-3.02-.04-4.83-2.95-4.03-6.47h0c.8-3.52,3.92-6.38,6.94-6.35,138.24,1.33,206.07,2.14,356.74,2.05,3.29,0,5.33,3.01,4.54,6.68h0c-.8,3.68-4.15,6.7-7.44,6.7Z" fill="#d5d5d7"/><path d="M1779.58,466.84c-150.55-.08-218.46-1.52-356.81-3.93-3.02-.05-4.83-2.98-4.03-6.51h0c.8-3.53,3.93-6.38,6.95-6.33,138.31,2.08,206.19,3.34,356.77,3.36,3.29,0,5.34,3.01,4.54,6.71h0c-.79,3.69-4.14,6.71-7.42,6.71Z" fill="#d5d5d7"/><path d="M1772.96,497.88c-150.5-.19-218.49-2.07-356.96-5.23-3.02-.07-4.84-3.01-4.03-6.54h0c.8-3.53,3.94-6.37,6.96-6.31,138.42,2.83,206.37,4.53,356.88,4.67,3.29,0,5.34,3.02,4.56,6.71h0c-.78,3.69-4.12,6.71-7.41,6.7Z" fill="#d5d5d7"/><path d="M1766.42,528.88c-150.49-.29-218.57-2.62-357.2-6.51-3.03-.08-4.84-3.03-4.04-6.56h0c.81-3.53,3.94-6.35,6.97-6.27,138.56,3.57,206.59,5.71,357.08,5.96,3.29,0,5.35,3.02,4.57,6.71h0c-.77,3.68-4.1,6.69-7.39,6.68Z" fill="#d5d5d7"/><path d="M1759.98,559.77c-150.53-.39-218.72-3.14-357.55-7.76-3.03-.1-4.85-3.06-4.04-6.57h0c.81-3.51,3.95-6.32,6.98-6.22,138.74,4.31,206.88,6.87,357.39,7.23,3.29,0,5.36,3.02,4.6,6.68h0c-.76,3.67-4.08,6.66-7.36,6.65Z" fill="#d5d5d7"/><path d="M1064.99,581.84c-1.29,4.88-6.13,8.76-10.81,8.67-4.68-.08-7.43-4.08-6.14-8.95,1.29-4.87,6.14-8.77,10.82-8.7,4.68.07,7.42,4.1,6.13,8.97Z" fill="url(#linear-gradient-12)"/><path d="M1056.55,613.31c-1.32,4.85-6.18,8.69-10.87,8.6-4.69-.09-7.43-4.07-6.1-8.91,1.32-4.84,6.2-8.71,10.88-8.63,4.69.08,7.41,4.09,6.1,8.94Z" fill="url(#linear-gradient-13)"/><path d="M1278.26,591.89c-77.91-3.05-116.94-4.53-197.98-6.16-.95-.02-1.52-.85-1.25-1.86.37-1.41.56-2.12.93-3.53.26-1,1.26-1.81,2.21-1.79,81.01,1.58,120.02,3.02,197.89,5.97.92.04,1.46.91,1.21,1.94-.35,1.45-.53,2.18-.89,3.63-.25,1.03-1.21,1.84-2.13,1.8Z" fill="#d5d5d7"/><path d="M1270.75,622.35c-78.1-3.43-117.23-5.1-198.41-6.93-.96-.02-1.52-.85-1.25-1.85.38-1.4.57-2.11.95-3.51.27-1,1.27-1.8,2.23-1.78,81.14,1.78,120.25,3.41,198.3,6.75.92.04,1.46.91,1.21,1.93-.36,1.44-.53,2.16-.89,3.6-.25,1.02-1.21,1.83-2.13,1.78Z" fill="#d5d5d7"/><path d="M1306.04,216.85c-1.12,4.7-5.66,8.61-10.15,8.7-4.49.09-7.22-3.65-6.1-8.34,1.12-4.69,5.67-8.55,10.16-8.66,4.49-.11,7.21,3.6,6.09,8.3Z" fill="url(#linear-gradient-14)"/><path d="M1298.75,247.51c-1.13,4.77-5.68,8.72-10.16,8.79-4.48.08-7.21-3.74-6.08-8.5,1.13-4.76,5.68-8.67,10.17-8.76s7.2,3.69,6.07,8.46Z" fill="url(#linear-gradient-15)"/><path d="M1378.41,218.58c-22.96.57-34.46.85-57.6,1.38-.92.02-1.48-.76-1.25-1.73.32-1.36.49-2.04.81-3.4.23-.97,1.17-1.78,2.09-1.8,23.14-.55,34.64-.84,57.6-1.44.91-.02,1.47.75,1.23,1.73-.32,1.37-.49,2.06-.81,3.43-.23.98-1.17,1.8-2.07,1.82Z" fill="#d5d5d7"/><path d="M1371.52,247.83c-22.96.47-34.46.7-57.59,1.13-.92.02-1.48-.77-1.24-1.76.33-1.38.49-2.07.82-3.45.23-.98,1.17-1.8,2.09-1.82,23.14-.46,34.64-.7,57.59-1.19.91-.02,1.47.77,1.23,1.76-.33,1.39-.49,2.09-.82,3.49-.23.99-1.17,1.82-2.08,1.84Z" fill="#d5d5d7"/><path d="M1333.97,621.48c-2.85-.13-4.27-.2-7.13-.32,46.74-194.11,69.75-305.11,112.28-480.71,2.82-.1,4.23-.15,7.06-.26-42.52,175.75-65.59,286.96-112.21,481.29Z" fill="#d5d5d7"/><path d="M1398.94,330.1l886.56-25.4c36.85-1.79,65.43,31.75,57.81,67.85l-164.99,781.83c-9.11,43.17-48.37,73.22-92.42,70.74l-881.02-49.69c-35.48-2-60.26-35.98-51.31-70.38l193.63-732.9c6.2-23.82,27.16-40.86,51.75-42.05Z" fill="url(#linear-gradient-16)"/><path d="M1379.37,306.07l886.56-25.4c36.85-1.79,65.43,31.75,57.81,67.85l-164.99,781.83c-9.11,43.17-48.37,73.22-92.42,70.74l-881.02-49.69c-35.48-2-60.26-35.98-51.31-70.37l193.63-732.9c6.2-23.82,27.16-40.86,51.75-42.05Z" fill="url(#linear-gradient-17)"/><path d="M2067.76,1175.32l-881-49.69c-9.16-.51-17.51-5.07-22.91-12.49-5.41-7.4-7.18-16.74-4.88-25.63l193.62-732.78c3.4-13.07,14.65-22.23,28.06-22.88,0,0,886.18-25.37,886.27-25.37,11.14,0,19.65,4.09,25.43,11.23,5.8,7.16,8.05,16.45,6.14,25.48l-164.98,781.82c-6.16,29.21-32.3,50.4-62.14,50.4l-3.6-.09Z" fill="#fdfdff"/><path d="M2086.07,1124.89c-297.83-14.14-595.65-28.28-893.47-42.42,61.96-238.36,96.02-364.43,160.6-609.62,295.09-2.69,590.15-7.38,885.21-12.29-51.77,221.18-104.37,442.29-152.33,664.33Z" fill="none" stroke="#d5d5d7" stroke-miterlimit="10" stroke-width="4.77"/><path d="M1339.88,523.33c295.35-1.67,590.68-5.12,886.01-8.84" fill="none" stroke="#d5d5d7" stroke-miterlimit="10" stroke-width="4.77"/><path d="M1327.49,570.26c295.52-.48,591.04-2.53,886.55-4.91" fill="none" stroke="#d5d5d7" stroke-miterlimit="10" stroke-width="4.77"/><path d="M1315.08,617.21c295.64.9,591.29.43,886.93-.43" fill="none" stroke="#d5d5d7" stroke-miterlimit="10" stroke-width="4.77"/><path d="M1302.66,664.16c295.73,2.41,591.47,3.65,887.21,4.47" fill="none" stroke="#d5d5d7" stroke-miterlimit="10" stroke-width="4.77"/><path d="M1290.25,711.07c295.81,4.01,591.62,7.03,887.45,9.61" fill="none" stroke="#d5d5d7" stroke-miterlimit="10" stroke-width="4.77"/><path d="M1277.86,757.93c295.88,5.66,591.78,10.49,887.68,14.87" fill="none" stroke="#d5d5d7" stroke-miterlimit="10" stroke-width="4.77"/><path d="M1265.5,804.7c295.97,7.29,591.96,13.91,887.96,20.09" fill="none" stroke="#d5d5d7" stroke-miterlimit="10" stroke-width="4.77"/><path d="M1253.18,851.36c296.1,8.86,592.21,17.2,888.33,25.13" fill="none" stroke="#d5d5d7" stroke-miterlimit="10" stroke-width="4.77"/><path d="M1240.92,897.87c296.27,10.33,592.56,20.27,888.86,29.84" fill="none" stroke="#d5d5d7" stroke-miterlimit="10" stroke-width="4.77"/><path d="M1228.74,944.22c296.52,11.64,593.05,23,889.59,34.07" fill="none" stroke="#d5d5d7" stroke-miterlimit="10" stroke-width="4.77"/><path d="M1216.63,990.36c296.85,12.74,593.7,25.31,890.56,37.67" fill="none" stroke="#d5d5d7" stroke-miterlimit="10" stroke-width="4.77"/><path d="M1204.63,1036.28c297.27,13.59,594.55,27.1,891.83,40.49" fill="none" stroke="#d5d5d7" stroke-miterlimit="10" stroke-width="4.77"/><path d="M1409.05,472.33c-64.62,245.99-99.21,374.07-160.91,612.78" fill="none" stroke="#d5d5d7" stroke-miterlimit="10" stroke-width="4.77"/><path d="M1631.2,469.8c-53.25,208.54-106.85,417.02-158.49,625.97" fill="none" stroke="#d5d5d7" stroke-miterlimit="10" stroke-width="4.77"/><path d="M1850.8,466.72c-51.82,213.07-104.14,426.06-153.52,639.71" fill="none" stroke="#d5d5d7" stroke-miterlimit="10" stroke-width="4.77"/><path d="M2072.43,463.25c-51.05,217.72-102.8,435.37-150.58,653.84" fill="none" stroke="#d5d5d7" stroke-miterlimit="10" stroke-width="4.77"/><path d="M1513.54,382.51c-54.16.79-81.44,1.16-136.77,1.82-3.73.04-5.99-2.91-5.04-6.57h0c.96-3.66,4.8-6.69,8.52-6.73,55.33-.67,82.59-1.04,136.73-1.84,3.65-.06,5.85,2.9,4.9,6.56h0c-.95,3.66-4.7,6.71-8.35,6.76Z" fill="#d5d5d7"/><path d="M1624.02,380.8c-22.64.37-33.99.55-56.74.9-2.54.04-4.08-2.03-3.42-4.6.41-1.6.61-2.39,1.02-3.99.66-2.57,3.28-4.7,5.81-4.74,22.74-.36,34.08-.54,56.71-.91,2.53-.04,4.06,2.03,3.41,4.6-.4,1.6-.61,2.39-1.01,3.99-.65,2.57-3.25,4.72-5.78,4.75Z" fill="#d5d5d7"/><path d="M1802.78,377.66c-53.27.99-79.83,1.47-133.24,2.38-3.6.06-5.78-2.9-4.86-6.57h0c.92-3.67,4.62-6.72,8.21-6.78,53.37-.92,79.91-1.4,133.14-2.41,3.58-.07,5.79,2.88,4.9,6.56h0c-.89,3.68-4.56,6.75-8.14,6.82Z" fill="#d5d5d7"/><path d="M1751,422.71c-53.39.89-80.05,1.31-133.71,2.12-3.61.05-5.8-2.93-4.85-6.64h0c.94-3.7,4.67-6.77,8.28-6.83,53.62-.83,80.27-1.27,133.62-2.19,3.59-.06,5.78,2.93,4.87,6.65h0c-.92,3.72-4.61,6.83-8.2,6.89Z" fill="#d5d5d7"/><path d="M1912.28,375.57c-22.62.44-33.9.66-56.45,1.1-2.52.05-4.07-2.03-3.45-4.61.38-1.61.58-2.41.96-4.01.62-2.58,3.18-4.73,5.69-4.77,22.53-.44,33.81-.66,56.41-1.11,2.52-.05,4.09,2.02,3.48,4.6-.38,1.6-.57,2.41-.94,4.01-.61,2.59-3.18,4.75-5.7,4.8Z" fill="#d5d5d7"/><path d="M2093.16,371.93c-54.58,1.12-81.55,1.67-135.25,2.73-3.62.07-5.86-2.9-5-6.59h0c.86-3.69,4.52-6.76,8.13-6.83,53.66-1.08,80.62-1.64,135.19-2.77,3.67-.07,6,2.88,5.16,6.58h0c-.84,3.7-4.55,6.8-8.22,6.88Z" fill="#d5d5d7"/><path d="M2206.22,369.61c-23.53.48-35.23.72-58.51,1.2-2.6.05-4.24-2.03-3.65-4.64.37-1.61.55-2.42.91-4.03.59-2.59,3.19-4.75,5.79-4.81,23.28-.49,34.97-.73,58.5-1.22,2.63-.05,4.3,2.02,3.71,4.62-.36,1.61-.55,2.42-.91,4.03-.59,2.6-3.22,4.78-5.85,4.84Z" fill="#d5d5d7"/><path d="M2195.98,414.61c-23.52.44-35.22.67-58.5,1.11-2.6.05-4.23-2.09-3.62-4.74.38-1.65.57-2.47.94-4.12.61-2.65,3.23-4.85,5.82-4.9,23.28-.46,34.98-.68,58.5-1.14,2.63-.05,4.28,2.07,3.68,4.73-.38,1.65-.57,2.48-.94,4.13-.61,2.66-3.26,4.89-5.89,4.94Z" fill="#d5d5d7"/><path d="M1471.8,426.85c-23.01.29-34.56.44-57.77.71-2.59.03-4.16-2.05-3.48-4.62.42-1.6.63-2.4,1.05-4,.68-2.58,3.35-4.7,5.94-4.74,23.2-.28,34.75-.43,57.76-.74,2.57-.04,4.12,2.05,3.45,4.63-.42,1.6-.63,2.4-1.04,4-.67,2.58-3.32,4.72-5.89,4.75Z" fill="#d5d5d7"/><path d="M1570.5,425.51c-22.77.33-34.17.49-57.07.79-2.56.03-4.1-2.05-3.43-4.64.42-1.6.62-2.41,1.04-4.01.67-2.58,3.31-4.72,5.86-4.76,22.89-.32,34.29-.49,57.05-.82,2.54-.04,4.08,2.05,3.41,4.64-.41,1.61-.62,2.41-1.03,4.02-.66,2.59-3.29,4.74-5.83,4.78Z" fill="#d5d5d7"/><path d="M1839.61,429.5c-14.55.25-21.81.37-36.35.62,2.78-11.4,4.16-17.08,6.9-28.39,14.51-.26,21.77-.39,36.3-.66-2.72,11.33-4.09,17.01-6.85,28.43Z" fill="#d5d5d7"/><path d="M1898,428.49c-14.59.26-21.87.38-36.43.63,2.75-11.43,4.11-17.13,6.82-28.46,14.54-.27,21.82-.41,36.39-.68-2.69,11.35-4.05,17.05-6.77,28.51Z" fill="#d5d5d7"/><path d="M1956.61,427.45c-14.65.26-21.97.39-36.58.65,2.72-11.47,4.07-17.17,6.75-28.53,14.59-.28,21.9-.42,36.53-.7-2.66,11.37-4,17.09-6.71,28.58Z" fill="#d5d5d7"/><path d="M2112.64,424.6c-14.93.28-22.37.41-37.22.68,2.67-11.56,3.99-17.3,6.61-28.73,14.84-.29,22.28-.44,37.21-.73-2.62,11.44-3.93,17.2-6.6,28.78Z" fill="#d5d5d7"/><path d="M2027.93,681.08c-96.3-.47-143.8-.71-238.78-1.28,7.43-30.5,11.15-45.75,18.55-76.1,94.79-.26,142.2-.42,238.55-.79-7.29,31.13-10.97,46.8-18.32,78.16Z" fill="none" stroke="#6ea5c4" stroke-miterlimit="10" stroke-width="5.69"/><path d="M1796.71,1572.16l-269.22,278.1c-21.13,21.83-52.35,30.65-81.79,23.1l-503.59-126.21c-6.47-1.66-11.43-5.42-14.67-10.2-2.39-3.52-17.36-56.31-9.07-62.1l289.02-176.12,581.32,35.45,8,37.99Z" fill="url(#linear-gradient-18)"/><path d="M1788.71,1534.17l-269.22,278.1c-21.13,21.83-52.35,30.65-81.79,23.1l-503.59-126.21c-21.04-5.39-26.05-32.98-8.25-45.43l273.53-202.99,589.32,73.43Z" fill="url(#linear-gradient-19)"/><path d="M1855.11,1299.34l2.85,53.13c.27,4.99-.31,9.99-1.7,14.79l-59.55,204.9-8-37.99,66.39-234.83Z" fill="url(#linear-gradient-20)"/><path d="M1310.52,1250.21l518.96,30.11c17.51,1.02,29.49,18.1,24.48,34.91l-65.25,218.94-589.32-73.43,75.59-189.5c6.47-13.59,20.52-21.9,35.54-21.03Z" fill="url(#linear-gradient-21)"/><path d="M1785.9,1533.82l-267.21,276.03c-21.13,21.83-52.35,30.65-81.79,23.1l-503.59-126.21c-8.6-2.2-14.51-8.12-17.29-15.18,2.3,8.11,8.54,15.15,18.1,17.6l503.59,126.21c29.43,7.55,60.65-1.27,81.79-23.1l269.22-278.1-2.81-.35Z" fill="#fff"/><path d="M1779.59,1479.24c-207.15-18.74-325.21-39.14-533.2-61.1,18.72-43.94,26.67-71.42,45.68-117.44,209.7,15.84,314.55,23.77,524.24,39.61-11.06,50.24-26.27,92.49-36.73,138.92Z" fill="url(#linear-gradient-22)"/><path d="M1776.52,1476.21c-207.15-18.74-325.21-39.14-533.2-61.1,18.72-43.94,26.67-71.42,45.68-117.44,209.7,15.84,314.55,23.77,524.24,39.61-11.06,50.24-26.27,92.49-36.73,138.92Z" fill="url(#linear-gradient-23)"/><path d="M1794.07,1351.27c-.45,2.05-1.14,4.32-1.59,6.38-192.59-14.57-292.76-23.22-487.63-38.24-13.43,34.15-20.03,53.95-32.78,85.37-2.73-.23-5.24-.68-7.97-.91,14.11-35.06,20.72-55.32,35.06-91.52,197.38,15.48,297.54,23.9,494.92,38.93Z" fill="url(#linear-gradient-24)"/><path d="M1792.47,1357.65c-9.56,38.24-18.44,65.56-27.77,102.9-193.05-18.21-301.41-35.29-492.64-55.77,12.75-31.42,19.35-51.22,32.78-85.37,194.87,15.02,295.04,23.67,487.63,38.24Z" fill="url(#linear-gradient-25)"/><path d="M1340.07,1543.26c-54.55-8.84-82.12-13.32-140.11-22.44,13.06-10.37,19.32-15.42,30.77-24.95,58.8,8.44,86.37,12.56,140.74,20.72-11.64,10.02-18.03,15.44-31.4,26.68Z" fill="#2e3149"/><path d="M1450.56,1561.18c-20.41-3.3-30.6-4.95-51.06-8.27,13.26-11.62,19.6-17.19,31.08-27.42,20.32,3.07,30.42,4.6,50.67,7.66-11.3,10.4-17.57,16.1-30.69,28.03Z" fill="#2e3149"/><path d="M1516.49,1571.76c-20.56-3.27-30.77-4.91-51.19-8.2,13.08-12.02,19.32-17.76,30.57-28.2,20.26,3.06,30.39,4.58,50.82,7.64-11.08,10.59-17.25,16.45-30.2,28.77Z" fill="#2e3149"/><path d="M1583.29,1582.28c-20.95-3.25-31.31-4.89-51.94-8.15,12.92-12.39,19.08-18.29,30.12-28.92,20.51,3.05,30.83,4.58,51.76,7.65-10.94,10.75-17.06,16.76-29.94,29.43Z" fill="#2e3149"/><path d="M1651.77,1592.76c-21.59-3.25-32.23-4.88-53.3-8.13,12.87-12.74,19-18.78,29.93-29.56,21.08,3.07,31.74,4.61,53.48,7.7-10.98,10.88-17.14,17.01-30.11,29.99Z" fill="#2e3149"/><path d="M1403.57,1603.78c-20.59-3.8-30.87-5.71-51.49-9.55,14.55-12.65,21.76-18.92,35.48-30.9,20.51,3.44,30.72,5.16,51.18,8.57-13.59,12.33-20.75,18.81-35.17,31.88Z" fill="#2e3149"/><path d="M1470.03,1615.93c-20.69-3.74-30.99-5.63-51.59-9.41,14.39-13.19,21.53-19.73,35.08-32.15,20.47,3.4,30.71,5.1,51.3,8.48-13.43,12.77-20.52,19.49-34.79,33.09Z" fill="#2e3149"/><path d="M1537.07,1627.92c-20.95-3.69-31.35-5.55-52.08-9.28,14.24-13.71,21.32-20.49,34.73-33.35,20.65,3.38,31.03,5.06,51.98,8.41-13.36,13.17-20.42,20.13-34.63,34.22Z" fill="#2e3149"/><path d="M1605.18,1639.74c-21.36-3.64-31.93-5.47-52.96-9.16,14.21-14.19,21.28-21.21,34.64-34.46,21.06,3.35,31.68,5.02,53.21,8.36-13.47,13.53-20.59,20.72-34.9,35.26Z" fill="#2e3149"/><path d="M1354.47,1648.42c-20.78-4.37-31.17-6.58-51.95-11.01,14.54-12.71,21.99-19.19,36.66-31.95,20.66,3.99,30.96,5.97,51.6,9.92-14.54,13.19-21.93,19.9-36.31,33.04Z" fill="#2e3149"/><path d="M1421.51,1662.39c-20.84-4.3-31.24-6.46-52.03-10.82,14.33-13.26,21.7-20.03,36.2-33.34,20.64,3.93,30.97,5.89,51.69,9.78-14.38,13.73-21.68,20.72-35.86,34.39Z" fill="#2e3149"/><path d="M1488.83,1676.09c-20.96-4.21-31.4-6.33-52.26-10.6,14.14-13.78,21.43-20.83,35.79-34.68,20.76,3.87,31.17,5.8,52.12,9.62-14.31,14.24-21.57,21.49-35.64,35.66Z" fill="#2e3149"/><path d="M1556.63,1689.5c-21.14-4.11-31.66-6.19-52.65-10.37,14.06-14.27,21.33-21.59,35.64-35.93,21.01,3.81,31.57,5.71,52.87,9.47-14.41,14.7-21.73,22.21-35.86,36.83Z" fill="#2e3149"/><path d="M1307.77,1691.47c-21.06-4.89-31.59-7.36-52.63-12.32,13.25-11.8,20.29-18,34.62-30.57,20.84,4.58,31.26,6.86,52.1,11.38-14.15,12.98-21.09,19.38-34.09,31.51Z" fill="#2e3149"/><path d="M1375.66,1707.06c-21.07-4.78-31.61-7.19-52.68-12.06,12.93-12.22,19.83-18.67,33.93-31.77,20.85,4.5,31.28,6.74,52.17,11.17-13.93,13.49-20.74,20.13-33.42,32.66Z" fill="#2e3149"/><path d="M1443.54,1722.27c-21.05-4.66-31.59-7.01-52.66-11.77,12.62-12.62,19.41-19.32,33.3-32.92,20.9,4.41,31.37,6.6,52.34,10.94-13.79,13.97-20.52,20.84-32.98,33.74Z" fill="#2e3149"/><path d="M1511.29,1737.06c-21-4.52-31.51-6.81-52.56-11.44,12.43-12.99,19.15-19.9,32.93-33.97,20.99,4.31,31.51,6.45,52.6,10.68-13.83,14.41-20.56,21.49-32.97,34.73Z" fill="#2e3149"/><path d="M1268.03,1729.27c-21.5-5.2-32.25-7.83-53.69-13.12,10.66-9.91,16.64-15.35,29.34-26.75,21.12,5.07,31.7,7.59,52.86,12.59-12.41,11.68-18.24,17.24-28.51,27.28Z" fill="#2e3149"/><path d="M1337.26,1745.83c-21.46-5.07-32.21-7.63-53.71-12.81,23.91-23.71,40.19-38.98,73.36-69.8,20.85,4.5,31.28,6.74,52.17,11.17-32.77,31.74-48.8,47.46-71.83,71.43Z" fill="#2e3149"/><path d="M1406.18,1761.91c-21.3-4.91-32-7.4-53.43-12.43,9.68-10.21,15.26-15.94,27.25-28.05,21.15,4.85,31.72,7.26,52.81,12.01-11.8,12.36-17.26,18.17-26.64,28.48Z" fill="#2e3149"/><path d="M1474.39,1777.44c-21.02-4.73-31.6-7.13-52.84-12,9.31-10.32,14.75-16.17,26.5-28.59,21.08,4.72,31.6,7.05,52.59,11.65-11.71,12.64-17.1,18.56-26.25,28.94Z" fill="#2e3149"/><path d="M1202.06,1566.19c-21.22-3.96-31.9-5.95-53.51-9.95,14.27-10.95,21.33-16.4,34.79-26.96,21.96,3.59,32.77,5.38,54.17,8.93-13.72,10.93-20.92,16.59-35.45,27.98Z" fill="#2e3149"/><path d="M1269.8,1578.86c-20.85-3.91-31.33-5.87-52.45-9.82,14.58-11.52,21.8-17.24,35.56-28.28,21.25,3.54,31.75,5.29,52.61,8.79-13.83,11.4-21.08,17.34-35.72,29.3Z" fill="#2e3149"/><path d="M1336.61,1591.35c-20.64-3.85-30.98-5.79-51.77-9.68,14.64-12.09,21.9-18.08,35.72-29.6,20.77,3.49,31.07,5.22,51.62,8.67-13.75,11.87-20.98,18.08-35.56,30.6Z" fill="#2e3149"/><path d="M1152.4,1605.01c-21-4.57-31.52-6.87-52.67-11.48,14.4-10.99,21.74-16.56,36.14-27.58,21.48,4.16,32.12,6.23,53.28,10.35-14.67,11.47-22.12,17.28-36.76,28.72Z" fill="#2e3149"/><path d="M1219.83,1619.64c-20.86-4.51-31.31-6.78-52.27-11.34,14.67-11.57,22.14-17.44,36.85-29.04,21.08,4.11,31.54,6.15,52.39,10.21-14.77,12.05-22.28,18.17-36.98,30.18Z" fill="#2e3149"/><path d="M1286.92,1634.09c-20.79-4.45-31.19-6.69-52.03-11.19,14.68-12.14,22.19-18.32,36.96-30.5,20.8,4.05,31.15,6.06,51.83,10.07-14.7,12.63-22.17,19.04-36.75,31.62Z" fill="#2e3149"/><path d="M1104.34,1642.83c-20.86-5.12-31.27-7.69-52.03-12.86,13.45-10.46,20.5-15.86,34.76-26.77,21.03,4.77,31.52,7.14,52.47,11.87-14.47,11.34-21.62,16.95-35.21,27.76Z" fill="#2e3149"/><path d="M1171.72,1659.24c-20.96-5.06-31.42-7.61-52.3-12.71,13.6-10.91,20.75-16.58,35.25-28.05,20.93,4.71,31.38,7.06,52.25,11.73-14.51,11.89-21.66,17.77-35.2,29.03Z" fill="#2e3149"/><path d="M1239.37,1675.42c-21.03-4.98-31.53-7.49-52.5-12.54,13.5-11.36,20.64-17.29,35.13-29.31,20.87,4.65,31.29,6.97,52.13,11.57-14.38,12.44-21.44,18.58-34.76,30.28Z" fill="#2e3149"/><path d="M1061.75,1677.37c-20.88-5.47-31.24-8.22-51.78-13.72,11.4-9.35,17.63-14.31,30.64-24.53,20.69,5.28,31.08,7.91,51.92,13.14-13.13,10.53-19.39,15.61-30.79,25.11Z" fill="#2e3149"/><path d="M1129.58,1694.89c-21.2-5.41-31.76-8.12-52.72-13.58,11.37-9.54,17.62-14.66,30.75-25.28,20.89,5.22,31.37,7.83,52.37,13-13.04,10.92-19.23,16.17-30.4,25.86Z" fill="#2e3149"/><path d="M1198.27,1712.17c-21.41-5.32-32.09-7.99-53.35-13.38,11.09-9.73,17.25-15.01,30.24-26.02,21.03,5.16,31.57,7.72,52.68,12.82-12.77,11.31-18.8,16.71-29.57,26.58Z" fill="#2e3149"/><path d="M1338.29,1540.18c-54.55-8.84-82.12-13.32-140.11-22.44,13.06-10.37,19.32-15.42,30.77-24.95,58.8,8.44,86.37,12.56,140.74,20.72-11.64,10.02-18.03,15.44-31.4,26.68Z" fill="url(#linear-gradient-26)"/><path d="M1448.78,1558.1c-20.41-3.3-30.6-4.95-51.06-8.27,13.26-11.62,19.6-17.19,31.08-27.42,20.32,3.07,30.42,4.6,50.67,7.66-11.3,10.39-17.57,16.1-30.69,28.03Z" fill="url(#linear-gradient-27)"/><path d="M1514.71,1568.69c-20.56-3.27-30.77-4.91-51.19-8.2,13.08-12.02,19.32-17.76,30.57-28.2,20.26,3.06,30.39,4.58,50.82,7.64-11.08,10.59-17.25,16.45-30.2,28.77Z" fill="url(#linear-gradient-28)"/><path d="M1581.52,1579.2c-20.95-3.25-31.31-4.89-51.94-8.15,12.92-12.4,19.08-18.29,30.12-28.92,20.51,3.05,30.83,4.58,51.76,7.65-10.94,10.75-17.06,16.76-29.94,29.43Z" fill="url(#linear-gradient-29)"/><path d="M1649.99,1589.69c-21.59-3.25-32.23-4.88-53.3-8.13,12.87-12.74,19-18.78,29.93-29.56,21.08,3.07,31.74,4.61,53.48,7.7-10.98,10.88-17.14,17.01-30.11,29.99Z" fill="url(#linear-gradient-30)"/><path d="M1401.8,1600.71c-20.59-3.8-30.87-5.71-51.49-9.55,14.55-12.65,21.76-18.92,35.48-30.9,20.51,3.44,30.72,5.16,51.18,8.57-13.59,12.33-20.75,18.81-35.17,31.88Z" fill="url(#linear-gradient-31)"/><path d="M1468.26,1612.86c-20.69-3.74-30.99-5.63-51.59-9.41,14.39-13.19,21.53-19.73,35.08-32.15,20.47,3.4,30.71,5.1,51.3,8.48-13.43,12.77-20.52,19.49-34.79,33.09Z" fill="url(#linear-gradient-32)"/><path d="M1535.3,1624.84c-20.95-3.69-31.35-5.55-52.08-9.28,14.24-13.71,21.32-20.49,34.73-33.35,20.65,3.38,31.03,5.06,51.98,8.41-13.36,13.17-20.42,20.13-34.63,34.22Z" fill="url(#linear-gradient-33)"/><path d="M1603.41,1636.66c-21.36-3.64-31.93-5.47-52.96-9.16,14.21-14.19,21.28-21.21,34.64-34.46,21.06,3.35,31.68,5.02,53.21,8.36-13.47,13.53-20.59,20.72-34.9,35.26Z" fill="url(#linear-gradient-34)"/><path d="M1352.69,1645.35c-20.78-4.37-31.17-6.58-51.95-11.01,14.54-12.71,21.99-19.19,36.66-31.95,20.66,3.99,30.96,5.97,51.6,9.92-14.54,13.19-21.93,19.9-36.31,33.04Z" fill="url(#linear-gradient-35)"/><path d="M1419.73,1659.32c-20.84-4.3-31.24-6.46-52.03-10.82,14.33-13.26,21.7-20.03,36.2-33.34,20.64,3.93,30.97,5.89,51.69,9.78-14.38,13.73-21.68,20.72-35.86,34.39Z" fill="url(#linear-gradient-36)"/><path d="M1487.05,1673.02c-20.96-4.21-31.4-6.33-52.26-10.6,14.14-13.78,21.43-20.83,35.79-34.68,20.76,3.87,31.17,5.8,52.12,9.62-14.31,14.24-21.57,21.49-35.64,35.66Z" fill="url(#linear-gradient-37)"/><path d="M1554.85,1686.42c-21.14-4.11-31.66-6.19-52.65-10.37,14.06-14.27,21.33-21.59,35.64-35.93,21.01,3.81,31.57,5.71,52.87,9.47-14.41,14.7-21.73,22.21-35.86,36.83Z" fill="url(#linear-gradient-38)"/><path d="M1305.99,1688.4c-21.06-4.89-31.59-7.36-52.63-12.32,13.25-11.8,20.29-18,34.62-30.57,20.84,4.58,31.26,6.86,52.1,11.38-14.15,12.98-21.09,19.38-34.09,31.51Z" fill="url(#linear-gradient-39)"/><path d="M1373.89,1703.98c-21.07-4.78-31.61-7.19-52.68-12.06,12.93-12.22,19.83-18.67,33.93-31.77,20.85,4.5,31.28,6.74,52.17,11.17-13.93,13.49-20.74,20.13-33.42,32.66Z" fill="url(#linear-gradient-40)"/><path d="M1441.76,1719.19c-21.05-4.66-31.59-7.01-52.66-11.77,12.62-12.62,19.41-19.32,33.3-32.92,20.9,4.41,31.37,6.6,52.34,10.94-13.79,13.97-20.52,20.84-32.98,33.74Z" fill="url(#linear-gradient-41)"/><path d="M1509.52,1733.99c-21-4.52-31.51-6.81-52.56-11.44,12.43-12.99,19.15-19.9,32.93-33.97,20.99,4.31,31.51,6.45,52.6,10.68-13.83,14.41-20.56,21.49-32.97,34.73Z" fill="url(#linear-gradient-42)"/><path d="M1266.25,1726.2c-21.5-5.2-32.25-7.83-53.69-13.12,10.66-9.91,16.64-15.35,29.34-26.75,21.12,5.07,31.7,7.59,52.86,12.59-12.41,11.68-18.24,17.24-28.51,27.28Z" fill="url(#linear-gradient-43)"/><path d="M1335.49,1742.75c-21.46-5.07-32.21-7.63-53.71-12.81,23.91-23.71,40.19-38.98,73.36-69.8,20.85,4.5,31.28,6.74,52.17,11.17-32.77,31.74-48.8,47.46-71.82,71.43Z" fill="url(#linear-gradient-44)"/><path d="M1404.41,1758.83c-21.3-4.91-32-7.4-53.43-12.43,9.68-10.21,15.26-15.94,27.25-28.05,21.15,4.85,31.72,7.26,52.81,12.01-11.8,12.36-17.26,18.17-26.64,28.48Z" fill="url(#linear-gradient-45)"/><path d="M1472.61,1774.36c-21.02-4.73-31.6-7.13-52.84-12,9.31-10.32,14.75-16.17,26.5-28.59,21.08,4.72,31.6,7.05,52.59,11.65-11.71,12.64-17.1,18.56-26.25,28.94Z" fill="url(#linear-gradient-46)"/><path d="M1200.29,1563.11c-21.22-3.96-31.9-5.95-53.51-9.95,14.27-10.95,21.33-16.4,34.79-26.96,21.96,3.59,32.77,5.38,54.17,8.93-13.72,10.93-20.92,16.59-35.45,27.98Z" fill="url(#linear-gradient-47)"/><path d="M1268.03,1575.78c-20.85-3.91-31.33-5.87-52.45-9.82,14.58-11.52,21.8-17.24,35.56-28.28,21.25,3.54,31.75,5.29,52.61,8.79-13.83,11.4-21.08,17.34-35.72,29.3Z" fill="url(#linear-gradient-48)"/><path d="M1334.84,1588.28c-20.64-3.85-30.98-5.79-51.77-9.68,14.64-12.09,21.9-18.08,35.72-29.6,20.77,3.49,31.07,5.22,51.62,8.67-13.75,11.87-20.98,18.08-35.56,30.6Z" fill="url(#linear-gradient-49)"/><path d="M1150.63,1601.93c-21-4.57-31.52-6.87-52.67-11.48,14.4-10.99,21.74-16.56,36.14-27.58,21.48,4.16,32.12,6.23,53.28,10.35-14.67,11.47-22.12,17.28-36.76,28.72Z" fill="url(#linear-gradient-50)"/><path d="M1218.05,1616.57c-20.86-4.51-31.31-6.78-52.27-11.34,14.67-11.57,22.14-17.44,36.86-29.04,21.08,4.11,31.54,6.15,52.39,10.21-14.77,12.05-22.28,18.17-36.98,30.18Z" fill="url(#linear-gradient-51)"/><path d="M1285.15,1631.01c-20.79-4.45-31.19-6.69-52.03-11.19,14.68-12.14,22.19-18.32,36.96-30.5,20.8,4.05,31.15,6.06,51.83,10.07-14.7,12.63-22.17,19.04-36.75,31.62Z" fill="url(#linear-gradient-52)"/><path d="M1102.57,1639.75c-20.86-5.12-31.27-7.69-52.03-12.86,13.45-10.46,20.5-15.86,34.76-26.77,21.03,4.77,31.52,7.14,52.47,11.87-14.47,11.34-21.62,16.95-35.21,27.76Z" fill="url(#linear-gradient-53)"/><path d="M1169.95,1656.16c-20.96-5.06-31.42-7.61-52.3-12.71,13.6-10.91,20.75-16.58,35.25-28.05,20.93,4.71,31.38,7.06,52.25,11.73-14.51,11.89-21.66,17.77-35.2,29.03Z" fill="url(#linear-gradient-54)"/><path d="M1237.59,1672.35c-21.03-4.98-31.53-7.49-52.5-12.54,13.5-11.36,20.64-17.29,35.13-29.31,20.87,4.65,31.29,6.97,52.13,11.57-14.38,12.44-21.44,18.58-34.76,30.28Z" fill="url(#linear-gradient-55)"/><path d="M1059.98,1674.29c-20.88-5.47-31.24-8.22-51.78-13.72,11.4-9.35,17.63-14.31,30.64-24.53,20.69,5.28,31.08,7.91,51.92,13.14-13.13,10.53-19.39,15.61-30.79,25.11Z" fill="url(#linear-gradient-56)"/><path d="M1127.8,1691.82c-21.2-5.41-31.76-8.12-52.72-13.58,11.37-9.54,17.62-14.66,30.75-25.28,20.89,5.22,31.37,7.83,52.37,13-13.04,10.92-19.23,16.17-30.4,25.86Z" fill="url(#linear-gradient-57)"/><path d="M1196.49,1709.1c-21.41-5.32-32.09-7.99-53.35-13.38,11.09-9.73,17.25-15.01,30.24-26.02,21.03,5.16,31.57,7.72,52.68,12.82-12.77,11.31-18.8,16.71-29.57,26.58Z" fill="url(#linear-gradient-58)"/><path d="M1516.34,1357.52h-.2l-12.37,4.78.32-6.47,15.58-6.02,7.05.64-18.73,61.58-8-.71,16.35-53.8Z"/><path d="M1530.34,1414.08l1.55-5.09,8.4-5.78c20.19-13.54,29.68-20.85,32.59-30.12,1.89-6.25.64-12.32-8.49-13.14-5.56-.51-11.02,1.91-14.56,4.02l-.86-6.11c5.31-3.22,12.15-5.31,19.22-4.67,13.18,1.2,15.97,10.8,13.29,19.61-3.45,11.36-14.45,19.79-31.15,31.12l-6.27,4.11-.07.18,27.48,2.51-2.1,6.91-39.04-3.56Z"/><path d="M1580.82,1413.61c1.07-3.49,4.17-5.76,7.46-5.45,3.31.29,4.81,2.96,3.75,6.45-1.04,3.42-3.98,5.8-7.47,5.47-3.29-.29-4.78-3.05-3.73-6.47Z"/><path d="M1648.35,1392.51c-6.37,20.94-17.57,31.79-31.14,30.55-11.96-1.09-16.62-13.09-10.6-33.48,6.27-20.65,18.59-31.21,30.99-30.08,12.92,1.18,16.72,13.41,10.75,33.01ZM1614.85,1390.42c-4.87,16.03-2.72,25.54,4.79,26.23,8.49.78,15.53-8.8,20.32-24.54,4.61-15.14,3.79-25.43-4.79-26.23-7.23-.64-15.23,7.78-20.32,24.54Z"/><path d="M1696.68,1396.91c-6.37,20.94-17.57,31.79-31.14,30.55-11.96-1.09-16.6-13.09-10.6-33.48,6.27-20.65,18.56-31.21,31.01-30.08,12.89,1.18,16.7,13.41,10.73,33.01ZM1663.19,1394.82c-4.87,16.03-2.72,25.54,4.79,26.23,8.47.78,15.53-8.8,20.32-24.54,4.61-15.14,3.79-25.43-4.79-26.23-7.23-.64-15.23,7.78-20.32,24.54Z"/><path d="M1744.99,1401.31c-6.37,20.94-17.57,31.79-31.14,30.55-11.96-1.09-16.6-13.09-10.6-33.48,6.27-20.65,18.56-31.21,31.01-30.08,12.89,1.18,16.7,13.41,10.73,33.01ZM1711.49,1399.22c-4.87,16.03-2.72,25.54,4.79,26.23,8.47.78,15.53-8.8,20.32-24.54,4.61-15.14,3.79-25.43-4.79-26.23-7.23-.64-15.23,7.78-20.32,24.54Z"/><path d="M1041.75,1097.82l-467.86,89.93-32.6,89.38v140.47c-265.17-7.6-475.19-107.32-475.19-229.85,0-22.1-11.89-133.74.89-153.97,60.87-96.36,275.16-76.43,506.91-76.43,210.29,0,390.69,57.87,467.86,140.47Z" fill="url(#linear-gradient-59)"/><path d="M1041.75,957.36l-467.86,89.93-32.6,229.85c-265.17-7.6-475.19-107.32-475.19-229.85s227.41-230.39,507.79-230.39c210.29,0,390.69,57.87,467.86,140.47Z" fill="url(#linear-gradient-60)"/><polygon points="573.89 1047.28 573.89 1187.75 541.29 1417.6 541.29 1277.14 573.89 1047.28" fill="url(#linear-gradient-61)"/><polygon points="1041.75 957.36 1041.75 1097.82 573.89 1187.75 573.89 1047.28 1041.75 957.36" fill="url(#linear-gradient-62)"/><path d="M1037.03,952.48l-466.44,89.66-32.6,229.85c-214.46-6.15-392.84-72.55-453.22-162.54,56.94,92.6,238,161.42,456.53,167.68l32.6-229.85,467.86-89.93c-1.53-1.64-3.11-3.26-4.72-4.87Z" fill="url(#linear-gradient-63)"/><path d="M1125.07,1104.54l-31.7,65.66c-2.76-3.41-5.14-6.9-8.24-10.23l-467.86,89.93-32.6,89.38v140.47c10.87.27,21.74.54,32.6.54,280.39,0,507.79-102.97,507.79-230.39,0-3.72-.84-7.36-1.22-11.04l1.22,1.63v-135.95Z" fill="url(#linear-gradient-64)"/><path d="M1125.07,1109.43c0,127.43-227.41,230.39-507.79,230.39-10.87,0-21.74-.27-32.6-.54l32.6-229.85,467.86-89.93c25.81,27.71,39.94,58.14,39.94,89.93Z" fill="url(#linear-gradient-65)"/><path d="M621.53,1335.15c-10.87,0-21.74-.27-32.6-.54l32.04-225.88-3.69.71-32.6,229.85c10.87.27,21.74.54,32.6.54,213.8,0,396.79-59.87,471.65-144.8-77.37,82.44-257.54,140.12-467.39,140.12Z" fill="url(#linear-gradient-66)"/></g></svg>