<svg width="159" height="159" viewBox="0 0 159 159" fill="none" xmlns="http://www.w3.org/2000/svg">
<path d="M79.5 4.96875C74.0072 4.96875 69.5625 9.41345 69.5625 14.9062C69.5625 18.5746 71.5616 21.7189 74.5312 23.4463V34.7812H49.6875C36.0234 34.7812 24.8438 45.9609 24.8438 59.625V69.5625H9.9375V109.312H24.8438V134.156H134.156V109.312H149.062V69.5625H134.156V59.625C134.156 45.9609 122.977 34.7812 109.312 34.7812H84.4688V23.4463C87.4384 21.7189 89.4375 18.5746 89.4375 14.9062C89.4375 9.41345 84.9928 4.96875 79.5 4.96875ZM49.6875 44.7188H109.312C117.6 44.7188 124.219 51.3373 124.219 59.625V124.219H114.281V99.375H79.5H44.7188V124.219H34.7812V59.625C34.7812 51.3373 41.3998 44.7188 49.6875 44.7188ZM59.625 64.5938C54.1322 64.5938 49.6875 69.0385 49.6875 74.5312C49.6875 80.024 54.1322 84.4688 59.625 84.4688C65.1178 84.4688 69.5625 80.024 69.5625 74.5312C69.5625 69.0385 65.1178 64.5938 59.625 64.5938ZM99.375 64.5938C93.8822 64.5938 89.4375 69.0385 89.4375 74.5312C89.4375 80.024 93.8822 84.4688 99.375 84.4688C104.868 84.4688 109.312 80.024 109.312 74.5312C109.312 69.0385 104.868 64.5938 99.375 64.5938ZM19.875 79.5H24.8438V99.375H19.875V79.5ZM134.156 79.5H139.125V99.375H134.156V79.5ZM54.6562 109.312H64.5938V124.219H54.6562V109.312ZM74.5312 109.312H84.4688V124.219H74.5312V109.312ZM94.4062 109.312H104.344V124.219H94.4062V109.312Z" fill="#483BB7"/>
</svg>
