<svg width="48" height="48" viewBox="0 0 48 48" fill="none" xmlns="http://www.w3.org/2000/svg">
<path d="M18 26C17.6044 26 17.2178 26.1173 16.8889 26.3371C16.56 26.5568 16.3036 26.8692 16.1522 27.2346C16.0009 27.6001 15.9613 28.0022 16.0384 28.3902C16.1156 28.7781 16.3061 29.1345 16.5858 29.4142C16.8655 29.6939 17.2219 29.8844 17.6098 29.9616C17.9978 30.0387 18.3999 29.9991 18.7654 29.8478C19.1308 29.6964 19.4432 29.44 19.6629 29.1111C19.8827 28.7822 20 28.3956 20 28C20 27.4696 19.7893 26.9609 19.4142 26.5858C19.0391 26.2107 18.5304 26 18 26ZM4 24C3.46957 24 2.96086 24.2107 2.58579 24.5858C2.21071 24.9609 2 25.4696 2 26V30C2 30.5304 2.21071 31.0391 2.58579 31.4142C2.96086 31.7893 3.46957 32 4 32C4.53043 32 5.03914 31.7893 5.41421 31.4142C5.78929 31.0391 6 30.5304 6 30V26C6 25.4696 5.78929 24.9609 5.41421 24.5858C5.03914 24.2107 4.53043 24 4 24ZM44 24C43.4696 24 42.9609 24.2107 42.5858 24.5858C42.2107 24.9609 42 25.4696 42 26V30C42 30.5304 42.2107 31.0391 42.5858 31.4142C42.9609 31.7893 43.4696 32 44 32C44.5304 32 45.0391 31.7893 45.4142 31.4142C45.7893 31.0391 46 30.5304 46 30V26C46 25.4696 45.7893 24.9609 45.4142 24.5858C45.0391 24.2107 44.5304 24 44 24ZM34 10H26V7.44C26.6046 7.09098 27.1072 6.58982 27.4581 5.98634C27.809 5.38285 27.9958 4.69805 28 4C28 2.93913 27.5786 1.92172 26.8284 1.17157C26.0783 0.421427 25.0609 0 24 0C22.9391 0 21.9217 0.421427 21.1716 1.17157C20.4214 1.92172 20 2.93913 20 4C20.0042 4.69805 20.191 5.38285 20.5419 5.98634C20.8928 6.58982 21.3954 7.09098 22 7.44V10H14C12.4087 10 10.8826 10.6321 9.75736 11.7574C8.63214 12.8826 8 14.4087 8 16V34C8 35.5913 8.63214 37.1174 9.75736 38.2426C10.8826 39.3679 12.4087 40 14 40H34C35.5913 40 37.1174 39.3679 38.2426 38.2426C39.3679 37.1174 40 35.5913 40 34V16C40 14.4087 39.3679 12.8826 38.2426 11.7574C37.1174 10.6321 35.5913 10 34 10ZM27.44 14L26.44 18H21.56L20.56 14H27.44ZM36 34C36 34.5304 35.7893 35.0391 35.4142 35.4142C35.0391 35.7893 34.5304 36 34 36H14C13.4696 36 12.9609 35.7893 12.5858 35.4142C12.2107 35.0391 12 34.5304 12 34V16C12 15.4696 12.2107 14.9609 12.5858 14.5858C12.9609 14.2107 13.4696 14 14 14H16.44L18 20.48C18.1095 20.9238 18.3677 21.3166 18.7316 21.5932C19.0955 21.8697 19.5431 22.0133 20 22H28C28.4569 22.0133 28.9045 21.8697 29.2684 21.5932C29.6323 21.3166 29.8905 20.9238 30 20.48L31.56 14H34C34.5304 14 35.0391 14.2107 35.4142 14.5858C35.7893 14.9609 36 15.4696 36 16V34ZM30 26C29.6044 26 29.2178 26.1173 28.8889 26.3371C28.56 26.5568 28.3036 26.8692 28.1522 27.2346C28.0009 27.6001 27.9613 28.0022 28.0384 28.3902C28.1156 28.7781 28.3061 29.1345 28.5858 29.4142C28.8655 29.6939 29.2219 29.8844 29.6098 29.9616C29.9978 30.0387 30.3999 29.9991 30.7654 29.8478C31.1308 29.6964 31.4432 29.44 31.6629 29.1111C31.8827 28.7822 32 28.3956 32 28C32 27.4696 31.7893 26.9609 31.4142 26.5858C31.0391 26.2107 30.5304 26 30 26Z" fill="#5A45A8"/>
</svg>
