<?xml version="1.0" encoding="UTF-8"?><svg id="Layer_2" xmlns="http://www.w3.org/2000/svg" xmlns:xlink="http://www.w3.org/1999/xlink" viewBox="0 0 1679.61 1825.6"><defs><linearGradient id="linear-gradient" x1="1197.01" y1="1309.33" x2="1164.85" y2="1342.51" gradientUnits="userSpaceOnUse"><stop offset="0" stop-color="#7f7f7f"/><stop offset="1" stop-color="#444"/></linearGradient><linearGradient id="linear-gradient-2" x1="9566.97" y1="14872.48" x2="9958.38" y2="14872.48" gradientTransform="translate(-2176.37 -3780.58) scale(.34)" xlink:href="#linear-gradient"/><linearGradient id="linear-gradient-3" x1="1071.38" y1="1123.24" x2="1024.79" y2="1152.97" xlink:href="#linear-gradient"/><linearGradient id="linear-gradient-4" x1="2519.43" y1="-386.23" x2="2152.96" y2="75.65" gradientTransform="translate(-1413.95 396.28) rotate(11.92) scale(1 .98) skewX(-1.7)" gradientUnits="userSpaceOnUse"><stop offset="0" stop-color="#fafafa"/><stop offset="1" stop-color="#eaeaea"/></linearGradient><linearGradient id="linear-gradient-5" x1="1863.49" y1="-105.97" x2="2620.17" y2="-105.97" xlink:href="#linear-gradient-4"/><linearGradient id="linear-gradient-6" x1="1944.24" y1="-105.97" x2="2539.42" y2="-105.97" gradientTransform="translate(-1413.95 396.28) rotate(11.92) scale(1 .98) skewX(-1.7)" gradientUnits="userSpaceOnUse"><stop offset="0" stop-color="#dd2f2f"/><stop offset="1" stop-color="#ff6757"/></linearGradient><linearGradient id="linear-gradient-7" x1="2021.34" y1="-105.97" x2="2462.32" y2="-105.97" xlink:href="#linear-gradient-4"/><linearGradient id="linear-gradient-8" x1="4526.08" y1="2438.98" x2="4967.03" y2="2438.98" gradientTransform="translate(-2018.58 -1519.11) rotate(11.93) scale(.69 .67) skewX(-1.7)" xlink:href="#linear-gradient-6"/><linearGradient id="linear-gradient-9" x1="4646.66" y1="2438.96" x2="4846.52" y2="2438.96" gradientTransform="translate(-2018.58 -1519.11) rotate(11.93) scale(.69 .67) skewX(-1.7)" xlink:href="#linear-gradient-4"/><linearGradient id="linear-gradient-10" x1="347.19" y1="381.87" x2="495.14" y2="332.55" gradientUnits="userSpaceOnUse"><stop offset="0" stop-color="#fafafa"/><stop offset="1" stop-color="#bfbfbf"/></linearGradient><linearGradient id="linear-gradient-11" x1="582.59" y1="209.58" x2="507.22" y2="320.31" xlink:href="#linear-gradient-10"/><linearGradient id="linear-gradient-12" x1="406.84" y1="493.18" x2="823.81" y2="493.18" xlink:href="#linear-gradient"/><linearGradient id="linear-gradient-13" x1="723.43" y1="1629.62" x2="622.01" y2="1270.33" gradientTransform="matrix(1,0,0,1,0,0)" xlink:href="#linear-gradient-6"/><linearGradient id="linear-gradient-14" x1="411.26" y1="1454.14" x2="874.66" y2="1454.14" gradientTransform="matrix(1,0,0,1,0,0)" xlink:href="#linear-gradient-6"/><linearGradient id="linear-gradient-15" x1="638.7" y1="1477.24" x2="616.57" y2="1398.85" gradientTransform="matrix(1,0,0,1,0,0)" xlink:href="#linear-gradient-6"/><linearGradient id="linear-gradient-16" x1="-8672.61" y1="770.78" x2="-8724.34" y2="867.77" gradientTransform="translate(-7313.5) rotate(-180) scale(1 -1)" gradientUnits="userSpaceOnUse"><stop offset="0" stop-color="#82fb7c"/><stop offset="1" stop-color="#0ba2b3"/></linearGradient><linearGradient id="linear-gradient-17" x1="-8817.64" y1="837.35" x2="-8783.69" y2="1047.49" xlink:href="#linear-gradient-16"/><linearGradient id="linear-gradient-18" x1="-8618.38" y1="1033.97" x2="-8815.59" y2="759.16" xlink:href="#linear-gradient-16"/><linearGradient id="linear-gradient-19" x1="3961.47" y1="-2016.18" x2="3865.08" y2="-1751.42" gradientTransform="translate(-4247.96 176.25) rotate(32.79) scale(1 .99) skewX(-6.77)" gradientUnits="userSpaceOnUse"><stop offset="0" stop-color="#adadad"/><stop offset="1" stop-color="#e5e5e5"/></linearGradient><linearGradient id="linear-gradient-20" x1="334.28" y1="788.18" x2="386.55" y2="748.99" gradientTransform="matrix(1,0,0,1,0,0)" xlink:href="#linear-gradient-19"/><linearGradient id="linear-gradient-21" x1="353.42" y1="739.4" x2="363.18" y2="732.08" gradientTransform="matrix(1,0,0,1,0,0)" xlink:href="#linear-gradient-19"/><linearGradient id="linear-gradient-22" x1="241.98" y1="697.14" x2="276.94" y2="670.91" gradientTransform="matrix(1,0,0,1,0,0)" xlink:href="#linear-gradient-19"/><linearGradient id="linear-gradient-23" x1="115.63" y1="696.95" x2="127.15" y2="688.31" gradientTransform="matrix(1,0,0,1,0,0)" xlink:href="#linear-gradient-19"/><linearGradient id="linear-gradient-24" x1="21.22" y1="863.86" x2="45.61" y2="845.57" gradientTransform="matrix(1,0,0,1,0,0)" xlink:href="#linear-gradient-19"/><linearGradient id="linear-gradient-25" x1="70.84" y1="998.99" x2="122.71" y2="960.09" gradientTransform="matrix(1,0,0,1,0,0)" xlink:href="#linear-gradient-19"/><linearGradient id="linear-gradient-26" x1="190.97" y1="1045.12" x2="236.31" y2="1011.11" gradientTransform="matrix(1,0,0,1,0,0)" xlink:href="#linear-gradient-19"/><linearGradient id="linear-gradient-27" x1="318.04" y1="982.76" x2="335.42" y2="969.72" gradientTransform="matrix(1,0,0,1,0,0)" xlink:href="#linear-gradient-19"/><linearGradient id="linear-gradient-28" x1="299.84" y1="1028.04" x2="348.48" y2="991.55" gradientTransform="matrix(1,0,0,1,0,0)" xlink:href="#linear-gradient-19"/><linearGradient id="linear-gradient-29" x1="164.98" y1="1064" x2="201.19" y2="1036.85" gradientTransform="matrix(1,0,0,1,0,0)" xlink:href="#linear-gradient-19"/><linearGradient id="linear-gradient-30" x1="377.91" y1="893.6" x2="415.58" y2="865.35" gradientTransform="matrix(1,0,0,1,0,0)" xlink:href="#linear-gradient-19"/><linearGradient id="linear-gradient-31" x1="307.71" y1="946.2" x2="360.04" y2="906.96" gradientTransform="matrix(1,0,0,1,0,0)" xlink:href="#linear-gradient-19"/><linearGradient id="linear-gradient-32" x1="215.77" y1="1015.91" x2="169.38" y2="668.02" gradientTransform="matrix(1,0,0,1,0,0)" xlink:href="#linear-gradient-4"/><linearGradient id="linear-gradient-33" x1="1128.17" y1="402.01" x2="1436.79" y2="402.01" gradientUnits="userSpaceOnUse"><stop offset="0" stop-color="#fe7f0a"/><stop offset="1" stop-color="#ffb538"/></linearGradient><linearGradient id="linear-gradient-34" x1="-4217.04" y1="3102.78" x2="-4421.31" y2="3224.4" gradientTransform="translate(2735.96 -3657.19) rotate(-38.82)" xlink:href="#linear-gradient-16"/><linearGradient id="linear-gradient-35" x1="-4525.67" y1="3160.86" x2="-4130.2" y2="3160.86" gradientTransform="translate(2735.96 -3657.19) rotate(-38.82)" xlink:href="#linear-gradient-16"/><linearGradient id="linear-gradient-36" x1="329.32" y1="6049.58" x2="299.08" y2="6067.59" gradientTransform="translate(944.95 -4491.83)" gradientUnits="userSpaceOnUse"><stop offset="0" stop-color="#fbfbfb"/><stop offset="1" stop-color="#e5e5e5"/></linearGradient><linearGradient id="linear-gradient-37" x1="379.02" y1="6032.51" x2="340.75" y2="6055.29" gradientTransform="translate(940.99 -4500.88)" xlink:href="#linear-gradient-36"/><linearGradient id="linear-gradient-38" x1="427.95" y1="6018.57" x2="383.12" y2="6045.26" gradientTransform="translate(937.57 -4509.99)" xlink:href="#linear-gradient-36"/><linearGradient id="linear-gradient-39" x1="477.48" y1="6002.16" x2="424.94" y2="6033.45" gradientTransform="translate(933.7 -4519.05)" xlink:href="#linear-gradient-36"/><linearGradient id="linear-gradient-40" x1="515.53" y1="6032.51" x2="477.26" y2="6055.3" gradientTransform="translate(938.05 -4528.97)" xlink:href="#linear-gradient-36"/><linearGradient id="linear-gradient-41" x1="-11801.24" y1="330.95" x2="-11810.33" y2="28.6" gradientTransform="translate(-10991.19) rotate(-180) scale(1 -1)" xlink:href="#linear-gradient-6"/><linearGradient id="linear-gradient-42" x1="-11808.81" y1="21.44" x2="-11755.94" y2="337.83" gradientTransform="translate(-10991.19) rotate(-180) scale(1 -1)" xlink:href="#linear-gradient-6"/></defs><g id="Layer_4"><g opacity=".17"><ellipse cx="227.59" cy="1032.73" rx="227.59" ry="99.97" fill="#4c0000" opacity="0"/><ellipse cx="227.59" cy="1032.73" rx="222.08" ry="97.55" fill="#4a0101" opacity=".04"/><ellipse cx="227.59" cy="1032.73" rx="216.57" ry="95.13" fill="#480202" opacity=".08"/><ellipse cx="227.59" cy="1032.73" rx="211.07" ry="92.71" fill="#460303" opacity=".12"/><ellipse cx="227.59" cy="1032.73" rx="205.56" ry="90.29" fill="#440404" opacity=".15"/><ellipse cx="227.59" cy="1032.73" rx="200.05" ry="87.87" fill="#420505" opacity=".19"/><ellipse cx="227.59" cy="1032.73" rx="194.54" ry="85.45" fill="#400606" opacity=".23"/><ellipse cx="227.59" cy="1032.73" rx="189.03" ry="83.03" fill="#3e0606" opacity=".27"/><ellipse cx="227.59" cy="1032.73" rx="183.53" ry="80.62" fill="#3c0707" opacity=".31"/><ellipse cx="227.59" cy="1032.73" rx="178.02" ry="78.2" fill="#3a0808" opacity=".35"/><ellipse cx="227.59" cy="1032.73" rx="172.51" ry="75.78" fill="#380909" opacity=".38"/><ellipse cx="227.59" cy="1032.73" rx="167" ry="73.36" fill="#360a0a" opacity=".42"/><ellipse cx="227.59" cy="1032.73" rx="161.49" ry="70.94" fill="#340b0b" opacity=".46"/><ellipse cx="227.59" cy="1032.73" rx="155.99" ry="68.52" fill="#330c0c" opacity=".5"/><ellipse cx="227.59" cy="1032.73" rx="150.48" ry="66.1" fill="#310d0d" opacity=".54"/><ellipse cx="227.59" cy="1032.73" rx="144.97" ry="63.68" fill="#2f0e0e" opacity=".58"/><ellipse cx="227.59" cy="1032.73" rx="139.46" ry="61.26" fill="#2d0f0f" opacity=".62"/><ellipse cx="227.59" cy="1032.73" rx="133.95" ry="58.84" fill="#2b1010" opacity=".65"/><ellipse cx="227.59" cy="1032.73" rx="128.44" ry="56.42" fill="#291111" opacity=".69"/><ellipse cx="227.59" cy="1032.73" rx="122.94" ry="54" fill="#271212" opacity=".73"/><ellipse cx="227.59" cy="1032.73" rx="117.43" ry="51.58" fill="#251212" opacity=".77"/><ellipse cx="227.59" cy="1032.73" rx="111.92" ry="49.16" fill="#231313" opacity=".81"/><ellipse cx="227.59" cy="1032.73" rx="106.41" ry="46.74" fill="#211414" opacity=".85"/><ellipse cx="227.59" cy="1032.73" rx="100.9" ry="44.32" fill="#1f1515" opacity=".88"/><ellipse cx="227.59" cy="1032.73" rx="95.4" ry="41.9" fill="#1d1616" opacity=".92"/><ellipse cx="227.59" cy="1032.73" rx="89.89" ry="39.48" fill="#1b1717" opacity=".96"/><ellipse cx="227.59" cy="1032.73" rx="84.38" ry="37.06" fill="#191818"/></g><g opacity=".17"><ellipse cx="672.51" cy="1725.62" rx="227.59" ry="99.97" fill="#4c0000" opacity="0"/><ellipse cx="672.51" cy="1725.62" rx="222.08" ry="97.55" fill="#4a0101" opacity=".04"/><ellipse cx="672.51" cy="1725.62" rx="216.57" ry="95.13" fill="#480202" opacity=".08"/><ellipse cx="672.51" cy="1725.62" rx="211.07" ry="92.71" fill="#460303" opacity=".12"/><ellipse cx="672.51" cy="1725.62" rx="205.56" ry="90.29" fill="#440404" opacity=".15"/><ellipse cx="672.51" cy="1725.62" rx="200.05" ry="87.87" fill="#420505" opacity=".19"/><ellipse cx="672.51" cy="1725.62" rx="194.54" ry="85.45" fill="#400606" opacity=".23"/><ellipse cx="672.51" cy="1725.62" rx="189.03" ry="83.03" fill="#3e0606" opacity=".27"/><ellipse cx="672.51" cy="1725.62" rx="183.53" ry="80.62" fill="#3c0707" opacity=".31"/><ellipse cx="672.51" cy="1725.62" rx="178.02" ry="78.2" fill="#3a0808" opacity=".35"/><ellipse cx="672.51" cy="1725.62" rx="172.51" ry="75.78" fill="#380909" opacity=".38"/><ellipse cx="672.51" cy="1725.62" rx="167" ry="73.36" fill="#360a0a" opacity=".42"/><ellipse cx="672.51" cy="1725.62" rx="161.49" ry="70.94" fill="#340b0b" opacity=".46"/><ellipse cx="672.51" cy="1725.62" rx="155.99" ry="68.52" fill="#330c0c" opacity=".5"/><ellipse cx="672.51" cy="1725.62" rx="150.48" ry="66.1" fill="#310d0d" opacity=".54"/><ellipse cx="672.51" cy="1725.62" rx="144.97" ry="63.68" fill="#2f0e0e" opacity=".58"/><ellipse cx="672.51" cy="1725.62" rx="139.46" ry="61.26" fill="#2d0f0f" opacity=".62"/><ellipse cx="672.51" cy="1725.62" rx="133.95" ry="58.84" fill="#2b1010" opacity=".65"/><ellipse cx="672.51" cy="1725.62" rx="128.44" ry="56.42" fill="#291111" opacity=".69"/><ellipse cx="672.51" cy="1725.62" rx="122.94" ry="54" fill="#271212" opacity=".73"/><ellipse cx="672.51" cy="1725.62" rx="117.43" ry="51.58" fill="#251212" opacity=".77"/><ellipse cx="672.51" cy="1725.62" rx="111.92" ry="49.16" fill="#231313" opacity=".81"/><ellipse cx="672.51" cy="1725.62" rx="106.41" ry="46.74" fill="#211414" opacity=".85"/><ellipse cx="672.51" cy="1725.62" rx="100.9" ry="44.32" fill="#1f1515" opacity=".88"/><ellipse cx="672.51" cy="1725.62" rx="95.4" ry="41.9" fill="#1d1616" opacity=".92"/><ellipse cx="672.51" cy="1725.62" rx="89.89" ry="39.48" fill="#1b1717" opacity=".96"/><ellipse cx="672.51" cy="1725.62" rx="84.38" ry="37.06" fill="#191818"/></g><g opacity=".17"><ellipse cx="1300.25" cy="1688.56" rx="227.59" ry="99.97" fill="#4c0000" opacity="0"/><ellipse cx="1300.25" cy="1688.56" rx="222.08" ry="97.55" fill="#4a0101" opacity=".04"/><ellipse cx="1300.25" cy="1688.56" rx="216.57" ry="95.13" fill="#480202" opacity=".08"/><ellipse cx="1300.25" cy="1688.56" rx="211.07" ry="92.71" fill="#460303" opacity=".12"/><ellipse cx="1300.25" cy="1688.56" rx="205.56" ry="90.29" fill="#440404" opacity=".15"/><ellipse cx="1300.25" cy="1688.56" rx="200.05" ry="87.87" fill="#420505" opacity=".19"/><ellipse cx="1300.25" cy="1688.56" rx="194.54" ry="85.45" fill="#400606" opacity=".23"/><ellipse cx="1300.25" cy="1688.56" rx="189.03" ry="83.03" fill="#3e0606" opacity=".27"/><ellipse cx="1300.25" cy="1688.56" rx="183.53" ry="80.62" fill="#3c0707" opacity=".31"/><ellipse cx="1300.25" cy="1688.56" rx="178.02" ry="78.2" fill="#3a0808" opacity=".35"/><ellipse cx="1300.25" cy="1688.56" rx="172.51" ry="75.78" fill="#380909" opacity=".38"/><ellipse cx="1300.25" cy="1688.56" rx="167" ry="73.36" fill="#360a0a" opacity=".42"/><ellipse cx="1300.25" cy="1688.56" rx="161.49" ry="70.94" fill="#340b0b" opacity=".46"/><ellipse cx="1300.25" cy="1688.56" rx="155.99" ry="68.52" fill="#330c0c" opacity=".5"/><ellipse cx="1300.25" cy="1688.56" rx="150.48" ry="66.1" fill="#310d0d" opacity=".54"/><ellipse cx="1300.25" cy="1688.56" rx="144.97" ry="63.68" fill="#2f0e0e" opacity=".58"/><ellipse cx="1300.25" cy="1688.56" rx="139.46" ry="61.26" fill="#2d0f0f" opacity=".62"/><ellipse cx="1300.25" cy="1688.56" rx="133.95" ry="58.84" fill="#2b1010" opacity=".65"/><ellipse cx="1300.25" cy="1688.56" rx="128.44" ry="56.42" fill="#291111" opacity=".69"/><ellipse cx="1300.25" cy="1688.56" rx="122.94" ry="54" fill="#271212" opacity=".73"/><ellipse cx="1300.25" cy="1688.56" rx="117.43" ry="51.58" fill="#251212" opacity=".77"/><ellipse cx="1300.25" cy="1688.56" rx="111.92" ry="49.16" fill="#231313" opacity=".81"/><ellipse cx="1300.25" cy="1688.56" rx="106.41" ry="46.74" fill="#211414" opacity=".85"/><ellipse cx="1300.25" cy="1688.56" rx="100.9" ry="44.32" fill="#1f1515" opacity=".88"/><ellipse cx="1300.25" cy="1688.56" rx="95.4" ry="41.9" fill="#1d1616" opacity=".92"/><ellipse cx="1300.25" cy="1688.56" rx="89.89" ry="39.48" fill="#1b1717" opacity=".96"/><ellipse cx="1300.25" cy="1688.56" rx="84.38" ry="37.06" fill="#191818"/></g><g opacity=".17"><ellipse cx="884.95" cy="1132.7" rx="227.59" ry="99.97" fill="#4c0000" opacity="0"/><ellipse cx="884.95" cy="1132.7" rx="222.08" ry="97.55" fill="#4a0101" opacity=".04"/><ellipse cx="884.95" cy="1132.7" rx="216.57" ry="95.13" fill="#480202" opacity=".08"/><ellipse cx="884.95" cy="1132.7" rx="211.07" ry="92.71" fill="#460303" opacity=".12"/><ellipse cx="884.95" cy="1132.7" rx="205.56" ry="90.29" fill="#440404" opacity=".15"/><ellipse cx="884.95" cy="1132.7" rx="200.05" ry="87.87" fill="#420505" opacity=".19"/><ellipse cx="884.95" cy="1132.7" rx="194.54" ry="85.45" fill="#400606" opacity=".23"/><ellipse cx="884.95" cy="1132.7" rx="189.03" ry="83.03" fill="#3e0606" opacity=".27"/><ellipse cx="884.95" cy="1132.7" rx="183.53" ry="80.62" fill="#3c0707" opacity=".31"/><ellipse cx="884.95" cy="1132.7" rx="178.02" ry="78.2" fill="#3a0808" opacity=".35"/><ellipse cx="884.95" cy="1132.7" rx="172.51" ry="75.78" fill="#380909" opacity=".38"/><ellipse cx="884.95" cy="1132.7" rx="167" ry="73.36" fill="#360a0a" opacity=".42"/><ellipse cx="884.95" cy="1132.7" rx="161.49" ry="70.94" fill="#340b0b" opacity=".46"/><ellipse cx="884.95" cy="1132.7" rx="155.99" ry="68.52" fill="#330c0c" opacity=".5"/><ellipse cx="884.95" cy="1132.7" rx="150.48" ry="66.1" fill="#310d0d" opacity=".54"/><ellipse cx="884.95" cy="1132.7" rx="144.97" ry="63.68" fill="#2f0e0e" opacity=".58"/><ellipse cx="884.95" cy="1132.7" rx="139.46" ry="61.26" fill="#2d0f0f" opacity=".62"/><ellipse cx="884.95" cy="1132.7" rx="133.95" ry="58.84" fill="#2b1010" opacity=".65"/><ellipse cx="884.95" cy="1132.7" rx="128.44" ry="56.42" fill="#291111" opacity=".69"/><ellipse cx="884.95" cy="1132.7" rx="122.94" ry="54" fill="#271212" opacity=".73"/><ellipse cx="884.95" cy="1132.7" rx="117.43" ry="51.58" fill="#251212" opacity=".77"/><ellipse cx="884.95" cy="1132.7" rx="111.92" ry="49.16" fill="#231313" opacity=".81"/><ellipse cx="884.95" cy="1132.7" rx="106.41" ry="46.74" fill="#211414" opacity=".85"/><ellipse cx="884.95" cy="1132.7" rx="100.9" ry="44.32" fill="#1f1515" opacity=".88"/><ellipse cx="884.95" cy="1132.7" rx="95.4" ry="41.9" fill="#1d1616" opacity=".92"/><ellipse cx="884.95" cy="1132.7" rx="89.89" ry="39.48" fill="#1b1717" opacity=".96"/><ellipse cx="884.95" cy="1132.7" rx="84.38" ry="37.06" fill="#191818"/></g><g opacity=".17"><ellipse cx="1452.02" cy="1065.57" rx="227.59" ry="99.97" fill="#4c0000" opacity="0"/><ellipse cx="1452.02" cy="1065.57" rx="222.08" ry="97.55" fill="#4a0101" opacity=".04"/><ellipse cx="1452.02" cy="1065.57" rx="216.57" ry="95.13" fill="#480202" opacity=".08"/><ellipse cx="1452.02" cy="1065.57" rx="211.07" ry="92.71" fill="#460303" opacity=".12"/><ellipse cx="1452.02" cy="1065.57" rx="205.56" ry="90.29" fill="#440404" opacity=".15"/><ellipse cx="1452.02" cy="1065.57" rx="200.05" ry="87.87" fill="#420505" opacity=".19"/><ellipse cx="1452.02" cy="1065.57" rx="194.54" ry="85.45" fill="#400606" opacity=".23"/><ellipse cx="1452.02" cy="1065.57" rx="189.03" ry="83.03" fill="#3e0606" opacity=".27"/><ellipse cx="1452.02" cy="1065.57" rx="183.53" ry="80.62" fill="#3c0707" opacity=".31"/><ellipse cx="1452.02" cy="1065.57" rx="178.02" ry="78.2" fill="#3a0808" opacity=".35"/><ellipse cx="1452.02" cy="1065.57" rx="172.51" ry="75.78" fill="#380909" opacity=".38"/><ellipse cx="1452.02" cy="1065.57" rx="167" ry="73.36" fill="#360a0a" opacity=".42"/><ellipse cx="1452.02" cy="1065.57" rx="161.49" ry="70.94" fill="#340b0b" opacity=".46"/><ellipse cx="1452.02" cy="1065.57" rx="155.99" ry="68.52" fill="#330c0c" opacity=".5"/><ellipse cx="1452.02" cy="1065.57" rx="150.48" ry="66.1" fill="#310d0d" opacity=".54"/><ellipse cx="1452.02" cy="1065.57" rx="144.97" ry="63.68" fill="#2f0e0e" opacity=".58"/><ellipse cx="1452.02" cy="1065.57" rx="139.46" ry="61.26" fill="#2d0f0f" opacity=".62"/><ellipse cx="1452.02" cy="1065.57" rx="133.95" ry="58.84" fill="#2b1010" opacity=".65"/><ellipse cx="1452.02" cy="1065.57" rx="128.44" ry="56.42" fill="#291111" opacity=".69"/><ellipse cx="1452.02" cy="1065.57" rx="122.94" ry="54" fill="#271212" opacity=".73"/><ellipse cx="1452.02" cy="1065.57" rx="117.43" ry="51.58" fill="#251212" opacity=".77"/><ellipse cx="1452.02" cy="1065.57" rx="111.92" ry="49.16" fill="#231313" opacity=".81"/><ellipse cx="1452.02" cy="1065.57" rx="106.41" ry="46.74" fill="#211414" opacity=".85"/><ellipse cx="1452.02" cy="1065.57" rx="100.9" ry="44.32" fill="#1f1515" opacity=".88"/><ellipse cx="1452.02" cy="1065.57" rx="95.4" ry="41.9" fill="#1d1616" opacity=".92"/><ellipse cx="1452.02" cy="1065.57" rx="89.89" ry="39.48" fill="#1b1717" opacity=".96"/><ellipse cx="1452.02" cy="1065.57" rx="84.38" ry="37.06" fill="#191818"/></g><g opacity=".17"><ellipse cx="1239.91" cy="593.15" rx="227.59" ry="99.97" fill="#4c0000" opacity="0"/><ellipse cx="1239.91" cy="593.15" rx="222.08" ry="97.55" fill="#4a0101" opacity=".04"/><ellipse cx="1239.91" cy="593.15" rx="216.57" ry="95.13" fill="#480202" opacity=".08"/><ellipse cx="1239.91" cy="593.15" rx="211.07" ry="92.71" fill="#460303" opacity=".12"/><ellipse cx="1239.91" cy="593.15" rx="205.56" ry="90.29" fill="#440404" opacity=".15"/><ellipse cx="1239.91" cy="593.15" rx="200.05" ry="87.87" fill="#420505" opacity=".19"/><ellipse cx="1239.91" cy="593.15" rx="194.54" ry="85.45" fill="#400606" opacity=".23"/><ellipse cx="1239.91" cy="593.15" rx="189.03" ry="83.03" fill="#3e0606" opacity=".27"/><ellipse cx="1239.91" cy="593.15" rx="183.53" ry="80.62" fill="#3c0707" opacity=".31"/><ellipse cx="1239.91" cy="593.15" rx="178.02" ry="78.2" fill="#3a0808" opacity=".35"/><ellipse cx="1239.91" cy="593.15" rx="172.51" ry="75.78" fill="#380909" opacity=".38"/><ellipse cx="1239.91" cy="593.15" rx="167" ry="73.36" fill="#360a0a" opacity=".42"/><ellipse cx="1239.91" cy="593.15" rx="161.49" ry="70.94" fill="#340b0b" opacity=".46"/><ellipse cx="1239.91" cy="593.15" rx="155.99" ry="68.52" fill="#330c0c" opacity=".5"/><ellipse cx="1239.91" cy="593.15" rx="150.48" ry="66.1" fill="#310d0d" opacity=".54"/><ellipse cx="1239.91" cy="593.15" rx="144.97" ry="63.68" fill="#2f0e0e" opacity=".58"/><ellipse cx="1239.91" cy="593.15" rx="139.46" ry="61.26" fill="#2d0f0f" opacity=".62"/><ellipse cx="1239.91" cy="593.15" rx="133.95" ry="58.84" fill="#2b1010" opacity=".65"/><ellipse cx="1239.91" cy="593.15" rx="128.44" ry="56.42" fill="#291111" opacity=".69"/><ellipse cx="1239.91" cy="593.15" rx="122.94" ry="54" fill="#271212" opacity=".73"/><ellipse cx="1239.91" cy="593.15" rx="117.43" ry="51.58" fill="#251212" opacity=".77"/><ellipse cx="1239.91" cy="593.15" rx="111.92" ry="49.16" fill="#231313" opacity=".81"/><ellipse cx="1239.91" cy="593.15" rx="106.41" ry="46.74" fill="#211414" opacity=".85"/><ellipse cx="1239.91" cy="593.15" rx="100.9" ry="44.32" fill="#1f1515" opacity=".88"/><ellipse cx="1239.91" cy="593.15" rx="95.4" ry="41.9" fill="#1d1616" opacity=".92"/><ellipse cx="1239.91" cy="593.15" rx="89.89" ry="39.48" fill="#1b1717" opacity=".96"/><ellipse cx="1239.91" cy="593.15" rx="84.38" ry="37.06" fill="#191818"/></g><path d="M1200.37,1244.69l24.06,126.5s-112.53-35.46-124.12-45.97,100.07-80.53,100.07-80.53Z" fill="url(#linear-gradient)"/><path d="M1201.51,1256.97c0,37.17-29.72,70.52-66.38,74.49-36.66,3.97-66.38-22.94-66.38-60.1,0-37.17,29.72-70.52,66.38-74.49,36.66-3.97,66.38,22.94,66.38,60.1Z" fill="url(#linear-gradient-2)"/><path d="M993.94,1096.14l116.39,183.58s21.67,14.15,37.39,1.57c15.71-12.57,11.23-28,11.23-28l-180.99-277.37,15.99,120.23Z" fill="url(#linear-gradient-3)"/><path d="M1204.49,835.38c-48.85,200.92-258.41,346.21-468.07,324.51-209.66-21.7-340.02-202.17-291.17-403.1,48.85-200.92,258.41-346.21,468.07-324.51,209.66,21.7,340.02,202.17,291.17,403.1Z" fill="url(#linear-gradient-4)"/><path d="M1183.51,798.21c-48.85,200.92-258.41,346.21-468.07,324.51-209.66-21.7-340.02-202.17-291.17-403.1,48.85-200.92,258.41-346.21,468.07-324.51s340.02,202.17,291.17,403.1Z" fill="url(#linear-gradient-5)"/><path d="M1102.48,789.82c-38.42,158.04-203.25,272.31-368.16,255.24-164.91-17.07-267.44-159.02-229.02-317.06,38.42-158.04,203.25-272.31,368.16-255.24,164.91,17.07,267.45,159.02,229.02,317.06Z" fill="url(#linear-gradient-6)"/><path d="M1025.12,781.81c-28.47,117.09-150.59,201.76-272.78,189.12-122.18-12.65-198.16-117.82-169.69-234.92,28.47-117.09,150.6-201.76,272.78-189.12,122.18,12.65,198.16,117.82,169.69,234.92Z" fill="url(#linear-gradient-7)"/><path d="M956.9,774.74c-19.69,80.97-104.14,139.52-188.63,130.78-84.49-8.75-137.03-81.47-117.34-162.45,19.69-80.97,104.14-139.52,188.63-130.78,84.49,8.75,137.03,81.47,117.34,162.45Z" fill="url(#linear-gradient-8)"/><path d="M873.29,766.07c-8.92,36.7-47.2,63.24-85.5,59.27-38.3-3.96-62.11-36.93-53.18-73.63,8.92-36.7,47.2-63.24,85.5-59.27,38.3,3.96,62.11,36.93,53.18,73.63Z" fill="url(#linear-gradient-9)"/><path d="M1101.03,490.08c74.91,75.88,108.21,186.92,79.48,305.08-48.85,200.92-258.41,346.21-468.07,324.51-84.72-8.77-156.46-43.48-208.69-94.97,52.47,53.15,125.33,89.08,211.69,98.02,209.66,21.7,419.22-123.58,468.07-324.51,29.11-119.73-5.45-232.19-82.48-308.13Z" fill="#fff"/><polygon points="429.02 247.71 274.4 256.14 418.98 437.15 576.68 455.36 429.02 247.71" fill="url(#linear-gradient-10)"/><path d="M458.82,228.82s38.64-135.47,44.93-135.47,130.07,207.34,130.07,207.34l-42.89,129.45-132.11-201.32Z" fill="url(#linear-gradient-11)"/><path d="M821.51,745.29L463.16,218.24c-9.94-14.39-29.84-17.67-43.87-7.22h0c-13.58,10.11-16.49,29.26-6.54,42.95l370.12,527.07s52.39,6.93,38.64-35.75Z" fill="url(#linear-gradient-12)"/><path d="M580.81,1215.43l-135.29,241.96c-8.6,15.38-5.16,34.7,8.23,46.16l232.8,199.34c17.22,14.74,43.52,10.68,55.49-8.57l156.59-251.81c10.15-16.33,6.11-37.71-9.3-49.2l-254.1-189.49c-17.92-13.36-43.5-7.91-54.41,11.6Z" fill="url(#linear-gradient-13)"/><path d="M551.26,1215.43l-135.29,241.96c-8.6,15.38-5.16,34.7,8.23,46.16l232.8,199.34c17.22,14.74,43.52,10.68,55.49-8.57l156.59-251.81c10.15-16.33,6.11-37.71-9.3-49.2l-254.1-189.49c-17.92-13.36-43.5-7.91-54.41,11.6Z" fill="url(#linear-gradient-14)"/><circle cx="640.04" cy="1434.54" r="107.93" fill="#fbfbfd"/><polygon points="652.91 1371.62 583.37 1478.83 694.92 1478.83 652.91 1371.62" fill="url(#linear-gradient-15)"/><path d="M1350.34,785.3c-.63-.26-1.27-.51-1.91-.75-1.3-.48-2.63-.93-3.99-1.36-.61-.19-1.2-.39-1.82-.57-1.98-.57-4.02-1.09-6.13-1.53-1.63-.34-3.22-.55-4.76-.69-.29-.03-.58-.04-.87-.06-1.41-.09-2.8-.13-4.13-.06-.07,0-.15,0-.22,0-.65.04-1.25.17-1.89.24-.9.1-1.82.18-2.68.35-1.43.3-2.82.69-4.16,1.18l37.69-13.89c1.31-.48,2.67-.88,4.08-1.17.03,0,.06,0,.09-.01.87-.18,1.78-.25,2.68-.36.61-.07,1.19-.2,1.81-.24.03,0,.05,0,.05,0,.1,0,.17,0,.25,0,1.34-.07,2.72-.03,4.13.06.29.02.58.03.87.06.22.02.44.02.66.04,1.34.15,2.7.36,4.1.65,1.85.38,3.66.82,5.41,1.3.25.07.48.16.72.23.62.18,1.21.38,1.82.57,1.36.43,2.69.87,3.99,1.36.65.24,1.28.49,1.91.75,1.27.51,2.5,1.06,3.7,1.63.53.25,1.08.49,1.6.76,1.68.84,3.31,1.73,4.87,2.67,1.54.94,3.01,1.94,4.44,2.97.15.11.32.2.47.31.39.29.78.58,1.17.87.22.17.42.35.63.51.53.41,1.04.84,1.55,1.27.59.49,1.17.98,1.73,1.48.5.44.98.89,1.46,1.34.55.52,1.09,1.03,1.61,1.56.47.47.92.94,1.37,1.42.51.54,1.01,1.08,1.5,1.64.43.49.86.98,1.28,1.48.22.26.46.52.68.78.24.29.45.59.68.88.44.56.88,1.12,1.31,1.69.42.56.83,1.13,1.24,1.7.41.58.81,1.16,1.2,1.74.19.28.39.55.57.83.12.18.21.37.33.55,1.15,1.78,2.23,3.6,3.24,5.45.05.09.11.17.15.26.1.19.18.39.29.58.96,1.8,1.86,3.62,2.69,5.46.05.1.11.2.15.31.02.04.03.08.05.11.92,2.05,1.75,4.12,2.53,6.21.07.19.16.37.23.55.04.11.07.23.11.34.87,2.39,1.65,4.79,2.36,7.19.04.15.1.3.15.45.04.14.08.29.12.43.86,2.98,1.6,5.96,2.24,8.92.03.13.06.26.09.39.04.21.08.42.12.63.4,1.9.76,3.79,1.08,5.66.02.11.04.23.06.34.32,1.93.6,3.84.85,5.72.03.19.06.39.09.58.02.18.04.34.06.52.2,1.56.37,3.11.52,4.63.02.2.03.39.05.58.13,1.36.24,2.69.34,4.01.03.4.06.8.08,1.2.09,1.34.17,2.65.23,3.93,0,.12.01.25.02.37.06,1.39.1,2.74.13,4.05,0,.14.01.3.02.44,0,.22,0,.42,0,.64.02,1.01.03,1.99.03,2.94,0,.27,0,.54,0,.8,0,1.17-.01,2.29-.03,3.37,0,.25-.01.47-.02.71-.02.86-.04,1.68-.07,2.48,0,.27-.02.53-.03.79-.04.94-.08,1.84-.12,2.67l-37.69,13.88c.04-.82.08-1.73.12-2.67.01-.26.02-.52.03-.79.03-.79.05-1.62.07-2.48,0-.24.01-.47.02-.71.02-1.08.03-2.2.03-3.37,0-.26,0-.54,0-.8,0-.95-.01-1.93-.03-2.94,0-.36-.01-.72-.02-1.08-.03-1.32-.07-2.66-.13-4.05,0-.12-.01-.25-.02-.38-.06-1.28-.14-2.59-.23-3.93-.03-.4-.06-.8-.09-1.2-.1-1.31-.21-2.65-.34-4.01-.02-.2-.03-.39-.05-.58-.15-1.52-.33-3.07-.52-4.63-.05-.37-.1-.74-.15-1.11-.25-1.89-.52-3.79-.85-5.72-.02-.11-.04-.23-.06-.34-.32-1.87-.68-3.76-1.08-5.66-.07-.34-.14-.68-.21-1.02-.64-2.96-1.38-5.94-2.24-8.92-.08-.29-.18-.59-.26-.88-.71-2.41-1.49-4.81-2.36-7.19-.11-.3-.23-.6-.34-.9-.78-2.09-1.61-4.16-2.53-6.21-.06-.14-.14-.28-.2-.42-.84-1.84-1.74-3.67-2.69-5.46-.15-.28-.29-.56-.44-.84-1.01-1.85-2.09-3.67-3.24-5.45-.3-.46-.59-.92-.9-1.38-.39-.58-.79-1.16-1.2-1.74-.41-.57-.82-1.14-1.24-1.71-.42-.57-.86-1.13-1.3-1.68-.45-.57-.9-1.12-1.37-1.68-.42-.49-.84-.98-1.27-1.47-.49-.56-1-1.11-1.51-1.65-.45-.47-.9-.94-1.36-1.41-.53-.53-1.07-1.05-1.62-1.57-.48-.45-.96-.9-1.45-1.34-.57-.5-1.15-1-1.74-1.48-.51-.43-1.03-.85-1.55-1.26-.74-.58-1.5-1.15-2.27-1.7-1.43-1.03-2.9-2.03-4.44-2.97-1.56-.95-3.19-1.83-4.87-2.67-.52-.26-1.06-.5-1.6-.75-1.21-.57-2.44-1.12-3.7-1.63Z" fill="url(#linear-gradient-16)"/><path d="M1498.88,1037.55c-.51.44-1.03.88-1.55,1.32-1.7,1.42-3.42,2.81-5.17,4.15-.16.12-.31.25-.47.37-1.9,1.44-3.85,2.82-5.82,4.17-.53.36-1.07.72-1.61,1.08-1.59,1.06-3.2,2.08-4.83,3.07-.48.29-.94.59-1.42.87-2.04,1.2-4.11,2.36-6.21,3.45-.44.23-.89.44-1.34.67-1.73.88-3.47,1.71-5.23,2.51-.6.27-1.2.55-1.81.81-2.19.95-4.39,1.86-6.63,2.69l-37.69,13.89c2.24-.83,4.44-1.74,6.63-2.69.61-.26,1.21-.54,1.81-.81,1.76-.8,3.51-1.64,5.23-2.51.44-.22.89-.44,1.34-.67,2.1-1.09,4.17-2.25,6.21-3.45.48-.28.95-.58,1.42-.87,1.63-.99,3.24-2.01,4.83-3.07.54-.36,1.08-.71,1.61-1.07,1.97-1.35,3.92-2.73,5.82-4.17.16-.12.31-.25.47-.37,1.76-1.34,3.48-2.73,5.17-4.15.52-.44,1.03-.87,1.55-1.32,1.52-1.3,3.01-2.64,4.48-4,.32-.3.65-.58.96-.88,1.74-1.64,3.43-3.33,5.1-5.04.42-.43.82-.87,1.23-1.31,1.31-1.38,2.59-2.79,3.85-4.22.42-.47.84-.95,1.26-1.43,1.56-1.81,3.09-3.65,4.57-5.53.21-.27.42-.55.63-.82,1.28-1.64,2.52-3.31,3.74-5,.4-.55.79-1.11,1.18-1.67,1.19-1.7,2.36-3.42,3.48-5.17.18-.29.38-.57.56-.85,1.28-2.01,2.5-4.04,3.69-6.09.31-.54.62-1.09.92-1.64.92-1.64,1.81-3.29,2.68-4.95.28-.53.56-1.06.83-1.59,1.06-2.1,2.08-4.21,3.04-6.35.17-.39.33-.78.51-1.17.79-1.8,1.55-3.61,2.27-5.43.24-.61.48-1.22.72-1.83.76-2,1.49-4.01,2.17-6.02.07-.2.14-.39.21-.59.72-2.19,1.38-4.4,1.99-6.6.17-.6.32-1.2.48-1.8.47-1.77.9-3.54,1.29-5.31.12-.52.24-1.05.35-1.57.46-2.21.87-4.41,1.22-6.62.07-.47.13-.93.2-1.4.26-1.81.49-3.61.67-5.41.06-.62.13-1.23.18-1.85.19-2.21.34-4.41.41-6.6,0-.01,0-.03,0-.04.07-2.17.04-4.32-.01-6.47-.02-.78-.06-1.55-.1-2.32-.07-1.51-.18-3.02-.31-4.51-.07-.78-.14-1.56-.23-2.34-.14-1.2-.32-2.38-.5-3.57-.2-1.36-.42-2.72-.68-4.07-.22-1.15-.48-2.28-.74-3.41-.28-1.21-.57-2.42-.9-3.62-.35-1.29-.74-2.57-1.15-3.84-.26-.82-.52-1.65-.81-2.46-.5-1.43-1.07-2.85-1.65-4.25-.28-.68-.54-1.37-.83-2.05-.65-1.46-1.37-2.9-2.11-4.33-.33-.65-.62-1.31-.97-1.95-1.11-2.05-2.31-4.08-3.6-6.05-.03-.05-.07-.09-.1-.14-1.17-1.77-2.43-3.5-3.74-5.21-.35-.45-.7-.9-1.05-1.34-1.38-1.72-2.81-3.43-4.35-5.07-1.18-1.26-2.35-2.46-3.5-3.62-.35-.35-.7-.69-1.04-1.03-.83-.82-1.66-1.61-2.47-2.37-.36-.33-.71-.67-1.07-.99-.94-.86-1.87-1.68-2.79-2.47-.18-.16-.37-.32-.55-.48-1.09-.92-2.17-1.79-3.24-2.62-.37-.29-.75-.56-1.12-.84-.56-.42-1.12-.84-1.68-1.24-.4-.28-.79-.55-1.18-.82-.53-.37-1.07-.73-1.6-1.08-.67-.44-1.34-.88-2.01-1.28-1.47-.89-2.91-1.66-4.33-2.38-.39-.19-.77-.38-1.15-.56-1.19-.57-2.37-1.08-3.52-1.53-.22-.09-.45-.19-.67-.27-1.33-.49-2.63-.9-3.92-1.23-.39-.1-.77-.18-1.15-.27-.96-.22-1.9-.41-2.83-.55-.4-.06-.79-.12-1.19-.17-1.19-.14-2.36-.24-3.5-.26-.12,0-.23,0-.35,0-.93,0-1.83.06-2.72.14-1,.08-1.98.23-2.94.4-.43.08-.86.13-1.28.22-1.35.3-2.66.68-3.94,1.14l37.69-13.88c1.27-.47,2.59-.84,3.94-1.14.11-.03.21-.07.32-.09.31-.07.64-.07.96-.13.96-.18,1.94-.32,2.94-.4.23-.02.45-.08.68-.09.67-.04,1.36-.05,2.04-.04.12,0,.23-.01.35,0,.9.01,1.81.06,2.74.15.25.02.51.08.76.11.39.05.79.11,1.19.17.93.14,1.87.33,2.83.55.38.09.76.17,1.15.27.19.05.37.08.56.13,1.1.31,2.22.68,3.36,1.1.22.08.45.19.67.27,1.15.45,2.33.96,3.52,1.53.38.18.76.36,1.15.56,1.42.72,2.86,1.49,4.33,2.38.5.3,1,.62,1.51.94.16.1.33.23.5.33.53.35,1.06.71,1.6,1.08.39.27.79.54,1.18.82.55.4,1.12.82,1.68,1.24.29.22.57.41.87.64.08.06.17.14.25.2,1.07.83,2.15,1.7,3.24,2.62.18.15.37.32.55.48.92.79,1.85,1.61,2.79,2.47.35.32.71.66,1.07.99.82.76,1.64,1.55,2.47,2.37.35.34.69.68,1.04,1.03,1.16,1.16,2.32,2.35,3.5,3.62,1.14,1.22,2.24,2.46,3.29,3.72.37.44.7.9,1.06,1.35.36.44.71.89,1.05,1.34,1.31,1.71,2.58,3.44,3.74,5.21.03.05.07.09.1.14,0,.01.02.02.02.04,1.24,1.9,2.4,3.83,3.47,5.8.04.07.07.15.11.22.35.64.64,1.3.97,1.95.65,1.27,1.32,2.53,1.9,3.83.07.17.13.34.21.51.3.67.55,1.36.83,2.05.44,1.07.91,2.13,1.31,3.22.12.34.22.69.34,1.04.29.81.54,1.64.81,2.46.26.81.56,1.6.79,2.41.14.47.22.95.35,1.42.33,1.2.62,2.41.9,3.62.16.69.37,1.37.52,2.07.09.44.14.9.22,1.34.26,1.35.48,2.71.68,4.07.11.73.27,1.44.36,2.18.06.46.09.93.14,1.4.09.78.16,1.56.23,2.34.14,1.5.24,3,.31,4.52.04.77.08,1.54.1,2.32.01.41.05.81.05,1.21.03,1.74.01,3.5-.04,5.25,0,.01,0,.03,0,.04-.07,2.19-.22,4.4-.41,6.6-.05.62-.12,1.23-.18,1.85-.18,1.8-.41,3.61-.67,5.41-.07.47-.12.93-.2,1.4-.35,2.21-.76,4.42-1.22,6.62-.11.52-.24,1.05-.35,1.57-.39,1.77-.82,3.54-1.29,5.31-.16.6-.31,1.2-.48,1.8-.61,2.21-1.27,4.41-1.99,6.61-.06.2-.14.39-.21.59-.67,2.02-1.4,4.02-2.17,6.03-.23.61-.47,1.22-.72,1.83-.72,1.82-1.48,3.62-2.27,5.42-.17.39-.33.78-.5,1.17-.96,2.13-1.98,4.25-3.04,6.35-.27.53-.55,1.06-.83,1.59-.86,1.66-1.75,3.31-2.68,4.95-.31.55-.61,1.09-.92,1.64-1.19,2.05-2.41,4.09-3.69,6.09-.18.29-.38.57-.56.85-1.13,1.74-2.29,3.46-3.48,5.16-.39.56-.79,1.11-1.18,1.67-1.21,1.69-2.46,3.36-3.74,5-.21.27-.41.55-.62.82-1.48,1.88-3.01,3.71-4.57,5.53-.41.48-.84.95-1.25,1.42-1.26,1.43-2.54,2.84-3.85,4.22-.41.44-.82.88-1.23,1.31-1.66,1.72-3.36,3.4-5.1,5.04-.32.3-.64.58-.96.88-1.47,1.36-2.96,2.7-4.48,4Z" fill="url(#linear-gradient-17)"/><path d="M1360.51,790.36c-6.84-4.15-14.79-7.35-24.02-9.27-77.45-16.04-59.58,194.06,29.67,302.07,108.69,12.19,193.12-135.77,126.05-207.51-8-8.55-15.4-14.68-22.25-18.83-41.48-25.19-62.18,22.07-68.39,40.3,1.14-21.32.42-81.58-41.06-106.77Z" fill="url(#linear-gradient-18)"/><path d="M330.81,1024.26c-5.97,4.77-12.11,9.12-18.41,13.07l-34.97-34.57c-16,7.95-32.88,12.59-49.84,14.06l-15.24,48.76c-14.68-.23-29.24-2.25-43.39-6l-1.11-51.05c-15.92-6-30.86-15.06-44.02-27.11l-43.21,23.74c-4.94-5.48-9.64-11.34-14.07-17.58-4.41-6.22-8.41-12.62-12.03-19.21l33.41-37.57c-7.26-16.73-11.34-34.48-12.38-52.39l-45.9-15.22c.49-15.51,2.68-30.93,6.54-45.95l48.31-2.14c6.02-16.87,14.86-32.86,26.47-47l-21.65-45.24c5.33-5.31,10.94-10.41,16.91-15.19,5.97-4.77,12.13-9.09,18.38-13.05l34.97,34.58c15.97-7.93,32.87-12.54,49.84-14.06l15.28-48.75c14.65.2,29.22,2.22,43.36,6.02l1.14,51.03c15.89,6.07,30.83,15.08,44,27.09l43.22-23.74c4.96,5.51,9.66,11.36,14.07,17.58,4.43,6.24,8.43,12.65,12.03,19.21l-33.41,37.57c7.25,16.78,11.3,34.55,12.4,52.42l45.87,15.24c-.48,15.46-2.67,30.88-6.51,45.92l-48.39,2.15c-6,16.9-14.86,32.86-26.44,46.98l21.65,45.24c-5.29,5.32-10.92,10.39-16.88,15.17ZM285.54,812.35c-27.34-38.54-79.54-45.79-116.54-16.18-37.03,29.63-44.87,84.92-17.52,123.46,27.36,38.57,79.56,45.81,116.59,16.19,37-29.61,44.84-84.89,17.48-123.46" fill="url(#linear-gradient-19)"/><polygon points="357.53 746.67 382.51 763.58 349.11 801.15 324.12 784.23 357.53 746.67" fill="url(#linear-gradient-20)"/><polygon points="331.43 709.88 356.42 726.8 382.51 763.58 357.53 746.67 331.43 709.88" fill="url(#linear-gradient-21)"/><polygon points="243.07 655.51 268.06 672.43 268.06 718.38 244.21 706.54 243.07 655.51" fill="url(#linear-gradient-22)"/><polygon points="99.62 677.72 124.61 694.64 140.03 709.88 134.59 712.3 99.62 677.72" fill="url(#linear-gradient-23)"/><polygon points="4.66 846.28 50.56 861.49 52.3 870.55 29.65 863.19 4.66 846.28" fill="url(#linear-gradient-24)"/><polygon points="55.63 988.23 80.62 1005.15 123.83 981.4 98.84 964.49 55.63 988.23" fill="url(#linear-gradient-25)"/><polygon points="202.6 999.9 227.59 1016.81 212.35 1065.57 187.37 1048.65 202.6 999.9" fill="url(#linear-gradient-26)"/><polygon points="301.05 946.94 326.04 963.85 347.69 1009.09 322.7 992.18 301.05 946.94" fill="url(#linear-gradient-27)"/><polygon points="287.41 1020.41 312.4 1037.33 347.69 1009.09 322.7 992.18 287.41 1020.41" fill="url(#linear-gradient-28)"/><polygon points="143.98 1042.65 168.97 1059.57 212.35 1065.57 187.37 1048.65 143.98 1042.65" fill="url(#linear-gradient-29)"/><polygon points="382.39 851.89 407.38 868.8 400.87 914.73 375.88 897.81 382.39 851.89" fill="url(#linear-gradient-30)"/><polygon points="327.5 899.96 352.48 916.88 326.04 963.85 301.05 946.94 327.5 899.96" fill="url(#linear-gradient-31)"/><path d="M305.82,1007.34c-5.97,4.77-12.11,9.12-18.41,13.07l-34.97-34.57c-16,7.95-32.88,12.59-49.84,14.06l-15.24,48.76c-14.68-.23-29.24-2.25-43.39-6l-1.11-51.05c-15.92-6-30.86-15.06-44.02-27.11l-43.21,23.74c-4.94-5.48-9.64-11.34-14.07-17.58-4.41-6.22-8.41-12.62-12.03-19.21l33.41-37.57c-7.26-16.73-11.34-34.48-12.38-52.39l-45.9-15.22c.49-15.51,2.68-30.93,6.54-45.95l48.31-2.14c6.02-16.87,14.86-32.86,26.47-47l-21.65-45.24c5.33-5.31,10.94-10.41,16.91-15.19,5.97-4.77,12.13-9.09,18.38-13.05l34.97,34.58c15.97-7.93,32.87-12.54,49.84-14.06l15.28-48.75c14.65.2,29.22,2.22,43.36,6.02l1.14,51.03c15.89,6.07,30.83,15.08,44,27.09l43.22-23.74c4.96,5.51,9.66,11.36,14.07,17.58,4.43,6.24,8.43,12.65,12.03,19.21l-33.41,37.57c7.25,16.78,11.3,34.55,12.4,52.42l45.87,15.24c-.48,15.46-2.67,30.88-6.51,45.92l-48.39,2.15c-6,16.9-14.86,32.86-26.44,46.98l21.65,45.24c-5.29,5.32-10.92,10.39-16.88,15.17ZM260.55,795.43c-27.34-38.54-79.54-45.79-116.54-16.18-37.03,29.63-44.87,84.92-17.52,123.46,27.36,38.57,79.56,45.81,116.59,16.19,37-29.61,44.84-84.89,17.48-123.46" fill="url(#linear-gradient-32)"/><circle cx="1282.48" cy="402.01" r="154.31" fill="url(#linear-gradient-33)"/><path d="M1321.4,483.86c10.97,1.08,21.54-3.83,26.03-12.64,3.54-6.94,5.77-14.59,6.4-22.74,2.23-28.65-15.92-55.05-43.41-67.65,14.56-7.68,23.88-22.51,21.57-39.95-2.37-17.88-17.98-33.16-37.7-37.16-28.09-5.7-53.64,11.59-55.55,36.23-1.07,13.81,5.56,26.76,16.58,35.48-29.02,7.06-50.96,29.53-53.19,58.18-.63,8.15.39,16.12,2.8,23.64,3.06,9.55,12.71,16.44,23.68,17.52l92.79,9.1Z" fill="#fff"/><path d="M1194.93,1422.37l261.81-61.1c14.95-3.49,29.79,6.22,32.59,21.32l38.79,209.47c2.68,14.45-6.73,28.38-21.14,31.29l-265.52,53.67c-14.86,3-29.27-6.85-31.86-21.78l-35.08-202.05c-2.44-14.06,6.51-27.58,20.41-30.82Z" fill="url(#linear-gradient-34)"/><path d="M1188.5,1418.77l261.81-61.1c14.95-3.49,29.79,6.22,32.59,21.32l38.79,209.47c2.68,14.45-6.73,28.38-21.14,31.29l-265.52,53.67c-14.86,3-29.27-6.85-31.86-21.78l-35.08-202.05c-2.44-14.06,6.51-27.58,20.41-30.82Z" fill="url(#linear-gradient-35)"/><rect x="1243.36" y="1538.06" width="30.71" height="58.24" transform="translate(-295.53 292.53) rotate(-11.87)" fill="url(#linear-gradient-36)"/><rect x="1284.89" y="1499.84" width="30.71" height="87.4" transform="translate(-289.78 300.58) rotate(-11.87)" fill="url(#linear-gradient-37)"/><rect x="1326.97" y="1466.92" width="30.71" height="111.22" transform="translate(-284.56 308.79) rotate(-11.87)" fill="url(#linear-gradient-38)"/><rect x="1368.62" y="1429.84" width="30.71" height="139.23" transform="translate(-278.92 316.86) rotate(-11.87)" fill="url(#linear-gradient-39)"/><rect x="1418.48" y="1471.75" width="30.71" height="87.4" transform="translate(-281.14 327.46) rotate(-11.87)" fill="url(#linear-gradient-40)"/><g opacity=".17"><ellipse cx="819.26" cy="493.18" rx="227.59" ry="99.97" fill="#4c0000" opacity="0"/><ellipse cx="819.26" cy="493.18" rx="222.08" ry="97.55" fill="#4a0101" opacity=".04"/><ellipse cx="819.26" cy="493.18" rx="216.57" ry="95.13" fill="#480202" opacity=".08"/><ellipse cx="819.26" cy="493.18" rx="211.07" ry="92.71" fill="#460303" opacity=".12"/><ellipse cx="819.26" cy="493.18" rx="205.56" ry="90.29" fill="#440404" opacity=".15"/><ellipse cx="819.26" cy="493.18" rx="200.05" ry="87.87" fill="#420505" opacity=".19"/><ellipse cx="819.26" cy="493.18" rx="194.54" ry="85.45" fill="#400606" opacity=".23"/><ellipse cx="819.26" cy="493.18" rx="189.03" ry="83.03" fill="#3e0606" opacity=".27"/><ellipse cx="819.26" cy="493.18" rx="183.53" ry="80.62" fill="#3c0707" opacity=".31"/><ellipse cx="819.26" cy="493.18" rx="178.02" ry="78.2" fill="#3a0808" opacity=".35"/><ellipse cx="819.26" cy="493.18" rx="172.51" ry="75.78" fill="#380909" opacity=".38"/><ellipse cx="819.26" cy="493.18" rx="167" ry="73.36" fill="#360a0a" opacity=".42"/><ellipse cx="819.26" cy="493.18" rx="161.49" ry="70.94" fill="#340b0b" opacity=".46"/><ellipse cx="819.26" cy="493.18" rx="155.99" ry="68.52" fill="#330c0c" opacity=".5"/><ellipse cx="819.26" cy="493.18" rx="150.48" ry="66.1" fill="#310d0d" opacity=".54"/><ellipse cx="819.26" cy="493.18" rx="144.97" ry="63.68" fill="#2f0e0e" opacity=".58"/><ellipse cx="819.26" cy="493.18" rx="139.46" ry="61.26" fill="#2d0f0f" opacity=".62"/><ellipse cx="819.26" cy="493.18" rx="133.95" ry="58.84" fill="#2b1010" opacity=".65"/><ellipse cx="819.26" cy="493.18" rx="128.44" ry="56.42" fill="#291111" opacity=".69"/><ellipse cx="819.26" cy="493.18" rx="122.94" ry="54" fill="#271212" opacity=".73"/><ellipse cx="819.26" cy="493.18" rx="117.43" ry="51.58" fill="#251212" opacity=".77"/><ellipse cx="819.26" cy="493.18" rx="111.92" ry="49.16" fill="#231313" opacity=".81"/><ellipse cx="819.26" cy="493.18" rx="106.41" ry="46.74" fill="#211414" opacity=".85"/><ellipse cx="819.26" cy="493.18" rx="100.9" ry="44.32" fill="#1f1515" opacity=".88"/><ellipse cx="819.26" cy="493.18" rx="95.4" ry="41.9" fill="#1d1616" opacity=".92"/><ellipse cx="819.26" cy="493.18" rx="89.89" ry="39.48" fill="#1b1717" opacity=".96"/><ellipse cx="819.26" cy="493.18" rx="84.38" ry="37.06" fill="#191818"/></g><path d="M659.19,161.91c-.13,2.84-.18,5.75-.07,8.83,4.45,118.51,107.12,268.07,133.67,296.64,2.97,3.2,22-9.24,22.34-8.89v.08s.03-.03.04-.04c0,0,.04.04.04.04v-.08c3.37-3.47,151.05-155.97,156-287.74.13-3.47.06-6.76-.12-9.93.05-1.57.12-3.14.12-4.72C971.2,69.88,901.32,0,815.12,0s-156.08,69.88-156.08,156.08c0,1.95.08,3.89.15,5.82ZM737.55,156.08c0-42.84,34.73-77.57,77.57-77.57s77.57,34.73,77.57,77.57-34.73,77.57-77.57,77.57-77.57-34.73-77.57-77.57Z" fill="url(#linear-gradient-41)"/><path d="M636.77,170.72c-.13,2.84-.18,5.75-.07,8.83,4.95,131.78,152.63,284.28,156,287.74v.08s.03-.03.04-.04c0,0,.04.04.04.04v-.08c3.37-3.47,151.05-155.97,156-287.74.13-3.47.06-6.76-.12-9.93.05-1.57.12-3.14.12-4.72,0-86.2-69.88-156.08-156.08-156.08s-156.08,69.88-156.08,156.08c0,1.95.08,3.89.15,5.82ZM715.14,164.89c0-42.84,34.73-77.57,77.57-77.57s77.57,34.73,77.57,77.57-34.73,77.57-77.57,77.57-77.57-34.73-77.57-77.57Z" fill="url(#linear-gradient-42)"/></g></svg>