<?xml version="1.0" encoding="UTF-8"?> <svg xmlns="http://www.w3.org/2000/svg" id="b" data-name="Layer 1" viewBox="0 0 825.61 445.8"><defs><style> .c { fill: #fff; } .d { fill: #4d71a2; } .e { fill: #7e7e7f; } .f { fill: gray; } .g { fill: #7f7f80; } </style></defs><g><g><path class="d" d="m0,3.52h92.83v28.14H30.48v28.14h57.66v28.14H30.48v53.94H0V3.52Z"></path><path class="d" d="m114.35,3.52h30.48v138.37h-30.48V3.52Z"></path><path class="d" d="m172.6,3.52h41.43l58.83,96.15h.39V3.52h30.48v138.37h-39.86l-60.4-98.5h-.39v98.5h-30.48V3.52Z"></path><path class="d" d="m358.68,30.49h-39.48V3.52h109.44v26.97h-39.48v111.4h-30.48V30.49Z"></path><path class="d" d="m445.29,3.52h94v28.14h-63.52v25.8h60v28.14h-60v28.14h67.04v28.14h-97.52V3.52Z"></path><path class="d" d="m657.75,39.48c-6.06-7.23-14.85-11.33-26.19-11.33-23.06,0-40.07,18.77-40.07,44.56s17.01,44.56,39.09,44.56c12.31,0,22.28-5.48,28.54-14.85l25.41,18.96c-11.54,16.41-31.08,24.04-50.03,24.04-43.19,0-74.66-28.34-74.66-72.7S591.3,0,634.49,0c15.43,0,34.98,5.28,46.71,20.33l-23.45,19.15Z"></path><path class="d" d="m701.16,3.52h30.48v51.6h59.22V3.52h30.48v138.37h-30.48v-59.8h-59.22v59.8h-30.48V3.52Z"></path></g><g><path class="f" d="m1.05,168.31h13.13l40.63,60.63h.21v-60.63h10v73.76h-12.71l-41.05-60.63h-.21v60.63H1.05v-73.76Z"></path><path class="f" d="m74,168.31h47.61v9.37h-37.61v21.98h35.01v9.38h-35.01v23.65h39.49v9.37h-49.48v-73.76Z"></path><path class="f" d="m122.99,168.31h10.41l16.25,58.96h.21l17.4-58.96h11.45l17.4,58.96h.21l16.25-58.96h10.42l-21.46,73.76h-10.52l-17.91-60.21h-.21l-17.81,60.21h-10.52l-21.56-73.76Z"></path><path class="f" d="m235.12,226.65c3.54,5.41,9.69,7.92,15.62,7.92,6.57,0,14.69-4.17,14.69-12.29,0-16.98-36.36-6.46-36.36-35.21,0-8.65,7.29-20.63,25-20.63,8.02,0,15.72,1.67,21.25,8.43l-8.12,7.4c-2.5-3.85-7.4-6.46-13.13-6.46-11.04,0-14.38,6.67-14.38,11.25,0,18.65,36.36,7.5,36.36,34.06,0,14.27-11.45,22.81-25.62,22.81-9.48,0-18.54-3.23-23.55-10.21l8.23-7.08Z"></path><path class="f" d="m321.82,168.31h13.13l40.63,60.63h.21v-60.63h10v73.76h-12.71l-41.05-60.63h-.21v60.63h-10v-73.76Z"></path><path class="f" d="m402.38,168.31h47.61v9.37h-37.61v21.98h35.01v9.38h-35.01v23.65h39.49v9.37h-49.48v-73.76Z"></path><path class="f" d="m479.08,177.69h-23.75v-9.37h57.5v9.37h-23.75v64.38h-10v-64.38Z"></path><path class="f" d="m511.71,168.31h10.41l16.25,58.96h.21l17.4-58.96h11.45l17.4,58.96h.21l16.25-58.96h10.42l-21.46,73.76h-10.52l-17.91-60.21h-.21l-17.81,60.21h-10.52l-21.56-73.76Z"></path><path class="f" d="m614.35,205.19c0-21.87,15.94-38.75,38.45-38.75s38.44,16.87,38.44,38.75-15.94,38.75-38.44,38.75-38.45-16.87-38.45-38.75Zm66.26,0c0-16.14-10.94-29.37-27.81-29.37s-27.82,13.23-27.82,29.37,10.94,29.38,27.82,29.38,27.81-13.23,27.81-29.38Z"></path><path class="f" d="m703.24,168.31h25.94c18.86,0,23.65,11.35,23.65,20.63s-6.98,18.23-18.12,19.48l20.94,33.65h-12.5l-18.75-32.5h-11.15v32.5h-10v-73.76Zm10,32.5h13.13c7.92,0,15.84-1.87,15.84-11.88s-7.92-11.88-15.84-11.88h-13.13v23.75Z"></path><path class="f" d="m764.52,168.31h10v31.88h.84l32.6-31.88h13.96l-35.63,34.07,38.02,39.69h-14.58l-34.38-36.88h-.84v36.88h-10v-73.76Z"></path></g></g><rect class="g" x=".66" y="271.57" width="823.97" height="4.05"></rect><g><path class="e" d="m1.46,338.94h7.31c4.53,0,8.63,1.6,8.63,6.76s-4.59,6.83-8.08,6.83h-4.94v11.08H1.46v-24.66Zm2.92,10.87h4.94c2.92,0,4.94-1.32,4.94-4.08s-2.02-4.07-4.94-4.07h-4.94v8.15Z"></path><path class="e" d="m21.51,337.27h2.72v12.29h.07c.73-1.29,2.68-2.68,5.22-2.68,4.28,0,6.2,2.72,6.2,6.65v10.06h-2.71v-9.79c0-2.72-1.18-4.42-3.72-4.42-3.52,0-5.05,2.54-5.05,6.27v7.94h-2.72v-26.33Z"></path><path class="e" d="m42.36,338.94c1.11,0,1.98.9,1.98,1.98,0,1.15-.84,1.99-1.98,1.99s-1.98-.84-1.98-1.99c0-1.08.87-1.98,1.98-1.98Zm-1.36,8.36h2.72v16.3h-2.72v-16.3Z"></path><path class="e" d="m49.26,337.27h2.72v26.33h-2.72v-26.33Z"></path><path class="e" d="m58.86,338.94c1.11,0,1.98.9,1.98,1.98,0,1.15-.84,1.99-1.98,1.99s-1.98-.84-1.98-1.99c0-1.08.87-1.98,1.98-1.98Zm-1.36,8.36h2.72v16.3h-2.72v-16.3Z"></path><path class="e" d="m65.37,347.3h2.72v2.37h.07c1.5-1.74,3.48-2.79,5.85-2.79,5.12,0,8.56,3.62,8.56,8.57s-3.59,8.57-8.15,8.57c-2.92,0-5.26-1.46-6.27-3.31h-.07v10.83h-2.72v-24.24Zm8.49,14.21c3.52,0,5.78-2.65,5.78-6.06s-2.26-6.06-5.78-6.06-5.78,2.65-5.78,6.06,2.26,6.06,5.78,6.06Z"></path><path class="e" d="m86.54,347.3h2.72v2.37h.07c1.5-1.74,3.48-2.79,5.85-2.79,5.12,0,8.56,3.62,8.56,8.57s-3.59,8.57-8.15,8.57c-2.92,0-5.26-1.46-6.27-3.31h-.07v10.83h-2.72v-24.24Zm8.49,14.21c3.52,0,5.78-2.65,5.78-6.06s-2.26-6.06-5.78-6.06-5.78,2.65-5.78,6.06,2.26,6.06,5.78,6.06Z"></path><path class="e" d="m109.45,338.94c1.11,0,1.98.9,1.98,1.98,0,1.15-.84,1.99-1.98,1.99s-1.98-.84-1.98-1.99c0-1.08.87-1.98,1.98-1.98Zm-1.36,8.36h2.72v16.3h-2.72v-16.3Z"></path><path class="e" d="m116.1,351.17c0-1.5-.14-2.79-.14-3.87h2.58c0,.87.07,1.78.07,2.68h.07c.73-1.6,2.75-3.1,5.43-3.1,4.28,0,6.2,2.72,6.2,6.65v10.06h-2.71v-9.79c0-2.72-1.18-4.42-3.72-4.42-3.52,0-5.05,2.54-5.05,6.27v7.94h-2.72v-12.43Z"></path><path class="e" d="m149.9,360.64c-1.91,2.47-4.21,3.38-7.24,3.38-5.12,0-8.25-3.83-8.25-8.57,0-5.05,3.55-8.57,8.35-8.57s7.73,3.13,7.73,8.53v.87h-13.16c.21,2.82,2.37,5.22,5.33,5.22,2.33,0,3.9-.84,5.19-2.47l2.05,1.6Zm-2.33-6.65c-.1-2.75-1.91-4.6-4.91-4.6s-4.98,1.85-5.33,4.6h10.23Z"></path><path class="e" d="m154.95,359.32c1.08,1.32,2.26,2.19,4.18,2.19,1.71,0,3.59-.73,3.59-2.51s-1.74-2.19-3.48-2.58c-3.1-.7-5.74-1.36-5.74-4.74,0-3.17,3.06-4.81,6.09-4.81,2.3,0,4.42.87,5.53,2.96l-2.26,1.5c-.7-1.15-1.84-1.95-3.45-1.95-1.5,0-3.2.73-3.2,2.26,0,1.36,1.95,1.95,4.11,2.37,2.89.56,5.33,1.6,5.33,4.88,0,3.69-3.27,5.12-6.51,5.12-2.75,0-4.73-.73-6.34-3.03l2.16-1.67Z"></path><path class="e" d="m171.24,368.41h-2.68l2.37-8.36h3.17l-2.85,8.36Z"></path><path class="e" d="m188.96,338.94h2.92v24.66h-2.92v-24.66Z"></path><path class="e" d="m197.42,351.17c0-1.5-.14-2.79-.14-3.87h2.58c0,.87.07,1.78.07,2.68h.07c.73-1.6,2.75-3.1,5.43-3.1,4.28,0,6.2,2.72,6.2,6.65v10.06h-2.71v-9.79c0-2.72-1.18-4.42-3.72-4.42-3.52,0-5.05,2.54-5.05,6.27v7.94h-2.71v-12.43Z"></path><path class="e" d="m230.21,360.71h-.07c-1.01,1.85-3.34,3.31-6.27,3.31-4.56,0-8.15-3.69-8.15-8.57s3.45-8.57,8.56-8.57c2.37,0,4.35,1.05,5.85,2.79h.07v-12.4h2.71v26.33h-2.71v-2.89Zm-5.78-11.32c-3.52,0-5.78,2.65-5.78,6.06s2.26,6.06,5.78,6.06,5.78-2.65,5.78-6.06-2.26-6.06-5.78-6.06Z"></path><path class="e" d="m245.6,346.88c5.01,0,8.7,3.48,8.7,8.57s-3.69,8.57-8.7,8.57-8.7-3.48-8.7-8.57,3.69-8.57,8.7-8.57Zm0,14.63c3.52,0,5.78-2.65,5.78-6.06s-2.26-6.06-5.78-6.06-5.78,2.65-5.78,6.06,2.26,6.06,5.78,6.06Z"></path><path class="e" d="m258.41,351.17c0-1.5-.14-2.79-.14-3.87h2.58c0,.87.07,1.78.07,2.68h.07c.73-1.6,2.75-3.1,5.43-3.1,4.28,0,6.2,2.72,6.2,6.65v10.06h-2.71v-9.79c0-2.72-1.18-4.42-3.72-4.42-3.52,0-5.05,2.54-5.05,6.27v7.94h-2.72v-12.43Z"></path><path class="e" d="m292.21,360.64c-1.91,2.47-4.21,3.38-7.24,3.38-5.12,0-8.25-3.83-8.25-8.57,0-5.05,3.55-8.57,8.35-8.57s7.73,3.13,7.73,8.53v.87h-13.16c.21,2.82,2.37,5.22,5.33,5.22,2.33,0,3.9-.84,5.19-2.47l2.05,1.6Zm-2.33-6.65c-.1-2.75-1.91-4.6-4.91-4.6s-4.98,1.85-5.33,4.6h10.23Z"></path><path class="e" d="m297.26,359.32c1.08,1.32,2.26,2.19,4.18,2.19,1.71,0,3.59-.73,3.59-2.51s-1.74-2.19-3.48-2.58c-3.1-.7-5.74-1.36-5.74-4.74,0-3.17,3.06-4.81,6.09-4.81,2.3,0,4.42.87,5.53,2.96l-2.26,1.5c-.7-1.15-1.84-1.95-3.45-1.95-1.5,0-3.2.73-3.2,2.26,0,1.36,1.95,1.95,4.11,2.37,2.89.56,5.33,1.6,5.33,4.88,0,3.69-3.27,5.12-6.51,5.12-2.75,0-4.73-.73-6.34-3.03l2.16-1.67Z"></path><path class="e" d="m313.24,338.94c1.11,0,1.98.9,1.98,1.98,0,1.15-.84,1.99-1.98,1.99s-1.98-.84-1.98-1.99c0-1.08.87-1.98,1.98-1.98Zm-1.36,8.36h2.72v16.3h-2.72v-16.3Z"></path><path class="e" d="m319.68,349.39c1.67-1.71,4.11-2.51,6.47-2.51,4.8,0,6.82,2.3,6.82,6.9v7c0,.94.1,1.98.24,2.82h-2.61c-.17-.73-.17-1.74-.17-2.44h-.07c-1.08,1.67-2.89,2.86-5.36,2.86-3.31,0-6.06-1.67-6.06-4.84,0-5.4,6.27-5.71,10.27-5.71h1.04v-.49c0-2.37-1.5-3.59-4.04-3.59-1.74,0-3.55.59-4.84,1.78l-1.71-1.78Zm7.87,6.37c-3.45,0-5.67.94-5.67,3.13,0,2.05,1.53,2.82,3.59,2.82,3.13,0,4.73-2.26,4.8-4.91v-1.04h-2.72Z"></path><path class="e" d="m339.77,368.41h-2.68l2.37-8.36h3.17l-2.85,8.36Z"></path><path class="e" d="m365.5,338.94h2.75l10.48,24.66h-3.41l-2.51-6.06h-12.32l-2.54,6.06h-3.31l10.86-24.66Zm1.32,3.76h-.07l-5.12,12.12h10.06l-4.87-12.12Z"></path><path class="e" d="m395.61,359.74c0,1.5.14,2.79.14,3.87h-2.58c0-.87-.07-1.78-.07-2.68h-.07c-.73,1.6-2.75,3.1-5.43,3.1-4.28,0-6.2-2.72-6.2-6.65v-10.06h2.72v9.79c0,2.72,1.18,4.42,3.72,4.42,3.52,0,5.05-2.54,5.05-6.27v-7.94h2.71v12.43Z"></path><path class="e" d="m401.01,359.32c1.08,1.32,2.26,2.19,4.18,2.19,1.71,0,3.59-.73,3.59-2.51s-1.74-2.19-3.48-2.58c-3.1-.7-5.74-1.36-5.74-4.74,0-3.17,3.06-4.81,6.09-4.81,2.3,0,4.42.87,5.53,2.96l-2.26,1.5c-.7-1.15-1.84-1.95-3.45-1.95-1.5,0-3.2.73-3.2,2.26,0,1.36,1.95,1.95,4.11,2.37,2.89.56,5.33,1.6,5.33,4.88,0,3.69-3.27,5.12-6.51,5.12-2.75,0-4.73-.73-6.34-3.03l2.16-1.67Z"></path><path class="e" d="m424.29,349.6h-4.8v8.15c0,2.09.04,3.76,2.44,3.76.8,0,1.67-.17,2.4-.56l.1,2.47c-.94.42-2.16.59-3.17.59-3.86,0-4.49-2.09-4.49-5.47v-8.95h-3.55v-2.3h3.55v-4.63h2.71v4.63h4.8v2.3Z"></path><path class="e" d="m427.53,351.17c0-1.5-.14-2.79-.14-3.87h2.57c0,.87.07,1.78.07,2.68h.07c.73-1.6,2.75-3.1,5.43-3.1.35,0,.73.04,1.11.18l-.17,2.75c-.45-.14-.98-.21-1.46-.21-3.31,0-4.77,2.33-4.77,6.06v7.94h-2.71v-12.43Z"></path><path class="e" d="m439.47,349.39c1.67-1.71,4.11-2.51,6.48-2.51,4.8,0,6.82,2.3,6.82,6.9v7c0,.94.1,1.98.24,2.82h-2.61c-.17-.73-.17-1.74-.17-2.44h-.07c-1.08,1.67-2.89,2.86-5.36,2.86-3.31,0-6.06-1.67-6.06-4.84,0-5.4,6.27-5.71,10.27-5.71h1.04v-.49c0-2.37-1.5-3.59-4.04-3.59-1.74,0-3.55.59-4.84,1.78l-1.71-1.78Zm7.87,6.37c-3.45,0-5.67.94-5.67,3.13,0,2.05,1.53,2.82,3.59,2.82,3.13,0,4.73-2.26,4.8-4.91v-1.04h-2.71Z"></path><path class="e" d="m457.89,337.27h2.71v26.33h-2.71v-26.33Z"></path><path class="e" d="m467.5,338.94c1.11,0,1.98.9,1.98,1.98,0,1.15-.84,1.99-1.98,1.99s-1.98-.84-1.98-1.99c0-1.08.87-1.98,1.98-1.98Zm-1.36,8.36h2.71v16.3h-2.71v-16.3Z"></path><path class="e" d="m473.94,349.39c1.67-1.71,4.11-2.51,6.48-2.51,4.8,0,6.82,2.3,6.82,6.9v7c0,.94.1,1.98.24,2.82h-2.61c-.17-.73-.17-1.74-.17-2.44h-.07c-1.08,1.67-2.89,2.86-5.36,2.86-3.31,0-6.06-1.67-6.06-4.84,0-5.4,6.27-5.71,10.27-5.71h1.04v-.49c0-2.37-1.5-3.59-4.04-3.59-1.74,0-3.55.59-4.84,1.78l-1.71-1.78Zm7.87,6.37c-3.45,0-5.67.94-5.67,3.13,0,2.05,1.53,2.82,3.59,2.82,3.13,0,4.73-2.26,4.8-4.91v-1.04h-2.71Z"></path><path class="e" d="m494.02,368.41h-2.68l2.37-8.36h3.17l-2.85,8.36Z"></path><path class="e" d="m511.74,338.94h4.35l8.35,19.33h.07l8.42-19.33h4.25v24.66h-2.92v-20.69h-.07l-8.84,20.69h-1.78l-8.84-20.69h-.07v20.69h-2.92v-24.66Z"></path><path class="e" d="m544.33,338.94c1.11,0,1.98.9,1.98,1.98,0,1.15-.84,1.99-1.98,1.99s-1.98-.84-1.98-1.99c0-1.08.87-1.98,1.98-1.98Zm-1.36,8.36h2.71v16.3h-2.71v-16.3Z"></path><path class="e" d="m564.52,360.71h-.07c-1.01,1.85-3.34,3.31-6.27,3.31-4.56,0-8.15-3.69-8.15-8.57s3.45-8.57,8.56-8.57c2.37,0,4.35,1.05,5.85,2.79h.07v-12.4h2.71v26.33h-2.71v-2.89Zm-5.78-11.32c-3.52,0-5.78,2.65-5.78,6.06s2.26,6.06,5.78,6.06,5.78-2.65,5.78-6.06-2.26-6.06-5.78-6.06Z"></path><path class="e" d="m585.69,360.71h-.07c-1.01,1.85-3.34,3.31-6.27,3.31-4.56,0-8.15-3.69-8.15-8.57s3.45-8.57,8.56-8.57c2.37,0,4.35,1.05,5.85,2.79h.07v-12.4h2.71v26.33h-2.71v-2.89Zm-5.78-11.32c-3.52,0-5.78,2.65-5.78,6.06s2.26,6.06,5.78,6.06,5.78-2.65,5.78-6.06-2.26-6.06-5.78-6.06Z"></path><path class="e" d="m593.55,337.27h2.71v26.33h-2.71v-26.33Z"></path><path class="e" d="m616.11,360.64c-1.91,2.47-4.21,3.38-7.24,3.38-5.12,0-8.25-3.83-8.25-8.57,0-5.05,3.55-8.57,8.35-8.57s7.73,3.13,7.73,8.53v.87h-13.16c.21,2.82,2.37,5.22,5.33,5.22,2.33,0,3.9-.84,5.19-2.47l2.05,1.6Zm-2.33-6.65c-.1-2.75-1.91-4.6-4.91-4.6s-4.98,1.85-5.33,4.6h10.23Z"></path><path class="e" d="m630.87,338.94h15.49v2.72h-12.57v7.73h11.73v2.72h-11.73v8.78h13.19v2.72h-16.12v-24.66Z"></path><path class="e" d="m650.72,349.39c1.67-1.71,4.11-2.51,6.48-2.51,4.8,0,6.82,2.3,6.82,6.9v7c0,.94.1,1.98.24,2.82h-2.61c-.17-.73-.17-1.74-.17-2.44h-.07c-1.08,1.67-2.89,2.86-5.36,2.86-3.31,0-6.06-1.67-6.06-4.84,0-5.4,6.27-5.71,10.27-5.71h1.04v-.49c0-2.37-1.5-3.59-4.04-3.59-1.74,0-3.55.59-4.84,1.78l-1.71-1.78Zm7.87,6.37c-3.45,0-5.67.94-5.67,3.13,0,2.05,1.53,2.82,3.59,2.82,3.13,0,4.73-2.26,4.8-4.91v-1.04h-2.71Z"></path><path class="e" d="m669.24,359.32c1.08,1.32,2.26,2.19,4.18,2.19,1.71,0,3.59-.73,3.59-2.51s-1.74-2.19-3.48-2.58c-3.1-.7-5.74-1.36-5.74-4.74,0-3.17,3.06-4.81,6.09-4.81,2.3,0,4.42.87,5.53,2.96l-2.26,1.5c-.7-1.15-1.85-1.95-3.45-1.95-1.5,0-3.2.73-3.2,2.26,0,1.36,1.95,1.95,4.11,2.37,2.89.56,5.33,1.6,5.33,4.88,0,3.69-3.27,5.12-6.51,5.12-2.75,0-4.73-.73-6.34-3.03l2.16-1.67Z"></path><path class="e" d="m692.53,349.6h-4.8v8.15c0,2.09.04,3.76,2.44,3.76.8,0,1.67-.17,2.4-.56l.1,2.47c-.94.42-2.16.59-3.17.59-3.86,0-4.49-2.09-4.49-5.47v-8.95h-3.55v-2.3h3.55v-4.63h2.71v4.63h4.8v2.3Z"></path><path class="e" d="m720.06,360.05c-1.98,2.51-4.11,3.97-7.38,3.97-4.18,0-7.83-2.61-7.83-7.04,0-3.48,2.51-5.78,5.46-7.14-1.6-1.64-2.96-3.34-2.96-5.71,0-3.66,2.96-5.64,6.37-5.64s6.16,1.85,6.16,5.47c0,3.1-2.75,4.98-5.22,6.27l5.22,5.54,3.31-5.54h3.31l-4.73,7.59,5.64,5.78h-4l-3.34-3.55Zm-7.94-8.43c-2.09,1.15-4.35,2.61-4.35,5.26s2.23,4.63,4.8,4.63,4.14-1.6,5.71-3.41l-6.16-6.48Zm.73-3.17c1.85-1.01,4.11-2.12,4.11-4.56,0-1.81-1.43-2.89-3.13-2.89-1.95,0-3.55,1.29-3.55,3.31,0,1.32.87,2.37,1.71,3.24l.87.91Z"></path><path class="e" d="m748.44,338.94h2.75l10.48,24.66h-3.41l-2.51-6.06h-12.32l-2.54,6.06h-3.31l10.86-24.66Zm1.32,3.76h-.07l-5.12,12.12h10.06l-4.87-12.12Z"></path><path class="e" d="m765.74,349.6h-3.55v-2.3h3.55v-3.66c0-3.97,1.39-6.79,5.78-6.79.7,0,1.57.14,2.09.42l-.38,2.44c-.59-.21-1.22-.35-1.84-.35-2.82,0-2.92,2.05-2.92,4.88v3.07h3.97v2.3h-3.97v14h-2.71v-14Z"></path><path class="e" d="m775.21,351.17c0-1.5-.14-2.79-.14-3.87h2.57c0,.87.07,1.78.07,2.68h.07c.73-1.6,2.75-3.1,5.43-3.1.35,0,.73.04,1.11.18l-.17,2.75c-.45-.14-.98-.21-1.46-.21-3.31,0-4.77,2.33-4.77,6.06v7.94h-2.71v-12.43Z"></path><path class="e" d="m788.96,338.94c1.11,0,1.98.9,1.98,1.98,0,1.15-.84,1.99-1.98,1.99s-1.98-.84-1.98-1.99c0-1.08.87-1.98,1.98-1.98Zm-1.36,8.36h2.71v16.3h-2.71v-16.3Z"></path><path class="e" d="m807.2,351.38c-1.15-1.39-2.47-1.99-4.11-1.99-3.66,0-5.5,2.72-5.5,6.06s2.19,6.06,5.5,6.06c1.78,0,3.13-.63,4.14-2.02l2.02,1.92c-1.57,1.81-3.79,2.61-6.16,2.61-5.05,0-8.42-3.55-8.42-8.57s3.41-8.57,8.42-8.57c2.4,0,4.63.8,6.26,2.58l-2.16,1.91Z"></path><path class="e" d="m812.07,349.39c1.67-1.71,4.11-2.51,6.48-2.51,4.8,0,6.82,2.3,6.82,6.9v7c0,.94.1,1.98.24,2.82h-2.61c-.17-.73-.17-1.74-.17-2.44h-.07c-1.08,1.67-2.89,2.86-5.36,2.86-3.31,0-6.06-1.67-6.06-4.84,0-5.4,6.27-5.71,10.27-5.71h1.04v-.49c0-2.37-1.5-3.59-4.04-3.59-1.74,0-3.55.59-4.84,1.78l-1.71-1.78Zm7.87,6.37c-3.45,0-5.67.94-5.67,3.13,0,2.05,1.53,2.82,3.59,2.82,3.13,0,4.73-2.26,4.8-4.91v-1.04h-2.71Z"></path></g><g><path class="e" d="m13.73,299.94c-.98-1.57-2.72-2.26-4.49-2.26-2.58,0-5.26,1.22-5.26,4.14,0,2.26,1.25,3.27,5.19,4.53,3.83,1.22,7.38,2.47,7.38,7.31s-4.21,7.21-8.67,7.21c-2.85,0-5.92-.94-7.59-3.41l2.51-2.05c1.04,1.81,3.13,2.75,5.26,2.75,2.51,0,5.36-1.46,5.36-4.28,0-3.03-2.05-3.55-6.44-5.01-3.48-1.15-6.13-2.68-6.13-6.79,0-4.74,4.07-7.1,8.39-7.1,2.75,0,5.08.77,6.89,2.89l-2.4,2.09Z"></path><path class="e" d="m37.99,320.24h-2.68l-4.63-12.54h-.07l-4.11,12.54h-2.78l-5.29-16.3h2.99l3.72,12.54h.07l4.21-12.54h2.85l4.28,12.54h.07l3.69-12.54h2.92l-5.26,16.3Z"></path><path class="e" d="m47.53,295.58c1.11,0,1.98.9,1.98,1.98,0,1.15-.84,1.99-1.98,1.99s-1.98-.84-1.98-1.99c0-1.08.87-1.98,1.98-1.98Zm-1.36,8.36h2.72v16.3h-2.72v-16.3Z"></path><path class="e" d="m62.82,306.24h-4.8v8.15c0,2.09.03,3.76,2.44,3.76.8,0,1.67-.17,2.4-.56l.1,2.47c-.94.42-2.16.59-3.17.59-3.86,0-4.49-2.09-4.49-5.47v-8.95h-3.55v-2.3h3.55v-4.63h2.72v4.63h4.8v2.3Z"></path><path class="e" d="m64.24,318.12l9.57-11.88h-9.15v-2.3h12.71v2.09l-9.57,11.91h9.82v2.3h-13.37v-2.12Z"></path><path class="e" d="m95.4,317.28c-1.91,2.47-4.21,3.38-7.24,3.38-5.12,0-8.25-3.83-8.25-8.57,0-5.05,3.55-8.57,8.35-8.57s7.73,3.13,7.73,8.53v.87h-13.16c.21,2.82,2.37,5.22,5.33,5.22,2.33,0,3.9-.84,5.19-2.47l2.05,1.6Zm-2.33-6.65c-.1-2.75-1.91-4.6-4.91-4.6s-4.98,1.85-5.33,4.6h10.23Z"></path><path class="e" d="m99.82,307.81c0-1.5-.14-2.79-.14-3.87h2.58c0,.87.07,1.78.07,2.68h.07c.73-1.6,2.75-3.1,5.43-3.1.35,0,.73.04,1.11.18l-.17,2.75c-.45-.14-.97-.21-1.46-.21-3.31,0-4.77,2.33-4.77,6.06v7.94h-2.71v-12.43Z"></path><path class="e" d="m111.94,293.91h2.72v26.33h-2.72v-26.33Z"></path><path class="e" d="m119.46,306.03c1.67-1.71,4.11-2.51,6.47-2.51,4.8,0,6.82,2.3,6.82,6.9v7c0,.94.1,1.98.24,2.82h-2.61c-.17-.73-.17-1.74-.17-2.44h-.07c-1.08,1.67-2.89,2.86-5.36,2.86-3.31,0-6.06-1.67-6.06-4.84,0-5.4,6.27-5.71,10.27-5.71h1.04v-.49c0-2.37-1.5-3.59-4.04-3.59-1.74,0-3.55.59-4.84,1.78l-1.71-1.78Zm7.87,6.37c-3.45,0-5.67.94-5.67,3.13,0,2.05,1.53,2.82,3.59,2.82,3.13,0,4.73-2.26,4.8-4.91v-1.04h-2.72Z"></path><path class="e" d="m137.35,307.81c0-1.5-.14-2.79-.14-3.87h2.58c0,.87.07,1.78.07,2.68h.07c.73-1.6,2.75-3.1,5.43-3.1,4.28,0,6.2,2.72,6.2,6.65v10.06h-2.71v-9.79c0-2.72-1.18-4.42-3.72-4.42-3.52,0-5.05,2.54-5.05,6.27v7.94h-2.72v-12.43Z"></path><path class="e" d="m169.86,317.35h-.07c-1.01,1.85-3.34,3.31-6.27,3.31-4.56,0-8.15-3.69-8.15-8.57s3.45-8.57,8.56-8.57c2.37,0,4.35,1.05,5.85,2.79h.07v-12.4h2.71v26.33h-2.71v-2.89Zm-5.78-11.32c-3.52,0-5.78,2.65-5.78,6.06s2.26,6.06,5.78,6.06,5.78-2.65,5.78-6.06-2.26-6.06-5.78-6.06Z"></path><path class="e" d="m179.13,325.05h-2.68l2.37-8.36h3.17l-2.85,8.36Z"></path><path class="e" d="m196.29,295.58h7.52c4.07,0,8.18,1.53,8.18,6.06,0,2.86-1.67,4.77-4.32,5.57v.07c3.17.28,5.57,2.82,5.57,6.06,0,5.43-5.05,6.9-9.61,6.9h-7.34v-24.66Zm2.92,10.45h4.04c2.75,0,5.6-.59,5.6-4.01,0-3.03-2.65-3.73-5.29-3.73h-4.35v7.73Zm0,11.49h4.94c2.85,0,5.95-1.15,5.95-4.28,0-3.45-2.92-4.49-5.88-4.49h-5.01v8.78Z"></path><path class="e" d="m217.14,306.03c1.67-1.71,4.11-2.51,6.47-2.51,4.8,0,6.82,2.3,6.82,6.9v7c0,.94.1,1.98.24,2.82h-2.61c-.17-.73-.17-1.74-.17-2.44h-.07c-1.08,1.67-2.89,2.86-5.36,2.86-3.31,0-6.06-1.67-6.06-4.84,0-5.4,6.27-5.71,10.27-5.71h1.04v-.49c0-2.37-1.5-3.59-4.04-3.59-1.74,0-3.55.59-4.84,1.78l-1.71-1.78Zm7.87,6.37c-3.45,0-5.67.94-5.67,3.13,0,2.05,1.53,2.82,3.59,2.82,3.13,0,4.73-2.26,4.8-4.91v-1.04h-2.72Z"></path><path class="e" d="m235.28,293.91h2.72v26.33h-2.72v-26.33Z"></path><path class="e" d="m251.92,306.24h-4.8v8.15c0,2.09.03,3.76,2.44,3.76.8,0,1.67-.17,2.4-.56l.1,2.47c-.94.42-2.16.59-3.17.59-3.86,0-4.49-2.09-4.49-5.47v-8.95h-3.55v-2.3h3.55v-4.63h2.72v4.63h4.8v2.3Z"></path><path class="e" d="m256.48,295.58c1.11,0,1.98.9,1.98,1.98,0,1.15-.84,1.99-1.98,1.99s-1.98-.84-1.98-1.99c0-1.08.87-1.98,1.98-1.98Zm-1.36,8.36h2.72v16.3h-2.72v-16.3Z"></path><path class="e" d="m274.44,308.02c-1.15-1.39-2.47-1.99-4.11-1.99-3.65,0-5.5,2.72-5.5,6.06s2.19,6.06,5.5,6.06c1.78,0,3.13-.63,4.14-2.02l2.02,1.92c-1.57,1.81-3.79,2.61-6.16,2.61-5.05,0-8.42-3.55-8.42-8.57s3.41-8.57,8.42-8.57c2.4,0,4.63.8,6.27,2.58l-2.16,1.91Z"></path><path class="e" d="m279.59,315.96c1.08,1.32,2.26,2.19,4.18,2.19,1.71,0,3.59-.73,3.59-2.51s-1.74-2.19-3.48-2.58c-3.1-.7-5.74-1.36-5.74-4.74,0-3.17,3.06-4.81,6.09-4.81,2.3,0,4.42.87,5.53,2.96l-2.26,1.5c-.7-1.15-1.84-1.95-3.45-1.95-1.5,0-3.2.73-3.2,2.26,0,1.36,1.95,1.95,4.11,2.37,2.89.56,5.33,1.6,5.33,4.88,0,3.69-3.27,5.12-6.51,5.12-2.75,0-4.73-.73-6.34-3.03l2.16-1.67Z"></path><path class="e" d="m295.61,325.05h-2.68l2.37-8.36h3.17l-2.85,8.36Z"></path><path class="e" d="m312.77,295.58h3.69l14.27,20.48h.07v-20.48h2.92v24.66h-3.69l-14.27-20.48h-.07v20.48h-2.92v-24.66Z"></path><path class="e" d="m346.75,303.52c5.01,0,8.7,3.48,8.7,8.57s-3.69,8.57-8.7,8.57-8.7-3.48-8.7-8.57,3.69-8.57,8.7-8.57Zm0,14.63c3.52,0,5.78-2.65,5.78-6.06s-2.26-6.06-5.78-6.06-5.78,2.65-5.78,6.06,2.26,6.06,5.78,6.06Z"></path><path class="e" d="m359.28,307.81c0-1.5-.14-2.79-.14-3.87h2.58c0,.87.07,1.78.07,2.68h.07c.73-1.6,2.75-3.1,5.43-3.1.35,0,.73.04,1.11.18l-.17,2.75c-.45-.14-.97-.21-1.46-.21-3.31,0-4.77,2.33-4.77,6.06v7.94h-2.72v-12.43Z"></path><path class="e" d="m384.69,317.35h-.07c-1.01,1.85-3.34,3.31-6.27,3.31-4.56,0-8.15-3.69-8.15-8.57s3.45-8.57,8.56-8.57c2.37,0,4.35,1.05,5.85,2.79h.07v-12.4h2.71v26.33h-2.71v-2.89Zm-5.78-11.32c-3.52,0-5.78,2.65-5.78,6.06s2.26,6.06,5.78,6.06,5.78-2.65,5.78-6.06-2.26-6.06-5.78-6.06Z"></path><path class="e" d="m393.64,295.58c1.11,0,1.98.9,1.98,1.98,0,1.15-.84,1.99-1.98,1.99s-1.98-.84-1.98-1.99c0-1.08.87-1.98,1.98-1.98Zm-1.36,8.36h2.72v16.3h-2.72v-16.3Z"></path><path class="e" d="m411.6,308.02c-1.15-1.39-2.47-1.99-4.11-1.99-3.65,0-5.5,2.72-5.5,6.06s2.19,6.06,5.5,6.06c1.78,0,3.13-.63,4.14-2.02l2.02,1.92c-1.57,1.81-3.79,2.61-6.16,2.61-5.05,0-8.42-3.55-8.42-8.57s3.41-8.57,8.42-8.57c2.4,0,4.63.8,6.27,2.58l-2.16,1.91Z"></path><path class="e" d="m416.76,315.96c1.08,1.32,2.26,2.19,4.18,2.19,1.71,0,3.59-.73,3.59-2.51s-1.74-2.19-3.48-2.58c-3.1-.7-5.74-1.36-5.74-4.74,0-3.17,3.06-4.81,6.09-4.81,2.3,0,4.42.87,5.53,2.96l-2.26,1.5c-.7-1.15-1.85-1.95-3.45-1.95-1.5,0-3.2.73-3.2,2.26,0,1.36,1.95,1.95,4.11,2.37,2.89.56,5.33,1.6,5.33,4.88,0,3.69-3.27,5.12-6.51,5.12-2.75,0-4.73-.73-6.34-3.03l2.16-1.67Z"></path><path class="e" d="m432.77,325.05h-2.68l2.37-8.36h3.17l-2.85,8.36Z"></path><path class="e" d="m449.93,295.58h2.92v10.45h13.16v-10.45h2.92v24.66h-2.92v-11.49h-13.16v11.49h-2.92v-24.66Z"></path><path class="e" d="m474.69,295.58h2.92v10.66h.42l11.21-10.66h4.21l-12.18,11.25,12.78,13.41h-4.28l-11.73-12.54h-.42v12.54h-2.92v-24.66Z"></path><path class="e" d="m497.66,325.05h-2.68l2.37-8.36h3.17l-2.85,8.36Z"></path><path class="e" d="m526.52,299.94c-.98-1.57-2.72-2.26-4.49-2.26-2.58,0-5.26,1.22-5.26,4.14,0,2.26,1.25,3.27,5.19,4.53,3.83,1.22,7.38,2.47,7.38,7.31s-4.21,7.21-8.67,7.21c-2.85,0-5.92-.94-7.59-3.41l2.51-2.05c1.04,1.81,3.13,2.75,5.26,2.75,2.51,0,5.36-1.46,5.36-4.28,0-3.03-2.05-3.55-6.44-5.01-3.48-1.15-6.13-2.68-6.13-6.79,0-4.74,4.07-7.1,8.39-7.1,2.75,0,5.08.77,6.89,2.89l-2.4,2.09Z"></path><path class="e" d="m534.91,295.58c1.11,0,1.98.9,1.98,1.98,0,1.15-.84,1.99-1.98,1.99s-1.98-.84-1.98-1.99c0-1.08.87-1.98,1.98-1.98Zm-1.36,8.36h2.71v16.3h-2.71v-16.3Z"></path><path class="e" d="m541.28,307.81c0-1.5-.14-2.79-.14-3.87h2.57c0,.87.07,1.78.07,2.68h.07c.73-1.6,2.75-3.1,5.43-3.1,4.28,0,6.2,2.72,6.2,6.65v10.06h-2.71v-9.79c0-2.72-1.18-4.42-3.73-4.42-3.52,0-5.05,2.54-5.05,6.27v7.94h-2.71v-12.43Z"></path><path class="e" d="m576.51,319.51c0,5.89-3.17,9.09-8.88,9.09-3.17,0-5.71-.84-8.01-3.1l1.95-2.23c1.71,1.85,3.55,2.82,6.06,2.82,4.87,0,6.16-3.13,6.16-6.58v-2.09h-.07c-1.29,2.09-3.59,3.03-5.74,3.03-5.12,0-8.67-3.55-8.67-8.36,0-5.33,3.48-8.57,8.67-8.57,2.19,0,4.66,1.05,5.74,3.21h.07v-2.79h2.71v15.57Zm-8.53-1.57c3.72,0,5.81-2.79,5.81-5.92,0-3.52-2.37-5.99-5.81-5.99s-5.74,2.65-5.74,6.06,2.58,5.85,5.74,5.85Z"></path><path class="e" d="m580.93,306.03c1.67-1.71,4.11-2.51,6.48-2.51,4.8,0,6.82,2.3,6.82,6.9v7c0,.94.1,1.98.24,2.82h-2.61c-.17-.73-.17-1.74-.17-2.44h-.07c-1.08,1.67-2.89,2.86-5.36,2.86-3.31,0-6.06-1.67-6.06-4.84,0-5.4,6.27-5.71,10.27-5.71h1.04v-.49c0-2.37-1.5-3.59-4.04-3.59-1.74,0-3.55.59-4.84,1.78l-1.71-1.78Zm7.87,6.37c-3.45,0-5.67.94-5.67,3.13,0,2.05,1.53,2.82,3.59,2.82,3.13,0,4.73-2.26,4.8-4.91v-1.04h-2.71Z"></path><path class="e" d="m598.69,303.94h2.71v2.37h.07c1.5-1.74,3.48-2.79,5.85-2.79,5.12,0,8.56,3.62,8.56,8.57s-3.59,8.57-8.15,8.57c-2.92,0-5.26-1.46-6.27-3.31h-.07v10.83h-2.71v-24.24Zm8.49,14.21c3.52,0,5.78-2.65,5.78-6.06s-2.26-6.06-5.78-6.06-5.78,2.65-5.78,6.06,2.26,6.06,5.78,6.06Z"></path><path class="e" d="m627.48,303.52c5.01,0,8.7,3.48,8.7,8.57s-3.69,8.57-8.7,8.57-8.7-3.48-8.7-8.57,3.69-8.57,8.7-8.57Zm0,14.63c3.52,0,5.78-2.65,5.78-6.06s-2.26-6.06-5.78-6.06-5.78,2.65-5.78,6.06,2.26,6.06,5.78,6.06Z"></path><path class="e" d="m640.01,307.81c0-1.5-.14-2.79-.14-3.87h2.58c0,.87.07,1.78.07,2.68h.07c.73-1.6,2.75-3.1,5.43-3.1.35,0,.73.04,1.12.18l-.17,2.75c-.45-.14-.98-.21-1.46-.21-3.31,0-4.77,2.33-4.77,6.06v7.94h-2.71v-12.43Z"></path><path class="e" d="m666.43,317.28c-1.91,2.47-4.21,3.38-7.24,3.38-5.12,0-8.25-3.83-8.25-8.57,0-5.05,3.55-8.57,8.35-8.57s7.73,3.13,7.73,8.53v.87h-13.16c.21,2.82,2.37,5.22,5.33,5.22,2.33,0,3.9-.84,5.19-2.47l2.05,1.6Zm-2.33-6.65c-.1-2.75-1.91-4.6-4.91-4.6s-4.98,1.85-5.33,4.6h10.23Z"></path><path class="e" d="m672.77,325.05h-2.68l2.37-8.36h3.17l-2.85,8.36Z"></path><path class="e" d="m689.93,295.58h4.35l8.35,19.33h.07l8.42-19.33h4.25v24.66h-2.92v-20.69h-.07l-8.84,20.69h-1.78l-8.84-20.69h-.07v20.69h-2.92v-24.66Z"></path><path class="e" d="m720.43,306.03c1.67-1.71,4.11-2.51,6.48-2.51,4.8,0,6.82,2.3,6.82,6.9v7c0,.94.1,1.98.24,2.82h-2.61c-.17-.73-.17-1.74-.17-2.44h-.07c-1.08,1.67-2.89,2.86-5.36,2.86-3.31,0-6.06-1.67-6.06-4.84,0-5.4,6.27-5.71,10.27-5.71h1.04v-.49c0-2.37-1.5-3.59-4.04-3.59-1.74,0-3.55.59-4.84,1.78l-1.71-1.78Zm7.87,6.37c-3.45,0-5.67.94-5.67,3.13,0,2.05,1.53,2.82,3.59,2.82,3.13,0,4.73-2.26,4.8-4.91v-1.04h-2.71Z"></path><path class="e" d="m738.57,293.91h2.71v26.33h-2.71v-26.33Z"></path><path class="e" d="m746.09,306.03c1.67-1.71,4.11-2.51,6.48-2.51,4.8,0,6.82,2.3,6.82,6.9v7c0,.94.1,1.98.24,2.82h-2.61c-.17-.73-.17-1.74-.17-2.44h-.07c-1.08,1.67-2.89,2.86-5.36,2.86-3.31,0-6.06-1.67-6.06-4.84,0-5.4,6.27-5.71,10.27-5.71h1.04v-.49c0-2.37-1.5-3.59-4.04-3.59-1.74,0-3.55.59-4.84,1.78l-1.71-1.78Zm7.87,6.37c-3.45,0-5.67.94-5.67,3.13,0,2.05,1.53,2.82,3.59,2.82,3.13,0,4.73-2.26,4.8-4.91v-1.04h-2.71Z"></path><path class="e" d="m769.97,323.97c-1.08,2.75-2.16,4.63-5.43,4.63-.77,0-1.71-.07-2.44-.42l.35-2.37c.56.21,1.15.28,1.91.28,1.78,0,2.44-1.08,3.03-2.68l1.11-3.06-6.75-16.4h3.17l5.05,12.78h.07l4.84-12.78h2.96l-7.87,20.03Z"></path><path class="e" d="m780.73,315.96c1.08,1.32,2.26,2.19,4.18,2.19,1.71,0,3.59-.73,3.59-2.51s-1.74-2.19-3.48-2.58c-3.1-.7-5.74-1.36-5.74-4.74,0-3.17,3.06-4.81,6.09-4.81,2.3,0,4.42.87,5.53,2.96l-2.26,1.5c-.7-1.15-1.85-1.95-3.45-1.95-1.5,0-3.2.73-3.2,2.26,0,1.36,1.95,1.95,4.11,2.37,2.89.56,5.33,1.6,5.33,4.88,0,3.69-3.27,5.12-6.51,5.12-2.75,0-4.73-.73-6.34-3.03l2.16-1.67Z"></path><path class="e" d="m796.43,295.58c1.11,0,1.98.9,1.98,1.98,0,1.15-.84,1.99-1.98,1.99s-1.98-.84-1.98-1.99c0-1.08.87-1.98,1.98-1.98Zm-1.36,8.36h2.71v16.3h-2.71v-16.3Z"></path><path class="e" d="m802.59,306.03c1.67-1.71,4.11-2.51,6.48-2.51,4.8,0,6.82,2.3,6.82,6.9v7c0,.94.1,1.98.24,2.82h-2.61c-.17-.73-.17-1.74-.17-2.44h-.07c-1.08,1.67-2.89,2.86-5.36,2.86-3.31,0-6.06-1.67-6.06-4.84,0-5.4,6.27-5.71,10.27-5.71h1.04v-.49c0-2.37-1.5-3.59-4.04-3.59-1.74,0-3.55.59-4.84,1.78l-1.71-1.78Zm7.87,6.37c-3.45,0-5.67.94-5.67,3.13,0,2.05,1.53,2.82,3.59,2.82,3.13,0,4.73-2.26,4.8-4.91v-1.04h-2.71Z"></path><path class="e" d="m822.4,325.05h-2.68l2.37-8.36h3.17l-2.85,8.36Z"></path></g><g><rect class="d" y="383.5" width="825.61" height="62.3"></rect><g><g><path class="c" d="m210.02,433.71c-2.01-.88-3.6-2.13-4.75-3.75-1.15-1.62-1.73-3.5-1.73-5.66h6.58c.14,1.62.78,2.95,1.92,3.99,1.13,1.04,2.72,1.56,4.77,1.56s3.78-.51,4.96-1.54,1.78-2.34,1.78-3.96c0-1.26-.37-2.28-1.11-3.07-.74-.79-1.65-1.4-2.75-1.83-1.1-.43-2.62-.9-4.56-1.4-2.45-.65-4.43-1.3-5.96-1.97-1.53-.66-2.83-1.7-3.91-3.1s-1.62-3.27-1.62-5.6c0-2.16.54-4.04,1.62-5.66,1.08-1.62,2.59-2.86,4.53-3.72,1.94-.86,4.19-1.29,6.74-1.29,3.63,0,6.61.91,8.93,2.72,2.32,1.81,3.61,4.3,3.86,7.46h-6.8c-.11-1.37-.76-2.53-1.94-3.5-1.19-.97-2.75-1.46-4.69-1.46-1.76,0-3.2.45-4.32,1.35-1.12.9-1.67,2.19-1.67,3.88,0,1.15.35,2.09,1.05,2.83.7.74,1.59,1.32,2.67,1.75,1.08.43,2.55.9,4.42,1.4,2.48.68,4.51,1.37,6.07,2.05,1.56.68,2.89,1.73,3.99,3.15,1.1,1.42,1.65,3.31,1.65,5.69,0,1.9-.51,3.7-1.54,5.39s-2.52,3.04-4.48,4.07c-1.96,1.02-4.27,1.54-6.93,1.54-2.52,0-4.78-.44-6.8-1.32Z"></path><path class="c" d="m258.31,397.2v37.45h-6.15v-37.45h6.15Z"></path><path class="c" d="m312.31,434.66h-6.15l-18.51-27.97v27.97h-6.15v-37.51h6.15l18.51,27.92v-27.92h6.15v37.51Z"></path><path class="c" d="m336.03,405.99c1.71-2.91,4.03-5.18,6.96-6.82,2.93-1.63,6.14-2.45,9.63-2.45,3.99,0,7.54.98,10.66,2.94,3.11,1.96,5.37,4.73,6.77,8.33h-7.39c-.97-1.98-2.32-3.45-4.05-4.42-1.73-.97-3.72-1.45-5.99-1.45-2.48,0-4.69.56-6.64,1.67-1.94,1.11-3.46,2.71-4.56,4.8-1.1,2.08-1.65,4.51-1.65,7.28s.55,5.19,1.65,7.28c1.1,2.08,2.62,3.69,4.56,4.82,1.94,1.13,4.15,1.7,6.64,1.7,2.27,0,4.26-.48,5.99-1.45,1.73-.97,3.08-2.44,4.05-4.42h7.39c-1.4,3.59-3.66,6.36-6.77,8.3-3.11,1.94-6.66,2.91-10.66,2.91-3.53,0-6.74-.82-9.66-2.45-2.91-1.63-5.22-3.91-6.93-6.82-1.71-2.91-2.56-6.2-2.56-9.86s.85-6.95,2.56-9.86Z"></path><path class="c" d="m398.48,402.16v10.99h12.95v5.01h-12.95v11.48h14.57v5.01h-20.72v-37.51h20.72v5.01h-14.57Z"></path><path class="c" d="m467.43,426.3c3.45-2.98,6.18-5.43,8.17-7.36,2-1.92,3.66-3.92,4.99-6.01s2-4.17,2-6.25-.51-3.84-1.54-5.06c-1.02-1.22-2.64-1.83-4.83-1.83s-3.77.67-4.94,2.02c-1.17,1.35-1.79,3.15-1.86,5.42h-5.93c.11-4.1,1.34-7.23,3.7-9.4,2.36-2.17,5.35-3.26,8.98-3.26,3.92,0,6.99,1.08,9.2,3.23s3.32,5.03,3.32,8.62c0,2.59-.66,5.07-1.97,7.46-1.31,2.39-2.88,4.53-4.69,6.41s-4.13,4.07-6.93,6.55l-2.43,2.16h17.1v5.12h-26.22v-4.47l3.89-3.34Z"></path><path class="c" d="m513.43,399.92c2.1-3.5,5.73-5.25,10.87-5.25s8.77,1.75,10.87,5.25,3.16,8.36,3.16,14.58-1.05,11.2-3.16,14.74c-2.1,3.54-5.73,5.31-10.87,5.31s-8.77-1.77-10.87-5.31c-2.1-3.54-3.16-8.45-3.16-14.74s1.05-11.07,3.16-14.58Zm18.29,7.19c-.38-2.01-1.14-3.66-2.29-4.93-1.15-1.27-2.86-1.91-5.13-1.91s-3.97.64-5.13,1.91c-1.15,1.28-1.92,2.92-2.29,4.93-.38,2.01-.57,4.47-.57,7.38s.18,5.55.54,7.6c.36,2.05,1.12,3.7,2.29,4.96s2.89,1.89,5.15,1.89,3.98-.63,5.15-1.89,1.93-2.91,2.29-4.96c.36-2.05.54-4.58.54-7.6s-.19-5.37-.57-7.38Z"></path><path class="c" d="m559.15,400.98v-5.6h11.22v39.29h-6.2v-33.68h-5.02Z"></path><path class="c" d="m619.31,400.65h-18.07v10.72c.75-1.01,1.88-1.85,3.37-2.53,1.49-.68,3.08-1.02,4.77-1.02,3.02,0,5.48.65,7.36,1.94,1.89,1.29,3.24,2.93,4.05,4.9.81,1.98,1.21,4.06,1.21,6.25,0,2.66-.51,5.02-1.54,7.09-1.02,2.07-2.55,3.69-4.59,4.88-2.03,1.19-4.52,1.78-7.47,1.78-3.92,0-7.07-.97-9.44-2.91s-3.79-4.51-4.26-7.71h5.99c.39,1.69,1.28,3.03,2.64,4.01,1.37.99,3.08,1.48,5.13,1.48,2.55,0,4.47-.77,5.75-2.32,1.28-1.54,1.92-3.59,1.92-6.14s-.65-4.57-1.94-5.95-3.2-2.07-5.72-2.07c-1.76,0-3.25.44-4.45,1.32-1.21.88-2.08,2.07-2.62,3.58h-5.83v-22.69h23.74v5.39Z"></path></g><g><ellipse class="c" cx="164.39" cy="414.65" rx="6.9" ry="6.89"></ellipse><ellipse class="c" cx="661.22" cy="414.65" rx="6.9" ry="6.89"></ellipse></g></g></g></svg> 